<?xml version="1.0" encoding="us-ascii" standalone="no"?><svg xmlns="http://www.w3.org/2000/svg" xmlns:xlink="http://www.w3.org/1999/xlink" contentStyleType="text/css" height="981px" preserveAspectRatio="none" style="width:1244px;height:981px;" version="1.1" viewBox="0 0 1244 981" width="1244px" zoomAndPan="magnify"><defs/><g><text fill="#888888" font-family="sans-serif" font-size="10" lengthAdjust="spacing" textLength="70" x="1160.3512" y="9.2822">Components</text><text fill="#000000" font-family="sans-serif" font-size="14" font-weight="bold" lengthAdjust="spacing" textLength="101" x="564.6756" y="35.6357">Components</text><!--cluster Kubernetes--><g id="cluster_Kubernetes"><path d="M67.6782,107.8386 C92.598,74.1698 118.177,78.3175 137.9417,113.1279 C157.171,74.0703 195.9269,77.2649 216.9478,111.1884 C242.1827,69.4125 269.5435,63.4615 299.2671,106.8496 C322.6147,63.9742 357.9922,65.8373 379.9557,108.1604 C394.8696,66.3934 430.1699,60.8824 454.656,99.2358 C485.2307,63.4965 511.0844,64.8369 533.8915,107.1238 C561.986,64.9603 589.0387,71.0146 618.1423,106.0222 C637.3321,66.6241 667.166,57.8338 695.1497,97.4518 C719.4336,65.1983 749.9911,55.9375 773.5512,98.2131 C806.3339,57.7371 839.4214,65.0153 864.0688,107.1293 C885.3244,78.8106 919.2381,82.4387 935.7031,112.9613 C962.5212,69.0191 992.2073,72.8195 1024.4652,106.7617 C1046.3803,73.5356 1076.7376,71.9289 1099.7822,105.4879 C1122.8081,74.2133 1159.0874,71.9679 1178.7369,109.3697 C1186.8804,105.9758 1191.9442,109.8779 1190.8193,118.607 C1225.0143,138.7046 1222.8941,172.7648 1186.0389,187.9654 C1224.4623,212.6648 1237.3512,246.2879 1193.4597,277.7878 C1225.777,301.678 1221.1572,328.5456 1190.7967,350.1285 C1225.5605,374.5145 1225.7505,404.2629 1187.1334,425.0615 C1225.8197,448.1391 1233.2135,482.23 1191.7377,509.6699 C1222.0071,533.2364 1219.784,553.1745 1188.6256,573.7581 C1222.7676,594.9663 1235.0298,629.1294 1192.1948,653.7714 C1226.0301,687.9466 1217.8666,721.2428 1171.7369,735.3697 C1179.5724,732.8722 1183.3462,735.4153 1182.8186,743.8484 C1157.9121,783.173 1119.5011,778.0692 1101.9801,736.4705 C1085.9324,783.9992 1045.012,789.0762 1017.8066,746.9456 C990.7787,787.2158 962.1996,791.5134 934.8342,747.277 C911.3322,786.7618 877.4302,784.3111 853.0181,748.2629 C828.8417,780.471 806.8854,783.3777 783.4497,747.506 C757.4299,783.0245 732.4052,795.9585 700.7316,753.5037 C676.2439,785.0997 648.1052,785.2861 626.2571,750.5405 C592.9758,789.2612 561.792,795.0215 533.613,745.2018 C514.2762,783.2221 477.7035,780.5351 460.0997,743.5043 C434.1195,784.8098 406.9694,782.2298 382.7414,741.8451 C360.2799,780.855 335.3702,784.7316 306.337,748.5202 C278.8116,790.5015 242.0805,795.183 214.2997,748.7862 C189.3107,786.8147 159.6079,782.3041 135.0226,748.3416 C102.1132,778.3219 63.361,770.3782 46.7369,728.3697 C50.6641,723.6335 54.3135,724.5134 57.4295,729.2822 C26.3689,707.381 25.3919,684.1703 56.7127,661.6083 C21.832,639.1908 13.5962,610.5301 51.208,583.034 C7.4374,560.3308 18.0694,527.8897 49.506,503.5756 C19.9309,485.6 18.2346,450.2809 48.0881,431.1419 C9.7346,403.4145 20.2468,372.6545 58.5457,355.5284 C14.7113,330.8974 15.7034,300.5446 57.036,274.33 C17.4446,249.2151 21.2605,218.9848 59.5015,196.3302 C6,169.7189 13.1759,134.7518 53.7369,102.3697 C59.8068,97.3966 67.0467,98.9483 67.6782,107.8386 " fill="none" style="stroke:#181818;stroke-width:1.0;"/><text fill="#000000" font-family="sans-serif" font-size="14" font-weight="bold" lengthAdjust="spacing" textLength="91" x="567.2369" y="120.3648">Kubernetes</text></g><!--cluster Layer 5 (interaction)--><g id="cluster_Layer 5 (interaction)"><path d="M65.2369,241.3697 L234.2369,241.3697 A3.75,3.75 0 0 1 236.7369,243.8697 L243.7369,263.6666 L494.2369,263.6666 A2.5,2.5 0 0 1 496.7369,266.1666 L496.7369,402.8697 A2.5,2.5 0 0 1 494.2369,405.3697 L65.2369,405.3697 A2.5,2.5 0 0 1 62.7369,402.8697 L62.7369,243.8697 A2.5,2.5 0 0 1 65.2369,241.3697 " fill="none" style="stroke:#000000;stroke-width:1.5;"/><line style="stroke:#000000;stroke-width:1.5;" x1="62.7369" x2="243.7369" y1="263.6666" y2="263.6666"/><text fill="#000000" font-family="sans-serif" font-size="14" font-weight="bold" lengthAdjust="spacing" textLength="168" x="66.7369" y="256.3648">Layer 5 (interaction)</text></g><!--cluster React Container 1--><g id="cluster_React Container 1"><path d="M89.2369,284.3697 L236.2369,284.3697 A3.75,3.75 0 0 1 238.7369,286.8697 L245.7369,306.6666 L258.2369,306.6666 A2.5,2.5 0 0 1 260.7369,309.1666 L260.7369,378.8697 A2.5,2.5 0 0 1 258.2369,381.3697 L89.2369,381.3697 A2.5,2.5 0 0 1 86.7369,378.8697 L86.7369,286.8697 A2.5,2.5 0 0 1 89.2369,284.3697 " fill="none" style="stroke:#000000;stroke-width:1.5;"/><line style="stroke:#000000;stroke-width:1.5;" x1="86.7369" x2="245.7369" y1="306.6666" y2="306.6666"/><text fill="#000000" font-family="sans-serif" font-size="14" font-weight="bold" lengthAdjust="spacing" textLength="146" x="90.7369" y="299.3648">React Container 1</text></g><!--cluster React Container 2--><g id="cluster_React Container 2"><path d="M287.2369,284.3697 L434.2369,284.3697 A3.75,3.75 0 0 1 436.7369,286.8697 L443.7369,306.6666 L470.2369,306.6666 A2.5,2.5 0 0 1 472.7369,309.1666 L472.7369,378.8697 A2.5,2.5 0 0 1 470.2369,381.3697 L287.2369,381.3697 A2.5,2.5 0 0 1 284.7369,378.8697 L284.7369,286.8697 A2.5,2.5 0 0 1 287.2369,284.3697 " fill="none" style="stroke:#000000;stroke-width:1.5;"/><line style="stroke:#000000;stroke-width:1.5;" x1="284.7369" x2="443.7369" y1="306.6666" y2="306.6666"/><text fill="#000000" font-family="sans-serif" font-size="14" font-weight="bold" lengthAdjust="spacing" textLength="146" x="288.7369" y="299.3648">React Container 2</text></g><!--cluster Layer 4 (Logic)--><g id="cluster_Layer 4 (Logic)"><path d="M523.2369,240.3697 L644.2369,240.3697 A3.75,3.75 0 0 1 646.7369,242.8697 L653.7369,262.6666 L1160.2369,262.6666 A2.5,2.5 0 0 1 1162.7369,265.1666 L1162.7369,716.8697 A2.5,2.5 0 0 1 1160.2369,719.3697 L523.2369,719.3697 A2.5,2.5 0 0 1 520.7369,716.8697 L520.7369,242.8697 A2.5,2.5 0 0 1 523.2369,240.3697 " fill="none" style="stroke:#000000;stroke-width:1.5;"/><line style="stroke:#000000;stroke-width:1.5;" x1="520.7369" x2="653.7369" y1="262.6666" y2="262.6666"/><text fill="#000000" font-family="sans-serif" font-size="14" font-weight="bold" lengthAdjust="spacing" textLength="120" x="524.7369" y="255.3648">Layer 4 (Logic)</text></g><!--cluster NGINX Container--><g id="cluster_NGINX Container"><path d="M578.2369,283.3697 L713.2369,283.3697 A3.75,3.75 0 0 1 715.7369,285.8697 L722.7369,305.6666 L723.2369,305.6666 A2.5,2.5 0 0 1 725.7369,308.1666 L725.7369,379.8697 A2.5,2.5 0 0 1 723.2369,382.3697 L578.2369,382.3697 A2.5,2.5 0 0 1 575.7369,379.8697 L575.7369,285.8697 A2.5,2.5 0 0 1 578.2369,283.3697 " fill="none" style="stroke:#000000;stroke-width:1.5;"/><line style="stroke:#000000;stroke-width:1.5;" x1="575.7369" x2="722.7369" y1="305.6666" y2="305.6666"/><text fill="#000000" font-family="sans-serif" font-size="14" font-weight="bold" lengthAdjust="spacing" textLength="134" x="579.7369" y="298.3648">NGINX Container</text></g><!--cluster Gateway Container--><g id="cluster_Gateway Container"><path d="M547.2369,454.3697 L703.2369,454.3697 A3.75,3.75 0 0 1 705.7369,456.8697 L712.7369,476.6666 L773.2369,476.6666 A2.5,2.5 0 0 1 775.7369,479.1666 L775.7369,692.8697 A2.5,2.5 0 0 1 773.2369,695.3697 L547.2369,695.3697 A2.5,2.5 0 0 1 544.7369,692.8697 L544.7369,456.8697 A2.5,2.5 0 0 1 547.2369,454.3697 " fill="none" style="stroke:#000000;stroke-width:1.5;"/><line style="stroke:#000000;stroke-width:1.5;" x1="544.7369" x2="712.7369" y1="476.6666" y2="476.6666"/><text fill="#000000" font-family="sans-serif" font-size="14" font-weight="bold" lengthAdjust="spacing" textLength="155" x="548.7369" y="469.3648">Gateway Container</text></g><!--cluster RedisContainer--><g id="cluster_RedisContainer"><path d="M802.2369,598.3697 L926.2369,598.3697 A3.75,3.75 0 0 1 928.7369,600.8697 L935.7369,620.6666 L936.2369,620.6666 A2.5,2.5 0 0 1 938.7369,623.1666 L938.7369,692.8697 A2.5,2.5 0 0 1 936.2369,695.3697 L802.2369,695.3697 A2.5,2.5 0 0 1 799.7369,692.8697 L799.7369,600.8697 A2.5,2.5 0 0 1 802.2369,598.3697 " fill="none" style="stroke:#000000;stroke-width:1.5;"/><line style="stroke:#000000;stroke-width:1.5;" x1="799.7369" x2="935.7369" y1="620.6666" y2="620.6666"/><text fill="#000000" font-family="sans-serif" font-size="14" font-weight="bold" lengthAdjust="spacing" textLength="123" x="803.7369" y="613.3648">RedisContainer</text></g><!--cluster MongoDB Container--><g id="cluster_MongoDB Container"><path d="M965.2369,598.8697 L1126.2369,598.8697 A3.75,3.75 0 0 1 1128.7369,601.3697 L1135.7369,621.1666 L1136.2369,621.1666 A2.5,2.5 0 0 1 1138.7369,623.6666 L1138.7369,692.3697 A2.5,2.5 0 0 1 1136.2369,694.8697 L965.2369,694.8697 A2.5,2.5 0 0 1 962.7369,692.3697 L962.7369,601.3697 A2.5,2.5 0 0 1 965.2369,598.8697 " fill="none" style="stroke:#000000;stroke-width:1.5;"/><line style="stroke:#000000;stroke-width:1.5;" x1="962.7369" x2="1135.7369" y1="621.1666" y2="621.1666"/><text fill="#000000" font-family="sans-serif" font-size="14" font-weight="bold" lengthAdjust="spacing" textLength="160" x="966.7369" y="613.8648">MongoDB Container</text></g><!--cluster Layer 1 (data)--><g id="cluster_Layer 1 (data)"><path d="M565.2369,792.3697 L681.2369,792.3697 A3.75,3.75 0 0 1 683.7369,794.8697 L690.7369,814.6666 L880.2369,814.6666 A2.5,2.5 0 0 1 882.7369,817.1666 L882.7369,952.8697 A2.5,2.5 0 0 1 880.2369,955.3697 L565.2369,955.3697 A2.5,2.5 0 0 1 562.7369,952.8697 L562.7369,794.8697 A2.5,2.5 0 0 1 565.2369,792.3697 " fill="none" style="stroke:#000000;stroke-width:1.5;"/><line style="stroke:#000000;stroke-width:1.5;" x1="562.7369" x2="690.7369" y1="814.6666" y2="814.6666"/><text fill="#000000" font-family="sans-serif" font-size="14" font-weight="bold" lengthAdjust="spacing" textLength="115" x="566.7369" y="807.3648">Layer 1 (data)</text></g><!--cluster Database Service--><g id="cluster_Database Service"><path d="M595.8116,844.7773 C601.9363,836.4714 607.8324,836.0809 614.414,844.2618 C617.8117,836.0907 625.0831,831.9721 632.0706,840.4561 C636.1899,828.9275 646.0492,828.8418 652.201,838.5275 C657.5713,830.3164 664.3728,827.8206 670.8596,837.3535 C675.0211,827.89 682.7064,828.0128 688.998,835.0057 C693.824,827.0586 700.3328,827.152 704.9022,835.2599 C710.3584,825.6263 717.3031,823.5672 725.3853,832.3372 C730.0536,825.5434 738.5536,825.5157 742.5651,833.1209 C749.1693,826.0859 755.709,827.71 759.6011,836.1136 C765.8398,826.9757 774.6945,827.0241 779.5066,837.5572 C787.1275,828.3646 793.4751,830.9758 798.9378,839.8752 C803.7988,833.4685 809.8511,832.8455 814.5005,840.116 C822.6074,831.5175 831.9619,832.7941 835.6628,844.67 C840.489,836.1621 846.3339,836.495 852.0481,843.7468 C861.3683,850.2651 860.8577,856.1973 852.8224,863.3994 C865.9132,868.5923 865.1804,879.547 854.6372,886.5895 C862.5828,892.8213 860.9162,899.1476 852.8069,903.6578 C865.2716,909.2145 864.7479,919.6534 854.1297,926.5444 C848.8598,936.5757 840.5493,935.774 834.5941,927.2664 C828.4886,936.2746 820.3495,935.4708 814.5891,926.8743 C810.2444,934.1719 802.273,936.3196 797.7103,927.097 C792.7338,937.1939 786.0868,935.5533 779.9392,928.2962 C775.2018,939.3918 768.2683,941.0365 760.1719,931.517 C755.4953,939.3147 747.6658,938.9041 743.6322,930.8462 C738.0468,940.0847 732.1842,940.02 724.6263,933.1776 C718.8524,941.1057 709.7649,941.1208 705.6132,931.4274 C700.0759,939.6578 691.6615,939.0599 688.2468,929.3703 C683.0663,938.6394 676.449,938.5543 670.5769,930.058 C663.4173,938.2109 655.9899,937.3845 650.1673,928.4602 C644.4787,936.5039 638.6005,935.3198 634.1813,927.2045 C627.1286,937.2958 618.6052,936.4066 613.7985,925.0683 C608.0229,932.4469 600.8915,933.678 596.3448,923.8237 C587.1913,920.5706 584.6424,912.0428 593.2833,905.7719 C580.6021,902.6415 581.0316,893.1057 588.2952,885.1508 C577.8024,877.6111 580.9356,868.0758 591.2759,863.3898 C583.9976,856.139 585.1149,847.6477 595.8116,844.7773 " fill="none" style="stroke:#181818;stroke-width:1.0;"/><text fill="#000000" font-family="sans-serif" font-size="14" font-weight="bold" lengthAdjust="spacing" textLength="140" x="652.7369" y="861.3648">Database Service</text></g><!--entity ingress--><g id="elem_ingress"><path d="M358.2369,133.3697 L358.2369,157.3697 M358.2369,145.3697 L375.2369,145.3697 " fill="none" style="stroke:#181818;stroke-width:0.5;"/><ellipse cx="387.2369" cy="145.3697" fill="#F1F1F1" rx="12" ry="12" style="stroke:#181818;stroke-width:0.5;"/><text fill="#000000" font-family="sans-serif" font-size="14" lengthAdjust="spacing" textLength="51" x="353.2369" y="174.3648">ingress</text></g><!--entity ui--><g id="elem_ui"><rect fill="#F1F1F1" height="46.2969" rx="2.5" ry="2.5" style="stroke:#181818;stroke-width:0.5;" width="141" x="103.2369" y="319.3697"/><rect fill="#F1F1F1" height="10" style="stroke:#181818;stroke-width:0.5;" width="15" x="224.2369" y="324.3697"/><rect fill="#F1F1F1" height="2" style="stroke:#181818;stroke-width:0.5;" width="4" x="222.2369" y="326.3697"/><rect fill="#F1F1F1" height="2" style="stroke:#181818;stroke-width:0.5;" width="4" x="222.2369" y="330.3697"/><text fill="#000000" font-family="sans-serif" font-size="14" lengthAdjust="spacing" textLength="101" x="118.2369" y="352.3648">User Interface</text></g><!--entity admin--><g id="elem_admin"><rect fill="#F1F1F1" height="46.2969" rx="2.5" ry="2.5" style="stroke:#181818;stroke-width:0.5;" width="156" x="300.7369" y="319.3697"/><rect fill="#F1F1F1" height="10" style="stroke:#181818;stroke-width:0.5;" width="15" x="436.7369" y="324.3697"/><rect fill="#F1F1F1" height="2" style="stroke:#181818;stroke-width:0.5;" width="4" x="434.7369" y="326.3697"/><rect fill="#F1F1F1" height="2" style="stroke:#181818;stroke-width:0.5;" width="4" x="434.7369" y="330.3697"/><text fill="#000000" font-family="sans-serif" font-size="14" lengthAdjust="spacing" textLength="116" x="315.7369" y="352.3648">Admin Interface</text></g><!--entity Nginx--><g id="elem_Nginx"><path d="M611.2369,322.3697 L611.2369,346.3697 M611.2369,334.3697 L628.2369,334.3697 " fill="none" style="stroke:#181818;stroke-width:0.5;"/><ellipse cx="640.2369" cy="334.3697" fill="#F1F1F1" rx="12" ry="12" style="stroke:#181818;stroke-width:0.5;"/><text fill="#000000" font-family="sans-serif" font-size="14" lengthAdjust="spacing" textLength="40" x="611.7369" y="363.3648">Nginx</text></g><!--entity Plugins--><g id="elem_Plugins"><rect fill="#F1F1F1" height="46.2969" rx="2.5" ry="2.5" style="stroke:#181818;stroke-width:0.5;" width="90" x="560.7369" y="633.3697"/><rect fill="#F1F1F1" height="10" style="stroke:#181818;stroke-width:0.5;" width="15" x="630.7369" y="638.3697"/><rect fill="#F1F1F1" height="2" style="stroke:#181818;stroke-width:0.5;" width="4" x="628.7369" y="640.3697"/><rect fill="#F1F1F1" height="2" style="stroke:#181818;stroke-width:0.5;" width="4" x="628.7369" y="644.3697"/><text fill="#000000" font-family="sans-serif" font-size="14" lengthAdjust="spacing" textLength="50" x="575.7369" y="666.3648">Plugins</text></g><!--entity Gateway--><g id="elem_Gateway"><rect fill="#F1F1F1" height="46.2969" rx="2.5" ry="2.5" style="stroke:#181818;stroke-width:0.5;" width="102" x="657.7369" y="489.3697"/><rect fill="#F1F1F1" height="10" style="stroke:#181818;stroke-width:0.5;" width="15" x="739.7369" y="494.3697"/><rect fill="#F1F1F1" height="2" style="stroke:#181818;stroke-width:0.5;" width="4" x="737.7369" y="496.3697"/><rect fill="#F1F1F1" height="2" style="stroke:#181818;stroke-width:0.5;" width="4" x="737.7369" y="500.3697"/><text fill="#000000" font-family="sans-serif" font-size="14" lengthAdjust="spacing" textLength="62" x="672.7369" y="522.3648">Gateway</text></g><!--entity ORM--><g id="elem_ORM"><rect fill="#F1F1F1" height="46.2969" rx="2.5" ry="2.5" style="stroke:#181818;stroke-width:0.5;" width="73" x="686.2369" y="633.3697"/><rect fill="#F1F1F1" height="10" style="stroke:#181818;stroke-width:0.5;" width="15" x="739.2369" y="638.3697"/><rect fill="#F1F1F1" height="2" style="stroke:#181818;stroke-width:0.5;" width="4" x="737.2369" y="640.3697"/><rect fill="#F1F1F1" height="2" style="stroke:#181818;stroke-width:0.5;" width="4" x="737.2369" y="644.3697"/><text fill="#000000" font-family="sans-serif" font-size="14" lengthAdjust="spacing" textLength="33" x="701.2369" y="666.3648">ORM</text></g><!--entity Redis--><g id="elem_Redis"><rect fill="#F1F1F1" height="46.2969" rx="2.5" ry="2.5" style="stroke:#181818;stroke-width:0.5;" width="79" x="816.2369" y="633.3697"/><rect fill="#F1F1F1" height="10" style="stroke:#181818;stroke-width:0.5;" width="15" x="875.2369" y="638.3697"/><rect fill="#F1F1F1" height="2" style="stroke:#181818;stroke-width:0.5;" width="4" x="873.2369" y="640.3697"/><rect fill="#F1F1F1" height="2" style="stroke:#181818;stroke-width:0.5;" width="4" x="873.2369" y="644.3697"/><text fill="#000000" font-family="sans-serif" font-size="14" lengthAdjust="spacing" textLength="39" x="831.2369" y="666.3648">Redis</text></g><!--entity MognoDB--><g id="elem_MognoDB"><path d="M979.2369,643.8697 C979.2369,633.8697 1025.7369,633.8697 1025.7369,633.8697 C1025.7369,633.8697 1072.2369,633.8697 1072.2369,643.8697 L1072.2369,669.1666 C1072.2369,679.1666 1025.7369,679.1666 1025.7369,679.1666 C1025.7369,679.1666 979.2369,679.1666 979.2369,669.1666 L979.2369,643.8697 " fill="#F1F1F1" style="stroke:#181818;stroke-width:0.5;"/><path d="M979.2369,643.8697 C979.2369,653.8697 1025.7369,653.8697 1025.7369,653.8697 C1025.7369,653.8697 1072.2369,653.8697 1072.2369,643.8697 " fill="none" style="stroke:#181818;stroke-width:0.5;"/><text fill="#000000" font-family="sans-serif" font-size="14" lengthAdjust="spacing" textLength="69" x="989.2369" y="670.8648">MongoDB</text></g><!--entity db--><g id="elem_db"><path d="M602.7369,880.3697 C602.7369,870.3697 722.7369,870.3697 722.7369,870.3697 C722.7369,870.3697 842.7369,870.3697 842.7369,880.3697 L842.7369,905.6666 C842.7369,915.6666 722.7369,915.6666 722.7369,915.6666 C722.7369,915.6666 602.7369,915.6666 602.7369,905.6666 L602.7369,880.3697 " fill="#F1F1F1" style="stroke:#181818;stroke-width:0.5;"/><path d="M602.7369,880.3697 C602.7369,890.3697 722.7369,890.3697 722.7369,890.3697 C722.7369,890.3697 842.7369,890.3697 842.7369,880.3697 " fill="none" style="stroke:#181818;stroke-width:0.5;"/><text fill="#000000" font-family="sans-serif" font-size="14" lengthAdjust="spacing" textLength="220" x="612.7369" y="907.3648">Postgress/MsSQL/MySql/Oracle</text></g><!--link ingress to ui--><g id="link_ingress_ui"><path d="M349.2589,178.7497 C338.4009,187.7377 326.0039,198.0097 314.7369,207.3697 C301.3869,218.4607 297.6059,220.7237 284.7369,232.3697 C254.4469,259.7797 221.2019,292.8487 199.0679,315.3227 " fill="none" id="ingress-ui" style="stroke:#181818;stroke-width:1.0;stroke-dasharray:7.0,7.0;"/><polygon fill="#181818" points="353.1849,175.4997,343.7016,178.1579,349.3335,178.6882,348.8033,184.3202,353.1849,175.4997" style="stroke:#181818;stroke-width:1.0;"/><polygon fill="#181818" points="195.3399,319.1137,204.502,315.5003,198.8453,315.5483,198.7973,309.8916,195.3399,319.1137" style="stroke:#181818;stroke-width:1.0;"/><text fill="#000000" font-family="sans-serif" font-size="13" lengthAdjust="spacing" textLength="54" x="315.7369" y="220.4366">Exposes</text></g><!--link ingress to admin--><g id="link_ingress_admin"><path d="M378.7369,182.9957 C378.7369,218.5497 378.7369,278.7837 378.7369,313.8277 " fill="none" id="ingress-admin" style="stroke:#181818;stroke-width:1.0;stroke-dasharray:7.0,7.0;"/><polygon fill="#181818" points="378.7369,177.6757,374.7369,186.6757,378.7369,182.6757,382.7369,186.6757,378.7369,177.6757" style="stroke:#181818;stroke-width:1.0;"/><polygon fill="#181818" points="378.7369,319.2277,382.7369,310.2277,378.7369,314.2277,374.7369,310.2277,378.7369,319.2277" style="stroke:#181818;stroke-width:1.0;"/><text fill="#000000" font-family="sans-serif" font-size="13" lengthAdjust="spacing" textLength="54" x="379.7369" y="220.4366">Exposes</text></g><!--link ingress to Nginx--><g id="link_ingress_Nginx"><path d="M408.5219,176.3847 C457.5229,212.6027 554.5179,284.2947 602.8949,320.0517 " fill="none" id="ingress-Nginx" style="stroke:#181818;stroke-width:1.0;stroke-dasharray:7.0,7.0;"/><polygon fill="#181818" points="404.3879,173.3297,409.2492,181.8952,408.4093,176.301,414.0034,175.4611,404.3879,173.3297" style="stroke:#181818;stroke-width:1.0;"/><polygon fill="#181818" points="607.1389,323.1887,602.2796,314.6221,603.1183,320.2164,597.524,321.0551,607.1389,323.1887" style="stroke:#181818;stroke-width:1.0;"/><text fill="#000000" font-family="sans-serif" font-size="13" lengthAdjust="spacing" textLength="54" x="469.7369" y="220.4366">Exposes</text></g><!--link Nginx to Gateway--><g id="link_Nginx_Gateway"><path d="M644.4439,371.0937 C658.8289,402.4787 682.1089,453.2737 696.3579,484.3607 " fill="none" id="Nginx-Gateway" style="stroke:#181818;stroke-width:1.0;stroke-dasharray:7.0,7.0;"/><polygon fill="#181818" points="642.2819,366.3767,642.3957,376.2249,644.3653,370.922,649.6682,372.8916,642.2819,366.3767" style="stroke:#181818;stroke-width:1.0;"/><polygon fill="#181818" points="698.5639,489.1747,698.4488,479.3265,696.48,484.6297,691.1768,482.6608,698.5639,489.1747" style="stroke:#181818;stroke-width:1.0;"/><text fill="#000000" font-family="sans-serif" font-size="13" lengthAdjust="spacing" textLength="32" x="676.7369" y="434.4366">Runs</text></g><!--link Gateway to Plugins--><g id="link_Gateway_Plugins"><path d="M657.6519,538.4417 C646.7889,545.8127 636.3239,554.7947 628.7369,565.3697 C615.5899,583.6957 609.9429,608.8587 607.5249,627.9187 " fill="none" id="Gateway-Plugins" style="stroke:#181818;stroke-width:1.0;stroke-dasharray:7.0,7.0;"/><polygon fill="#181818" points="661.9929,535.5917,652.2742,537.1873,657.8132,538.3358,656.6647,543.8748,661.9929,535.5917" style="stroke:#181818;stroke-width:1.0;"/><polygon fill="#181818" points="606.9259,633.1227,611.9307,624.6402,607.4988,628.1556,603.9834,623.7237,606.9259,633.1227" style="stroke:#181818;stroke-width:1.0;"/><text fill="#000000" font-family="sans-serif" font-size="13" lengthAdjust="spacing" textLength="76" x="629.7369" y="578.4366">Implements</text></g><!--link Gateway to MognoDB--><g id="link_Gateway_MognoDB"><path d="M760.1199,530.3687 C801.7149,544.7187 861.4439,566.6697 911.7369,590.3697 C937.3269,602.4287 964.9119,618.0817 986.5369,631.0047 " fill="none" id="Gateway-to-MognoDB" style="stroke:#181818;stroke-width:1.0;stroke-dasharray:7.0,7.0;"/><polygon fill="#181818" points="991.0579,633.7187,985.4012,625.6563,986.7713,631.1447,981.2829,632.5148,991.0579,633.7187" style="stroke:#181818;stroke-width:1.0;"/><text fill="#000000" font-family="sans-serif" font-size="13" lengthAdjust="spacing" textLength="35" x="890.7369" y="578.4366">Index</text></g><!--link Gateway to Redis--><g id="link_Gateway_Redis"><path d="M731.7059,535.5577 C758.1349,561.0877 801.4609,602.9397 829.2789,629.8117 " fill="none" id="Gateway-to-Redis" style="stroke:#181818;stroke-width:1.0;stroke-dasharray:7.0,7.0;"/><polygon fill="#181818" points="832.9299,633.3377,829.2371,624.2074,829.3342,629.8634,823.6782,629.9605,832.9299,633.3377" style="stroke:#181818;stroke-width:1.0;"/><text fill="#000000" font-family="sans-serif" font-size="13" lengthAdjust="spacing" textLength="40" x="779.7369" y="578.4366">Cache</text></g><!--link Gateway to ORM--><g id="link_Gateway_ORM"><path d="M710.9249,535.5577 C713.3899,560.5667 717.3999,601.2377 720.0529,628.1477 " fill="none" id="Gateway-to-ORM" style="stroke:#181818;stroke-width:1.0;stroke-dasharray:7.0,7.0;"/><polygon fill="#181818" points="720.5649,633.3377,723.6636,623.989,720.0749,628.3618,715.7021,624.773,720.5649,633.3377" style="stroke:#181818;stroke-width:1.0;"/><text fill="#000000" font-family="sans-serif" font-size="13" lengthAdjust="spacing" textLength="34" x="716.7369" y="578.4366">Store</text></g><!--link ORM to db--><g id="link_ORM_db"><path d="M722.7369,679.4307 C722.7369,722.5757 722.7369,817.9917 722.7369,864.8427 " fill="none" id="ORM-to-db" style="stroke:#181818;stroke-width:1.0;stroke-dasharray:7.0,7.0;"/><polygon fill="#181818" points="722.7369,870.0377,726.7369,861.0377,722.7369,865.0377,718.7369,861.0377,722.7369,870.0377" style="stroke:#181818;stroke-width:1.0;"/><text fill="#000000" font-family="sans-serif" font-size="13" lengthAdjust="spacing" textLength="43" x="723.7369" y="772.4366">Persist</text></g><text fill="#888888" font-family="sans-serif" font-size="10" lengthAdjust="spacing" textLength="180" x="525.1756" y="970.6519">Common Gateway | Components</text><!--SRC=[TLDBQzmm4BxhLmm-RIvPKjgBAOKsAM7fUhFPfH08EOpjYIDYIuuaDxka_UyTpyguDit9u-ynceSKTAWfXKlRjDQG2LuzMXl82THO0zSOw1MFyFjVpHDX6JK3fFopDYqwR237uhbojZFbfQsjW-3GUAPOfrHHsww4v4UNapCKo2TlIkMz6DqH4cqgHzudW1vYh5JB2R4YIDPu90UVOA4DruX5qDQS9V0sAdR4ADTb0ch3sekUXVkVdkDLRth4WXwWJzzfzKUzx_nmSduj6stcLkn1ThD_Njn7MAnjfOjfMPlhrUPkJ2wfnwOtbJO7QLcYILd3_AVU-stTiTG_zAOOCnh5WiQOqPjT9WX_PnsNsi_o2YPgYQOTPjPKzkhRh9OI0-Re2KQ1z9BPol3FQKp_cTG5B7gh32hUYgiXrPxSBrrGCas_jJx8bLXcVd-xNcR7_KkzlE6BK9CSMUQdq-BDWS_dvrzupobyFxJMavyIiiLtE5d4oCaldAWus1Hs7Gzzs8zGSHCfh9gsfaOUnY3e-JWIvar9Xmabu-ONXSKJJGZUMWhxO1qf3a6mCazXIyvh7_u2]--></g></svg>