<?xml version="1.0" encoding="us-ascii" standalone="no"?><svg xmlns="http://www.w3.org/2000/svg" xmlns:xlink="http://www.w3.org/1999/xlink" contentStyleType="text/css" height="1216px" preserveAspectRatio="none" style="width:2353px;height:1216px;background:#FFFFFF;" version="1.1" viewBox="0 0 2353 1216" width="2353px" zoomAndPan="magnify"><defs/><g><text fill="#888888" font-family="sans-serif" font-size="10" lengthAdjust="spacing" textLength="70" x="2269.028" y="9.2822">Components</text><text fill="#000000" font-family="sans-serif" font-size="14" font-weight="bold" lengthAdjust="spacing" textLength="137" x="1101.014" y="35.6357">Huwelijksplanner</text><!--cluster Azure--><g id="cluster_Azure"><path d="M2243.1233,841.9019 C2246.0721,835.8532 2251.9426,835.9236 2255.057,841.7354 C2258.7845,835.8854 2263.555,836.4162 2267.5651,841.4094 C2270.1153,835.5027 2275.8879,834.92 2279.2859,840.548 C2281.5155,834.3732 2286.5435,834.3198 2290.3009,838.9973 C2294.1951,834.6604 2300.3541,834.4276 2302.3207,841.1015 C2305.564,836.1789 2310.1547,835.015 2314.0544,840.3507 C2317.757,836.0335 2322.981,835.8901 2324.9977,842.1028 C2329.1349,836.8656 2332.752,835.7653 2336.7389,842.2533 C2342.131,845.9972 2343.025,851.5131 2337.0042,855.4858 C2345.2411,858.6053 2346.028,865.0812 2338.9138,870.1938 C2345.1496,873.7344 2345.9902,878.7509 2339.6678,883.0292 C2345.3044,888.4032 2344.663,893.7298 2337.7647,897.4496 C2342.9034,901.752 2342.7287,905.4674 2337.7538,909.7607 C2345.1523,914.3169 2343.8052,919.5101 2337.3164,923.6282 C2333.2209,928.9225 2328.6592,929.698 2324.9097,923.2623 C2321.9298,930.088 2316.6204,929.9745 2312.612,924.2719 C2309.5394,930.5471 2305.5582,931.362 2301.1933,925.4863 C2298.1275,929.763 2293.8886,929.5042 2291.0843,925.1789 C2286.9657,931.2937 2281.0534,930.1155 2278.7186,923.4525 C2275.5991,929.0919 2269.9562,931.0876 2265.6211,924.7858 C2261.6476,929.5988 2258.3537,930.3962 2254.8538,924.3175 C2250.7171,929.0806 2246.9221,928.6671 2243.2513,923.7586 C2235.2045,921.2044 2234.9004,915.544 2240.3029,910.0889 C2232.6173,906.742 2230.9944,902.2134 2236.9821,895.7089 C2230.5918,893.5241 2228.7546,887.6043 2234.7609,883.2155 C2229.1789,877.7103 2230.1177,873.6857 2237.0386,870.4033 C2231.2421,863.9315 2232.2944,857.4071 2241.2761,855.0011 C2234.8242,849.4467 2235.2834,845.441 2243.1233,841.9019 " fill="none" style="stroke:#181818;stroke-width:1.0;"/><text fill="#000000" font-family="sans-serif" font-size="14" font-weight="bold" lengthAdjust="spacing" textLength="46" x="2266.085" y="859.4326">Azure</text></g><!--cluster Netwerk--><g id="cluster_Netwerk"><path d="M449.838,1074.9071 C454.707,1063.4548 464.5781,1061.5759 472.9484,1071.0382 C481.3779,1058.6394 494.11,1059.4799 500.2346,1073.4255 C507.1926,1063.0611 514.1169,1063.8683 521.9412,1072.432 C529.6109,1060.4048 536.6633,1059.7728 544.7366,1072.0536 C549.7547,1059.2941 561.0247,1056.9884 569.4621,1068.582 C577.5326,1055.2865 588.0945,1057.5918 595.8374,1068.9328 C602.4138,1058.5304 610.6595,1057.3844 617.4115,1068.7589 C623.5444,1058.638 635.2197,1057.7309 641.4548,1068.642 C649.8159,1055.8986 661.5149,1054.9441 669.1846,1069.3483 C674.4374,1059.8561 684.1106,1060.302 689.7008,1068.9671 C699.3469,1056.7829 708.1192,1055.2892 716.6073,1070.1205 C723.4323,1059.9629 733.281,1062.9262 738.031,1072.3865 C745.0211,1062.4983 753.1382,1060.2177 761.3222,1071.0441 C773.4687,1056.9673 787.5847,1063.2144 792.085,1078.9375 C793.9859,1076.8852 795.5245,1077.5011 796.4255,1079.9103 C817.1,1090.68 817.1751,1107.3791 796.9864,1118.739 C816.208,1137.0971 808.1696,1157.4782 785.085,1164.9375 C787.1596,1165.6759 787.4686,1167.3566 785.8343,1168.8122 C777.7851,1180 769.5466,1180.445 762.3703,1167.9475 C756.9892,1180.7221 750.0718,1180.4966 740.9352,1171.6749 C735.0455,1184.6713 724.1406,1183.3746 716.9115,1173.0549 C710.5974,1183.649 698.949,1185.3048 693.0964,1172.5836 C685.9189,1188.6456 676.4522,1189.318 665.0143,1176.7646 C657.8437,1185.7457 647.7162,1185.9053 642.9949,1174.1623 C637.9014,1188.6349 626.8731,1188.8185 617.6563,1178.3514 C609.4444,1188.5777 599.0243,1187.0813 592.5586,1176.2683 C583.9245,1187.413 576.0186,1186.924 569.6495,1174.1031 C560.8045,1184.73 553.3694,1184.9799 546.0183,1172.5707 C537.6145,1184.1007 528.5069,1182.541 522.6786,1170.0666 C515.7531,1184.1278 504.9718,1182.7916 497.3775,1170.7139 C490.548,1179.0085 479.9619,1180.764 475.2167,1168.4705 C460.2206,1180.5606 447.0877,1174.9901 441.085,1157.9375 C442.6446,1156.7433 444.0372,1157.2084 444.5017,1159.136 C422.5983,1152.7853 417.5839,1133.5656 436.7449,1119.2324 C420.2737,1098.4309 424.6091,1083.1607 448.085,1071.9375 C449.8767,1071.9522 450.9932,1073.1527 449.838,1074.9071 " fill="none" style="stroke:#181818;stroke-width:1.0;"/><text fill="#000000" font-family="sans-serif" font-size="14" font-weight="bold" lengthAdjust="spacing" textLength="66" x="583.585" y="1089.9326">Netwerk</text></g><!--cluster Internet--><g id="cluster_Internet"><path d="M840.63,1072.3381 C843.2311,1066.462 848.7531,1065.7217 852.3543,1071.3158 C856.0866,1063.0688 861.1616,1063.3 866.514,1069.7554 C868.3697,1062.4042 874.5179,1061.366 879.2723,1066.881 C884.4258,1060.4563 891.1103,1062.2849 893.0477,1070.0116 C897.441,1064.0596 901.9063,1065.1943 905.2494,1071.0929 C914.1724,1065.3707 922.8212,1066.2693 924.085,1078.9375 C925.6138,1078.7802 926.4775,1079.1608 926.1833,1080.9266 C931.6393,1085.3541 932.3799,1089.1679 926.189,1093.6006 C933.0115,1096.0999 933.5886,1102.0828 928.2056,1106.4915 C935.4118,1110.3495 936.0334,1114.9452 929.6763,1120.2527 C935.4697,1124.8675 934.1863,1131.1791 927.4442,1133.7155 C933.0093,1137.9777 933.3569,1142.7147 926.6154,1146.157 C931.2073,1156.2581 928.0254,1162.7185 917.085,1164.9375 C918.0405,1164.3071 918.9347,1164.3035 919.1858,1165.6762 C917.051,1172.6601 910.7776,1173.6416 905.7598,1169.0083 C902.8799,1174.8169 896.9856,1175.0375 893.2449,1170.0017 C891.1076,1178.8366 884.153,1179.0889 878.4046,1173.7946 C873.6125,1177.7122 868.1609,1177.013 867.0608,1169.9726 C862.2731,1176.1121 856.756,1175.4893 854.1586,1167.9124 C843.0701,1177.5127 832.847,1171.1889 832.085,1157.9375 C832.7422,1158.2839 832.829,1158.8163 832.1625,1159.2413 C825.2063,1156.2665 824.8168,1151.1111 830.6897,1146.6371 C822.6033,1144.3008 819.5838,1139.1598 826.0736,1132.1719 C818.9799,1129.8191 817.8549,1123.7926 823.2365,1118.7942 C817.8276,1112.133 819.5065,1107.9967 827.3209,1105.354 C823.0495,1101.2484 823.267,1096.3683 829.2823,1094.0471 C821.343,1083.429 827.1315,1073.7358 839.085,1071.9375 C839.7515,1071.3485 840.3252,1071.5316 840.63,1072.3381 " fill="none" style="stroke:#181818;stroke-width:1.0;"/><text fill="#000000" font-family="sans-serif" font-size="14" font-weight="bold" lengthAdjust="spacing" textLength="66" x="845.085" y="1089.9326">Internet</text></g><!--cluster (Hardend) Kubernetes Namespace--><g id="cluster_(Hardend) Kubernetes Namespace"><path d="M110.6507,360.7115 C161.3236,278.8263 209.9639,285.3917 267.7253,353.2773 C307.5716,289.7548 355.3837,269.6202 409.6797,337.6897 C462.9747,261.3238 513.4333,263.7089 560.5869,343.6201 C603.8047,280.4182 661.1583,276.188 709.1586,337.9333 C757.489,276.0153 820.9381,275.1933 857.957,350.2235 C895.8994,274.7891 961.7181,264.0417 1011.716,337.799 C1068.5817,267.2921 1122.4486,291.5512 1159.9931,358.6227 C1205.9081,283.5543 1270.9199,273.7684 1316.6275,358.8255 C1351.573,275.3447 1400.4567,275.3574 1457.2816,337.7255 C1513.1793,268.8126 1564.4661,268.4154 1618.4894,339.878 C1649.5656,279.9214 1713.8732,270.2032 1747.9717,336.7855 C1800.645,263.4251 1876.4564,263.7656 1915.246,351.2263 C1964.5464,292.0279 2009.2249,289.0015 2057.0033,352.9779 C2097.5341,276.5088 2153.2893,280.5041 2202.085,344.4375 C2207.3181,342.6824 2212.2406,344.8876 2210.7699,351.4432 C2286.633,401.6409 2274.1032,451.4861 2210.1016,501.059 C2292.6526,555.8452 2290.514,610.3259 2217.5956,671.9306 C2288.5371,716.9532 2299.906,774.3221 2218.8516,820.6285 C2279.1554,877.0647 2268.1452,935.159 2195.085,970.4375 C2207.4821,963.6288 2216.5425,969.0315 2217.4267,982.8858 C2169.219,1071.4022 2104.8761,1066.4458 2047.2108,992.8138 C1993.5131,1052.2726 1953.5234,1048.795 1920.7657,973.2075 C1880.9,1065.1341 1804.7227,1054.6022 1751.8905,986.9275 C1713.1232,1044.9105 1658.1294,1045.4004 1617.3874,989.2548 C1579.6157,1069.2204 1502.0347,1069.8336 1459.6422,993.9312 C1410.6448,1060.8329 1362.2746,1069.8104 1313.83,993.3689 C1260.5541,1080.1524 1191.1972,1069.0704 1145.5904,985.7825 C1104.7719,1060.2501 1044.0172,1056.678 1006.7156,982.4968 C971.6436,1047.2595 911.5647,1054.4421 867.5835,992.2613 C815.0569,1065.8708 762.214,1073.9491 712.625,989.3834 C672.8958,1067.6039 593.6055,1065.7899 553.8957,989.3634 C505.244,1062.2913 450.4066,1037.6199 413.0643,977.4013 C377.2936,1048.4418 308.3574,1054.8845 263.5149,987.1795 C206.0277,1061.7262 123.8535,1055.8024 89.085,963.4375 C92.6437,965.3715 93.1982,968.8291 89.5785,971.2184 C23.6497,926.3228 22.084,851.7067 92.8196,809.551 C24.6875,771.877 26.5021,712.5097 90.8746,672.949 C7.1686,627.2804 15.0672,560.185 92.8922,516.601 C11.4117,455.817 6,395.1641 96.085,337.4375 C111.7958,338.3514 116.9315,346.0344 110.6507,360.7115 " fill="none" style="stroke:#181818;stroke-width:1.0;"/><text fill="#000000" font-family="sans-serif" font-size="14" font-weight="bold" lengthAdjust="spacing" textLength="273" x="1009.085" y="355.4326">(Hardend) Kubernetes Namespace</text></g><!--cluster Layer 5 (interaction)--><g id="cluster_Layer 5 (interaction)"><path d="M107.585,476.4375 L276.585,476.4375 A3.75,3.75 0 0 1 279.085,478.9375 L286.085,498.7344 L536.585,498.7344 A2.5,2.5 0 0 1 539.085,501.2344 L539.085,637.9375 A2.5,2.5 0 0 1 536.585,640.4375 L107.585,640.4375 A2.5,2.5 0 0 1 105.085,637.9375 L105.085,478.9375 A2.5,2.5 0 0 1 107.585,476.4375 " fill="none" style="stroke:#000000;stroke-width:1.5;"/><line style="stroke:#000000;stroke-width:1.5;" x1="105.085" x2="286.085" y1="498.7344" y2="498.7344"/><text fill="#000000" font-family="sans-serif" font-size="14" font-weight="bold" lengthAdjust="spacing" textLength="168" x="109.085" y="491.4326">Layer 5 (interaction)</text></g><!--cluster React Container 1--><g id="cluster_React Container 1"><path d="M131.585,519.4375 L278.585,519.4375 A3.75,3.75 0 0 1 281.085,521.9375 L288.085,541.7344 L300.585,541.7344 A2.5,2.5 0 0 1 303.085,544.2344 L303.085,613.9375 A2.5,2.5 0 0 1 300.585,616.4375 L131.585,616.4375 A2.5,2.5 0 0 1 129.085,613.9375 L129.085,521.9375 A2.5,2.5 0 0 1 131.585,519.4375 " fill="none" style="stroke:#000000;stroke-width:1.5;"/><line style="stroke:#000000;stroke-width:1.5;" x1="129.085" x2="288.085" y1="541.7344" y2="541.7344"/><text fill="#000000" font-family="sans-serif" font-size="14" font-weight="bold" lengthAdjust="spacing" textLength="146" x="133.085" y="534.4326">React Container 1</text></g><!--cluster React Container 2--><g id="cluster_React Container 2"><path d="M329.585,519.4375 L476.585,519.4375 A3.75,3.75 0 0 1 479.085,521.9375 L486.085,541.7344 L512.585,541.7344 A2.5,2.5 0 0 1 515.085,544.2344 L515.085,613.9375 A2.5,2.5 0 0 1 512.585,616.4375 L329.585,616.4375 A2.5,2.5 0 0 1 327.085,613.9375 L327.085,521.9375 A2.5,2.5 0 0 1 329.585,519.4375 " fill="none" style="stroke:#000000;stroke-width:1.5;"/><line style="stroke:#000000;stroke-width:1.5;" x1="327.085" x2="486.085" y1="541.7344" y2="541.7344"/><text fill="#000000" font-family="sans-serif" font-size="14" font-weight="bold" lengthAdjust="spacing" textLength="146" x="331.085" y="534.4326">React Container 2</text></g><!--cluster Layer 4 (Logic)--><g id="cluster_Layer 4 (Logic)"><path d="M565.585,475.4375 L686.585,475.4375 A3.75,3.75 0 0 1 689.085,477.9375 L696.085,497.7344 L1986.585,497.7344 A2.5,2.5 0 0 1 1989.085,500.2344 L1989.085,951.9375 A2.5,2.5 0 0 1 1986.585,954.4375 L565.585,954.4375 A2.5,2.5 0 0 1 563.085,951.9375 L563.085,477.9375 A2.5,2.5 0 0 1 565.585,475.4375 " fill="none" style="stroke:#000000;stroke-width:1.5;"/><line style="stroke:#000000;stroke-width:1.5;" x1="563.085" x2="696.085" y1="497.7344" y2="497.7344"/><text fill="#000000" font-family="sans-serif" font-size="14" font-weight="bold" lengthAdjust="spacing" textLength="120" x="567.085" y="490.4326">Layer 4 (Logic)</text></g><!--cluster NGINX Container--><g id="cluster_NGINX Container"><path d="M811.585,518.4375 L946.585,518.4375 A3.75,3.75 0 0 1 949.085,520.9375 L956.085,540.7344 L956.585,540.7344 A2.5,2.5 0 0 1 959.085,543.2344 L959.085,614.9375 A2.5,2.5 0 0 1 956.585,617.4375 L811.585,617.4375 A2.5,2.5 0 0 1 809.085,614.9375 L809.085,520.9375 A2.5,2.5 0 0 1 811.585,518.4375 " fill="none" style="stroke:#000000;stroke-width:1.5;"/><line style="stroke:#000000;stroke-width:1.5;" x1="809.085" x2="956.085" y1="540.7344" y2="540.7344"/><text fill="#000000" font-family="sans-serif" font-size="14" font-weight="bold" lengthAdjust="spacing" textLength="134" x="813.085" y="533.4326">NGINX Container</text></g><!--cluster Symfony Framework--><g id="cluster_Symfony Framework"><path d="M589.585,689.4375 L754.585,689.4375 A3.75,3.75 0 0 1 757.085,691.9375 L764.085,711.7344 L1599.585,711.7344 A2.5,2.5 0 0 1 1602.085,714.2344 L1602.085,927.9375 A2.5,2.5 0 0 1 1599.585,930.4375 L589.585,930.4375 A2.5,2.5 0 0 1 587.085,927.9375 L587.085,691.9375 A2.5,2.5 0 0 1 589.585,689.4375 " fill="none" style="stroke:#000000;stroke-width:1.5;"/><line style="stroke:#000000;stroke-width:1.5;" x1="587.085" x2="764.085" y1="711.7344" y2="711.7344"/><text fill="#000000" font-family="sans-serif" font-size="14" font-weight="bold" lengthAdjust="spacing" textLength="164" x="591.085" y="704.4326">Symfony Framework</text></g><!--cluster RedisContainer--><g id="cluster_RedisContainer"><path d="M1628.585,833.4375 L1752.585,833.4375 A3.75,3.75 0 0 1 1755.085,835.9375 L1762.085,855.7344 L1762.585,855.7344 A2.5,2.5 0 0 1 1765.085,858.2344 L1765.085,927.9375 A2.5,2.5 0 0 1 1762.585,930.4375 L1628.585,930.4375 A2.5,2.5 0 0 1 1626.085,927.9375 L1626.085,835.9375 A2.5,2.5 0 0 1 1628.585,833.4375 " fill="none" style="stroke:#000000;stroke-width:1.5;"/><line style="stroke:#000000;stroke-width:1.5;" x1="1626.085" x2="1762.085" y1="855.7344" y2="855.7344"/><text fill="#000000" font-family="sans-serif" font-size="14" font-weight="bold" lengthAdjust="spacing" textLength="123" x="1630.085" y="848.4326">RedisContainer</text></g><!--cluster MongoDB Container--><g id="cluster_MongoDB Container"><path d="M1791.585,833.9375 L1952.585,833.9375 A3.75,3.75 0 0 1 1955.085,836.4375 L1962.085,856.2344 L1962.585,856.2344 A2.5,2.5 0 0 1 1965.085,858.7344 L1965.085,927.4375 A2.5,2.5 0 0 1 1962.585,929.9375 L1791.585,929.9375 A2.5,2.5 0 0 1 1789.085,927.4375 L1789.085,836.4375 A2.5,2.5 0 0 1 1791.585,833.9375 " fill="none" style="stroke:#000000;stroke-width:1.5;"/><line style="stroke:#000000;stroke-width:1.5;" x1="1789.085" x2="1962.085" y1="856.2344" y2="856.2344"/><text fill="#000000" font-family="sans-serif" font-size="14" font-weight="bold" lengthAdjust="spacing" textLength="160" x="1793.085" y="848.9326">MongoDB Container</text></g><!--cluster Layer 1 (data)--><g id="cluster_Layer 1 (data)"><path d="M1391.585,1027.4375 L1507.585,1027.4375 A3.75,3.75 0 0 1 1510.085,1029.9375 L1517.085,1049.7344 L1706.585,1049.7344 A2.5,2.5 0 0 1 1709.085,1052.2344 L1709.085,1187.9375 A2.5,2.5 0 0 1 1706.585,1190.4375 L1391.585,1190.4375 A2.5,2.5 0 0 1 1389.085,1187.9375 L1389.085,1029.9375 A2.5,2.5 0 0 1 1391.585,1027.4375 " fill="none" style="stroke:#000000;stroke-width:1.5;"/><line style="stroke:#000000;stroke-width:1.5;" x1="1389.085" x2="1517.085" y1="1049.7344" y2="1049.7344"/><text fill="#000000" font-family="sans-serif" font-size="14" font-weight="bold" lengthAdjust="spacing" textLength="115" x="1393.085" y="1042.4326">Layer 1 (data)</text></g><!--cluster Database Service--><g id="cluster_Database Service"><path d="M1422.1596,1079.8451 C1428.2843,1071.5392 1434.1805,1071.1487 1440.762,1079.3296 C1444.1598,1071.1585 1451.4312,1067.0399 1458.4187,1075.5239 C1462.5379,1063.9953 1472.3972,1063.9096 1478.549,1073.5953 C1483.9193,1065.3842 1490.7209,1062.8884 1497.2076,1072.4213 C1501.3691,1062.9578 1509.0545,1063.0807 1515.346,1070.0735 C1520.172,1062.1265 1526.6808,1062.2198 1531.2502,1070.3277 C1536.7064,1060.6941 1543.6511,1058.635 1551.7333,1067.405 C1556.4017,1060.6112 1564.9016,1060.5835 1568.9131,1068.1887 C1575.5174,1061.1537 1582.057,1062.7778 1585.9491,1071.1815 C1592.1879,1062.0435 1601.0425,1062.0919 1605.8547,1072.625 C1613.4756,1063.4324 1619.8231,1066.0436 1625.2858,1074.943 C1630.1468,1068.5363 1636.1991,1067.9133 1640.8485,1075.1838 C1648.9554,1066.5853 1658.3099,1067.862 1662.0108,1079.7379 C1666.837,1071.2299 1672.6819,1071.5628 1678.3961,1078.8146 C1687.7164,1085.333 1687.2057,1091.2651 1679.1704,1098.4672 C1692.2612,1103.6601 1691.5284,1114.6148 1680.9853,1121.6573 C1688.9308,1127.8891 1687.2643,1134.2155 1679.1549,1138.7256 C1691.6196,1144.2824 1691.096,1154.7212 1680.4778,1161.6122 C1675.2078,1171.6435 1666.8973,1170.8418 1660.9421,1162.3343 C1654.8366,1171.3424 1646.6975,1170.5386 1640.9371,1161.9421 C1636.5924,1169.2397 1628.621,1171.3874 1624.0583,1162.1648 C1619.0819,1172.2617 1612.4348,1170.6211 1606.2872,1163.364 C1601.5498,1174.4596 1594.6163,1176.1043 1586.5199,1166.5848 C1581.8433,1174.3825 1574.0138,1173.9719 1569.9802,1165.914 C1564.3949,1175.1525 1558.5322,1175.0878 1550.9743,1168.2454 C1545.2005,1176.1735 1536.113,1176.1886 1531.9613,1166.4952 C1526.424,1174.7256 1518.0095,1174.1277 1514.5949,1164.4381 C1509.4143,1173.7072 1502.7971,1173.6221 1496.925,1165.1258 C1489.7654,1173.2787 1482.338,1172.4523 1476.5153,1163.528 C1470.8268,1171.5717 1464.9486,1170.3876 1460.5293,1162.2723 C1453.4766,1172.3636 1444.9532,1171.4744 1440.1465,1160.1361 C1434.3709,1167.5147 1427.2395,1168.7458 1422.6928,1158.8915 C1413.5393,1155.6384 1410.9904,1147.1106 1419.6314,1140.8397 C1406.9501,1137.7093 1407.3796,1128.1735 1414.6433,1120.2186 C1404.1505,1112.679 1407.2836,1103.1436 1417.624,1098.4576 C1410.3456,1091.2068 1411.4629,1082.7155 1422.1596,1079.8451 " fill="none" style="stroke:#181818;stroke-width:1.0;"/><text fill="#000000" font-family="sans-serif" font-size="14" font-weight="bold" lengthAdjust="spacing" textLength="140" x="1479.085" y="1096.4326">Database Service</text></g><!--entity identity--><g id="elem_identity"><rect fill="#F1F1F1" height="46.2969" rx="2.5" ry="2.5" style="stroke:#181818;stroke-width:0.5;" width="78" x="2250.085" y="868.4375"/><rect fill="#F1F1F1" height="10" style="stroke:#181818;stroke-width:0.5;" width="15" x="2308.085" y="873.4375"/><rect fill="#F1F1F1" height="2" style="stroke:#181818;stroke-width:0.5;" width="4" x="2306.085" y="875.4375"/><rect fill="#F1F1F1" height="2" style="stroke:#181818;stroke-width:0.5;" width="4" x="2306.085" y="879.4375"/><text fill="#000000" font-family="sans-serif" font-size="14" lengthAdjust="spacing" textLength="38" x="2265.085" y="901.4326">ADFS</text></g><!--entity brp--><g id="elem_brp"><ellipse cx="523.085" cy="1127.9375" fill="#F1F1F1" rx="8" ry="8" style="stroke:#181818;stroke-width:0.5;"/><text fill="#000000" font-family="sans-serif" font-size="14" lengthAdjust="spacing" textLength="132" x="457.085" y="1157.9326">BRP (HC 1.4 / Stuf)</text></g><!--entity factuur--><g id="elem_factuur"><ellipse cx="708.085" cy="1127.9375" fill="#F1F1F1" rx="8" ry="8" style="stroke:#181818;stroke-width:0.5;"/><text fill="#000000" font-family="sans-serif" font-size="14" lengthAdjust="spacing" textLength="137" x="639.585" y="1157.9326">Facturatie (NLCIUS)</text></g><!--entity betalen--><g id="elem_betalen"><ellipse cx="878.085" cy="1127.9375" fill="#F1F1F1" rx="8" ry="8" style="stroke:#181818;stroke-width:0.5;"/><text fill="#000000" font-family="sans-serif" font-size="14" lengthAdjust="spacing" textLength="61" x="847.585" y="1157.9326">Ingenico</text></g><!--entity ingress--><g id="elem_ingress"><path d="M400.585,368.4375 L400.585,392.4375 M400.585,380.4375 L417.585,380.4375 " fill="none" style="stroke:#181818;stroke-width:0.5;"/><ellipse cx="429.585" cy="380.4375" fill="#F1F1F1" rx="12" ry="12" style="stroke:#181818;stroke-width:0.5;"/><text fill="#000000" font-family="sans-serif" font-size="14" lengthAdjust="spacing" textLength="51" x="395.585" y="409.4326">ingress</text></g><!--entity loki--><g id="elem_loki"><path d="M2005.085,878.9375 C2005.085,868.9375 2028.085,868.9375 2028.085,868.9375 C2028.085,868.9375 2051.085,868.9375 2051.085,878.9375 L2051.085,904.2344 C2051.085,914.2344 2028.085,914.2344 2028.085,914.2344 C2028.085,914.2344 2005.085,914.2344 2005.085,904.2344 L2005.085,878.9375 " fill="#F1F1F1" style="stroke:#181818;stroke-width:0.5;"/><path d="M2005.085,878.9375 C2005.085,888.9375 2028.085,888.9375 2028.085,888.9375 C2028.085,888.9375 2051.085,888.9375 2051.085,878.9375 " fill="none" style="stroke:#181818;stroke-width:0.5;"/><text fill="#000000" font-family="sans-serif" font-size="14" lengthAdjust="spacing" textLength="26" x="2015.085" y="905.9326">loki</text></g><!--entity prometheus--><g id="elem_prometheus"><path d="M2086.085,878.9375 C2086.085,868.9375 2140.085,868.9375 2140.085,868.9375 C2140.085,868.9375 2194.085,868.9375 2194.085,878.9375 L2194.085,904.2344 C2194.085,914.2344 2140.085,914.2344 2140.085,914.2344 C2140.085,914.2344 2086.085,914.2344 2086.085,904.2344 L2086.085,878.9375 " fill="#F1F1F1" style="stroke:#181818;stroke-width:0.5;"/><path d="M2086.085,878.9375 C2086.085,888.9375 2140.085,888.9375 2140.085,888.9375 C2140.085,888.9375 2194.085,888.9375 2194.085,878.9375 " fill="none" style="stroke:#181818;stroke-width:0.5;"/><text fill="#000000" font-family="sans-serif" font-size="14" lengthAdjust="spacing" textLength="88" x="2096.085" y="905.9326">prometheus</text></g><!--entity ui--><g id="elem_ui"><rect fill="#F1F1F1" height="46.2969" rx="2.5" ry="2.5" style="stroke:#181818;stroke-width:0.5;" width="141" x="145.585" y="554.4375"/><rect fill="#F1F1F1" height="10" style="stroke:#181818;stroke-width:0.5;" width="15" x="266.585" y="559.4375"/><rect fill="#F1F1F1" height="2" style="stroke:#181818;stroke-width:0.5;" width="4" x="264.585" y="561.4375"/><rect fill="#F1F1F1" height="2" style="stroke:#181818;stroke-width:0.5;" width="4" x="264.585" y="565.4375"/><text fill="#000000" font-family="sans-serif" font-size="14" lengthAdjust="spacing" textLength="101" x="160.585" y="587.4326">User Interface</text></g><!--entity admin--><g id="elem_admin"><rect fill="#F1F1F1" height="46.2969" rx="2.5" ry="2.5" style="stroke:#181818;stroke-width:0.5;" width="156" x="343.085" y="554.4375"/><rect fill="#F1F1F1" height="10" style="stroke:#181818;stroke-width:0.5;" width="15" x="479.085" y="559.4375"/><rect fill="#F1F1F1" height="2" style="stroke:#181818;stroke-width:0.5;" width="4" x="477.085" y="561.4375"/><rect fill="#F1F1F1" height="2" style="stroke:#181818;stroke-width:0.5;" width="4" x="477.085" y="565.4375"/><text fill="#000000" font-family="sans-serif" font-size="14" lengthAdjust="spacing" textLength="116" x="358.085" y="587.4326">Admin Interface</text></g><!--entity Nginx--><g id="elem_Nginx"><path d="M863.585,557.4375 L863.585,581.4375 M863.585,569.4375 L880.585,569.4375 " fill="none" style="stroke:#181818;stroke-width:0.5;"/><ellipse cx="892.585" cy="569.4375" fill="#F1F1F1" rx="12" ry="12" style="stroke:#181818;stroke-width:0.5;"/><text fill="#000000" font-family="sans-serif" font-size="14" lengthAdjust="spacing" textLength="40" x="864.085" y="598.4326">Nginx</text></g><!--entity hp--><g id="elem_hp"><rect fill="#F1F1F1" height="46.2969" rx="2.5" ry="2.5" style="stroke:#181818;stroke-width:0.5;" width="209" x="603.585" y="868.4375"/><rect fill="#F1F1F1" height="10" style="stroke:#181818;stroke-width:0.5;" width="15" x="792.585" y="873.4375"/><rect fill="#F1F1F1" height="2" style="stroke:#181818;stroke-width:0.5;" width="4" x="790.585" y="875.4375"/><rect fill="#F1F1F1" height="2" style="stroke:#181818;stroke-width:0.5;" width="4" x="790.585" y="879.4375"/><text fill="#000000" font-family="sans-serif" font-size="14" lengthAdjust="spacing" textLength="169" x="618.585" y="901.4326">Huwlijksplanner Service</text></g><!--entity agenda--><g id="elem_agenda"><rect fill="#F1F1F1" height="46.2969" rx="2.5" ry="2.5" style="stroke:#181818;stroke-width:0.5;" width="184" x="848.085" y="868.4375"/><rect fill="#F1F1F1" height="10" style="stroke:#181818;stroke-width:0.5;" width="15" x="1012.085" y="873.4375"/><rect fill="#F1F1F1" height="2" style="stroke:#181818;stroke-width:0.5;" width="4" x="1010.085" y="875.4375"/><rect fill="#F1F1F1" height="2" style="stroke:#181818;stroke-width:0.5;" width="4" x="1010.085" y="879.4375"/><text fill="#000000" font-family="sans-serif" font-size="14" lengthAdjust="spacing" textLength="144" x="863.085" y="901.4326">Agenda Component</text></g><!--entity producten--><g id="elem_producten"><rect fill="#F1F1F1" height="46.2969" rx="2.5" ry="2.5" style="stroke:#181818;stroke-width:0.5;" width="204" x="1067.085" y="868.4375"/><rect fill="#F1F1F1" height="10" style="stroke:#181818;stroke-width:0.5;" width="15" x="1251.085" y="873.4375"/><rect fill="#F1F1F1" height="2" style="stroke:#181818;stroke-width:0.5;" width="4" x="1249.085" y="875.4375"/><rect fill="#F1F1F1" height="2" style="stroke:#181818;stroke-width:0.5;" width="4" x="1249.085" y="879.4375"/><text fill="#000000" font-family="sans-serif" font-size="14" lengthAdjust="spacing" textLength="164" x="1082.085" y="901.4326">Producten Component</text></g><!--entity order--><g id="elem_order"><rect fill="#F1F1F1" height="46.2969" rx="2.5" ry="2.5" style="stroke:#181818;stroke-width:0.5;" width="171" x="1306.585" y="868.4375"/><rect fill="#F1F1F1" height="10" style="stroke:#181818;stroke-width:0.5;" width="15" x="1457.585" y="873.4375"/><rect fill="#F1F1F1" height="2" style="stroke:#181818;stroke-width:0.5;" width="4" x="1455.585" y="875.4375"/><rect fill="#F1F1F1" height="2" style="stroke:#181818;stroke-width:0.5;" width="4" x="1455.585" y="879.4375"/><text fill="#000000" font-family="sans-serif" font-size="14" lengthAdjust="spacing" textLength="131" x="1321.585" y="901.4326">Order Component</text></g><!--entity Gateway--><g id="elem_Gateway"><rect fill="#F1F1F1" height="46.2969" rx="2.5" ry="2.5" style="stroke:#181818;stroke-width:0.5;" width="139" x="1446.585" y="724.4375"/><rect fill="#F1F1F1" height="10" style="stroke:#181818;stroke-width:0.5;" width="15" x="1565.585" y="729.4375"/><rect fill="#F1F1F1" height="2" style="stroke:#181818;stroke-width:0.5;" width="4" x="1563.585" y="731.4375"/><rect fill="#F1F1F1" height="2" style="stroke:#181818;stroke-width:0.5;" width="4" x="1563.585" y="735.4375"/><text fill="#000000" font-family="sans-serif" font-size="14" lengthAdjust="spacing" textLength="99" x="1461.585" y="757.4326">Web Gateway</text></g><!--entity ORM--><g id="elem_ORM"><rect fill="#F1F1F1" height="46.2969" rx="2.5" ry="2.5" style="stroke:#181818;stroke-width:0.5;" width="73" x="1512.585" y="868.4375"/><rect fill="#F1F1F1" height="10" style="stroke:#181818;stroke-width:0.5;" width="15" x="1565.585" y="873.4375"/><rect fill="#F1F1F1" height="2" style="stroke:#181818;stroke-width:0.5;" width="4" x="1563.585" y="875.4375"/><rect fill="#F1F1F1" height="2" style="stroke:#181818;stroke-width:0.5;" width="4" x="1563.585" y="879.4375"/><text fill="#000000" font-family="sans-serif" font-size="14" lengthAdjust="spacing" textLength="33" x="1527.585" y="901.4326">ORM</text></g><!--entity Redis--><g id="elem_Redis"><rect fill="#F1F1F1" height="46.2969" rx="2.5" ry="2.5" style="stroke:#181818;stroke-width:0.5;" width="79" x="1642.585" y="868.4375"/><rect fill="#F1F1F1" height="10" style="stroke:#181818;stroke-width:0.5;" width="15" x="1701.585" y="873.4375"/><rect fill="#F1F1F1" height="2" style="stroke:#181818;stroke-width:0.5;" width="4" x="1699.585" y="875.4375"/><rect fill="#F1F1F1" height="2" style="stroke:#181818;stroke-width:0.5;" width="4" x="1699.585" y="879.4375"/><text fill="#000000" font-family="sans-serif" font-size="14" lengthAdjust="spacing" textLength="39" x="1657.585" y="901.4326">Redis</text></g><!--entity MognoDB--><g id="elem_MognoDB"><path d="M1805.585,878.9375 C1805.585,868.9375 1852.085,868.9375 1852.085,868.9375 C1852.085,868.9375 1898.585,868.9375 1898.585,878.9375 L1898.585,904.2344 C1898.585,914.2344 1852.085,914.2344 1852.085,914.2344 C1852.085,914.2344 1805.585,914.2344 1805.585,904.2344 L1805.585,878.9375 " fill="#F1F1F1" style="stroke:#181818;stroke-width:0.5;"/><path d="M1805.585,878.9375 C1805.585,888.9375 1852.085,888.9375 1852.085,888.9375 C1852.085,888.9375 1898.585,888.9375 1898.585,878.9375 " fill="none" style="stroke:#181818;stroke-width:0.5;"/><text fill="#000000" font-family="sans-serif" font-size="14" lengthAdjust="spacing" textLength="69" x="1815.585" y="905.9326">MongoDB</text></g><!--entity db--><g id="elem_db"><path d="M1429.085,1115.4375 C1429.085,1105.4375 1549.085,1105.4375 1549.085,1105.4375 C1549.085,1105.4375 1669.085,1105.4375 1669.085,1115.4375 L1669.085,1140.7344 C1669.085,1150.7344 1549.085,1150.7344 1549.085,1150.7344 C1549.085,1150.7344 1429.085,1150.7344 1429.085,1140.7344 L1429.085,1115.4375 " fill="#F1F1F1" style="stroke:#181818;stroke-width:0.5;"/><path d="M1429.085,1115.4375 C1429.085,1125.4375 1549.085,1125.4375 1549.085,1125.4375 C1549.085,1125.4375 1669.085,1125.4375 1669.085,1115.4375 " fill="none" style="stroke:#181818;stroke-width:0.5;"/><text fill="#000000" font-family="sans-serif" font-size="14" lengthAdjust="spacing" textLength="220" x="1439.085" y="1142.4326">Postgress/MsSQL/MySql/Oracle</text></g><!--entity user--><g id="elem_user"><ellipse cx="343.085" cy="63.9375" fill="#F1F1F1" rx="8" ry="8" style="stroke:#181818;stroke-width:0.5;"/><path d="M343.085,71.9375 L343.085,98.9375 M330.085,79.9375 L356.085,79.9375 M343.085,98.9375 L330.085,113.9375 M343.085,98.9375 L356.085,113.9375 " fill="none" style="stroke:#181818;stroke-width:0.5;"/><text fill="#000000" font-family="sans-serif" font-size="14" lengthAdjust="spacing" textLength="31" x="327.585" y="128.4326">User</text></g><!--entity f5extern--><g id="elem_f5extern"><ellipse cx="343.085" cy="237.4375" fill="#F1F1F1" rx="8" ry="8" style="stroke:#181818;stroke-width:0.5;"/><text fill="#000000" font-family="sans-serif" font-size="14" lengthAdjust="spacing" textLength="176" x="255.085" y="267.4326">User Interface (port 443)</text></g><!--entity adminUser--><g id="elem_adminUser"><ellipse cx="581.085" cy="63.9375" fill="#F1F1F1" rx="8" ry="8" style="stroke:#181818;stroke-width:0.5;"/><path d="M581.085,71.9375 L581.085,98.9375 M568.085,79.9375 L594.085,79.9375 M581.085,98.9375 L568.085,113.9375 M581.085,98.9375 L594.085,113.9375 " fill="none" style="stroke:#181818;stroke-width:0.5;"/><text fill="#000000" font-family="sans-serif" font-size="14" lengthAdjust="spacing" textLength="46" x="558.085" y="128.4326">Admin</text></g><!--entity f5intern--><g id="elem_f5intern"><ellipse cx="581.085" cy="237.4375" fill="#F1F1F1" rx="8" ry="8" style="stroke:#181818;stroke-width:0.5;"/><text fill="#000000" font-family="sans-serif" font-size="14" lengthAdjust="spacing" textLength="195" x="481.585" y="267.4326">Admin Interface  (port 443)</text></g><!--link user to f5extern--><g id="link_user_f5extern"><path d="M343.085,136.8475 C343.085,166.1275 343.085,203.1975 343.085,222.8185 " fill="none" id="user-f5extern" style="stroke:#181818;stroke-width:1.0;stroke-dasharray:7.0,7.0;"/><polygon fill="#181818" points="343.085,131.7475,339.085,140.7475,343.085,136.7475,347.085,140.7475,343.085,131.7475" style="stroke:#181818;stroke-width:1.0;"/><polygon fill="#181818" points="343.085,228.3185,347.085,219.3185,343.085,223.3185,339.085,219.3185,343.085,228.3185" style="stroke:#181818;stroke-width:1.0;"/><text fill="#000000" font-family="sans-serif" font-size="13" lengthAdjust="spacing" textLength="152" x="344.085" y="174.5044">Browser ANONIEM/DigiD</text></g><!--link adminUser to f5intern--><g id="link_adminUser_f5intern"><path d="M581.085,136.8475 C581.085,166.1275 581.085,203.1975 581.085,222.8185 " fill="none" id="adminUser-f5intern" style="stroke:#181818;stroke-width:1.0;stroke-dasharray:7.0,7.0;"/><polygon fill="#181818" points="581.085,131.7475,577.085,140.7475,581.085,136.7475,585.085,140.7475,581.085,131.7475" style="stroke:#181818;stroke-width:1.0;"/><polygon fill="#181818" points="581.085,228.3185,585.085,219.3185,581.085,223.3185,577.085,219.3185,581.085,228.3185" style="stroke:#181818;stroke-width:1.0;"/><text fill="#000000" font-family="sans-serif" font-size="13" lengthAdjust="spacing" textLength="203" x="582.085" y="174.5044">Browser ADFS/OAuth JWT Claim</text></g><!--link f5extern to ingress--><g id="link_f5extern_ingress"><path d="M349.675,251.0255 C362.18,274.9145 389.619,327.3295 406.609,359.7835 " fill="none" id="f5extern-ingress" style="stroke:#181818;stroke-width:1.0;stroke-dasharray:7.0,7.0;"/><polygon fill="#181818" points="347.279,246.4485,347.9084,256.2772,349.5975,250.8784,354.9963,252.5676,347.279,246.4485" style="stroke:#181818;stroke-width:1.0;"/><polygon fill="#181818" points="409.036,364.4215,408.4065,354.5928,406.7174,359.9916,401.3186,358.3024,409.036,364.4215" style="stroke:#181818;stroke-width:1.0;"/><text fill="#000000" font-family="sans-serif" font-size="13" lengthAdjust="spacing" textLength="35" x="383.085" y="309.5044">RBAC</text></g><!--link f5intern to ingress--><g id="link_f5intern_ingress"><path d="M568.561,250.1005 C543.101,273.8095 484.745,328.1545 449.552,360.9275 " fill="none" id="f5intern-ingress" style="stroke:#181818;stroke-width:1.0;stroke-dasharray:7.0,7.0;"/><polygon fill="#181818" points="572.483,246.4485,563.1707,249.6549,568.8239,249.8561,568.6228,255.5093,572.483,246.4485" style="stroke:#181818;stroke-width:1.0;"/><polygon fill="#181818" points="445.8,364.4215,455.1116,361.2132,449.4583,361.0132,449.6583,355.3598,445.8,364.4215" style="stroke:#181818;stroke-width:1.0;"/><text fill="#000000" font-family="sans-serif" font-size="13" lengthAdjust="spacing" textLength="35" x="517.085" y="309.5044">RBAC</text></g><!--link ingress to ui--><g id="link_ingress_ui"><path d="M391.607,413.8175 C380.749,422.8055 368.352,433.0775 357.085,442.4375 C343.735,453.5285 339.954,455.7915 327.085,467.4375 C296.795,494.8475 263.55,527.9165 241.416,550.3905 " fill="none" id="ingress-ui" style="stroke:#181818;stroke-width:1.0;stroke-dasharray:7.0,7.0;"/><polygon fill="#181818" points="395.533,410.5675,386.0496,413.2258,391.6816,413.756,391.1513,419.388,395.533,410.5675" style="stroke:#181818;stroke-width:1.0;"/><polygon fill="#181818" points="237.688,554.1815,246.85,550.5681,241.1934,550.6161,241.1454,544.9594,237.688,554.1815" style="stroke:#181818;stroke-width:1.0;"/><text fill="#000000" font-family="sans-serif" font-size="13" lengthAdjust="spacing" textLength="54" x="358.085" y="455.5044">Exposes</text></g><!--link ingress to admin--><g id="link_ingress_admin"><path d="M421.085,418.0635 C421.085,453.6175 421.085,513.8515 421.085,548.8955 " fill="none" id="ingress-admin" style="stroke:#181818;stroke-width:1.0;stroke-dasharray:7.0,7.0;"/><polygon fill="#181818" points="421.085,412.7435,417.085,421.7435,421.085,417.7435,425.085,421.7435,421.085,412.7435" style="stroke:#181818;stroke-width:1.0;"/><polygon fill="#181818" points="421.085,554.2955,425.085,545.2955,421.085,549.2955,417.085,545.2955,421.085,554.2955" style="stroke:#181818;stroke-width:1.0;"/><text fill="#000000" font-family="sans-serif" font-size="13" lengthAdjust="spacing" textLength="54" x="422.085" y="455.5044">Exposes</text></g><!--link ingress to Nginx--><g id="link_ingress_Nginx"><path d="M451.333,401.6545 C535.474,435.6375 771.55,530.9855 854.674,564.5585 " fill="none" id="ingress-Nginx" style="stroke:#181818;stroke-width:1.0;stroke-dasharray:7.0,7.0;"/><polygon fill="#181818" points="446.637,399.7575,453.4833,406.8376,451.2729,401.6305,456.48,399.4201,446.637,399.7575" style="stroke:#181818;stroke-width:1.0;"/><polygon fill="#181818" points="859.457,566.4905,852.6087,559.4122,854.8205,564.6188,849.614,566.8306,859.457,566.4905" style="stroke:#181818;stroke-width:1.0;"/><text fill="#000000" font-family="sans-serif" font-size="13" lengthAdjust="spacing" textLength="54" x="585.085" y="455.5044">Exposes</text></g><!--link Nginx to Gateway--><g id="link_Nginx_Gateway"><path d="M913.779,586.3305 C1007.995,611.3755 1302.185,689.5795 1441.505,726.6125 " fill="none" id="Nginx-Gateway" style="stroke:#181818;stroke-width:1.0;stroke-dasharray:7.0,7.0;"/><polygon fill="#181818" points="908.86,585.0235,916.5308,591.2008,913.6923,586.3076,918.5854,583.4691,908.86,585.0235" style="stroke:#181818;stroke-width:1.0;"/><polygon fill="#181818" points="1446.395,727.9125,1438.7259,721.7331,1441.563,726.627,1436.6691,729.4642,1446.395,727.9125" style="stroke:#181818;stroke-width:1.0;"/><text fill="#000000" font-family="sans-serif" font-size="13" lengthAdjust="spacing" textLength="32" x="1239.085" y="669.5044">Runs</text></g><!--link Gateway to hp--><g id="link_Gateway_hp"><path d="M1440.915,752.8785 C1287.185,762.6105 941.901,787.9815 830.085,825.4375 C800.751,835.2635 770.025,851.6755 746.747,865.5485 " fill="none" id="Gateway-hp" style="stroke:#181818;stroke-width:1.0;stroke-dasharray:7.0,7.0;"/><polygon fill="#181818" points="1446.305,752.5385,1437.0713,749.1121,1441.3149,752.8528,1437.5742,757.0963,1446.305,752.5385" style="stroke:#181818;stroke-width:1.0;"/><polygon fill="#181818" points="742.193,868.2865,751.967,867.075,746.4775,865.7092,747.8433,860.2197,742.193,868.2865" style="stroke:#181818;stroke-width:1.0;"/><text fill="#000000" font-family="sans-serif" font-size="13" lengthAdjust="spacing" textLength="76" x="943.085" y="813.5044">Implements</text></g><!--link Gateway to agenda--><g id="link_Gateway_agenda"><path d="M1441.115,752.1905 C1347.005,758.8255 1181.825,776.8995 1049.085,825.4375 C1022.425,835.1865 994.992,851.5855 974.317,865.4725 " fill="none" id="Gateway-agenda" style="stroke:#181818;stroke-width:1.0;stroke-dasharray:7.0,7.0;"/><polygon fill="#181818" points="1446.375,751.8265,1437.1219,748.453,1441.3867,752.1693,1437.6704,756.4342,1446.375,751.8265" style="stroke:#181818;stroke-width:1.0;"/><polygon fill="#181818" points="970.01,868.3945,979.7033,866.6512,974.1474,865.5871,975.2115,860.0313,970.01,868.3945" style="stroke:#181818;stroke-width:1.0;"/><text fill="#000000" font-family="sans-serif" font-size="13" lengthAdjust="spacing" textLength="76" x="1124.085" y="813.5044">Implements</text></g><!--link Gateway to order--><g id="link_Gateway_order"><path d="M1474.315,773.4875 C1463.355,781.2595 1452.095,790.4395 1443.085,800.4375 C1426.125,819.2505 1412.375,844.6535 1403.435,863.6745 " fill="none" id="Gateway-order" style="stroke:#181818;stroke-width:1.0;stroke-dasharray:7.0,7.0;"/><polygon fill="#181818" points="1478.655,770.4685,1468.9832,772.3276,1474.5514,773.3252,1473.5538,778.8934,1478.655,770.4685" style="stroke:#181818;stroke-width:1.0;"/><polygon fill="#181818" points="1401.275,868.3645,1408.6849,861.8767,1403.3749,863.8268,1401.4247,858.5168,1401.275,868.3645" style="stroke:#181818;stroke-width:1.0;"/><text fill="#000000" font-family="sans-serif" font-size="13" lengthAdjust="spacing" textLength="76" x="1444.085" y="813.5044">Implements</text></g><!--link Gateway to producten--><g id="link_Gateway_producten"><path d="M1441.565,768.9045 C1411.335,777.7735 1376.265,788.7895 1345.085,800.4375 C1319.555,809.9765 1313.535,813.3825 1289.085,825.4375 C1263.385,838.1105 1235.185,853.3165 1212.585,865.8335 " fill="none" id="Gateway-producten" style="stroke:#181818;stroke-width:1.0;stroke-dasharray:7.0,7.0;"/><polygon fill="#181818" points="1446.375,767.4995,1436.6149,766.1803,1441.5751,768.8999,1438.8555,773.8601,1446.375,767.4995" style="stroke:#181818;stroke-width:1.0;"/><polygon fill="#181818" points="1208.145,868.2995,1217.9551,867.4267,1212.5161,865.8719,1214.0709,860.4329,1208.145,868.2995" style="stroke:#181818;stroke-width:1.0;"/><text fill="#000000" font-family="sans-serif" font-size="13" lengthAdjust="spacing" textLength="76" x="1346.085" y="813.5044">Implements</text></g><!--link Gateway to identity--><g id="link_Gateway_identity"><path d="M1591.275,747.6005 C1745.825,746.9335 2093.605,751.1605 2200.085,800.4375 C2229.995,814.2815 2255.415,842.8005 2271.335,864.0455 " fill="none" id="Gateway-identity" style="stroke:#181818;stroke-width:1.0;stroke-dasharray:7.0,7.0;"/><polygon fill="#181818" points="1585.865,747.6255,1594.8877,751.574,1590.8649,747.5969,1594.842,743.5741,1585.865,747.6255" style="stroke:#181818;stroke-width:1.0;"/><polygon fill="#181818" points="2274.385,868.1905,2272.2543,858.5749,2271.4139,864.169,2265.8198,863.3286,2274.385,868.1905" style="stroke:#181818;stroke-width:1.0;"/><text fill="#000000" font-family="sans-serif" font-size="13" lengthAdjust="spacing" textLength="76" x="2227.085" y="813.5044">Implements</text></g><!--link Gateway to loki--><g id="link_Gateway_loki"><path d="M1585.735,754.8225 C1666.885,763.8525 1804.005,784.0935 1915.085,825.4375 C1946.105,836.9835 1978.565,856.5515 2000.695,871.2075 " fill="none" id="Gateway-to-loki" style="stroke:#181818;stroke-width:1.0;stroke-dasharray:7.0,7.0;"/><polygon fill="#181818" points="2004.975,874.0695,1999.704,865.7498,2000.8143,871.2967,1995.2675,872.4069,2004.975,874.0695" style="stroke:#181818;stroke-width:1.0;"/><text fill="#000000" font-family="sans-serif" font-size="13" lengthAdjust="spacing" textLength="47" x="1884.085" y="813.5044">Logs to</text></g><!--link Gateway to prometheus--><g id="link_Gateway_prometheus"><path d="M1585.645,752.5405 C1714.705,761.0585 1985.695,783.4595 2069.085,825.4375 C2088.055,834.9845 2105.675,851.0665 2118.625,864.8445 " fill="none" id="Gateway-to-prometheus" style="stroke:#181818;stroke-width:1.0;stroke-dasharray:7.0,7.0;"/><polygon fill="#181818" points="2122.155,868.6615,2118.9863,859.3363,2118.7623,864.9887,2113.1098,864.7646,2122.155,868.6615" style="stroke:#181818;stroke-width:1.0;"/><text fill="#000000" font-family="sans-serif" font-size="13" lengthAdjust="spacing" textLength="67" x="2046.085" y="813.5044">Reports to</text></g><!--link hp to brp--><g id="link_hp_brp"><path d="M685.83,918.4365 C668.473,938.8805 643.902,968.1955 623.085,994.4375 C588.519,1038.0105 549.239,1091.1885 531.996,1114.7265 " fill="none" id="hp-brp" style="stroke:#181818;stroke-width:1.0;stroke-dasharray:7.0,7.0;"/><polygon fill="#181818" points="689.202,914.4695,680.3253,918.7363,685.9637,918.2792,686.4208,923.9175,689.202,914.4695" style="stroke:#181818;stroke-width:1.0;"/><polygon fill="#181818" points="529.038,1118.7677,537.5813,1113.8676,531.991,1114.7329,531.1257,1109.1427,529.038,1118.7677" style="stroke:#181818;stroke-width:1.0;"/><text fill="#000000" font-family="sans-serif" font-size="13" lengthAdjust="spacing" textLength="75" x="624.085" y="1007.5044">Get citizens</text></g><!--link hp to factuur--><g id="link_hp_factuur"><path d="M708.085,919.7485 C708.085,970.1785 708.085,1076.1735 708.085,1113.5465 " fill="none" id="hp-factuur" style="stroke:#181818;stroke-width:1.0;stroke-dasharray:7.0,7.0;"/><polygon fill="#181818" points="708.085,914.4985,704.085,923.4985,708.085,919.4985,712.085,923.4985,708.085,914.4985" style="stroke:#181818;stroke-width:1.0;"/><polygon fill="#181818" points="708.085,1118.9365,712.085,1109.9365,708.085,1113.9365,704.085,1109.9365,708.085,1118.9365" style="stroke:#181818;stroke-width:1.0;"/><text fill="#000000" font-family="sans-serif" font-size="13" lengthAdjust="spacing" textLength="70" x="709.085" y="1007.5044">Log results</text></g><!--link hp to betalen--><g id="link_hp_betalen"><path d="M729.519,918.7385 C745.927,939.1145 768.919,968.1995 788.085,994.4375 C819.609,1037.5935 854.525,1090.6295 869.973,1114.3879 " fill="none" id="hp-betalen" style="stroke:#181818;stroke-width:1.0;stroke-dasharray:7.0,7.0;"/><polygon fill="#181818" points="726.329,914.7835,728.8656,924.3001,729.4679,918.6754,735.0926,919.2778,726.329,914.7835" style="stroke:#181818;stroke-width:1.0;"/><polygon fill="#181818" points="872.796,1118.7377,871.2516,1109.0107,870.0739,1114.5436,864.541,1113.3659,872.796,1118.7377" style="stroke:#181818;stroke-width:1.0;"/><text fill="#000000" font-family="sans-serif" font-size="13" lengthAdjust="spacing" textLength="110" x="800.085" y="1007.5044">Get payment link</text></g><!--link Gateway to MognoDB--><g id="link_Gateway_MognoDB"><path d="M1585.865,768.9975 C1630.255,782.9585 1688.495,802.9315 1738.085,825.4375 C1764.035,837.2165 1791.855,853.0055 1813.505,866.0725 " fill="none" id="Gateway-to-MognoDB" style="stroke:#181818;stroke-width:1.0;stroke-dasharray:7.0,7.0;"/><polygon fill="#181818" points="1818.035,868.8165,1812.4234,860.7227,1813.7628,866.2187,1808.2668,867.5581,1818.035,868.8165" style="stroke:#181818;stroke-width:1.0;"/><text fill="#000000" font-family="sans-serif" font-size="13" lengthAdjust="spacing" textLength="35" x="1715.085" y="813.5044">Index</text></g><!--link Gateway to Redis--><g id="link_Gateway_Redis"><path d="M1542.025,770.6255 C1571.865,796.1555 1620.795,838.0075 1652.205,864.8795 " fill="none" id="Gateway-to-Redis" style="stroke:#181818;stroke-width:1.0;stroke-dasharray:7.0,7.0;"/><polygon fill="#181818" points="1656.325,868.4055,1652.0755,859.5206,1652.5216,865.1598,1646.8824,865.6059,1656.325,868.4055" style="stroke:#181818;stroke-width:1.0;"/><text fill="#000000" font-family="sans-serif" font-size="13" lengthAdjust="spacing" textLength="40" x="1595.085" y="813.5044">Cache</text></g><!--link Gateway to ORM--><g id="link_Gateway_ORM"><path d="M1521.245,770.6255 C1527.055,795.6345 1536.505,836.3055 1542.755,863.2155 " fill="none" id="Gateway-to-ORM" style="stroke:#181818;stroke-width:1.0;stroke-dasharray:7.0,7.0;"/><polygon fill="#181818" points="1543.965,868.4055,1545.8251,858.7339,1542.8338,863.5351,1538.0326,860.5438,1543.965,868.4055" style="stroke:#181818;stroke-width:1.0;"/><text fill="#000000" font-family="sans-serif" font-size="13" lengthAdjust="spacing" textLength="34" x="1533.085" y="813.5044">Store</text></g><!--link ORM to db--><g id="link_ORM_db"><path d="M1549.085,914.4985 C1549.085,957.6435 1549.085,1053.0595 1549.085,1099.9105 " fill="none" id="ORM-to-db" style="stroke:#181818;stroke-width:1.0;stroke-dasharray:7.0,7.0;"/><polygon fill="#181818" points="1549.085,1105.1055,1553.085,1096.1055,1549.085,1100.1055,1545.085,1096.1055,1549.085,1105.1055" style="stroke:#181818;stroke-width:1.0;"/><text fill="#000000" font-family="sans-serif" font-size="13" lengthAdjust="spacing" textLength="43" x="1550.085" y="1007.5044">Persist</text></g><text fill="#888888" font-family="sans-serif" font-size="10" lengthAdjust="spacing" textLength="171" x="1084.014" y="1205.7197">Huwelijksplanner | Components</text><!--SRC=[TLLBSzem4BxhL-nm8fSmQUd5q-aCZpneUQJGJ3gJwK7W1LICv4foWQJvxrsj3SOad2pjz-sdrUvgxPLFC8AxR8E9-hroQIArHYlcndYqRm7u1nspJer6xPrOeem3wyWavCmR2xK7XxO6qa562w4qgStb37C0UeTzFJNMGxFvyOBPyq-u9KZlPLhnMcb6P5Wzd8WnVAHs90U57hEr46AMc2mcb-VCOkr5m5EhUpFv1O6bOefT-PruFT26w3TeLqGyEguzleVwNGUkBflGW8dFvddKKviUqsue-CnAh-Xwmtwdzp0fBXVicGsdx8_Xq3NwwZazlK2jPYONHoyJrCTUzJjfAUJu0hvbK_P71qEvHfUIFsc9gSbqBEqEQaelB3h7KiLQnDBBgNG8YLcfSfTQiqQ_n8pAA4Xf9HSKJ5_kg6AVeCu1qXMKqNIVbv8nHh9I4sWlLUYHgu32KxNIUQOp5UvnrlD3xdbIrjoL6u2yNzy6ruHwtopKh1hMyBOt_5cAitIPb-52wIrdXLULi2QxzTpe7TnOokd6K1jmMFGOAczXWlQl2k6Ho38DSLFPOba-1qOa6mczjoREPXxr2I7TsuapehhQ4zm46s6FE8LRwN4ZTsmlri5hF60BVK_I6ojNJS0JsvZDgsew1qOlJBTzahH3WvG4Jjp0B3HjyfgylgdA5TI39nUbQDpkNgb8NQsgVc-Svmvj3DpaUxyns4t-98qHDLs2V68ypGyBGmK-Nrv-EGoC2DhMR8AvDHmDUzU3HbSjL5SSniQUdiy3EEBJ66YCMfbVmjV77z19f5gBlMpkLRoR2CRjLaSSDDx1YbqEPIg2wsrg7Begm46TmRWRIuota4D5mUceJ3jHx79ecKRGMwS9hdaALx2y0S_Zt5_duKDxdgViv-UxZ408SoO2UgCElAaWvSoXQs6OtanPfhaoJTO8Rj73J7drZ7JjFL8CKrO5Ib-M-18iPcRkcifTY0WIfLULiul-fQXrZDiAn6-3VcnojiGAG4yieiblB0fQ0jlYQGJtQ9ro_Zy0]--></g></svg>