<?xml version="1.0" encoding="us-ascii" standalone="no"?><svg xmlns="http://www.w3.org/2000/svg" xmlns:xlink="http://www.w3.org/1999/xlink" contentStyleType="text/css" height="1216px" preserveAspectRatio="none" style="width:1640px;height:1216px;background:#FFFFFF;" version="1.1" viewBox="0 0 1640 1216" width="1640px" zoomAndPan="magnify"><defs/><g><text fill="#888888" font-family="sans-serif" font-size="10" lengthAdjust="spacing" textLength="70" x="1556.2938" y="9.2822">Components</text><text fill="#000000" font-family="sans-serif" font-size="14" font-weight="bold" lengthAdjust="spacing" textLength="114" x="756.1469" y="35.6357">Open Catalogi</text><!--cluster Azure--><g id="cluster_Azure"><path d="M1530.3891,841.9019 C1533.3379,835.8532 1539.2085,835.9236 1542.3228,841.7354 C1546.0504,835.8854 1550.8208,836.4162 1554.8309,841.4094 C1557.3812,835.5027 1563.1537,834.92 1566.5517,840.548 C1568.7813,834.3732 1573.8093,834.3198 1577.5667,838.9973 C1581.4609,834.6604 1587.6199,834.4276 1589.5865,841.1015 C1592.8298,836.1789 1597.4205,835.015 1601.3202,840.3507 C1605.0228,836.0335 1610.2468,835.8901 1612.2635,842.1028 C1616.4008,836.8656 1620.0178,835.7653 1624.0047,842.2533 C1629.3968,845.9972 1630.2908,851.5131 1624.27,855.4858 C1632.5069,858.6053 1633.2938,865.0812 1626.1796,870.1938 C1632.4154,873.7344 1633.256,878.7509 1626.9336,883.0292 C1632.5703,888.4032 1631.9288,893.7298 1625.0305,897.4496 C1630.1692,901.752 1629.9946,905.4674 1625.0196,909.7607 C1632.4181,914.3169 1631.071,919.5101 1624.5822,923.6282 C1620.4867,928.9225 1615.925,929.698 1612.1755,923.2623 C1609.1956,930.088 1603.8862,929.9745 1599.8778,924.2719 C1596.8052,930.5471 1592.824,931.362 1588.4592,925.4863 C1585.3933,929.763 1581.1544,929.5042 1578.3502,925.1789 C1574.2315,931.2937 1568.3192,930.1155 1565.9844,923.4525 C1562.8649,929.0919 1557.222,931.0876 1552.887,924.7858 C1548.9135,929.5988 1545.6195,930.3962 1542.1196,924.3175 C1537.9829,929.0806 1534.1879,928.6671 1530.5171,923.7586 C1522.4703,921.2044 1522.1662,915.544 1527.5687,910.0889 C1519.8831,906.742 1518.2602,902.2134 1524.2479,895.7089 C1517.8576,893.5241 1516.0204,887.6043 1522.0267,883.2155 C1516.4447,877.7103 1517.3835,873.6857 1524.3044,870.4033 C1518.508,863.9315 1519.5602,857.4071 1528.5419,855.0011 C1522.09,849.4467 1522.5492,845.441 1530.3891,841.9019 " fill="none" style="stroke:#181818;stroke-width:1.0;"/><text fill="#000000" font-family="sans-serif" font-size="14" font-weight="bold" lengthAdjust="spacing" textLength="46" x="1553.3508" y="859.4326">Azure</text></g><!--cluster Internet--><g id="cluster_Internet"><path d="M542.8216,1073.1266 C546.2106,1066.3535 550.6794,1066.7755 555.0565,1072.1297 C557.8445,1066.0147 562.234,1066.9321 565.8299,1071.2994 C569.3003,1065.2231 573.4519,1065.1263 578.0034,1070.1095 C580.4207,1064.8859 585.7012,1063.6467 589.0785,1069.1151 C591.6456,1064.697 596.2946,1064.4367 599.2018,1068.7194 C601.6368,1063.2742 607.4695,1062.6356 611.2544,1067.073 C615.3578,1060.9918 621.3509,1062.09 623.6183,1068.8419 C626.4626,1063.9386 631.8243,1063.9632 634.4242,1069.1049 C638.7657,1064.8988 642.5025,1065.0648 644.5461,1071.3268 C648.2682,1065.1768 652.1705,1064.7799 656.8738,1070.2892 C661.5094,1065.2198 666.9455,1066.3681 669.0825,1072.9152 C676.5284,1066.0891 683.4449,1070.7981 685.3508,1078.9375 C686.8545,1078.6805 687.7386,1079.5185 687.4464,1081.0463 C693.6807,1083.8132 694.7443,1088.7093 688.7145,1092.7995 C696.4332,1095.7644 697.0047,1102.3486 690.0205,1106.6953 C696.7619,1109.6945 697.0191,1115.1045 690.8635,1118.9881 C696.7349,1122.8847 696.3524,1128.2339 690.5843,1131.8783 C696.9479,1136.6346 696.5723,1142.7709 689.03,1145.9961 C693.7827,1155.9214 691.8538,1165.3049 678.3508,1164.9375 C679.0155,1165.1088 679.2796,1165.679 678.7504,1166.2218 C675.7142,1171.7542 670.7528,1171.1114 667.836,1166.0983 C665.2875,1172.4385 660.3691,1172.7375 655.9642,1168.1072 C653.5269,1173.2572 649.3174,1172.4338 646.3322,1168.7014 C644.1717,1175.2191 639.5737,1176.8083 634.5432,1171.5826 C631.3249,1177.6358 626.1399,1176.6594 623.1557,1171.348 C619.4629,1177.2887 615.0033,1177.524 610.4808,1172.2889 C606.9325,1177.5065 602.2766,1177.8081 599.2768,1171.7442 C595.5859,1175.9495 591.6509,1175.103 589.3123,1170.2557 C585.2555,1175.7723 581.2898,1176.4616 577.2518,1170.2364 C573.4628,1174.2991 568.6641,1174.2753 566.5421,1168.4337 C562.5748,1173.7815 556.4924,1173.9208 554.223,1166.7614 C543.6282,1172.9054 537.4258,1170.0153 535.3508,1157.9375 C536.2715,1158.2565 536.7516,1158.8794 535.9309,1159.7544 C528.4385,1156.5782 527.8758,1150.9365 534.7652,1146.4959 C527.7743,1143.5876 527.2821,1138.735 532.12,1133.4317 C524.9279,1129.3917 525.1604,1125.294 530.9947,1120.1504 C525.3892,1115.1829 524.8992,1110.1434 532.1076,1106.198 C527.1364,1101.2203 527.4562,1096.1213 533.964,1092.7254 C526.295,1083.0031 530.337,1073.7188 542.3508,1071.9375 C543.1485,1072.0444 543.2175,1072.5471 542.8216,1073.1266 " fill="none" style="stroke:#181818;stroke-width:1.0;"/><text fill="#000000" font-family="sans-serif" font-size="14" font-weight="bold" lengthAdjust="spacing" textLength="66" x="577.3508" y="1089.9326">Internet</text></g><!--cluster Kubernetes--><g id="cluster_Kubernetes"><path d="M81.6976,338.3806 C117.4764,292.1109 163.4668,306.5091 186.0909,353.1596 C214.7455,295.2569 251.8302,305.575 287.5549,345.8532 C312.9259,305.1307 354.7429,299.7889 378.1352,347.8715 C406.488,302.8282 447.2574,295.2609 479.2081,343.9937 C504.2028,303.7237 541.8672,296.4909 573.0306,336.8122 C607.0666,288.0349 657.2244,291.732 680.9115,347.4921 C709.6997,287.114 752.6255,289.8477 792.0424,336.4511 C823.85,286.5654 860.5422,293.3676 892.5515,336.2325 C921.8593,290.13 953.0875,298.6279 983.231,335.3171 C1014.3444,296.0903 1062.2453,301.7294 1083.7712,346.7578 C1105.6475,300.7701 1155.2837,297.9721 1184.9962,337.4797 C1222.8508,291.7686 1253.6757,288.5859 1285.7037,343.3214 C1315.1485,297.3559 1355.0496,288.9217 1385.4887,342.3229 C1413.9534,291.5488 1462.8958,296.4999 1489.3508,344.4375 C1498.6881,341.8322 1504.3547,348.9357 1502.4513,357.5558 C1548.529,394.2384 1555.3892,429.3794 1497.7487,461.3634 C1543.4227,488.892 1556.5918,524.6607 1509.7273,563.0863 C1555.3995,597.7089 1545.0247,641.5641 1498.893,666.5758 C1545.223,692.5043 1536.9876,735.1731 1497.131,759.4668 C1550.7776,788.0966 1551.2456,832.9533 1502.4721,866.6853 C1548.1104,912.9207 1538.6619,943.9738 1482.3508,970.4375 C1493.7916,969.4623 1496.7799,974.8262 1494.9653,985.1874 C1457.4783,1027.1981 1412.5063,1024.951 1386.2091,972.3278 C1357.6698,1015.3811 1315.8205,1020.3711 1286.8271,972.8259 C1266.2744,1019.1214 1227.8641,1026.4549 1196.8823,983.3144 C1163.8031,1038.6761 1118.2864,1021.3818 1091.1225,977.0398 C1065.1246,1025.456 1017.3725,1029.392 992.4214,976.0247 C959.9978,1029.0807 913.2123,1037.4021 880.3603,976.4458 C862.3057,1024.4163 819.3483,1025.0818 791.8676,986.0314 C755.8103,1043.4594 721.2046,1031.9739 684.3551,986.8621 C648.1663,1040.1313 614.487,1033.5699 578.2813,986.8801 C543.844,1034.4462 504.6849,1037.2093 476.2629,980.9685 C440.8639,1028.4917 409.6343,1019.5028 382.5092,972.7412 C362.8426,1030.5207 314.2687,1030.7978 280.7004,986.623 C239.704,1043.4374 195.1748,1038.3189 168.5113,973.4125 C129.1821,1014.6465 90.8964,1017.446 60.3508,963.4375 C65.1131,964.0012 66.424,966.7305 63.7956,970.7675 C13.3433,940.3701 18.4882,900.044 68.9032,875.0278 C16.5282,846.6165 15.9873,808.5589 61.8805,773.3598 C17.0665,739.8132 6,690.9002 65.2053,660.4156 C10.5117,623.1945 16.5506,587.1748 66.7553,551.4458 C16.0886,520.3996 11.6683,481.8492 66.0379,450.0597 C14.3658,419.2785 21.7787,367.0851 67.3508,337.4375 C71.5809,331.4023 78.3833,330.4837 81.6976,338.3806 " fill="none" style="stroke:#181818;stroke-width:1.0;"/><text fill="#000000" font-family="sans-serif" font-size="14" font-weight="bold" lengthAdjust="spacing" textLength="91" x="729.3508" y="355.4326">Kubernetes</text></g><!--cluster Layer 5 (interaction)--><g id="cluster_Layer 5 (interaction)"><path d="M78.8508,476.4375 L247.8508,476.4375 A3.75,3.75 0 0 1 250.3508,478.9375 L257.3508,498.7344 L507.8508,498.7344 A2.5,2.5 0 0 1 510.3508,501.2344 L510.3508,637.9375 A2.5,2.5 0 0 1 507.8508,640.4375 L78.8508,640.4375 A2.5,2.5 0 0 1 76.3508,637.9375 L76.3508,478.9375 A2.5,2.5 0 0 1 78.8508,476.4375 " fill="none" style="stroke:#000000;stroke-width:1.5;"/><line style="stroke:#000000;stroke-width:1.5;" x1="76.3508" x2="257.3508" y1="498.7344" y2="498.7344"/><text fill="#000000" font-family="sans-serif" font-size="14" font-weight="bold" lengthAdjust="spacing" textLength="168" x="80.3508" y="491.4326">Layer 5 (interaction)</text></g><!--cluster React Container 1--><g id="cluster_React Container 1"><path d="M102.8508,519.4375 L249.8508,519.4375 A3.75,3.75 0 0 1 252.3508,521.9375 L259.3508,541.7344 L271.8508,541.7344 A2.5,2.5 0 0 1 274.3508,544.2344 L274.3508,613.9375 A2.5,2.5 0 0 1 271.8508,616.4375 L102.8508,616.4375 A2.5,2.5 0 0 1 100.3508,613.9375 L100.3508,521.9375 A2.5,2.5 0 0 1 102.8508,519.4375 " fill="none" style="stroke:#000000;stroke-width:1.5;"/><line style="stroke:#000000;stroke-width:1.5;" x1="100.3508" x2="259.3508" y1="541.7344" y2="541.7344"/><text fill="#000000" font-family="sans-serif" font-size="14" font-weight="bold" lengthAdjust="spacing" textLength="146" x="104.3508" y="534.4326">React Container 1</text></g><!--cluster React Container 2--><g id="cluster_React Container 2"><path d="M300.8508,519.4375 L447.8508,519.4375 A3.75,3.75 0 0 1 450.3508,521.9375 L457.3508,541.7344 L483.8508,541.7344 A2.5,2.5 0 0 1 486.3508,544.2344 L486.3508,613.9375 A2.5,2.5 0 0 1 483.8508,616.4375 L300.8508,616.4375 A2.5,2.5 0 0 1 298.3508,613.9375 L298.3508,521.9375 A2.5,2.5 0 0 1 300.8508,519.4375 " fill="none" style="stroke:#000000;stroke-width:1.5;"/><line style="stroke:#000000;stroke-width:1.5;" x1="298.3508" x2="457.3508" y1="541.7344" y2="541.7344"/><text fill="#000000" font-family="sans-serif" font-size="14" font-weight="bold" lengthAdjust="spacing" textLength="146" x="302.3508" y="534.4326">React Container 2</text></g><!--cluster Layer 4 (Logic)--><g id="cluster_Layer 4 (Logic)"><path d="M536.8508,475.4375 L657.8508,475.4375 A3.75,3.75 0 0 1 660.3508,477.9375 L667.3508,497.7344 L1273.8508,497.7344 A2.5,2.5 0 0 1 1276.3508,500.2344 L1276.3508,951.9375 A2.5,2.5 0 0 1 1273.8508,954.4375 L536.8508,954.4375 A2.5,2.5 0 0 1 534.3508,951.9375 L534.3508,477.9375 A2.5,2.5 0 0 1 536.8508,475.4375 " fill="none" style="stroke:#000000;stroke-width:1.5;"/><line style="stroke:#000000;stroke-width:1.5;" x1="534.3508" x2="667.3508" y1="497.7344" y2="497.7344"/><text fill="#000000" font-family="sans-serif" font-size="14" font-weight="bold" lengthAdjust="spacing" textLength="120" x="538.3508" y="490.4326">Layer 4 (Logic)</text></g><!--cluster NGINX Container--><g id="cluster_NGINX Container"><path d="M611.8508,518.4375 L746.8508,518.4375 A3.75,3.75 0 0 1 749.3508,520.9375 L756.3508,540.7344 L756.8508,540.7344 A2.5,2.5 0 0 1 759.3508,543.2344 L759.3508,614.9375 A2.5,2.5 0 0 1 756.8508,617.4375 L611.8508,617.4375 A2.5,2.5 0 0 1 609.3508,614.9375 L609.3508,520.9375 A2.5,2.5 0 0 1 611.8508,518.4375 " fill="none" style="stroke:#000000;stroke-width:1.5;"/><line style="stroke:#000000;stroke-width:1.5;" x1="609.3508" x2="756.3508" y1="540.7344" y2="540.7344"/><text fill="#000000" font-family="sans-serif" font-size="14" font-weight="bold" lengthAdjust="spacing" textLength="134" x="613.3508" y="533.4326">NGINX Container</text></g><!--cluster Gateway Container--><g id="cluster_Gateway Container"><path d="M560.8508,689.4375 L716.8508,689.4375 A3.75,3.75 0 0 1 719.3508,691.9375 L726.3508,711.7344 L886.8508,711.7344 A2.5,2.5 0 0 1 889.3508,714.2344 L889.3508,927.9375 A2.5,2.5 0 0 1 886.8508,930.4375 L560.8508,930.4375 A2.5,2.5 0 0 1 558.3508,927.9375 L558.3508,691.9375 A2.5,2.5 0 0 1 560.8508,689.4375 " fill="none" style="stroke:#000000;stroke-width:1.5;"/><line style="stroke:#000000;stroke-width:1.5;" x1="558.3508" x2="726.3508" y1="711.7344" y2="711.7344"/><text fill="#000000" font-family="sans-serif" font-size="14" font-weight="bold" lengthAdjust="spacing" textLength="155" x="562.3508" y="704.4326">Gateway Container</text></g><!--cluster RedisContainer--><g id="cluster_RedisContainer"><path d="M915.8508,833.4375 L1039.8508,833.4375 A3.75,3.75 0 0 1 1042.3508,835.9375 L1049.3508,855.7344 L1049.8508,855.7344 A2.5,2.5 0 0 1 1052.3508,858.2344 L1052.3508,927.9375 A2.5,2.5 0 0 1 1049.8508,930.4375 L915.8508,930.4375 A2.5,2.5 0 0 1 913.3508,927.9375 L913.3508,835.9375 A2.5,2.5 0 0 1 915.8508,833.4375 " fill="none" style="stroke:#000000;stroke-width:1.5;"/><line style="stroke:#000000;stroke-width:1.5;" x1="913.3508" x2="1049.3508" y1="855.7344" y2="855.7344"/><text fill="#000000" font-family="sans-serif" font-size="14" font-weight="bold" lengthAdjust="spacing" textLength="123" x="917.3508" y="848.4326">RedisContainer</text></g><!--cluster MongoDB Container--><g id="cluster_MongoDB Container"><path d="M1078.8508,833.9375 L1239.8508,833.9375 A3.75,3.75 0 0 1 1242.3508,836.4375 L1249.3508,856.2344 L1249.8508,856.2344 A2.5,2.5 0 0 1 1252.3508,858.7344 L1252.3508,927.4375 A2.5,2.5 0 0 1 1249.8508,929.9375 L1078.8508,929.9375 A2.5,2.5 0 0 1 1076.3508,927.4375 L1076.3508,836.4375 A2.5,2.5 0 0 1 1078.8508,833.9375 " fill="none" style="stroke:#000000;stroke-width:1.5;"/><line style="stroke:#000000;stroke-width:1.5;" x1="1076.3508" x2="1249.3508" y1="856.2344" y2="856.2344"/><text fill="#000000" font-family="sans-serif" font-size="14" font-weight="bold" lengthAdjust="spacing" textLength="160" x="1080.3508" y="848.9326">MongoDB Container</text></g><!--cluster Layer 1 (data)--><g id="cluster_Layer 1 (data)"><path d="M719.8508,1027.4375 L835.8508,1027.4375 A3.75,3.75 0 0 1 838.3508,1029.9375 L845.3508,1049.7344 L1034.8508,1049.7344 A2.5,2.5 0 0 1 1037.3508,1052.2344 L1037.3508,1187.9375 A2.5,2.5 0 0 1 1034.8508,1190.4375 L719.8508,1190.4375 A2.5,2.5 0 0 1 717.3508,1187.9375 L717.3508,1029.9375 A2.5,2.5 0 0 1 719.8508,1027.4375 " fill="none" style="stroke:#000000;stroke-width:1.5;"/><line style="stroke:#000000;stroke-width:1.5;" x1="717.3508" x2="845.3508" y1="1049.7344" y2="1049.7344"/><text fill="#000000" font-family="sans-serif" font-size="14" font-weight="bold" lengthAdjust="spacing" textLength="115" x="721.3508" y="1042.4326">Layer 1 (data)</text></g><!--cluster Database Service--><g id="cluster_Database Service"><path d="M750.4254,1079.8451 C756.5501,1071.5392 762.4463,1071.1487 769.0278,1079.3296 C772.4256,1071.1585 779.697,1067.0399 786.6845,1075.5239 C790.8037,1063.9953 800.6631,1063.9096 806.8148,1073.5953 C812.1851,1065.3842 818.9867,1062.8884 825.4734,1072.4213 C829.6349,1062.9578 837.3203,1063.0807 843.6118,1070.0735 C848.4378,1062.1265 854.9466,1062.2198 859.516,1070.3277 C864.9722,1060.6941 871.917,1058.635 879.9991,1067.405 C884.6675,1060.6112 893.1674,1060.5835 897.179,1068.1887 C903.7832,1061.1537 910.3229,1062.7778 914.2149,1071.1815 C920.4537,1062.0435 929.3083,1062.0919 934.1205,1072.625 C941.7414,1063.4324 948.0889,1066.0436 953.5516,1074.943 C958.4126,1068.5363 964.4649,1067.9133 969.1143,1075.1838 C977.2212,1066.5853 986.5757,1067.862 990.2766,1079.7379 C995.1028,1071.2299 1000.9477,1071.5628 1006.662,1078.8146 C1015.9822,1085.333 1015.4716,1091.2651 1007.4362,1098.4672 C1020.527,1103.6601 1019.7942,1114.6148 1009.2511,1121.6573 C1017.1966,1127.8891 1015.5301,1134.2155 1007.4207,1138.7256 C1019.8854,1144.2824 1019.3618,1154.7212 1008.7436,1161.6122 C1003.4736,1171.6435 995.1631,1170.8418 989.2079,1162.3343 C983.1025,1171.3424 974.9633,1170.5386 969.2029,1161.9421 C964.8582,1169.2397 956.8869,1171.3874 952.3241,1162.1648 C947.3477,1172.2617 940.7006,1170.6211 934.5531,1163.364 C929.8156,1174.4596 922.8821,1176.1043 914.7857,1166.5848 C910.1091,1174.3825 902.2797,1173.9719 898.2461,1165.914 C892.6607,1175.1525 886.798,1175.0878 879.2401,1168.2454 C873.4663,1176.1735 864.3788,1176.1886 860.2271,1166.4952 C854.6898,1174.7256 846.2753,1174.1277 842.8607,1164.4381 C837.6801,1173.7072 831.0629,1173.6221 825.1908,1165.1258 C818.0312,1173.2787 810.6038,1172.4523 804.7811,1163.528 C799.0926,1171.5717 793.2144,1170.3876 788.7951,1162.2723 C781.7424,1172.3636 773.219,1171.4744 768.4123,1160.1361 C762.6368,1167.5147 755.5053,1168.7458 750.9586,1158.8915 C741.8051,1155.6384 739.2562,1147.1106 747.8972,1140.8397 C735.2159,1137.7093 735.6454,1128.1735 742.9091,1120.2186 C732.4163,1112.679 735.5494,1103.1436 745.8898,1098.4576 C738.6114,1091.2068 739.7287,1082.7155 750.4254,1079.8451 " fill="none" style="stroke:#181818;stroke-width:1.0;"/><text fill="#000000" font-family="sans-serif" font-size="14" font-weight="bold" lengthAdjust="spacing" textLength="140" x="807.3508" y="1096.4326">Database Service</text></g><!--entity identity--><g id="elem_identity"><rect fill="#F1F1F1" height="46.2969" rx="2.5" ry="2.5" style="stroke:#181818;stroke-width:0.5;" width="78" x="1537.3508" y="868.4375"/><rect fill="#F1F1F1" height="10" style="stroke:#181818;stroke-width:0.5;" width="15" x="1595.3508" y="873.4375"/><rect fill="#F1F1F1" height="2" style="stroke:#181818;stroke-width:0.5;" width="4" x="1593.3508" y="875.4375"/><rect fill="#F1F1F1" height="2" style="stroke:#181818;stroke-width:0.5;" width="4" x="1593.3508" y="879.4375"/><text fill="#000000" font-family="sans-serif" font-size="14" lengthAdjust="spacing" textLength="38" x="1552.3508" y="901.4326">ADFS</text></g><!--entity externalCatalog--><g id="elem_externalCatalog"><ellipse cx="610.3508" cy="1127.9375" fill="#F1F1F1" rx="8" ry="8" style="stroke:#181818;stroke-width:0.5;"/><text fill="#000000" font-family="sans-serif" font-size="14" lengthAdjust="spacing" textLength="119" x="550.8508" y="1157.9326">External Catalog</text></g><!--entity ingress--><g id="elem_ingress"><path d="M371.8508,368.4375 L371.8508,392.4375 M371.8508,380.4375 L388.8508,380.4375 " fill="none" style="stroke:#181818;stroke-width:0.5;"/><ellipse cx="400.8508" cy="380.4375" fill="#F1F1F1" rx="12" ry="12" style="stroke:#181818;stroke-width:0.5;"/><text fill="#000000" font-family="sans-serif" font-size="14" lengthAdjust="spacing" textLength="51" x="366.8508" y="409.4326">ingress</text></g><!--entity loki--><g id="elem_loki"><path d="M1292.3508,878.9375 C1292.3508,868.9375 1315.3508,868.9375 1315.3508,868.9375 C1315.3508,868.9375 1338.3508,868.9375 1338.3508,878.9375 L1338.3508,904.2344 C1338.3508,914.2344 1315.3508,914.2344 1315.3508,914.2344 C1315.3508,914.2344 1292.3508,914.2344 1292.3508,904.2344 L1292.3508,878.9375 " fill="#F1F1F1" style="stroke:#181818;stroke-width:0.5;"/><path d="M1292.3508,878.9375 C1292.3508,888.9375 1315.3508,888.9375 1315.3508,888.9375 C1315.3508,888.9375 1338.3508,888.9375 1338.3508,878.9375 " fill="none" style="stroke:#181818;stroke-width:0.5;"/><text fill="#000000" font-family="sans-serif" font-size="14" lengthAdjust="spacing" textLength="26" x="1302.3508" y="905.9326">loki</text></g><!--entity prometheus--><g id="elem_prometheus"><path d="M1373.3508,878.9375 C1373.3508,868.9375 1427.3508,868.9375 1427.3508,868.9375 C1427.3508,868.9375 1481.3508,868.9375 1481.3508,878.9375 L1481.3508,904.2344 C1481.3508,914.2344 1427.3508,914.2344 1427.3508,914.2344 C1427.3508,914.2344 1373.3508,914.2344 1373.3508,904.2344 L1373.3508,878.9375 " fill="#F1F1F1" style="stroke:#181818;stroke-width:0.5;"/><path d="M1373.3508,878.9375 C1373.3508,888.9375 1427.3508,888.9375 1427.3508,888.9375 C1427.3508,888.9375 1481.3508,888.9375 1481.3508,878.9375 " fill="none" style="stroke:#181818;stroke-width:0.5;"/><text fill="#000000" font-family="sans-serif" font-size="14" lengthAdjust="spacing" textLength="88" x="1383.3508" y="905.9326">prometheus</text></g><!--entity ui--><g id="elem_ui"><rect fill="#F1F1F1" height="46.2969" rx="2.5" ry="2.5" style="stroke:#181818;stroke-width:0.5;" width="141" x="116.8508" y="554.4375"/><rect fill="#F1F1F1" height="10" style="stroke:#181818;stroke-width:0.5;" width="15" x="237.8508" y="559.4375"/><rect fill="#F1F1F1" height="2" style="stroke:#181818;stroke-width:0.5;" width="4" x="235.8508" y="561.4375"/><rect fill="#F1F1F1" height="2" style="stroke:#181818;stroke-width:0.5;" width="4" x="235.8508" y="565.4375"/><text fill="#000000" font-family="sans-serif" font-size="14" lengthAdjust="spacing" textLength="101" x="131.8508" y="587.4326">User Interface</text></g><!--entity admin--><g id="elem_admin"><rect fill="#F1F1F1" height="46.2969" rx="2.5" ry="2.5" style="stroke:#181818;stroke-width:0.5;" width="156" x="314.3508" y="554.4375"/><rect fill="#F1F1F1" height="10" style="stroke:#181818;stroke-width:0.5;" width="15" x="450.3508" y="559.4375"/><rect fill="#F1F1F1" height="2" style="stroke:#181818;stroke-width:0.5;" width="4" x="448.3508" y="561.4375"/><rect fill="#F1F1F1" height="2" style="stroke:#181818;stroke-width:0.5;" width="4" x="448.3508" y="565.4375"/><text fill="#000000" font-family="sans-serif" font-size="14" lengthAdjust="spacing" textLength="116" x="329.3508" y="587.4326">Admin Interface</text></g><!--entity Nginx--><g id="elem_Nginx"><path d="M654.8508,557.4375 L654.8508,581.4375 M654.8508,569.4375 L671.8508,569.4375 " fill="none" style="stroke:#181818;stroke-width:0.5;"/><ellipse cx="683.8508" cy="569.4375" fill="#F1F1F1" rx="12" ry="12" style="stroke:#181818;stroke-width:0.5;"/><text fill="#000000" font-family="sans-serif" font-size="14" lengthAdjust="spacing" textLength="40" x="655.3508" y="598.4326">Nginx</text></g><!--entity Plugins--><g id="elem_Plugins"><rect fill="#F1F1F1" height="46.2969" rx="2.5" ry="2.5" style="stroke:#181818;stroke-width:0.5;" width="190" x="574.3508" y="868.4375"/><rect fill="#F1F1F1" height="10" style="stroke:#181818;stroke-width:0.5;" width="15" x="744.3508" y="873.4375"/><rect fill="#F1F1F1" height="2" style="stroke:#181818;stroke-width:0.5;" width="4" x="742.3508" y="875.4375"/><rect fill="#F1F1F1" height="2" style="stroke:#181818;stroke-width:0.5;" width="4" x="742.3508" y="879.4375"/><text fill="#000000" font-family="sans-serif" font-size="14" lengthAdjust="spacing" textLength="150" x="589.3508" y="901.4326">Open Catalogi plugin</text></g><!--entity Gateway--><g id="elem_Gateway"><rect fill="#F1F1F1" height="46.2969" rx="2.5" ry="2.5" style="stroke:#181818;stroke-width:0.5;" width="139" x="733.8508" y="724.4375"/><rect fill="#F1F1F1" height="10" style="stroke:#181818;stroke-width:0.5;" width="15" x="852.8508" y="729.4375"/><rect fill="#F1F1F1" height="2" style="stroke:#181818;stroke-width:0.5;" width="4" x="850.8508" y="731.4375"/><rect fill="#F1F1F1" height="2" style="stroke:#181818;stroke-width:0.5;" width="4" x="850.8508" y="735.4375"/><text fill="#000000" font-family="sans-serif" font-size="14" lengthAdjust="spacing" textLength="99" x="748.8508" y="757.4326">Web Gateway</text></g><!--entity ORM--><g id="elem_ORM"><rect fill="#F1F1F1" height="46.2969" rx="2.5" ry="2.5" style="stroke:#181818;stroke-width:0.5;" width="73" x="799.8508" y="868.4375"/><rect fill="#F1F1F1" height="10" style="stroke:#181818;stroke-width:0.5;" width="15" x="852.8508" y="873.4375"/><rect fill="#F1F1F1" height="2" style="stroke:#181818;stroke-width:0.5;" width="4" x="850.8508" y="875.4375"/><rect fill="#F1F1F1" height="2" style="stroke:#181818;stroke-width:0.5;" width="4" x="850.8508" y="879.4375"/><text fill="#000000" font-family="sans-serif" font-size="14" lengthAdjust="spacing" textLength="33" x="814.8508" y="901.4326">ORM</text></g><!--entity Redis--><g id="elem_Redis"><rect fill="#F1F1F1" height="46.2969" rx="2.5" ry="2.5" style="stroke:#181818;stroke-width:0.5;" width="79" x="929.8508" y="868.4375"/><rect fill="#F1F1F1" height="10" style="stroke:#181818;stroke-width:0.5;" width="15" x="988.8508" y="873.4375"/><rect fill="#F1F1F1" height="2" style="stroke:#181818;stroke-width:0.5;" width="4" x="986.8508" y="875.4375"/><rect fill="#F1F1F1" height="2" style="stroke:#181818;stroke-width:0.5;" width="4" x="986.8508" y="879.4375"/><text fill="#000000" font-family="sans-serif" font-size="14" lengthAdjust="spacing" textLength="39" x="944.8508" y="901.4326">Redis</text></g><!--entity MognoDB--><g id="elem_MognoDB"><path d="M1092.8508,878.9375 C1092.8508,868.9375 1139.3508,868.9375 1139.3508,868.9375 C1139.3508,868.9375 1185.8508,868.9375 1185.8508,878.9375 L1185.8508,904.2344 C1185.8508,914.2344 1139.3508,914.2344 1139.3508,914.2344 C1139.3508,914.2344 1092.8508,914.2344 1092.8508,904.2344 L1092.8508,878.9375 " fill="#F1F1F1" style="stroke:#181818;stroke-width:0.5;"/><path d="M1092.8508,878.9375 C1092.8508,888.9375 1139.3508,888.9375 1139.3508,888.9375 C1139.3508,888.9375 1185.8508,888.9375 1185.8508,878.9375 " fill="none" style="stroke:#181818;stroke-width:0.5;"/><text fill="#000000" font-family="sans-serif" font-size="14" lengthAdjust="spacing" textLength="69" x="1102.8508" y="905.9326">MongoDB</text></g><!--entity db--><g id="elem_db"><path d="M757.3508,1115.4375 C757.3508,1105.4375 877.3508,1105.4375 877.3508,1105.4375 C877.3508,1105.4375 997.3508,1105.4375 997.3508,1115.4375 L997.3508,1140.7344 C997.3508,1150.7344 877.3508,1150.7344 877.3508,1150.7344 C877.3508,1150.7344 757.3508,1150.7344 757.3508,1140.7344 L757.3508,1115.4375 " fill="#F1F1F1" style="stroke:#181818;stroke-width:0.5;"/><path d="M757.3508,1115.4375 C757.3508,1125.4375 877.3508,1125.4375 877.3508,1125.4375 C877.3508,1125.4375 997.3508,1125.4375 997.3508,1115.4375 " fill="none" style="stroke:#181818;stroke-width:0.5;"/><text fill="#000000" font-family="sans-serif" font-size="14" lengthAdjust="spacing" textLength="220" x="767.3508" y="1142.4326">Postgress/MsSQL/MySql/Oracle</text></g><!--entity user--><g id="elem_user"><ellipse cx="100.3508" cy="63.9375" fill="#F1F1F1" rx="8" ry="8" style="stroke:#181818;stroke-width:0.5;"/><path d="M100.3508,71.9375 L100.3508,98.9375 M87.3508,79.9375 L113.3508,79.9375 M100.3508,98.9375 L87.3508,113.9375 M100.3508,98.9375 L113.3508,113.9375 " fill="none" style="stroke:#181818;stroke-width:0.5;"/><text fill="#000000" font-family="sans-serif" font-size="14" lengthAdjust="spacing" textLength="31" x="84.8508" y="128.4326">User</text></g><!--entity f5extern--><g id="elem_f5extern"><ellipse cx="100.3508" cy="237.4375" fill="#F1F1F1" rx="8" ry="8" style="stroke:#181818;stroke-width:0.5;"/><text fill="#000000" font-family="sans-serif" font-size="14" lengthAdjust="spacing" textLength="144" x="28.3508" y="267.4326">F5 extern (port 443)</text></g><!--entity adminUser--><g id="elem_adminUser"><ellipse cx="376.3508" cy="63.9375" fill="#F1F1F1" rx="8" ry="8" style="stroke:#181818;stroke-width:0.5;"/><path d="M376.3508,71.9375 L376.3508,98.9375 M363.3508,79.9375 L389.3508,79.9375 M376.3508,98.9375 L363.3508,113.9375 M376.3508,98.9375 L389.3508,113.9375 " fill="none" style="stroke:#181818;stroke-width:0.5;"/><text fill="#000000" font-family="sans-serif" font-size="14" lengthAdjust="spacing" textLength="46" x="353.3508" y="128.4326">Admin</text></g><!--entity f5intern--><g id="elem_f5intern"><ellipse cx="376.3508" cy="237.4375" fill="#F1F1F1" rx="8" ry="8" style="stroke:#181818;stroke-width:0.5;"/><text fill="#000000" font-family="sans-serif" font-size="14" lengthAdjust="spacing" textLength="140" x="306.3508" y="267.4326">F5 intern (port 443)</text></g><!--entity externalCatalouge--><g id="elem_externalCatalouge"><ellipse cx="570.3508" cy="63.9375" fill="#F1F1F1" rx="8" ry="8" style="stroke:#181818;stroke-width:0.5;"/><path d="M570.3508,71.9375 L570.3508,98.9375 M557.3508,79.9375 L583.3508,79.9375 M570.3508,98.9375 L557.3508,113.9375 M570.3508,98.9375 L583.3508,113.9375 " fill="none" style="stroke:#181818;stroke-width:0.5;"/><text fill="#000000" font-family="sans-serif" font-size="14" lengthAdjust="spacing" textLength="131" x="504.8508" y="128.4326">Externe Catalogus</text></g><!--entity hipp--><g id="elem_hipp"><ellipse cx="570.3508" cy="237.4375" fill="#F1F1F1" rx="8" ry="8" style="stroke:#181818;stroke-width:0.5;"/><text fill="#000000" font-family="sans-serif" font-size="14" lengthAdjust="spacing" textLength="147" x="496.8508" y="267.4326">Hipp (outd of scope)</text></g><!--link externalCatalouge to hipp--><g id="link_externalCatalouge_hipp"><path d="M570.3508,136.8475 C570.3508,166.1275 570.3508,203.1975 570.3508,222.8185 " fill="none" id="externalCatalouge-hipp" style="stroke:#181818;stroke-width:1.0;stroke-dasharray:7.0,7.0;"/><polygon fill="#181818" points="570.3508,131.7475,566.3508,140.7475,570.3508,136.7475,574.3508,140.7475,570.3508,131.7475" style="stroke:#181818;stroke-width:1.0;"/><polygon fill="#181818" points="570.3508,228.3185,574.3508,219.3185,570.3508,223.3185,566.3508,219.3185,570.3508,228.3185" style="stroke:#181818;stroke-width:1.0;"/><text fill="#000000" font-family="sans-serif" font-size="13" lengthAdjust="spacing" textLength="29" x="571.3508" y="174.5044">PKIO</text></g><!--link user to f5extern--><g id="link_user_f5extern"><path d="M100.3508,136.8475 C100.3508,166.1275 100.3508,203.1975 100.3508,222.8185 " fill="none" id="user-f5extern" style="stroke:#181818;stroke-width:1.0;stroke-dasharray:7.0,7.0;"/><polygon fill="#181818" points="100.3508,131.7475,96.3508,140.7475,100.3508,136.7475,104.3508,140.7475,100.3508,131.7475" style="stroke:#181818;stroke-width:1.0;"/><polygon fill="#181818" points="100.3508,228.3185,104.3508,219.3185,100.3508,223.3185,96.3508,219.3185,100.3508,228.3185" style="stroke:#181818;stroke-width:1.0;"/><text fill="#000000" font-family="sans-serif" font-size="13" lengthAdjust="spacing" textLength="114" x="101.3508" y="174.5044">Browser ANONIEM</text></g><!--link adminUser to f5intern--><g id="link_adminUser_f5intern"><path d="M376.3508,136.8475 C376.3508,166.1275 376.3508,203.1975 376.3508,222.8185 " fill="none" id="adminUser-f5intern" style="stroke:#181818;stroke-width:1.0;stroke-dasharray:7.0,7.0;"/><polygon fill="#181818" points="376.3508,131.7475,372.3508,140.7475,376.3508,136.7475,380.3508,140.7475,376.3508,131.7475" style="stroke:#181818;stroke-width:1.0;"/><polygon fill="#181818" points="376.3508,228.3185,380.3508,219.3185,376.3508,223.3185,372.3508,219.3185,376.3508,228.3185" style="stroke:#181818;stroke-width:1.0;"/><text fill="#000000" font-family="sans-serif" font-size="13" lengthAdjust="spacing" textLength="151" x="377.3508" y="174.5044">Browser MET JWT Claim</text></g><!--link f5extern to ingress--><g id="link_f5extern_ingress"><path d="M100.7167,251.9455 C101.9143,268.7065 106.4985,297.0685 123.3508,313.4375 C189.4898,377.6795 306.0058,387.2985 361.4088,388.0075 " fill="none" id="f5extern-ingress" style="stroke:#181818;stroke-width:1.0;stroke-dasharray:7.0,7.0;"/><polygon fill="#181818" points="100.4275,246.7405,96.9325,255.9484,100.7046,251.7328,104.9202,255.5049,100.4275,246.7405" style="stroke:#181818;stroke-width:1.0;"/><polygon fill="#181818" points="366.5758,388.0505,357.6092,383.976,361.576,388.0091,357.5429,391.9758,366.5758,388.0505" style="stroke:#181818;stroke-width:1.0;"/><text fill="#000000" font-family="sans-serif" font-size="13" lengthAdjust="spacing" textLength="250" x="124.3508" y="309.5044">Alleen openbare endpoints en objecten</text></g><!--link f5intern to ingress--><g id="link_f5intern_ingress"><path d="M377.7708,251.6585 C380.3568,275.7405 385.8858,327.2315 389.3428,359.4275 " fill="none" id="f5intern-ingress" style="stroke:#181818;stroke-width:1.0;stroke-dasharray:7.0,7.0;"/><polygon fill="#181818" points="377.2108,246.4485,374.1954,255.8244,377.7451,251.4199,382.1496,254.9695,377.2108,246.4485" style="stroke:#181818;stroke-width:1.0;"/><polygon fill="#181818" points="389.8798,364.4215,392.8952,355.0456,389.3455,359.4501,384.941,355.9005,389.8798,364.4215" style="stroke:#181818;stroke-width:1.0;"/><text fill="#000000" font-family="sans-serif" font-size="13" lengthAdjust="spacing" textLength="90" x="385.3508" y="309.5044">Alle endpionts</text></g><!--link hipp to ingress--><g id="link_hipp_ingress"><path d="M557.4678,249.9565 C540.7698,264.8205 510.6708,291.3905 484.3508,313.4375 C463.7528,330.6915 440.1268,349.6785 421.9748,364.0995 " fill="none" id="hipp-ingress" style="stroke:#181818;stroke-width:1.0;stroke-dasharray:7.0,7.0;"/><polygon fill="#181818" points="561.4138,246.4395,552.0337,249.4418,557.6812,249.7664,557.3567,255.4139,561.4138,246.4395" style="stroke:#181818;stroke-width:1.0;"/><polygon fill="#181818" points="417.9538,367.2905,427.4901,364.8291,421.8704,364.1824,422.5171,358.5626,417.9538,367.2905" style="stroke:#181818;stroke-width:1.0;"/><text fill="#000000" font-family="sans-serif" font-size="13" lengthAdjust="spacing" textLength="158" x="505.3508" y="309.5044">Catalogus uitwisselingen</text></g><!--link ingress to ui--><g id="link_ingress_ui"><path d="M362.8728,413.8175 C352.0148,422.8055 339.6178,433.0775 328.3508,442.4375 C315.0008,453.5285 311.2198,455.7915 298.3508,467.4375 C268.0608,494.8475 234.8158,527.9165 212.6818,550.3905 " fill="none" id="ingress-ui" style="stroke:#181818;stroke-width:1.0;stroke-dasharray:7.0,7.0;"/><polygon fill="#181818" points="366.7988,410.5675,357.3154,413.2258,362.9474,413.756,362.4171,419.388,366.7988,410.5675" style="stroke:#181818;stroke-width:1.0;"/><polygon fill="#181818" points="208.9538,554.1815,218.1158,550.5681,212.4592,550.6161,212.4112,544.9594,208.9538,554.1815" style="stroke:#181818;stroke-width:1.0;"/><text fill="#000000" font-family="sans-serif" font-size="13" lengthAdjust="spacing" textLength="54" x="329.3508" y="455.5044">Exposes</text></g><!--link ingress to admin--><g id="link_ingress_admin"><path d="M392.3508,418.0635 C392.3508,453.6175 392.3508,513.8515 392.3508,548.8955 " fill="none" id="ingress-admin" style="stroke:#181818;stroke-width:1.0;stroke-dasharray:7.0,7.0;"/><polygon fill="#181818" points="392.3508,412.7435,388.3508,421.7435,392.3508,417.7435,396.3508,421.7435,392.3508,412.7435" style="stroke:#181818;stroke-width:1.0;"/><polygon fill="#181818" points="392.3508,554.2955,396.3508,545.2955,392.3508,549.2955,388.3508,545.2955,392.3508,554.2955" style="stroke:#181818;stroke-width:1.0;"/><text fill="#000000" font-family="sans-serif" font-size="13" lengthAdjust="spacing" textLength="54" x="393.3508" y="455.5044">Exposes</text></g><!--link ingress to Nginx--><g id="link_ingress_Nginx"><path d="M422.2248,409.1775 C476.9048,445.3095 592.4158,521.6365 646.4018,557.3085 " fill="none" id="ingress-Nginx" style="stroke:#181818;stroke-width:1.0;stroke-dasharray:7.0,7.0;"/><polygon fill="#181818" points="417.9638,406.3625,423.2664,414.6621,422.135,409.1195,427.6776,407.9881,417.9638,406.3625" style="stroke:#181818;stroke-width:1.0;"/><polygon fill="#181818" points="650.8068,560.2195,645.5042,551.9199,646.6356,557.4625,641.093,558.5939,650.8068,560.2195" style="stroke:#181818;stroke-width:1.0;"/><text fill="#000000" font-family="sans-serif" font-size="13" lengthAdjust="spacing" textLength="54" x="493.3508" y="455.5044">Exposes</text></g><!--link Nginx to Gateway--><g id="link_Nginx_Gateway"><path d="M696.1648,605.7565 C720.2438,637.3595 759.6088,689.0265 783.3408,720.1745 " fill="none" id="Nginx-Gateway" style="stroke:#181818;stroke-width:1.0;stroke-dasharray:7.0,7.0;"/><polygon fill="#181818" points="692.8798,601.4445,695.1521,611.0276,695.9099,605.4218,701.5157,606.1795,692.8798,601.4445" style="stroke:#181818;stroke-width:1.0;"/><polygon fill="#181818" points="786.4398,724.2425,784.1674,714.6594,783.4097,720.2652,777.8038,719.5075,786.4398,724.2425" style="stroke:#181818;stroke-width:1.0;"/><text fill="#000000" font-family="sans-serif" font-size="13" lengthAdjust="spacing" textLength="32" x="748.3508" y="669.5044">Runs</text></g><!--link Gateway to Plugins--><g id="link_Gateway_Plugins"><path d="M762.4328,773.7355 C751.3778,781.5635 739.8548,790.7095 730.3508,800.4375 C711.8668,819.3565 695.3418,844.5295 684.1688,863.4405 " fill="none" id="Gateway-Plugins" style="stroke:#181818;stroke-width:1.0;stroke-dasharray:7.0,7.0;"/><polygon fill="#181818" points="766.8058,770.6895,757.1343,772.5502,762.7027,773.5468,761.706,779.1152,766.8058,770.6895" style="stroke:#181818;stroke-width:1.0;"/><polygon fill="#181818" points="681.4458,868.1065,689.4366,862.3491,683.9658,863.788,682.5269,858.3172,681.4458,868.1065" style="stroke:#181818;stroke-width:1.0;"/><text fill="#000000" font-family="sans-serif" font-size="13" lengthAdjust="spacing" textLength="76" x="731.3508" y="813.5044">Implements</text></g><!--link Gateway to identity--><g id="link_Gateway_identity"><path d="M878.5438,747.6005 C1033.0908,746.9335 1380.8708,751.1605 1487.3508,800.4375 C1517.2608,814.2815 1542.6808,842.8005 1558.6008,864.0455 " fill="none" id="Gateway-identity" style="stroke:#181818;stroke-width:1.0;stroke-dasharray:7.0,7.0;"/><polygon fill="#181818" points="873.1278,747.6255,882.146,751.5843,878.1277,747.6026,882.1094,743.5844,873.1278,747.6255" style="stroke:#181818;stroke-width:1.0;"/><polygon fill="#181818" points="1561.6508,868.1905,1559.5201,858.5749,1558.6797,864.169,1553.0856,863.3286,1561.6508,868.1905" style="stroke:#181818;stroke-width:1.0;"/><text fill="#000000" font-family="sans-serif" font-size="13" lengthAdjust="spacing" textLength="76" x="1514.3508" y="813.5044">Implements</text></g><!--link Gateway to loki--><g id="link_Gateway_loki"><path d="M873.0028,754.8225 C954.1498,763.8525 1091.2708,784.0935 1202.3508,825.4375 C1233.3708,836.9835 1265.8308,856.5515 1287.9608,871.2075 " fill="none" id="Gateway-to-loki" style="stroke:#181818;stroke-width:1.0;stroke-dasharray:7.0,7.0;"/><polygon fill="#181818" points="1292.2408,874.0695,1286.9698,865.7498,1288.0801,871.2967,1282.5333,872.4069,1292.2408,874.0695" style="stroke:#181818;stroke-width:1.0;"/><text fill="#000000" font-family="sans-serif" font-size="13" lengthAdjust="spacing" textLength="47" x="1171.3508" y="813.5044">Logs to</text></g><!--link Gateway to prometheus--><g id="link_Gateway_prometheus"><path d="M872.9118,752.5405 C1001.9728,761.0585 1272.9608,783.4595 1356.3508,825.4375 C1375.3208,834.9845 1392.9408,851.0665 1405.8908,864.8445 " fill="none" id="Gateway-to-prometheus" style="stroke:#181818;stroke-width:1.0;stroke-dasharray:7.0,7.0;"/><polygon fill="#181818" points="1409.4208,868.6615,1406.2522,859.3363,1406.0281,864.9887,1400.3757,864.7646,1409.4208,868.6615" style="stroke:#181818;stroke-width:1.0;"/><text fill="#000000" font-family="sans-serif" font-size="13" lengthAdjust="spacing" textLength="67" x="1333.3508" y="813.5044">Reports to</text></g><!--link Plugins to externalCatalog--><g id="link_Plugins_externalCatalog"><path d="M662.5598,919.4275 C649.8538,969.9285 622.9288,1076.9465 613.6078,1113.9934 " fill="none" id="Plugins-externalCatalog" style="stroke:#181818;stroke-width:1.0;stroke-dasharray:7.0,7.0;"/><polygon fill="#181818" points="663.7998,914.4985,657.7246,922.2504,662.5797,919.3474,665.4827,924.2025,663.7998,914.4985" style="stroke:#181818;stroke-width:1.0;"/><polygon fill="#181818" points="612.3638,1118.9365,618.439,1111.1846,613.5839,1114.0876,610.6808,1109.2325,612.3638,1118.9365" style="stroke:#181818;stroke-width:1.0;"/><text fill="#000000" font-family="sans-serif" font-size="13" lengthAdjust="spacing" textLength="155" x="645.3508" y="1007.5044">exchanges based on pki</text></g><!--link Gateway to MognoDB--><g id="link_Gateway_MognoDB"><path d="M873.1348,768.9975 C917.5178,782.9585 975.7588,802.9315 1025.3508,825.4375 C1051.3008,837.2165 1079.1208,853.0055 1100.7708,866.0725 " fill="none" id="Gateway-to-MognoDB" style="stroke:#181818;stroke-width:1.0;stroke-dasharray:7.0,7.0;"/><polygon fill="#181818" points="1105.3008,868.8165,1099.6892,860.7227,1101.0286,866.2187,1095.5326,867.5581,1105.3008,868.8165" style="stroke:#181818;stroke-width:1.0;"/><text fill="#000000" font-family="sans-serif" font-size="13" lengthAdjust="spacing" textLength="35" x="1003.3508" y="813.5044">Index</text></g><!--link Gateway to Redis--><g id="link_Gateway_Redis"><path d="M829.2888,770.6255 C859.1338,796.1555 908.0588,838.0075 939.4738,864.8795 " fill="none" id="Gateway-to-Redis" style="stroke:#181818;stroke-width:1.0;stroke-dasharray:7.0,7.0;"/><polygon fill="#181818" points="943.5958,868.4055,939.356,859.5159,939.796,865.1557,934.1563,865.5956,943.5958,868.4055" style="stroke:#181818;stroke-width:1.0;"/><text fill="#000000" font-family="sans-serif" font-size="13" lengthAdjust="spacing" textLength="40" x="883.3508" y="813.5044">Cache</text></g><!--link Gateway to ORM--><g id="link_Gateway_ORM"><path d="M808.5068,770.6255 C814.3188,795.6345 823.7708,836.3055 830.0248,863.2155 " fill="none" id="Gateway-to-ORM" style="stroke:#181818;stroke-width:1.0;stroke-dasharray:7.0,7.0;"/><polygon fill="#181818" points="831.2308,868.4055,833.0909,858.7339,830.0996,863.5351,825.2984,860.5438,831.2308,868.4055" style="stroke:#181818;stroke-width:1.0;"/><text fill="#000000" font-family="sans-serif" font-size="13" lengthAdjust="spacing" textLength="34" x="820.3508" y="813.5044">Store</text></g><!--link ORM to db--><g id="link_ORM_db"><path d="M840.2078,914.4985 C847.7518,957.6435 864.4338,1053.0595 872.6258,1099.9105 " fill="none" id="ORM-to-db" style="stroke:#181818;stroke-width:1.0;stroke-dasharray:7.0,7.0;"/><polygon fill="#181818" points="873.5338,1105.1055,875.9262,1095.5516,872.6738,1100.18,868.0455,1096.9276,873.5338,1105.1055" style="stroke:#181818;stroke-width:1.0;"/><text fill="#000000" font-family="sans-serif" font-size="13" lengthAdjust="spacing" textLength="43" x="858.3508" y="1007.5044">Persist</text></g><text fill="#888888" font-family="sans-serif" font-size="10" lengthAdjust="spacing" textLength="180" x="723.1469" y="1205.7197">Common Gateway | Components</text><!--SRC=[TLHHKzim37xthz3rgNk1OuENt6vt1GhhHbj6uTWTnuEJgAb7QcUnCzen_ljaEMcQ5fxYI9y-I_8dEULoZ61Qe8OpwMHkCYNcnZWi8pWpowNHS2aTFiir_FE6mcZKpee5ohJ6D2OX4sTAwDrPB7iWBLHq44eJrrmc2BsB4y0L_Mde5wPqS7pywGC3voV1tZ0CqgNIx97-TBVFmtzly0Jx9fKXqs9JMcKP5YwJUR1M6MwJVrL50NrJkHJC76nY2Wpa2t88aL10IXd-hKhilGXu69nVp1x10rHARL1kBLuti16dWuwGMrSCw_kRjDv8AlCa3SltAcOMjCGZObFfL9Phw2cTbMX3JVLPf1GUIukGcoVL_XMbMQ9RO4NFLCZaIMQKnvLSOmadqEVSg6NAQAhrfKNS85dfZRMJIXFso7lXmJy8Z9g2GlMLyYc_6_anHFBBxeRo8rEqBtadkMFeNv4aasvQaylHv6TBpjHjMoQPqYjk2fywQJLQxiO-TFGFHLvHuADdkEQZ9SWzniqaiAS- - -2RCLlekzE2LDcTYzZ6Q3vrInuRdPdpqvtaDc_O0hYuiSaq_OI-lUvrxWZwFf8RL-lel66QOVb79QpVBVPhOnsBw71iPp-k3iVhsU_yS4h2o95lJEDmsTxymEU3Woyy815SVnzDXP_yO6n6EuBJqZnxys0odOo6Ox4PxGPOptIB70zluTlzBPpbKYr5mnJWjTuZ6EGvqkFHcEfObWYeqy8G5KqKMUDVc3ZKOiE-7ymHf7o_rFpiTn6RpK42Ty_AMip9Humr8i0h5S5mLHYBjklW8j_niJfR7_z2SDNYYk2c8l4recLNhSW8HiiYnoLltWwWMKDl8Zp0RuO8QAmiEDFnj5k2RaQ_MnbINndeT_PKH8Pa8Qab5hoEQ6jgA6ZrRFFMKgMCT8ghZel7mBSvMM37GTCKmOosE0ew0jlIcFI5fLNM_GS0]--></g></svg>