<?xml version="1.0" encoding="us-ascii" standalone="no"?><svg xmlns="http://www.w3.org/2000/svg" xmlns:xlink="http://www.w3.org/1999/xlink" contentStyleType="text/css" height="408px" preserveAspectRatio="none" style="width:486px;height:408px;background:#FFFFFF;" version="1.1" viewBox="0 0 486 408" width="486px" zoomAndPan="magnify"><defs/><g><text fill="#000000" font-family="sans-serif" font-size="14" font-weight="bold" lengthAdjust="spacing" textLength="121" x="178.5" y="40.6357">Handling Proxy</text><line style="stroke:#181818;stroke-width:0.5;stroke-dasharray:5.0,5.0;" x1="41" x2="41" y1="103.2344" y2="340.1641"/><line style="stroke:#181818;stroke-width:0.5;stroke-dasharray:5.0,5.0;" x1="152" x2="152" y1="103.2344" y2="340.1641"/><line style="stroke:#181818;stroke-width:0.5;stroke-dasharray:5.0,5.0;" x1="357" x2="357" y1="103.2344" y2="340.1641"/><line style="stroke:#181818;stroke-width:0.5;stroke-dasharray:5.0,5.0;" x1="446" x2="446" y1="103.2344" y2="340.1641"/><text fill="#000000" font-family="sans-serif" font-size="14" lengthAdjust="spacing" textLength="66" x="5" y="99.9326">Endpoint</text><path d="M20.5,58.9375 L20.5,82.9375 M20.5,70.9375 L37.5,70.9375 " fill="none" style="stroke:#181818;stroke-width:0.5;"/><ellipse cx="49.5" cy="70.9375" fill="#E2E2F0" rx="12" ry="12" style="stroke:#181818;stroke-width:0.5;"/><text fill="#000000" font-family="sans-serif" font-size="14" lengthAdjust="spacing" textLength="66" x="5" y="352.1592">Endpoint</text><path d="M20.5,359.4609 L20.5,383.4609 M20.5,371.4609 L37.5,371.4609 " fill="none" style="stroke:#181818;stroke-width:0.5;"/><ellipse cx="49.5" cy="371.4609" fill="#E2E2F0" rx="12" ry="12" style="stroke:#181818;stroke-width:0.5;"/><rect fill="#E2E2F0" height="30.2969" style="stroke:#181818;stroke-width:0.5;" width="126" x="91" y="67.9375"/><rect fill="#E2E2F0" height="30.2969" style="stroke:#181818;stroke-width:0.5;" width="126" x="87" y="71.9375"/><text fill="#000000" font-family="sans-serif" font-size="14" lengthAdjust="spacing" textLength="112" x="94" y="91.9326">RequestService</text><rect fill="#E2E2F0" height="30.2969" style="stroke:#181818;stroke-width:0.5;" width="126" x="91" y="339.1641"/><rect fill="#E2E2F0" height="30.2969" style="stroke:#181818;stroke-width:0.5;" width="126" x="87" y="343.1641"/><text fill="#000000" font-family="sans-serif" font-size="14" lengthAdjust="spacing" textLength="112" x="94" y="363.1592">RequestService</text><text fill="#000000" font-family="sans-serif" font-size="14" lengthAdjust="spacing" textLength="98" x="305" y="99.9326">Authorization</text><ellipse cx="357" cy="70.9375" fill="#E2E2F0" rx="12" ry="12" style="stroke:#181818;stroke-width:0.5;"/><polygon fill="#181818" points="353,58.9375,359,53.9375,357,58.9375,359,63.9375,353,58.9375" style="stroke:#181818;stroke-width:1.0;"/><text fill="#000000" font-family="sans-serif" font-size="14" lengthAdjust="spacing" textLength="98" x="305" y="352.1592">Authorization</text><ellipse cx="357" cy="371.4609" fill="#E2E2F0" rx="12" ry="12" style="stroke:#181818;stroke-width:0.5;"/><polygon fill="#181818" points="353,359.4609,359,354.4609,357,359.4609,359,364.4609,353,359.4609" style="stroke:#181818;stroke-width:1.0;"/><text fill="#000000" font-family="sans-serif" font-size="14" lengthAdjust="spacing" textLength="49" x="419" y="99.9326">Source</text><ellipse cx="446.5" cy="70.9375" fill="#E2E2F0" rx="12" ry="12" style="stroke:#181818;stroke-width:0.5;"/><line style="stroke:#181818;stroke-width:0.5;" x1="434.5" x2="458.5" y1="84.9375" y2="84.9375"/><text fill="#000000" font-family="sans-serif" font-size="14" lengthAdjust="spacing" textLength="49" x="419" y="352.1592">Source</text><ellipse cx="446.5" cy="371.4609" fill="#E2E2F0" rx="12" ry="12" style="stroke:#181818;stroke-width:0.5;"/><line style="stroke:#181818;stroke-width:0.5;" x1="434.5" x2="458.5" y1="385.4609" y2="385.4609"/><polygon fill="#181818" points="140,130.3672,150,134.3672,140,138.3672,144,134.3672" style="stroke:#181818;stroke-width:1.0;"/><line style="stroke:#181818;stroke-width:1.0;" x1="41" x2="146" y1="134.3672" y2="134.3672"/><text fill="#000000" font-family="sans-serif" font-size="13" font-weight="bold" lengthAdjust="spacing" textLength="9" x="48" y="129.3013">1</text><text fill="#000000" font-family="sans-serif" font-size="13" lengthAdjust="spacing" textLength="53" x="61" y="129.3013">Request</text><polygon fill="#181818" points="345,159.5,355,163.5,345,167.5,349,163.5" style="stroke:#181818;stroke-width:1.0;"/><line style="stroke:#181818;stroke-width:1.0;" x1="152" x2="351" y1="163.5" y2="163.5"/><text fill="#000000" font-family="sans-serif" font-size="13" font-weight="bold" lengthAdjust="spacing" textLength="9" x="159" y="158.4341">2</text><text fill="#000000" font-family="sans-serif" font-size="13" lengthAdjust="spacing" textLength="85" x="172" y="158.4341">Authorization</text><polygon fill="#181818" points="163,188.6328,153,192.6328,163,196.6328,159,192.6328" style="stroke:#181818;stroke-width:1.0;"/><line style="stroke:#181818;stroke-width:1.0;stroke-dasharray:2.0,2.0;" x1="157" x2="356" y1="192.6328" y2="192.6328"/><text fill="#000000" font-family="sans-serif" font-size="13" font-weight="bold" lengthAdjust="spacing" textLength="8" x="169" y="187.5669">3</text><text fill="#000000" font-family="sans-serif" font-size="13" lengthAdjust="spacing" textLength="85" x="181" y="187.5669">Authorization</text><line style="stroke:#181818;stroke-width:1.0;" x1="152" x2="194" y1="221.7656" y2="221.7656"/><line style="stroke:#181818;stroke-width:1.0;" x1="194" x2="194" y1="221.7656" y2="234.7656"/><line style="stroke:#181818;stroke-width:1.0;" x1="153" x2="194" y1="234.7656" y2="234.7656"/><polygon fill="#181818" points="163,230.7656,153,234.7656,163,238.7656,159,234.7656" style="stroke:#181818;stroke-width:1.0;"/><text fill="#000000" font-family="sans-serif" font-size="13" font-weight="bold" lengthAdjust="spacing" textLength="9" x="159" y="216.6997">4</text><text fill="#000000" font-family="sans-serif" font-size="13" lengthAdjust="spacing" textLength="178" x="172" y="216.6997">Set authorization for source</text><polygon fill="#181818" points="434.5,259.8984,444.5,263.8984,434.5,267.8984,438.5,263.8984" style="stroke:#181818;stroke-width:1.0;"/><line style="stroke:#181818;stroke-width:1.0;" x1="152" x2="440.5" y1="263.8984" y2="263.8984"/><text fill="#000000" font-family="sans-serif" font-size="13" font-weight="bold" lengthAdjust="spacing" textLength="9" x="159" y="258.8325">5</text><text fill="#000000" font-family="sans-serif" font-size="13" lengthAdjust="spacing" textLength="87" x="172" y="258.8325">Pass Request</text><polygon fill="#181818" points="163,289.0313,153,293.0313,163,297.0313,159,293.0313" style="stroke:#181818;stroke-width:1.0;"/><line style="stroke:#181818;stroke-width:1.0;stroke-dasharray:2.0,2.0;" x1="157" x2="445.5" y1="293.0313" y2="293.0313"/><text fill="#000000" font-family="sans-serif" font-size="13" font-weight="bold" lengthAdjust="spacing" textLength="9" x="169" y="287.9653">6</text><text fill="#000000" font-family="sans-serif" font-size="13" lengthAdjust="spacing" textLength="97" x="182" y="287.9653">Pass Response</text><polygon fill="#181818" points="52,318.1641,42,322.1641,52,326.1641,48,322.1641" style="stroke:#181818;stroke-width:1.0;"/><line style="stroke:#181818;stroke-width:1.0;stroke-dasharray:2.0,2.0;" x1="46" x2="151" y1="322.1641" y2="322.1641"/><text fill="#000000" font-family="sans-serif" font-size="13" font-weight="bold" lengthAdjust="spacing" textLength="9" x="58" y="317.0981">7</text><text fill="#000000" font-family="sans-serif" font-size="13" lengthAdjust="spacing" textLength="63" x="71" y="317.0981">Response</text><text fill="#888888" font-family="sans-serif" font-size="10" lengthAdjust="spacing" textLength="29" x="449" y="14.2822">Proxy</text><text fill="#888888" font-family="sans-serif" font-size="10" lengthAdjust="spacing" textLength="163" x="157.5" y="397.7432">Common Gateway | Endpoints</text><!--SRC=[RL5BJiCm4DtFAUO2kO0NI0WXM29oWcaofPOSJx77GAeU7hTE8c8pEp-_ptpKgcE3h-H7P_q7lWNvcU4eeXmCFiaqYSSNKlwc6Q_uxCUpMAyHJapZZL84G4d5f-d00U0WoOyKPior2d0jYXi6WpZ7Wrhn4T_vCt7KdiEN7RWGzrYcUmtYxZQFIKyIx8LkwiLtXm5xjJgNq5vIk9l-wQ9W05k7tKCLQDOtLCrbPfLlgl3zTzTOjuesea8Czgn8E-EZ18nbZbQ_39rFH77R9Inezy-q2o-UyprQmonOLsKsrYy0]--></g></svg>