<?xml version="1.0" encoding="us-ascii" standalone="no"?><svg xmlns="http://www.w3.org/2000/svg" xmlns:xlink="http://www.w3.org/1999/xlink" contentStyleType="text/css" height="464px" preserveAspectRatio="none" style="width:749px;height:464px;background:#FFFFFF;" version="1.1" viewBox="0 0 749 464" width="749px" zoomAndPan="magnify"><defs/><g><text fill="#000000" font-family="sans-serif" font-size="14" font-weight="bold" lengthAdjust="spacing" textLength="121" x="310.25" y="40.6357">Handling Proxy</text><line style="stroke:#181818;stroke-width:0.5;stroke-dasharray:5.0,5.0;" x1="45" x2="45" y1="131.2344" y2="368.1641"/><line style="stroke:#181818;stroke-width:0.5;stroke-dasharray:5.0,5.0;" x1="131" x2="131" y1="131.2344" y2="368.1641"/><line style="stroke:#181818;stroke-width:0.5;stroke-dasharray:5.0,5.0;" x1="229" x2="229" y1="131.2344" y2="368.1641"/><line style="stroke:#181818;stroke-width:0.5;stroke-dasharray:5.0,5.0;" x1="328" x2="328" y1="131.2344" y2="368.1641"/><line style="stroke:#181818;stroke-width:0.5;stroke-dasharray:5.0,5.0;" x1="403" x2="403" y1="131.2344" y2="368.1641"/><line style="stroke:#181818;stroke-width:0.5;stroke-dasharray:5.0,5.0;" x1="537.5" x2="537.5" y1="131.2344" y2="368.1641"/><text fill="#000000" font-family="sans-serif" font-size="14" lengthAdjust="spacing" textLength="74" x="5" y="127.9326">Requester</text><ellipse cx="45" cy="63.4375" fill="#E2E2F0" rx="8" ry="8" style="stroke:#181818;stroke-width:0.5;"/><path d="M45,71.4375 L45,98.4375 M32,79.4375 L58,79.4375 M45,98.4375 L32,113.4375 M45,98.4375 L58,113.4375 " fill="none" style="stroke:#181818;stroke-width:0.5;"/><text fill="#000000" font-family="sans-serif" font-size="14" lengthAdjust="spacing" textLength="74" x="5" y="380.1592">Requester</text><ellipse cx="45" cy="391.9609" fill="#E2E2F0" rx="8" ry="8" style="stroke:#181818;stroke-width:0.5;"/><path d="M45,399.9609 L45,426.9609 M32,407.9609 L58,407.9609 M45,426.9609 L32,441.9609 M45,426.9609 L58,441.9609 " fill="none" style="stroke:#181818;stroke-width:0.5;"/><text fill="#000000" font-family="sans-serif" font-size="14" lengthAdjust="spacing" textLength="66" x="95" y="127.9326">Endpoint</text><path d="M110.5,86.9375 L110.5,110.9375 M110.5,98.9375 L127.5,98.9375 " fill="none" style="stroke:#181818;stroke-width:0.5;"/><ellipse cx="139.5" cy="98.9375" fill="#E2E2F0" rx="12" ry="12" style="stroke:#181818;stroke-width:0.5;"/><text fill="#000000" font-family="sans-serif" font-size="14" lengthAdjust="spacing" textLength="66" x="95" y="380.1592">Endpoint</text><path d="M110.5,387.4609 L110.5,411.4609 M110.5,399.4609 L127.5,399.4609 " fill="none" style="stroke:#181818;stroke-width:0.5;"/><ellipse cx="139.5" cy="399.4609" fill="#E2E2F0" rx="12" ry="12" style="stroke:#181818;stroke-width:0.5;"/><text fill="#000000" font-family="sans-serif" font-size="14" lengthAdjust="spacing" textLength="98" x="177" y="127.9326">Authorization</text><ellipse cx="229" cy="98.9375" fill="#E2E2F0" rx="12" ry="12" style="stroke:#181818;stroke-width:0.5;"/><polygon fill="#181818" points="225,86.9375,231,81.9375,229,86.9375,231,91.9375,225,86.9375" style="stroke:#181818;stroke-width:1.0;"/><text fill="#000000" font-family="sans-serif" font-size="14" lengthAdjust="spacing" textLength="98" x="177" y="380.1592">Authorization</text><ellipse cx="229" cy="399.4609" fill="#E2E2F0" rx="12" ry="12" style="stroke:#181818;stroke-width:0.5;"/><polygon fill="#181818" points="225,387.4609,231,382.4609,229,387.4609,231,392.4609,225,387.4609" style="stroke:#181818;stroke-width:1.0;"/><text fill="#000000" font-family="sans-serif" font-size="14" lengthAdjust="spacing" textLength="69" x="291" y="127.9326">Datalayer</text><path d="M310.5,78.9375 C310.5,68.9375 328.5,68.9375 328.5,68.9375 C328.5,68.9375 346.5,68.9375 346.5,78.9375 L346.5,104.9375 C346.5,114.9375 328.5,114.9375 328.5,114.9375 C328.5,114.9375 310.5,114.9375 310.5,104.9375 L310.5,78.9375 " fill="#E2E2F0" style="stroke:#181818;stroke-width:1.5;"/><path d="M310.5,78.9375 C310.5,88.9375 328.5,88.9375 328.5,88.9375 C328.5,88.9375 346.5,88.9375 346.5,78.9375 " fill="none" style="stroke:#181818;stroke-width:1.5;"/><text fill="#000000" font-family="sans-serif" font-size="14" lengthAdjust="spacing" textLength="69" x="291" y="380.1592">Datalayer</text><path d="M310.5,393.4609 C310.5,383.4609 328.5,383.4609 328.5,383.4609 C328.5,383.4609 346.5,383.4609 346.5,393.4609 L346.5,419.4609 C346.5,429.4609 328.5,429.4609 328.5,429.4609 C328.5,429.4609 310.5,429.4609 310.5,419.4609 L310.5,393.4609 " fill="#E2E2F0" style="stroke:#181818;stroke-width:1.5;"/><path d="M310.5,393.4609 C310.5,403.4609 328.5,403.4609 328.5,403.4609 C328.5,403.4609 346.5,403.4609 346.5,393.4609 " fill="none" style="stroke:#181818;stroke-width:1.5;"/><text fill="#000000" font-family="sans-serif" font-size="14" lengthAdjust="spacing" textLength="49" x="376" y="127.9326">Source</text><ellipse cx="403.5" cy="98.9375" fill="#E2E2F0" rx="12" ry="12" style="stroke:#181818;stroke-width:0.5;"/><line style="stroke:#181818;stroke-width:0.5;" x1="391.5" x2="415.5" y1="112.9375" y2="112.9375"/><text fill="#000000" font-family="sans-serif" font-size="14" lengthAdjust="spacing" textLength="49" x="376" y="380.1592">Source</text><ellipse cx="403.5" cy="399.4609" fill="#E2E2F0" rx="12" ry="12" style="stroke:#181818;stroke-width:0.5;"/><line style="stroke:#181818;stroke-width:0.5;" x1="391.5" x2="415.5" y1="413.4609" y2="413.4609"/><rect fill="#E2E2F0" height="30.2969" style="stroke:#181818;stroke-width:0.5;" width="126" x="476.5" y="95.9375"/><rect fill="#E2E2F0" height="30.2969" style="stroke:#181818;stroke-width:0.5;" width="126" x="472.5" y="99.9375"/><text fill="#000000" font-family="sans-serif" font-size="14" lengthAdjust="spacing" textLength="112" x="479.5" y="119.9326">RequestService</text><rect fill="#E2E2F0" height="30.2969" style="stroke:#181818;stroke-width:0.5;" width="126" x="476.5" y="367.1641"/><rect fill="#E2E2F0" height="30.2969" style="stroke:#181818;stroke-width:0.5;" width="126" x="472.5" y="371.1641"/><text fill="#000000" font-family="sans-serif" font-size="14" lengthAdjust="spacing" textLength="112" x="479.5" y="391.1592">RequestService</text><polygon fill="#181818" points="525.5,158.3672,535.5,162.3672,525.5,166.3672,529.5,162.3672" style="stroke:#181818;stroke-width:1.0;"/><line style="stroke:#181818;stroke-width:1.0;" x1="131" x2="531.5" y1="162.3672" y2="162.3672"/><text fill="#000000" font-family="sans-serif" font-size="13" font-weight="bold" lengthAdjust="spacing" textLength="9" x="138" y="157.3013">1</text><text fill="#000000" font-family="sans-serif" font-size="13" lengthAdjust="spacing" textLength="53" x="151" y="157.3013">Request</text><polygon fill="#181818" points="240,187.5,230,191.5,240,195.5,236,191.5" style="stroke:#181818;stroke-width:1.0;"/><line style="stroke:#181818;stroke-width:1.0;" x1="234" x2="536.5" y1="191.5" y2="191.5"/><text fill="#000000" font-family="sans-serif" font-size="13" font-weight="bold" lengthAdjust="spacing" textLength="9" x="246" y="186.4341">2</text><text fill="#000000" font-family="sans-serif" font-size="13" lengthAdjust="spacing" textLength="85" x="259" y="186.4341">Authorization</text><polygon fill="#181818" points="525.5,216.6328,535.5,220.6328,525.5,224.6328,529.5,220.6328" style="stroke:#181818;stroke-width:1.0;"/><line style="stroke:#181818;stroke-width:1.0;stroke-dasharray:2.0,2.0;" x1="229" x2="531.5" y1="220.6328" y2="220.6328"/><text fill="#000000" font-family="sans-serif" font-size="13" font-weight="bold" lengthAdjust="spacing" textLength="8" x="236" y="215.5669">3</text><text fill="#000000" font-family="sans-serif" font-size="13" lengthAdjust="spacing" textLength="85" x="248" y="215.5669">Authorization</text><line style="stroke:#181818;stroke-width:1.0;" x1="537.5" x2="579.5" y1="249.7656" y2="249.7656"/><line style="stroke:#181818;stroke-width:1.0;" x1="579.5" x2="579.5" y1="249.7656" y2="262.7656"/><line style="stroke:#181818;stroke-width:1.0;" x1="538.5" x2="579.5" y1="262.7656" y2="262.7656"/><polygon fill="#181818" points="548.5,258.7656,538.5,262.7656,548.5,266.7656,544.5,262.7656" style="stroke:#181818;stroke-width:1.0;"/><text fill="#000000" font-family="sans-serif" font-size="13" font-weight="bold" lengthAdjust="spacing" textLength="9" x="544.5" y="244.6997">4</text><text fill="#000000" font-family="sans-serif" font-size="13" lengthAdjust="spacing" textLength="178" x="557.5" y="244.6997">Set authorization for source</text><polygon fill="#181818" points="414.5,287.8984,404.5,291.8984,414.5,295.8984,410.5,291.8984" style="stroke:#181818;stroke-width:1.0;"/><line style="stroke:#181818;stroke-width:1.0;" x1="408.5" x2="536.5" y1="291.8984" y2="291.8984"/><text fill="#000000" font-family="sans-serif" font-size="13" font-weight="bold" lengthAdjust="spacing" textLength="9" x="420.5" y="286.8325">5</text><text fill="#000000" font-family="sans-serif" font-size="13" lengthAdjust="spacing" textLength="87" x="433.5" y="286.8325">Pass Request</text><polygon fill="#181818" points="525.5,317.0313,535.5,321.0313,525.5,325.0313,529.5,321.0313" style="stroke:#181818;stroke-width:1.0;"/><line style="stroke:#181818;stroke-width:1.0;stroke-dasharray:2.0,2.0;" x1="403.5" x2="531.5" y1="321.0313" y2="321.0313"/><text fill="#000000" font-family="sans-serif" font-size="13" font-weight="bold" lengthAdjust="spacing" textLength="9" x="410.5" y="315.9653">6</text><text fill="#000000" font-family="sans-serif" font-size="13" lengthAdjust="spacing" textLength="97" x="423.5" y="315.9653">Pass Response</text><polygon fill="#181818" points="142,346.1641,132,350.1641,142,354.1641,138,350.1641" style="stroke:#181818;stroke-width:1.0;"/><line style="stroke:#181818;stroke-width:1.0;stroke-dasharray:2.0,2.0;" x1="136" x2="536.5" y1="350.1641" y2="350.1641"/><text fill="#000000" font-family="sans-serif" font-size="13" font-weight="bold" lengthAdjust="spacing" textLength="9" x="148" y="345.0981">7</text><text fill="#000000" font-family="sans-serif" font-size="13" lengthAdjust="spacing" textLength="63" x="161" y="345.0981">Response</text><text fill="#888888" font-family="sans-serif" font-size="10" lengthAdjust="spacing" textLength="29" x="712.5" y="14.2822">Proxy</text><text fill="#888888" font-family="sans-serif" font-size="10" lengthAdjust="spacing" textLength="163" x="289.25" y="453.7432">Common Gateway | Endpoints</text><!--SRC=[RL51JiGm3Bpx5Vv0Fv034W84HyI-m6szRAGqNX9deOZ7asxQiat9APaPZpsEMdLiy8Lyxwn_nzSWNoCSHPI3mGSP1l7uJCgVDE8FFld-BDPhX1DJFqbA0L1IyMbeEUHxfnAmd3V-I1opsVn6YdyOj99yJs6SYCKQRvGB1fru3UAk-7tIamJxJMhpR4MumQ0dfPOYJ-HZlZiQDmEi6B1NgsCX3f92nuYt0nGijtUEkybxdVx0uMAlSgenW3LBSrTnPdb3vPELLJ1JfThIpSvwNx5lKI463wn86-DZ_hjOOk_hvntbRwUuneOPRVv9E-lYEQzkRvWBbbMPLVKB]--></g></svg>