<?xml version="1.0" encoding="us-ascii" standalone="no"?><svg xmlns="http://www.w3.org/2000/svg" xmlns:xlink="http://www.w3.org/1999/xlink" contentStyleType="text/css" height="421px" preserveAspectRatio="none" style="width:502px;height:421px;background:#FFFFFF;" version="1.1" viewBox="0 0 502 421" width="502px" zoomAndPan="magnify"><defs/><g><text fill="#000000" font-family="sans-serif" font-size="14" font-weight="bold" lengthAdjust="spacing" textLength="184" x="155" y="40.6357">Handling GET requests</text><line style="stroke:#181818;stroke-width:0.5;stroke-dasharray:5.0,5.0;" x1="45" x2="45" y1="131.2344" y2="326.0313"/><line style="stroke:#181818;stroke-width:0.5;stroke-dasharray:5.0,5.0;" x1="145" x2="145" y1="131.2344" y2="326.0313"/><line style="stroke:#181818;stroke-width:0.5;stroke-dasharray:5.0,5.0;" x1="267" x2="267" y1="131.2344" y2="326.0313"/><line style="stroke:#181818;stroke-width:0.5;stroke-dasharray:5.0,5.0;" x1="366" x2="366" y1="131.2344" y2="326.0313"/><line style="stroke:#181818;stroke-width:0.5;stroke-dasharray:5.0,5.0;" x1="452" x2="452" y1="131.2344" y2="326.0313"/><text fill="#000000" font-family="sans-serif" font-size="14" lengthAdjust="spacing" textLength="74" x="5" y="127.9326">Requester</text><ellipse cx="45" cy="63.4375" fill="#E2E2F0" rx="8" ry="8" style="stroke:#181818;stroke-width:0.5;"/><path d="M45,71.4375 L45,98.4375 M32,79.4375 L58,79.4375 M45,98.4375 L32,113.4375 M45,98.4375 L58,113.4375 " fill="none" style="stroke:#181818;stroke-width:0.5;"/><text fill="#000000" font-family="sans-serif" font-size="14" lengthAdjust="spacing" textLength="74" x="5" y="338.0264">Requester</text><ellipse cx="45" cy="349.8281" fill="#E2E2F0" rx="8" ry="8" style="stroke:#181818;stroke-width:0.5;"/><path d="M45,357.8281 L45,384.8281 M32,365.8281 L58,365.8281 M45,384.8281 L32,399.8281 M45,384.8281 L58,399.8281 " fill="none" style="stroke:#181818;stroke-width:0.5;"/><text fill="#000000" font-family="sans-serif" font-size="14" lengthAdjust="spacing" textLength="66" x="109" y="127.9326">Endpoint</text><path d="M124.5,86.9375 L124.5,110.9375 M124.5,98.9375 L141.5,98.9375 " fill="none" style="stroke:#181818;stroke-width:0.5;"/><ellipse cx="153.5" cy="98.9375" fill="#E2E2F0" rx="12" ry="12" style="stroke:#181818;stroke-width:0.5;"/><text fill="#000000" font-family="sans-serif" font-size="14" lengthAdjust="spacing" textLength="66" x="109" y="338.0264">Endpoint</text><path d="M124.5,345.3281 L124.5,369.3281 M124.5,357.3281 L141.5,357.3281 " fill="none" style="stroke:#181818;stroke-width:0.5;"/><ellipse cx="153.5" cy="357.3281" fill="#E2E2F0" rx="12" ry="12" style="stroke:#181818;stroke-width:0.5;"/><text fill="#000000" font-family="sans-serif" font-size="14" lengthAdjust="spacing" textLength="98" x="215" y="127.9326">Authorization</text><ellipse cx="267" cy="98.9375" fill="#E2E2F0" rx="12" ry="12" style="stroke:#181818;stroke-width:0.5;"/><polygon fill="#181818" points="263,86.9375,269,81.9375,267,86.9375,269,91.9375,263,86.9375" style="stroke:#181818;stroke-width:1.0;"/><text fill="#000000" font-family="sans-serif" font-size="14" lengthAdjust="spacing" textLength="98" x="215" y="338.0264">Authorization</text><ellipse cx="267" cy="357.3281" fill="#E2E2F0" rx="12" ry="12" style="stroke:#181818;stroke-width:0.5;"/><polygon fill="#181818" points="263,345.3281,269,340.3281,267,345.3281,269,350.3281,263,345.3281" style="stroke:#181818;stroke-width:1.0;"/><text fill="#000000" font-family="sans-serif" font-size="14" lengthAdjust="spacing" textLength="69" x="329" y="127.9326">Datalayer</text><path d="M348.5,78.9375 C348.5,68.9375 366.5,68.9375 366.5,68.9375 C366.5,68.9375 384.5,68.9375 384.5,78.9375 L384.5,104.9375 C384.5,114.9375 366.5,114.9375 366.5,114.9375 C366.5,114.9375 348.5,114.9375 348.5,104.9375 L348.5,78.9375 " fill="#E2E2F0" style="stroke:#181818;stroke-width:1.5;"/><path d="M348.5,78.9375 C348.5,88.9375 366.5,88.9375 366.5,88.9375 C366.5,88.9375 384.5,88.9375 384.5,78.9375 " fill="none" style="stroke:#181818;stroke-width:1.5;"/><text fill="#000000" font-family="sans-serif" font-size="14" lengthAdjust="spacing" textLength="69" x="329" y="338.0264">Datalayer</text><path d="M348.5,351.3281 C348.5,341.3281 366.5,341.3281 366.5,341.3281 C366.5,341.3281 384.5,341.3281 384.5,351.3281 L384.5,377.3281 C384.5,387.3281 366.5,387.3281 366.5,387.3281 C366.5,387.3281 348.5,387.3281 348.5,377.3281 L348.5,351.3281 " fill="#E2E2F0" style="stroke:#181818;stroke-width:1.5;"/><path d="M348.5,351.3281 C348.5,361.3281 366.5,361.3281 366.5,361.3281 C366.5,361.3281 384.5,361.3281 384.5,351.3281 " fill="none" style="stroke:#181818;stroke-width:1.5;"/><rect fill="#E2E2F0" height="30.2969" rx="2.5" ry="2.5" style="stroke:#181818;stroke-width:0.5;" width="76" x="414" y="99.9375"/><text fill="#000000" font-family="sans-serif" font-size="14" lengthAdjust="spacing" textLength="62" x="421" y="119.9326">Gateway</text><rect fill="#E2E2F0" height="30.2969" rx="2.5" ry="2.5" style="stroke:#181818;stroke-width:0.5;" width="76" x="414" y="325.0313"/><text fill="#000000" font-family="sans-serif" font-size="14" lengthAdjust="spacing" textLength="62" x="421" y="345.0264">Gateway</text><polygon fill="#181818" points="440,158.3672,450,162.3672,440,166.3672,444,162.3672" style="stroke:#181818;stroke-width:1.0;"/><line style="stroke:#181818;stroke-width:1.0;" x1="45" x2="446" y1="162.3672" y2="162.3672"/><text fill="#000000" font-family="sans-serif" font-size="13" font-weight="bold" lengthAdjust="spacing" textLength="9" x="52" y="157.3013">1</text><text fill="#000000" font-family="sans-serif" font-size="13" lengthAdjust="spacing" textLength="53" x="65" y="157.3013">Request</text><polygon fill="#181818" points="255,187.5,265,191.5,255,195.5,259,191.5" style="stroke:#181818;stroke-width:1.0;"/><line style="stroke:#181818;stroke-width:1.0;" x1="145" x2="261" y1="191.5" y2="191.5"/><text fill="#000000" font-family="sans-serif" font-size="13" font-weight="bold" lengthAdjust="spacing" textLength="9" x="152" y="186.4341">2</text><text fill="#000000" font-family="sans-serif" font-size="13" lengthAdjust="spacing" textLength="85" x="165" y="186.4341">Authorization</text><polygon fill="#181818" points="156,216.6328,146,220.6328,156,224.6328,152,220.6328" style="stroke:#181818;stroke-width:1.0;"/><line style="stroke:#181818;stroke-width:1.0;stroke-dasharray:2.0,2.0;" x1="150" x2="266" y1="220.6328" y2="220.6328"/><text fill="#000000" font-family="sans-serif" font-size="13" font-weight="bold" lengthAdjust="spacing" textLength="8" x="162" y="215.5669">3</text><text fill="#000000" font-family="sans-serif" font-size="13" lengthAdjust="spacing" textLength="85" x="174" y="215.5669">Authorization</text><polygon fill="#181818" points="354.5,245.7656,364.5,249.7656,354.5,253.7656,358.5,249.7656" style="stroke:#181818;stroke-width:1.0;"/><line style="stroke:#181818;stroke-width:1.0;" x1="145" x2="360.5" y1="249.7656" y2="249.7656"/><text fill="#000000" font-family="sans-serif" font-size="13" font-weight="bold" lengthAdjust="spacing" textLength="9" x="152" y="244.6997">4</text><text fill="#000000" font-family="sans-serif" font-size="13" lengthAdjust="spacing" textLength="107" x="165" y="244.6997">Search object('s)</text><polygon fill="#181818" points="156,274.8984,146,278.8984,156,282.8984,152,278.8984" style="stroke:#181818;stroke-width:1.0;"/><line style="stroke:#181818;stroke-width:1.0;stroke-dasharray:2.0,2.0;" x1="150" x2="365.5" y1="278.8984" y2="278.8984"/><text fill="#000000" font-family="sans-serif" font-size="13" font-weight="bold" lengthAdjust="spacing" textLength="9" x="162" y="273.8325">5</text><text fill="#000000" font-family="sans-serif" font-size="13" lengthAdjust="spacing" textLength="61" x="175" y="273.8325">Object('s)</text><polygon fill="#181818" points="56,304.0313,46,308.0313,56,312.0313,52,308.0313" style="stroke:#181818;stroke-width:1.0;"/><line style="stroke:#181818;stroke-width:1.0;stroke-dasharray:2.0,2.0;" x1="50" x2="144" y1="308.0313" y2="308.0313"/><text fill="#000000" font-family="sans-serif" font-size="13" font-weight="bold" lengthAdjust="spacing" textLength="9" x="62" y="302.9653">6</text><text fill="#000000" font-family="sans-serif" font-size="13" lengthAdjust="spacing" textLength="63" x="75" y="302.9653">Response</text><text fill="#888888" font-family="sans-serif" font-size="10" lengthAdjust="spacing" textLength="68" x="426" y="14.2822">GET Request</text><text fill="#888888" font-family="sans-serif" font-size="10" lengthAdjust="spacing" textLength="163" x="165.5" y="411.6104">Common Gateway | Endpoints</text><!--SRC=[NOz1JiGm34NtFeLtm68ka0KIWj6mGuAvWDiO6jJ6G-9eLCJXIIXjsdQL_lzi_wzEUpRuJDxspd_WwNZ6m5-9eqPu5r4E1Xzb6CJZYPIlDE8F7hszYFCPwPXiGShSwpG7G4d5fw7XaD-jIi3f-mTu_aUALOD6ahSKncBC1t15pXgquZL8_wS_9Eqak6zIbnDEu4O3IqeDHIxcKtxtD6u2B1f0pNUudzkQfTQIAPkxisPtSsiVya0jj6VNQsi-WszCeUrGcazkzVOcta5rrniDlbIaBil4KgTqY1VnaNy1]--></g></svg>