<?xml version="1.0" encoding="us-ascii" standalone="no"?><svg xmlns="http://www.w3.org/2000/svg" xmlns:xlink="http://www.w3.org/1999/xlink" contentStyleType="text/css" height="393px" preserveAspectRatio="none" style="width:428px;height:393px;" version="1.1" viewBox="0 0 428 393" width="428px" zoomAndPan="magnify"><defs/><g><text fill="#000000" font-family="sans-serif" font-size="14" font-weight="bold" lengthAdjust="spacing" textLength="184" x="118" y="40.6357">Handling GET requests</text><line style="stroke:#181818;stroke-width:0.5;stroke-dasharray:5.0,5.0;" x1="41" x2="41" y1="117.2344" y2="312.0313"/><line style="stroke:#181818;stroke-width:0.5;stroke-dasharray:5.0,5.0;" x1="152" x2="152" y1="117.2344" y2="312.0313"/><line style="stroke:#181818;stroke-width:0.5;stroke-dasharray:5.0,5.0;" x1="279" x2="279" y1="117.2344" y2="312.0313"/><line style="stroke:#181818;stroke-width:0.5;stroke-dasharray:5.0,5.0;" x1="378" x2="378" y1="117.2344" y2="312.0313"/><text fill="#000000" font-family="sans-serif" font-size="14" lengthAdjust="spacing" textLength="66" x="5" y="113.9326">Endpoint</text><path d="M20.5,72.9375 L20.5,96.9375 M20.5,84.9375 L37.5,84.9375 " fill="none" style="stroke:#181818;stroke-width:0.5;"/><ellipse cx="49.5" cy="84.9375" fill="#E2E2F0" rx="12" ry="12" style="stroke:#181818;stroke-width:0.5;"/><text fill="#000000" font-family="sans-serif" font-size="14" lengthAdjust="spacing" textLength="66" x="5" y="324.0264">Endpoint</text><path d="M20.5,331.3281 L20.5,355.3281 M20.5,343.3281 L37.5,343.3281 " fill="none" style="stroke:#181818;stroke-width:0.5;"/><ellipse cx="49.5" cy="343.3281" fill="#E2E2F0" rx="12" ry="12" style="stroke:#181818;stroke-width:0.5;"/><rect fill="#E2E2F0" height="30.2969" style="stroke:#181818;stroke-width:0.5;" width="126" x="91" y="81.9375"/><rect fill="#E2E2F0" height="30.2969" style="stroke:#181818;stroke-width:0.5;" width="126" x="87" y="85.9375"/><text fill="#000000" font-family="sans-serif" font-size="14" lengthAdjust="spacing" textLength="112" x="94" y="105.9326">RequestService</text><rect fill="#E2E2F0" height="30.2969" style="stroke:#181818;stroke-width:0.5;" width="126" x="91" y="311.0313"/><rect fill="#E2E2F0" height="30.2969" style="stroke:#181818;stroke-width:0.5;" width="126" x="87" y="315.0313"/><text fill="#000000" font-family="sans-serif" font-size="14" lengthAdjust="spacing" textLength="112" x="94" y="335.0264">RequestService</text><text fill="#000000" font-family="sans-serif" font-size="14" lengthAdjust="spacing" textLength="98" x="227" y="113.9326">Authorization</text><ellipse cx="279" cy="84.9375" fill="#E2E2F0" rx="12" ry="12" style="stroke:#181818;stroke-width:0.5;"/><polygon fill="#181818" points="275,72.9375,281,67.9375,279,72.9375,281,77.9375,275,72.9375" style="stroke:#181818;stroke-width:1.0;"/><text fill="#000000" font-family="sans-serif" font-size="14" lengthAdjust="spacing" textLength="98" x="227" y="324.0264">Authorization</text><ellipse cx="279" cy="343.3281" fill="#E2E2F0" rx="12" ry="12" style="stroke:#181818;stroke-width:0.5;"/><polygon fill="#181818" points="275,331.3281,281,326.3281,279,331.3281,281,336.3281,275,331.3281" style="stroke:#181818;stroke-width:1.0;"/><text fill="#000000" font-family="sans-serif" font-size="14" lengthAdjust="spacing" textLength="69" x="341" y="113.9326">Datalayer</text><path d="M360.5,64.9375 C360.5,54.9375 378.5,54.9375 378.5,54.9375 C378.5,54.9375 396.5,54.9375 396.5,64.9375 L396.5,90.9375 C396.5,100.9375 378.5,100.9375 378.5,100.9375 C378.5,100.9375 360.5,100.9375 360.5,90.9375 L360.5,64.9375 " fill="#E2E2F0" style="stroke:#181818;stroke-width:1.5;"/><path d="M360.5,64.9375 C360.5,74.9375 378.5,74.9375 378.5,74.9375 C378.5,74.9375 396.5,74.9375 396.5,64.9375 " fill="none" style="stroke:#181818;stroke-width:1.5;"/><text fill="#000000" font-family="sans-serif" font-size="14" lengthAdjust="spacing" textLength="69" x="341" y="324.0264">Datalayer</text><path d="M360.5,337.3281 C360.5,327.3281 378.5,327.3281 378.5,327.3281 C378.5,327.3281 396.5,327.3281 396.5,337.3281 L396.5,363.3281 C396.5,373.3281 378.5,373.3281 378.5,373.3281 C378.5,373.3281 360.5,373.3281 360.5,363.3281 L360.5,337.3281 " fill="#E2E2F0" style="stroke:#181818;stroke-width:1.5;"/><path d="M360.5,337.3281 C360.5,347.3281 378.5,347.3281 378.5,347.3281 C378.5,347.3281 396.5,347.3281 396.5,337.3281 " fill="none" style="stroke:#181818;stroke-width:1.5;"/><polygon fill="#181818" points="140,144.3672,150,148.3672,140,152.3672,144,148.3672" style="stroke:#181818;stroke-width:1.0;"/><line style="stroke:#181818;stroke-width:1.0;" x1="41" x2="146" y1="148.3672" y2="148.3672"/><text fill="#000000" font-family="sans-serif" font-size="13" font-weight="bold" lengthAdjust="spacing" textLength="9" x="48" y="143.3013">1</text><text fill="#000000" font-family="sans-serif" font-size="13" lengthAdjust="spacing" textLength="53" x="61" y="143.3013">Request</text><polygon fill="#181818" points="267,173.5,277,177.5,267,181.5,271,177.5" style="stroke:#181818;stroke-width:1.0;"/><line style="stroke:#181818;stroke-width:1.0;" x1="152" x2="273" y1="177.5" y2="177.5"/><text fill="#000000" font-family="sans-serif" font-size="13" font-weight="bold" lengthAdjust="spacing" textLength="9" x="159" y="172.4341">2</text><text fill="#000000" font-family="sans-serif" font-size="13" lengthAdjust="spacing" textLength="85" x="172" y="172.4341">Authorization</text><polygon fill="#181818" points="163,202.6328,153,206.6328,163,210.6328,159,206.6328" style="stroke:#181818;stroke-width:1.0;"/><line style="stroke:#181818;stroke-width:1.0;stroke-dasharray:2.0,2.0;" x1="157" x2="278" y1="206.6328" y2="206.6328"/><text fill="#000000" font-family="sans-serif" font-size="13" font-weight="bold" lengthAdjust="spacing" textLength="8" x="169" y="201.5669">3</text><text fill="#000000" font-family="sans-serif" font-size="13" lengthAdjust="spacing" textLength="85" x="181" y="201.5669">Authorization</text><polygon fill="#181818" points="366.5,231.7656,376.5,235.7656,366.5,239.7656,370.5,235.7656" style="stroke:#181818;stroke-width:1.0;"/><line style="stroke:#181818;stroke-width:1.0;" x1="152" x2="372.5" y1="235.7656" y2="235.7656"/><text fill="#000000" font-family="sans-serif" font-size="13" font-weight="bold" lengthAdjust="spacing" textLength="9" x="159" y="230.6997">4</text><text fill="#000000" font-family="sans-serif" font-size="13" lengthAdjust="spacing" textLength="107" x="172" y="230.6997">Search object('s)</text><polygon fill="#181818" points="163,260.8984,153,264.8984,163,268.8984,159,264.8984" style="stroke:#181818;stroke-width:1.0;"/><line style="stroke:#181818;stroke-width:1.0;stroke-dasharray:2.0,2.0;" x1="157" x2="377.5" y1="264.8984" y2="264.8984"/><text fill="#000000" font-family="sans-serif" font-size="13" font-weight="bold" lengthAdjust="spacing" textLength="9" x="169" y="259.8325">5</text><text fill="#000000" font-family="sans-serif" font-size="13" lengthAdjust="spacing" textLength="61" x="182" y="259.8325">Object('s)</text><polygon fill="#181818" points="52,290.0313,42,294.0313,52,298.0313,48,294.0313" style="stroke:#181818;stroke-width:1.0;"/><line style="stroke:#181818;stroke-width:1.0;stroke-dasharray:2.0,2.0;" x1="46" x2="151" y1="294.0313" y2="294.0313"/><text fill="#000000" font-family="sans-serif" font-size="13" font-weight="bold" lengthAdjust="spacing" textLength="9" x="58" y="288.9653">6</text><text fill="#000000" font-family="sans-serif" font-size="13" lengthAdjust="spacing" textLength="63" x="71" y="288.9653">Response</text><text fill="#888888" font-family="sans-serif" font-size="10" lengthAdjust="spacing" textLength="68" x="352" y="14.2822">GET Request</text><text fill="#888888" font-family="sans-serif" font-size="10" lengthAdjust="spacing" textLength="163" x="128.5" y="383.6104">Common Gateway | Endpoints</text><!--SRC=[RL51KeH03BpFAt9J3to0WrNMkhNUh7BzG82uZ3iac0bQM3xUmHKGCAUfJgUxap5lWN9uGAw2vnCSzi-WzDPHjEXUH8mqXvqqZJ0SqEW3U_Y2FLUjU4wKch0QACFSqsNEOMV2NLEGEXVFdbjKRA30ydnIwRZQIH05K-IOMiJcN37Wg3sa6iLXB8mJvae9WKhpmd7qEvA- -v8kn2MMw6mguKVchhDQr7_YCFshky1SXOO5na4AxjCxO4_w9yM4EJU5p6vNdlbqXrM-n5n5o5V-otQsaTvER2tct3aS2RMiGOhNTBBhgtZZvcxsJ_37cRWMJknnvM71sAOFe6y0]--></g></svg>