<?xml version="1.0" encoding="us-ascii" standalone="no"?><svg xmlns="http://www.w3.org/2000/svg" xmlns:xlink="http://www.w3.org/1999/xlink" contentStyleType="text/css" height="452px" preserveAspectRatio="none" style="width:546px;height:452px;background:#FFFFFF;" version="1.1" viewBox="0 0 546 452" width="546px" zoomAndPan="magnify"><defs/><g><text fill="#000000" font-family="sans-serif" font-size="14" font-weight="bold" lengthAdjust="spacing" textLength="195" x="171.75" y="40.6357">Handling POST requests</text><line style="stroke:#181818;stroke-width:0.5;stroke-dasharray:5.0,5.0;" x1="41" x2="41" y1="117.2344" y2="370.2969"/><line style="stroke:#181818;stroke-width:0.5;stroke-dasharray:5.0,5.0;" x1="139" x2="139" y1="117.2344" y2="370.2969"/><line style="stroke:#181818;stroke-width:0.5;stroke-dasharray:5.0,5.0;" x1="240" x2="240" y1="117.2344" y2="370.2969"/><line style="stroke:#181818;stroke-width:0.5;stroke-dasharray:5.0,5.0;" x1="326" x2="326" y1="117.2344" y2="370.2969"/><line style="stroke:#181818;stroke-width:0.5;stroke-dasharray:5.0,5.0;" x1="469.5" x2="469.5" y1="117.2344" y2="370.2969"/><text fill="#000000" font-family="sans-serif" font-size="14" lengthAdjust="spacing" textLength="66" x="5" y="113.9326">Endpoint</text><path d="M20.5,72.9375 L20.5,96.9375 M20.5,84.9375 L37.5,84.9375 " fill="none" style="stroke:#181818;stroke-width:0.5;"/><ellipse cx="49.5" cy="84.9375" fill="#E2E2F0" rx="12" ry="12" style="stroke:#181818;stroke-width:0.5;"/><text fill="#000000" font-family="sans-serif" font-size="14" lengthAdjust="spacing" textLength="66" x="5" y="382.292">Endpoint</text><path d="M20.5,389.5938 L20.5,413.5938 M20.5,401.5938 L37.5,401.5938 " fill="none" style="stroke:#181818;stroke-width:0.5;"/><ellipse cx="49.5" cy="401.5938" fill="#E2E2F0" rx="12" ry="12" style="stroke:#181818;stroke-width:0.5;"/><text fill="#000000" font-family="sans-serif" font-size="14" lengthAdjust="spacing" textLength="98" x="87" y="113.9326">Authorization</text><ellipse cx="139" cy="84.9375" fill="#E2E2F0" rx="12" ry="12" style="stroke:#181818;stroke-width:0.5;"/><polygon fill="#181818" points="135,72.9375,141,67.9375,139,72.9375,141,77.9375,135,72.9375" style="stroke:#181818;stroke-width:1.0;"/><text fill="#000000" font-family="sans-serif" font-size="14" lengthAdjust="spacing" textLength="98" x="87" y="382.292">Authorization</text><ellipse cx="139" cy="401.5938" fill="#E2E2F0" rx="12" ry="12" style="stroke:#181818;stroke-width:0.5;"/><polygon fill="#181818" points="135,389.5938,141,384.5938,139,389.5938,141,394.5938,135,389.5938" style="stroke:#181818;stroke-width:1.0;"/><text fill="#000000" font-family="sans-serif" font-size="14" lengthAdjust="spacing" textLength="72" x="201" y="113.9326">Validation</text><ellipse cx="240" cy="84.9375" fill="#E2E2F0" rx="12" ry="12" style="stroke:#181818;stroke-width:0.5;"/><polygon fill="#181818" points="236,72.9375,242,67.9375,240,72.9375,242,77.9375,236,72.9375" style="stroke:#181818;stroke-width:1.0;"/><text fill="#000000" font-family="sans-serif" font-size="14" lengthAdjust="spacing" textLength="72" x="201" y="382.292">Validation</text><ellipse cx="240" cy="401.5938" fill="#E2E2F0" rx="12" ry="12" style="stroke:#181818;stroke-width:0.5;"/><polygon fill="#181818" points="236,389.5938,242,384.5938,240,389.5938,242,394.5938,236,389.5938" style="stroke:#181818;stroke-width:1.0;"/><text fill="#000000" font-family="sans-serif" font-size="14" lengthAdjust="spacing" textLength="69" x="289" y="113.9326">Datalayer</text><path d="M308.5,64.9375 C308.5,54.9375 326.5,54.9375 326.5,54.9375 C326.5,54.9375 344.5,54.9375 344.5,64.9375 L344.5,90.9375 C344.5,100.9375 326.5,100.9375 326.5,100.9375 C326.5,100.9375 308.5,100.9375 308.5,90.9375 L308.5,64.9375 " fill="#E2E2F0" style="stroke:#181818;stroke-width:1.5;"/><path d="M308.5,64.9375 C308.5,74.9375 326.5,74.9375 326.5,74.9375 C326.5,74.9375 344.5,74.9375 344.5,64.9375 " fill="none" style="stroke:#181818;stroke-width:1.5;"/><text fill="#000000" font-family="sans-serif" font-size="14" lengthAdjust="spacing" textLength="69" x="289" y="382.292">Datalayer</text><path d="M308.5,395.5938 C308.5,385.5938 326.5,385.5938 326.5,385.5938 C326.5,385.5938 344.5,385.5938 344.5,395.5938 L344.5,421.5938 C344.5,431.5938 326.5,431.5938 326.5,431.5938 C326.5,431.5938 308.5,431.5938 308.5,421.5938 L308.5,395.5938 " fill="#E2E2F0" style="stroke:#181818;stroke-width:1.5;"/><path d="M308.5,395.5938 C308.5,405.5938 326.5,405.5938 326.5,405.5938 C326.5,405.5938 344.5,405.5938 344.5,395.5938 " fill="none" style="stroke:#181818;stroke-width:1.5;"/><rect fill="#E2E2F0" height="30.2969" style="stroke:#181818;stroke-width:0.5;" width="126" x="408.5" y="81.9375"/><rect fill="#E2E2F0" height="30.2969" style="stroke:#181818;stroke-width:0.5;" width="126" x="404.5" y="85.9375"/><text fill="#000000" font-family="sans-serif" font-size="14" lengthAdjust="spacing" textLength="112" x="411.5" y="105.9326">RequestService</text><rect fill="#E2E2F0" height="30.2969" style="stroke:#181818;stroke-width:0.5;" width="126" x="408.5" y="369.2969"/><rect fill="#E2E2F0" height="30.2969" style="stroke:#181818;stroke-width:0.5;" width="126" x="404.5" y="373.2969"/><text fill="#000000" font-family="sans-serif" font-size="14" lengthAdjust="spacing" textLength="112" x="411.5" y="393.292">RequestService</text><polygon fill="#181818" points="457.5,144.3672,467.5,148.3672,457.5,152.3672,461.5,148.3672" style="stroke:#181818;stroke-width:1.0;"/><line style="stroke:#181818;stroke-width:1.0;" x1="41" x2="463.5" y1="148.3672" y2="148.3672"/><text fill="#000000" font-family="sans-serif" font-size="13" font-weight="bold" lengthAdjust="spacing" textLength="9" x="48" y="143.3013">1</text><text fill="#000000" font-family="sans-serif" font-size="13" lengthAdjust="spacing" textLength="53" x="61" y="143.3013">Request</text><polygon fill="#181818" points="150,173.5,140,177.5,150,181.5,146,177.5" style="stroke:#181818;stroke-width:1.0;"/><line style="stroke:#181818;stroke-width:1.0;" x1="144" x2="468.5" y1="177.5" y2="177.5"/><text fill="#000000" font-family="sans-serif" font-size="13" font-weight="bold" lengthAdjust="spacing" textLength="9" x="156" y="172.4341">2</text><text fill="#000000" font-family="sans-serif" font-size="13" lengthAdjust="spacing" textLength="85" x="169" y="172.4341">Authorization</text><polygon fill="#181818" points="457.5,202.6328,467.5,206.6328,457.5,210.6328,461.5,206.6328" style="stroke:#181818;stroke-width:1.0;"/><line style="stroke:#181818;stroke-width:1.0;" x1="139" x2="463.5" y1="206.6328" y2="206.6328"/><text fill="#000000" font-family="sans-serif" font-size="13" font-weight="bold" lengthAdjust="spacing" textLength="8" x="146" y="201.5669">3</text><text fill="#000000" font-family="sans-serif" font-size="13" lengthAdjust="spacing" textLength="85" x="158" y="201.5669">Authorization</text><polygon fill="#181818" points="251,231.7656,241,235.7656,251,239.7656,247,235.7656" style="stroke:#181818;stroke-width:1.0;"/><line style="stroke:#181818;stroke-width:1.0;" x1="245" x2="468.5" y1="235.7656" y2="235.7656"/><text fill="#000000" font-family="sans-serif" font-size="13" font-weight="bold" lengthAdjust="spacing" textLength="9" x="257" y="230.6997">4</text><text fill="#000000" font-family="sans-serif" font-size="13" lengthAdjust="spacing" textLength="109" x="270" y="230.6997">Validate Request</text><polygon fill="#181818" points="457.5,260.8984,467.5,264.8984,457.5,268.8984,461.5,264.8984" style="stroke:#181818;stroke-width:1.0;"/><line style="stroke:#181818;stroke-width:1.0;" x1="240" x2="463.5" y1="264.8984" y2="264.8984"/><text fill="#000000" font-family="sans-serif" font-size="13" font-weight="bold" lengthAdjust="spacing" textLength="9" x="247" y="259.8325">5</text><text fill="#000000" font-family="sans-serif" font-size="13" lengthAdjust="spacing" textLength="107" x="260" y="259.8325">Validation Result</text><polygon fill="#181818" points="337.5,290.0313,327.5,294.0313,337.5,298.0313,333.5,294.0313" style="stroke:#181818;stroke-width:1.0;"/><line style="stroke:#181818;stroke-width:1.0;" x1="331.5" x2="468.5" y1="294.0313" y2="294.0313"/><text fill="#000000" font-family="sans-serif" font-size="13" font-weight="bold" lengthAdjust="spacing" textLength="9" x="343.5" y="288.9653">6</text><text fill="#000000" font-family="sans-serif" font-size="13" lengthAdjust="spacing" textLength="106" x="356.5" y="288.9653">Create object('s)</text><polygon fill="#181818" points="457.5,319.1641,467.5,323.1641,457.5,327.1641,461.5,323.1641" style="stroke:#181818;stroke-width:1.0;"/><line style="stroke:#181818;stroke-width:1.0;" x1="326.5" x2="463.5" y1="323.1641" y2="323.1641"/><text fill="#000000" font-family="sans-serif" font-size="13" font-weight="bold" lengthAdjust="spacing" textLength="9" x="333.5" y="318.0981">7</text><text fill="#000000" font-family="sans-serif" font-size="13" lengthAdjust="spacing" textLength="61" x="346.5" y="318.0981">Object('s)</text><polygon fill="#181818" points="52,348.2969,42,352.2969,52,356.2969,48,352.2969" style="stroke:#181818;stroke-width:1.0;"/><line style="stroke:#181818;stroke-width:1.0;stroke-dasharray:2.0,2.0;" x1="46" x2="468.5" y1="352.2969" y2="352.2969"/><text fill="#000000" font-family="sans-serif" font-size="13" font-weight="bold" lengthAdjust="spacing" textLength="9" x="58" y="347.231">8</text><text fill="#000000" font-family="sans-serif" font-size="13" lengthAdjust="spacing" textLength="63" x="71" y="347.231">Response</text><text fill="#888888" font-family="sans-serif" font-size="10" lengthAdjust="spacing" textLength="76" x="462.5" y="14.2822">POST Request</text><text fill="#888888" font-family="sans-serif" font-size="10" lengthAdjust="spacing" textLength="163" x="187.75" y="441.876">Common Gateway | Endpoints</text><!--SRC=[RLBBJiCm4BpxAtm33lo03qWL8BYrQYlkctYXHewt-04AukDPDxBpgY-9PsV6dacYYHQLV0MdhN4VShSz7AN7huGX1l5E5D4h-KXTHqw-GCGVwEMVV7RwJCOnvOIWC-KYt0z20IcIIrs3NeY6ajFWUycho6HP42ecMdBHaxtWcnHFvCqlHCFd3iGPDcE_WJMwKWVsY0b-G0C1y-I9totqw2Stg1YRMejj5eMIvO3-sxGuCEUO43NF_SDYfceN2nzcBiAfHRBvUEMy5gnFc1IYoWRhZIRJjRkQYlSOahqMOQoHVmwFsPsQJwxkzYRSYN5wpNyx4fV6J2-LvWB3cJy4_WC0]--></g></svg>