<?xml version="1.0" encoding="us-ascii" standalone="no"?><svg xmlns="http://www.w3.org/2000/svg" xmlns:xlink="http://www.w3.org/1999/xlink" contentStyleType="text/css" height="718px" preserveAspectRatio="none" style="width:689px;height:718px;background:#FFFFFF;" version="1.1" viewBox="0 0 689 718" width="689px" zoomAndPan="magnify"><defs/><g><text fill="#000000" font-family="sans-serif" font-size="14" font-weight="bold" lengthAdjust="spacing" textLength="226" x="227.5" y="40.6357">Handling incoming requests</text><rect fill="none" height="198.4063" style="stroke:#000000;stroke-width:1.5;" width="530" x="78" y="235.6328"/><line style="stroke:#181818;stroke-width:0.5;stroke-dasharray:5.0,5.0;" x1="45" x2="45" y1="131.2344" y2="622.7031"/><line style="stroke:#181818;stroke-width:0.5;stroke-dasharray:5.0,5.0;" x1="154" x2="154" y1="131.2344" y2="622.7031"/><line style="stroke:#181818;stroke-width:0.5;stroke-dasharray:5.0,5.0;" x1="336" x2="336" y1="131.2344" y2="622.7031"/><line style="stroke:#181818;stroke-width:0.5;stroke-dasharray:5.0,5.0;" x1="430" x2="430" y1="131.2344" y2="622.7031"/><line style="stroke:#181818;stroke-width:0.5;stroke-dasharray:5.0,5.0;" x1="533" x2="533" y1="131.2344" y2="622.7031"/><line style="stroke:#181818;stroke-width:0.5;stroke-dasharray:5.0,5.0;" x1="642" x2="642" y1="131.2344" y2="622.7031"/><text fill="#000000" font-family="sans-serif" font-size="14" lengthAdjust="spacing" textLength="74" x="5" y="127.9326">Requester</text><ellipse cx="45" cy="63.4375" fill="#E2E2F0" rx="8" ry="8" style="stroke:#181818;stroke-width:0.5;"/><path d="M45,71.4375 L45,98.4375 M32,79.4375 L58,79.4375 M45,98.4375 L32,113.4375 M45,98.4375 L58,113.4375 " fill="none" style="stroke:#181818;stroke-width:0.5;"/><text fill="#000000" font-family="sans-serif" font-size="14" lengthAdjust="spacing" textLength="74" x="5" y="634.6982">Requester</text><ellipse cx="45" cy="646.5" fill="#E2E2F0" rx="8" ry="8" style="stroke:#181818;stroke-width:0.5;"/><path d="M45,654.5 L45,681.5 M32,662.5 L58,662.5 M45,681.5 L32,696.5 M45,681.5 L58,696.5 " fill="none" style="stroke:#181818;stroke-width:0.5;"/><text fill="#000000" font-family="sans-serif" font-size="14" lengthAdjust="spacing" textLength="66" x="118" y="127.9326">Endpoint</text><path d="M133.5,86.9375 L133.5,110.9375 M133.5,98.9375 L150.5,98.9375 " fill="none" style="stroke:#181818;stroke-width:0.5;"/><ellipse cx="162.5" cy="98.9375" fill="#E2E2F0" rx="12" ry="12" style="stroke:#181818;stroke-width:0.5;"/><text fill="#000000" font-family="sans-serif" font-size="14" lengthAdjust="spacing" textLength="66" x="118" y="634.6982">Endpoint</text><path d="M133.5,642 L133.5,666 M133.5,654 L150.5,654 " fill="none" style="stroke:#181818;stroke-width:0.5;"/><ellipse cx="162.5" cy="654" fill="#E2E2F0" rx="12" ry="12" style="stroke:#181818;stroke-width:0.5;"/><text fill="#000000" font-family="sans-serif" font-size="14" lengthAdjust="spacing" textLength="108" x="279" y="127.9326">Authentication</text><ellipse cx="336" cy="98.9375" fill="#E2E2F0" rx="12" ry="12" style="stroke:#181818;stroke-width:0.5;"/><polygon fill="#181818" points="332,86.9375,338,81.9375,336,86.9375,338,91.9375,332,86.9375" style="stroke:#181818;stroke-width:1.0;"/><text fill="#000000" font-family="sans-serif" font-size="14" lengthAdjust="spacing" textLength="108" x="279" y="634.6982">Authentication</text><ellipse cx="336" cy="654" fill="#E2E2F0" rx="12" ry="12" style="stroke:#181818;stroke-width:0.5;"/><polygon fill="#181818" points="332,642,338,637,336,642,338,647,332,642" style="stroke:#181818;stroke-width:1.0;"/><text fill="#000000" font-family="sans-serif" font-size="14" lengthAdjust="spacing" textLength="49" x="403" y="127.9326">Source</text><ellipse cx="430.5" cy="98.9375" fill="#E2E2F0" rx="12" ry="12" style="stroke:#181818;stroke-width:0.5;"/><line style="stroke:#181818;stroke-width:0.5;" x1="418.5" x2="442.5" y1="112.9375" y2="112.9375"/><text fill="#000000" font-family="sans-serif" font-size="14" lengthAdjust="spacing" textLength="49" x="403" y="634.6982">Source</text><ellipse cx="430.5" cy="654" fill="#E2E2F0" rx="12" ry="12" style="stroke:#181818;stroke-width:0.5;"/><line style="stroke:#181818;stroke-width:0.5;" x1="418.5" x2="442.5" y1="668" y2="668"/><rect fill="#E2E2F0" height="30.2969" style="stroke:#181818;stroke-width:0.5;" width="126" x="472" y="95.9375"/><rect fill="#E2E2F0" height="30.2969" style="stroke:#181818;stroke-width:0.5;" width="126" x="468" y="99.9375"/><text fill="#000000" font-family="sans-serif" font-size="14" lengthAdjust="spacing" textLength="112" x="475" y="119.9326">RequestService</text><rect fill="#E2E2F0" height="30.2969" style="stroke:#181818;stroke-width:0.5;" width="126" x="472" y="621.7031"/><rect fill="#E2E2F0" height="30.2969" style="stroke:#181818;stroke-width:0.5;" width="126" x="468" y="625.7031"/><text fill="#000000" font-family="sans-serif" font-size="14" lengthAdjust="spacing" textLength="112" x="475" y="645.6982">RequestService</text><path d="M613,104.9375 L672,104.9375 C677,104.9375 677,118.0859 677,118.0859 C677,118.0859 677,131.2344 672,131.2344 L613,131.2344 C608,131.2344 608,118.0859 608,118.0859 C608,118.0859 608,104.9375 613,104.9375 " fill="#E2E2F0" style="stroke:#181818;stroke-width:0.5;"/><path d="M672,104.9375 C667,104.9375 667,118.0859 667,118.0859 C667,131.2344 672,131.2344 672,131.2344 " fill="none" style="stroke:#181818;stroke-width:0.5;"/><text fill="#000000" font-family="sans-serif" font-size="14" lengthAdjust="spacing" textLength="49" x="613" y="122.9326">Events</text><path d="M613,621.7031 L672,621.7031 C677,621.7031 677,634.8516 677,634.8516 C677,634.8516 677,648 672,648 L613,648 C608,648 608,634.8516 608,634.8516 C608,634.8516 608,621.7031 613,621.7031 " fill="#E2E2F0" style="stroke:#181818;stroke-width:0.5;"/><path d="M672,621.7031 C667,621.7031 667,634.8516 667,634.8516 C667,648 672,648 672,648 " fill="none" style="stroke:#181818;stroke-width:0.5;"/><text fill="#000000" font-family="sans-serif" font-size="14" lengthAdjust="spacing" textLength="49" x="613" y="639.6982">Events</text><polygon fill="#181818" points="142,158.3672,152,162.3672,142,166.3672,146,162.3672" style="stroke:#181818;stroke-width:1.0;"/><line style="stroke:#181818;stroke-width:1.0;" x1="45" x2="148" y1="162.3672" y2="162.3672"/><text fill="#000000" font-family="sans-serif" font-size="13" font-weight="bold" lengthAdjust="spacing" textLength="9" x="52" y="157.3013">1</text><text fill="#000000" font-family="sans-serif" font-size="13" lengthAdjust="spacing" textLength="53" x="65" y="157.3013">Request</text><polygon fill="#181818" points="324,187.5,334,191.5,324,195.5,328,191.5" style="stroke:#181818;stroke-width:1.0;"/><line style="stroke:#181818;stroke-width:1.0;" x1="154" x2="330" y1="191.5" y2="191.5"/><text fill="#000000" font-family="sans-serif" font-size="13" font-weight="bold" lengthAdjust="spacing" textLength="9" x="161" y="186.4341">2</text><text fill="#000000" font-family="sans-serif" font-size="13" lengthAdjust="spacing" textLength="145" x="174" y="186.4341">Require authentication</text><polygon fill="#181818" points="165,216.6328,155,220.6328,165,224.6328,161,220.6328" style="stroke:#181818;stroke-width:1.0;"/><line style="stroke:#181818;stroke-width:1.0;" x1="159" x2="335" y1="220.6328" y2="220.6328"/><text fill="#000000" font-family="sans-serif" font-size="13" font-weight="bold" lengthAdjust="spacing" textLength="8" x="171" y="215.5669">3</text><text fill="#000000" font-family="sans-serif" font-size="13" lengthAdjust="spacing" textLength="103" x="183" y="215.5669">Is authenticated</text><path d="M78,235.6328 L144,235.6328 L144,242.7656 L134,252.7656 L78,252.7656 L78,235.6328 " fill="#EEEEEE" style="stroke:#000000;stroke-width:1.5;"/><rect fill="none" height="198.4063" style="stroke:#000000;stroke-width:1.5;" width="530" x="78" y="235.6328"/><text fill="#000000" font-family="sans-serif" font-size="13" font-weight="bold" lengthAdjust="spacing" textLength="21" x="93" y="248.6997">alt</text><text fill="#000000" font-family="sans-serif" font-size="11" font-weight="bold" lengthAdjust="spacing" textLength="47" x="159" y="247.8433">[proxy]</text><polygon fill="#181818" points="418.5,269.8984,428.5,273.8984,418.5,277.8984,422.5,273.8984" style="stroke:#181818;stroke-width:1.0;"/><line style="stroke:#181818;stroke-width:1.0;" x1="154" x2="424.5" y1="273.8984" y2="273.8984"/><text fill="#000000" font-family="sans-serif" font-size="13" font-weight="bold" lengthAdjust="spacing" textLength="9" x="161" y="268.8325">4</text><text fill="#000000" font-family="sans-serif" font-size="13" lengthAdjust="spacing" textLength="87" x="174" y="268.8325">Pass Request</text><polygon fill="#181818" points="165,299.0313,155,303.0313,165,307.0313,161,303.0313" style="stroke:#181818;stroke-width:1.0;"/><line style="stroke:#181818;stroke-width:1.0;stroke-dasharray:2.0,2.0;" x1="159" x2="429.5" y1="303.0313" y2="303.0313"/><text fill="#000000" font-family="sans-serif" font-size="13" font-weight="bold" lengthAdjust="spacing" textLength="9" x="171" y="297.9653">5</text><text fill="#000000" font-family="sans-serif" font-size="13" lengthAdjust="spacing" textLength="97" x="184" y="297.9653">Pass Response</text><line style="stroke:#000000;stroke-width:1.0;stroke-dasharray:2.0,2.0;" x1="78" x2="608" y1="312.0313" y2="312.0313"/><text fill="#000000" font-family="sans-serif" font-size="11" font-weight="bold" lengthAdjust="spacing" textLength="80" x="83" y="322.2417">[schema('s)]</text><polygon fill="#181818" points="521,342.9688,531,346.9688,521,350.9688,525,346.9688" style="stroke:#181818;stroke-width:1.0;"/><line style="stroke:#181818;stroke-width:1.0;" x1="154" x2="527" y1="346.9688" y2="346.9688"/><text fill="#000000" font-family="sans-serif" font-size="13" font-weight="bold" lengthAdjust="spacing" textLength="9" x="161" y="341.9028">6</text><text fill="#000000" font-family="sans-serif" font-size="13" lengthAdjust="spacing" textLength="87" x="174" y="341.9028">Pass Request</text><polygon fill="#181818" points="165,372.1016,155,376.1016,165,380.1016,161,376.1016" style="stroke:#181818;stroke-width:1.0;"/><line style="stroke:#181818;stroke-width:1.0;stroke-dasharray:2.0,2.0;" x1="159" x2="532" y1="376.1016" y2="376.1016"/><text fill="#000000" font-family="sans-serif" font-size="13" font-weight="bold" lengthAdjust="spacing" textLength="9" x="171" y="371.0356">7</text><text fill="#000000" font-family="sans-serif" font-size="13" lengthAdjust="spacing" textLength="80" x="184" y="371.0356">Get Request</text><line style="stroke:#000000;stroke-width:1.0;stroke-dasharray:2.0,2.0;" x1="78" x2="608" y1="385.1016" y2="385.1016"/><text fill="#000000" font-family="sans-serif" font-size="11" font-weight="bold" lengthAdjust="spacing" textLength="161" x="83" y="395.312">[no proxy or schema('s)]</text><path d="M88,403.9063 L88,428.9063 L219,428.9063 L219,413.9063 L209,403.9063 L88,403.9063 " fill="#FEFFDD" style="stroke:#181818;stroke-width:0.5;"/><path d="M209,403.9063 L209,413.9063 L219,413.9063 L209,403.9063 " fill="#FEFFDD" style="stroke:#181818;stroke-width:0.5;"/><text fill="#000000" font-family="sans-serif" font-size="13" lengthAdjust="spacing" textLength="110" x="94" y="420.9731">Do nothing..........</text><line style="stroke:#181818;stroke-width:1.0;" x1="154" x2="196" y1="462.1719" y2="462.1719"/><line style="stroke:#181818;stroke-width:1.0;" x1="196" x2="196" y1="462.1719" y2="475.1719"/><line style="stroke:#181818;stroke-width:1.0;" x1="155" x2="196" y1="475.1719" y2="475.1719"/><polygon fill="#181818" points="165,471.1719,155,475.1719,165,479.1719,161,475.1719" style="stroke:#181818;stroke-width:1.0;"/><text fill="#000000" font-family="sans-serif" font-size="13" font-weight="bold" lengthAdjust="spacing" textLength="9" x="161" y="457.106">8</text><text fill="#000000" font-family="sans-serif" font-size="13" lengthAdjust="spacing" textLength="110" x="174" y="457.106">Create Responce</text><polygon fill="#181818" points="630.5,500.3047,640.5,504.3047,630.5,508.3047,634.5,504.3047" style="stroke:#181818;stroke-width:1.0;"/><line style="stroke:#181818;stroke-width:1.0;" x1="154" x2="636.5" y1="504.3047" y2="504.3047"/><text fill="#000000" font-family="sans-serif" font-size="13" font-weight="bold" lengthAdjust="spacing" textLength="9" x="161" y="499.2388">9</text><text fill="#000000" font-family="sans-serif" font-size="13" lengthAdjust="spacing" textLength="88" x="174" y="499.2388">Throw events</text><polygon fill="#181818" points="165,529.4375,155,533.4375,165,537.4375,161,533.4375" style="stroke:#181818;stroke-width:1.0;"/><line style="stroke:#181818;stroke-width:1.0;stroke-dasharray:2.0,2.0;" x1="159" x2="641.5" y1="533.4375" y2="533.4375"/><text fill="#000000" font-family="sans-serif" font-size="13" font-weight="bold" lengthAdjust="spacing" textLength="19" x="171" y="528.3716">10</text><text fill="#000000" font-family="sans-serif" font-size="13" lengthAdjust="spacing" textLength="109" x="194" y="528.3716">Update responce</text><line style="stroke:#181818;stroke-width:1.0;" x1="154" x2="196" y1="562.5703" y2="562.5703"/><line style="stroke:#181818;stroke-width:1.0;" x1="196" x2="196" y1="562.5703" y2="575.5703"/><line style="stroke:#181818;stroke-width:1.0;" x1="155" x2="196" y1="575.5703" y2="575.5703"/><polygon fill="#181818" points="165,571.5703,155,575.5703,165,579.5703,161,575.5703" style="stroke:#181818;stroke-width:1.0;"/><text fill="#000000" font-family="sans-serif" font-size="13" font-weight="bold" lengthAdjust="spacing" textLength="18" x="161" y="557.5044">11</text><text fill="#000000" font-family="sans-serif" font-size="13" lengthAdjust="spacing" textLength="120" x="183" y="557.5044">Serialize Responce</text><polygon fill="#181818" points="56,600.7031,46,604.7031,56,608.7031,52,604.7031" style="stroke:#181818;stroke-width:1.0;"/><line style="stroke:#181818;stroke-width:1.0;stroke-dasharray:2.0,2.0;" x1="50" x2="153" y1="604.7031" y2="604.7031"/><text fill="#000000" font-family="sans-serif" font-size="13" font-weight="bold" lengthAdjust="spacing" textLength="18" x="62" y="599.6372">12</text><text fill="#000000" font-family="sans-serif" font-size="13" lengthAdjust="spacing" textLength="63" x="84" y="599.6372">Response</text><text fill="#888888" font-family="sans-serif" font-size="10" lengthAdjust="spacing" textLength="49" x="632" y="14.2822">Requests</text><text fill="#888888" font-family="sans-serif" font-size="10" lengthAdjust="spacing" textLength="163" x="259" y="708.2822">Common Gateway | Endpoints</text><!--SRC=[RLD1JiCm4Bpx5Ni33kK1EI2XKXLkYC83t6GXbXnli3SjGJoUJTmuSLIVxF5urZDhis6B1JnhLrdZli2uaffXul6xmy11VH8n-WAsr3JaOAyPpxg7FzYvgYNZX5AZhWRAstH6TqokQuxebT8bauSuBWISrg33ZAaZTQxIlXys9d5OC2TCbUJOantnnuvhT6nApKQkDn9pJ0rJxgFCWJfV8i1IDsAYQYsMmubqgGFwandfUeqfMNIJqEuaDKAk6Z6bPi-RXsGXPQMIKTbTUuaiun5qxcX5N0WFXrx2ae-LqfQXzVJJgwpSb4K1hpeaV-e2RvQgYH9QYGSLse0GoXeRVNiJxZBPTNOh-VNsgiuUEL77AexYtK5UqQAYarS9T99OvqoVIDXSo_EzJqEwN-MsP_xMe-HpSIKjpLXZ-mfuhpsT0MCpBttUP2eVRJMe-AigYIL-ZRRczsgvERNuZMBA_m00]--></g></svg>