<?xml version="1.0" encoding="us-ascii" standalone="no"?><svg xmlns="http://www.w3.org/2000/svg" xmlns:xlink="http://www.w3.org/1999/xlink" contentStyleType="text/css" height="538px" preserveAspectRatio="none" style="width:514px;height:538px;background:#FFFFFF;" version="1.1" viewBox="0 0 514 538" width="514px" zoomAndPan="magnify"><defs/><g><text fill="#000000" font-family="sans-serif" font-size="14" font-weight="bold" lengthAdjust="spacing" textLength="205" x="150.5" y="40.6357">Handling PATCH requests</text><line style="stroke:#181818;stroke-width:0.5;stroke-dasharray:5.0,5.0;" x1="45" x2="45" y1="131.2344" y2="442.5625"/><line style="stroke:#181818;stroke-width:0.5;stroke-dasharray:5.0,5.0;" x1="155" x2="155" y1="131.2344" y2="442.5625"/><line style="stroke:#181818;stroke-width:0.5;stroke-dasharray:5.0,5.0;" x1="277" x2="277" y1="131.2344" y2="442.5625"/><line style="stroke:#181818;stroke-width:0.5;stroke-dasharray:5.0,5.0;" x1="378" x2="378" y1="131.2344" y2="442.5625"/><line style="stroke:#181818;stroke-width:0.5;stroke-dasharray:5.0,5.0;" x1="464" x2="464" y1="131.2344" y2="442.5625"/><text fill="#000000" font-family="sans-serif" font-size="14" lengthAdjust="spacing" textLength="74" x="5" y="127.9326">Requester</text><ellipse cx="45" cy="63.4375" fill="#E2E2F0" rx="8" ry="8" style="stroke:#181818;stroke-width:0.5;"/><path d="M45,71.4375 L45,98.4375 M32,79.4375 L58,79.4375 M45,98.4375 L32,113.4375 M45,98.4375 L58,113.4375 " fill="none" style="stroke:#181818;stroke-width:0.5;"/><text fill="#000000" font-family="sans-serif" font-size="14" lengthAdjust="spacing" textLength="74" x="5" y="454.5576">Requester</text><ellipse cx="45" cy="466.3594" fill="#E2E2F0" rx="8" ry="8" style="stroke:#181818;stroke-width:0.5;"/><path d="M45,474.3594 L45,501.3594 M32,482.3594 L58,482.3594 M45,501.3594 L32,516.3594 M45,501.3594 L58,516.3594 " fill="none" style="stroke:#181818;stroke-width:0.5;"/><text fill="#000000" font-family="sans-serif" font-size="14" lengthAdjust="spacing" textLength="66" x="119" y="127.9326">Endpoint</text><path d="M134.5,86.9375 L134.5,110.9375 M134.5,98.9375 L151.5,98.9375 " fill="none" style="stroke:#181818;stroke-width:0.5;"/><ellipse cx="163.5" cy="98.9375" fill="#E2E2F0" rx="12" ry="12" style="stroke:#181818;stroke-width:0.5;"/><text fill="#000000" font-family="sans-serif" font-size="14" lengthAdjust="spacing" textLength="66" x="119" y="454.5576">Endpoint</text><path d="M134.5,461.8594 L134.5,485.8594 M134.5,473.8594 L151.5,473.8594 " fill="none" style="stroke:#181818;stroke-width:0.5;"/><ellipse cx="163.5" cy="473.8594" fill="#E2E2F0" rx="12" ry="12" style="stroke:#181818;stroke-width:0.5;"/><text fill="#000000" font-family="sans-serif" font-size="14" lengthAdjust="spacing" textLength="98" x="225" y="127.9326">Authorization</text><ellipse cx="277" cy="98.9375" fill="#E2E2F0" rx="12" ry="12" style="stroke:#181818;stroke-width:0.5;"/><polygon fill="#181818" points="273,86.9375,279,81.9375,277,86.9375,279,91.9375,273,86.9375" style="stroke:#181818;stroke-width:1.0;"/><text fill="#000000" font-family="sans-serif" font-size="14" lengthAdjust="spacing" textLength="98" x="225" y="454.5576">Authorization</text><ellipse cx="277" cy="473.8594" fill="#E2E2F0" rx="12" ry="12" style="stroke:#181818;stroke-width:0.5;"/><polygon fill="#181818" points="273,461.8594,279,456.8594,277,461.8594,279,466.8594,273,461.8594" style="stroke:#181818;stroke-width:1.0;"/><text fill="#000000" font-family="sans-serif" font-size="14" lengthAdjust="spacing" textLength="72" x="339" y="127.9326">Validation</text><ellipse cx="378" cy="98.9375" fill="#E2E2F0" rx="12" ry="12" style="stroke:#181818;stroke-width:0.5;"/><polygon fill="#181818" points="374,86.9375,380,81.9375,378,86.9375,380,91.9375,374,86.9375" style="stroke:#181818;stroke-width:1.0;"/><text fill="#000000" font-family="sans-serif" font-size="14" lengthAdjust="spacing" textLength="72" x="339" y="454.5576">Validation</text><ellipse cx="378" cy="473.8594" fill="#E2E2F0" rx="12" ry="12" style="stroke:#181818;stroke-width:0.5;"/><polygon fill="#181818" points="374,461.8594,380,456.8594,378,461.8594,380,466.8594,374,461.8594" style="stroke:#181818;stroke-width:1.0;"/><text fill="#000000" font-family="sans-serif" font-size="14" lengthAdjust="spacing" textLength="69" x="427" y="127.9326">Datalayer</text><path d="M446.5,78.9375 C446.5,68.9375 464.5,68.9375 464.5,68.9375 C464.5,68.9375 482.5,68.9375 482.5,78.9375 L482.5,104.9375 C482.5,114.9375 464.5,114.9375 464.5,114.9375 C464.5,114.9375 446.5,114.9375 446.5,104.9375 L446.5,78.9375 " fill="#E2E2F0" style="stroke:#181818;stroke-width:1.5;"/><path d="M446.5,78.9375 C446.5,88.9375 464.5,88.9375 464.5,88.9375 C464.5,88.9375 482.5,88.9375 482.5,78.9375 " fill="none" style="stroke:#181818;stroke-width:1.5;"/><text fill="#000000" font-family="sans-serif" font-size="14" lengthAdjust="spacing" textLength="69" x="427" y="454.5576">Datalayer</text><path d="M446.5,467.8594 C446.5,457.8594 464.5,457.8594 464.5,457.8594 C464.5,457.8594 482.5,457.8594 482.5,467.8594 L482.5,493.8594 C482.5,503.8594 464.5,503.8594 464.5,503.8594 C464.5,503.8594 446.5,503.8594 446.5,493.8594 L446.5,467.8594 " fill="#E2E2F0" style="stroke:#181818;stroke-width:1.5;"/><path d="M446.5,467.8594 C446.5,477.8594 464.5,477.8594 464.5,477.8594 C464.5,477.8594 482.5,477.8594 482.5,467.8594 " fill="none" style="stroke:#181818;stroke-width:1.5;"/><polygon fill="#181818" points="143,158.3672,153,162.3672,143,166.3672,147,162.3672" style="stroke:#181818;stroke-width:1.0;"/><line style="stroke:#181818;stroke-width:1.0;" x1="45" x2="149" y1="162.3672" y2="162.3672"/><text fill="#000000" font-family="sans-serif" font-size="13" font-weight="bold" lengthAdjust="spacing" textLength="9" x="52" y="157.3013">1</text><text fill="#000000" font-family="sans-serif" font-size="13" lengthAdjust="spacing" textLength="53" x="65" y="157.3013">Request</text><polygon fill="#181818" points="265,187.5,275,191.5,265,195.5,269,191.5" style="stroke:#181818;stroke-width:1.0;"/><line style="stroke:#181818;stroke-width:1.0;" x1="155" x2="271" y1="191.5" y2="191.5"/><text fill="#000000" font-family="sans-serif" font-size="13" font-weight="bold" lengthAdjust="spacing" textLength="9" x="162" y="186.4341">2</text><text fill="#000000" font-family="sans-serif" font-size="13" lengthAdjust="spacing" textLength="85" x="175" y="186.4341">Authorization</text><polygon fill="#181818" points="166,216.6328,156,220.6328,166,224.6328,162,220.6328" style="stroke:#181818;stroke-width:1.0;"/><line style="stroke:#181818;stroke-width:1.0;stroke-dasharray:2.0,2.0;" x1="160" x2="276" y1="220.6328" y2="220.6328"/><text fill="#000000" font-family="sans-serif" font-size="13" font-weight="bold" lengthAdjust="spacing" textLength="8" x="172" y="215.5669">3</text><text fill="#000000" font-family="sans-serif" font-size="13" lengthAdjust="spacing" textLength="85" x="184" y="215.5669">Authorization</text><polygon fill="#181818" points="452.5,245.7656,462.5,249.7656,452.5,253.7656,456.5,249.7656" style="stroke:#181818;stroke-width:1.0;"/><line style="stroke:#181818;stroke-width:1.0;" x1="155" x2="458.5" y1="249.7656" y2="249.7656"/><text fill="#000000" font-family="sans-serif" font-size="13" font-weight="bold" lengthAdjust="spacing" textLength="9" x="162" y="244.6997">4</text><text fill="#000000" font-family="sans-serif" font-size="13" lengthAdjust="spacing" textLength="107" x="175" y="244.6997">Search object('s)</text><polygon fill="#181818" points="166,274.8984,156,278.8984,166,282.8984,162,278.8984" style="stroke:#181818;stroke-width:1.0;"/><line style="stroke:#181818;stroke-width:1.0;stroke-dasharray:2.0,2.0;" x1="160" x2="463.5" y1="278.8984" y2="278.8984"/><text fill="#000000" font-family="sans-serif" font-size="13" font-weight="bold" lengthAdjust="spacing" textLength="9" x="172" y="273.8325">5</text><text fill="#000000" font-family="sans-serif" font-size="13" lengthAdjust="spacing" textLength="61" x="185" y="273.8325">Object('s)</text><polygon fill="#181818" points="366,304.0313,376,308.0313,366,312.0313,370,308.0313" style="stroke:#181818;stroke-width:1.0;"/><line style="stroke:#181818;stroke-width:1.0;" x1="155" x2="372" y1="308.0313" y2="308.0313"/><text fill="#000000" font-family="sans-serif" font-size="13" font-weight="bold" lengthAdjust="spacing" textLength="9" x="162" y="302.9653">6</text><text fill="#000000" font-family="sans-serif" font-size="13" lengthAdjust="spacing" textLength="109" x="175" y="302.9653">Validate Request</text><polygon fill="#181818" points="166,333.1641,156,337.1641,166,341.1641,162,337.1641" style="stroke:#181818;stroke-width:1.0;"/><line style="stroke:#181818;stroke-width:1.0;stroke-dasharray:2.0,2.0;" x1="160" x2="377" y1="337.1641" y2="337.1641"/><text fill="#000000" font-family="sans-serif" font-size="13" font-weight="bold" lengthAdjust="spacing" textLength="9" x="172" y="332.0981">7</text><text fill="#000000" font-family="sans-serif" font-size="13" lengthAdjust="spacing" textLength="107" x="185" y="332.0981">Validation Result</text><polygon fill="#181818" points="452.5,362.2969,462.5,366.2969,452.5,370.2969,456.5,366.2969" style="stroke:#181818;stroke-width:1.0;"/><line style="stroke:#181818;stroke-width:1.0;" x1="155" x2="458.5" y1="366.2969" y2="366.2969"/><text fill="#000000" font-family="sans-serif" font-size="13" font-weight="bold" lengthAdjust="spacing" textLength="9" x="162" y="361.231">8</text><text fill="#000000" font-family="sans-serif" font-size="13" lengthAdjust="spacing" textLength="109" x="175" y="361.231">Update object('s)</text><polygon fill="#181818" points="166,391.4297,156,395.4297,166,399.4297,162,395.4297" style="stroke:#181818;stroke-width:1.0;"/><line style="stroke:#181818;stroke-width:1.0;stroke-dasharray:2.0,2.0;" x1="160" x2="463.5" y1="395.4297" y2="395.4297"/><text fill="#000000" font-family="sans-serif" font-size="13" font-weight="bold" lengthAdjust="spacing" textLength="9" x="172" y="390.3638">9</text><text fill="#000000" font-family="sans-serif" font-size="13" lengthAdjust="spacing" textLength="61" x="185" y="390.3638">Object('s)</text><polygon fill="#181818" points="56,420.5625,46,424.5625,56,428.5625,52,424.5625" style="stroke:#181818;stroke-width:1.0;"/><line style="stroke:#181818;stroke-width:1.0;stroke-dasharray:2.0,2.0;" x1="50" x2="154" y1="424.5625" y2="424.5625"/><text fill="#000000" font-family="sans-serif" font-size="13" font-weight="bold" lengthAdjust="spacing" textLength="19" x="62" y="419.4966">10</text><text fill="#000000" font-family="sans-serif" font-size="13" lengthAdjust="spacing" textLength="63" x="85" y="419.4966">Response</text><text fill="#888888" font-family="sans-serif" font-size="10" lengthAdjust="spacing" textLength="83" x="423" y="14.2822">PATCH Request</text><text fill="#888888" font-family="sans-serif" font-size="10" lengthAdjust="spacing" textLength="163" x="171.5" y="528.1416">Common Gateway | Endpoints</text><!--SRC=[dP2zJiGm48HxFuKxeCWBk40w7OZhE1q__IPPY97Z3VPQw10FZtCX_Zb4WvlOC-F9vsND1fNSWUsDjgzoltdSxgJ3zu2UlNWXOdHARcaSoSexOFo0e_oIjxQVIDiO6H3wERBSF2mt1GGc6yOMdH3GCJcvh1yVrxC4dpNHKh0zkEDih7-GHNBLH4UM7PcJlWayaDEVm3eYBi5AgzBFO7IVeaiwQo9-e0MFitCJzmQE5MlIXCXFQQuJcKeJIFpHFKDKPtortHHrlxDbRGPKyW71TOEazWqxlhpmLoAxJGLudoDbMJ4OjHumlQPmwxR2EA0FXlyaV9fEZVybZ8aqyNdAVYBhyHi0]--></g></svg>