<?xml version="1.0" encoding="us-ascii" standalone="no"?><svg xmlns="http://www.w3.org/2000/svg" xmlns:xlink="http://www.w3.org/1999/xlink" contentStyleType="text/css" height="464px" preserveAspectRatio="none" style="width:661px;height:464px;background:#FFFFFF;" version="1.1" viewBox="0 0 661 464" width="661px" zoomAndPan="magnify"><defs/><g><text fill="#000000" font-family="sans-serif" font-size="14" font-weight="bold" lengthAdjust="spacing" textLength="121" x="266" y="40.6357">Handling Proxy</text><line style="stroke:#181818;stroke-width:0.5;stroke-dasharray:5.0,5.0;" x1="45" x2="45" y1="131.2344" y2="368.1641"/><line style="stroke:#181818;stroke-width:0.5;stroke-dasharray:5.0,5.0;" x1="131" x2="131" y1="131.2344" y2="368.1641"/><line style="stroke:#181818;stroke-width:0.5;stroke-dasharray:5.0,5.0;" x1="242" x2="242" y1="131.2344" y2="368.1641"/><line style="stroke:#181818;stroke-width:0.5;stroke-dasharray:5.0,5.0;" x1="447" x2="447" y1="131.2344" y2="368.1641"/><line style="stroke:#181818;stroke-width:0.5;stroke-dasharray:5.0,5.0;" x1="546" x2="546" y1="131.2344" y2="368.1641"/><line style="stroke:#181818;stroke-width:0.5;stroke-dasharray:5.0,5.0;" x1="621" x2="621" y1="131.2344" y2="368.1641"/><text fill="#000000" font-family="sans-serif" font-size="14" lengthAdjust="spacing" textLength="74" x="5" y="127.9326">Requester</text><ellipse cx="45" cy="63.4375" fill="#E2E2F0" rx="8" ry="8" style="stroke:#181818;stroke-width:0.5;"/><path d="M45,71.4375 L45,98.4375 M32,79.4375 L58,79.4375 M45,98.4375 L32,113.4375 M45,98.4375 L58,113.4375 " fill="none" style="stroke:#181818;stroke-width:0.5;"/><text fill="#000000" font-family="sans-serif" font-size="14" lengthAdjust="spacing" textLength="74" x="5" y="380.1592">Requester</text><ellipse cx="45" cy="391.9609" fill="#E2E2F0" rx="8" ry="8" style="stroke:#181818;stroke-width:0.5;"/><path d="M45,399.9609 L45,426.9609 M32,407.9609 L58,407.9609 M45,426.9609 L32,441.9609 M45,426.9609 L58,441.9609 " fill="none" style="stroke:#181818;stroke-width:0.5;"/><text fill="#000000" font-family="sans-serif" font-size="14" lengthAdjust="spacing" textLength="66" x="95" y="127.9326">Endpoint</text><path d="M110.5,86.9375 L110.5,110.9375 M110.5,98.9375 L127.5,98.9375 " fill="none" style="stroke:#181818;stroke-width:0.5;"/><ellipse cx="139.5" cy="98.9375" fill="#E2E2F0" rx="12" ry="12" style="stroke:#181818;stroke-width:0.5;"/><text fill="#000000" font-family="sans-serif" font-size="14" lengthAdjust="spacing" textLength="66" x="95" y="380.1592">Endpoint</text><path d="M110.5,387.4609 L110.5,411.4609 M110.5,399.4609 L127.5,399.4609 " fill="none" style="stroke:#181818;stroke-width:0.5;"/><ellipse cx="139.5" cy="399.4609" fill="#E2E2F0" rx="12" ry="12" style="stroke:#181818;stroke-width:0.5;"/><rect fill="#E2E2F0" height="30.2969" style="stroke:#181818;stroke-width:0.5;" width="126" x="181" y="95.9375"/><rect fill="#E2E2F0" height="30.2969" style="stroke:#181818;stroke-width:0.5;" width="126" x="177" y="99.9375"/><text fill="#000000" font-family="sans-serif" font-size="14" lengthAdjust="spacing" textLength="112" x="184" y="119.9326">RequestService</text><rect fill="#E2E2F0" height="30.2969" style="stroke:#181818;stroke-width:0.5;" width="126" x="181" y="367.1641"/><rect fill="#E2E2F0" height="30.2969" style="stroke:#181818;stroke-width:0.5;" width="126" x="177" y="371.1641"/><text fill="#000000" font-family="sans-serif" font-size="14" lengthAdjust="spacing" textLength="112" x="184" y="391.1592">RequestService</text><text fill="#000000" font-family="sans-serif" font-size="14" lengthAdjust="spacing" textLength="98" x="395" y="127.9326">Authorization</text><ellipse cx="447" cy="98.9375" fill="#E2E2F0" rx="12" ry="12" style="stroke:#181818;stroke-width:0.5;"/><polygon fill="#181818" points="443,86.9375,449,81.9375,447,86.9375,449,91.9375,443,86.9375" style="stroke:#181818;stroke-width:1.0;"/><text fill="#000000" font-family="sans-serif" font-size="14" lengthAdjust="spacing" textLength="98" x="395" y="380.1592">Authorization</text><ellipse cx="447" cy="399.4609" fill="#E2E2F0" rx="12" ry="12" style="stroke:#181818;stroke-width:0.5;"/><polygon fill="#181818" points="443,387.4609,449,382.4609,447,387.4609,449,392.4609,443,387.4609" style="stroke:#181818;stroke-width:1.0;"/><text fill="#000000" font-family="sans-serif" font-size="14" lengthAdjust="spacing" textLength="69" x="509" y="127.9326">Datalayer</text><path d="M528.5,78.9375 C528.5,68.9375 546.5,68.9375 546.5,68.9375 C546.5,68.9375 564.5,68.9375 564.5,78.9375 L564.5,104.9375 C564.5,114.9375 546.5,114.9375 546.5,114.9375 C546.5,114.9375 528.5,114.9375 528.5,104.9375 L528.5,78.9375 " fill="#E2E2F0" style="stroke:#181818;stroke-width:1.5;"/><path d="M528.5,78.9375 C528.5,88.9375 546.5,88.9375 546.5,88.9375 C546.5,88.9375 564.5,88.9375 564.5,78.9375 " fill="none" style="stroke:#181818;stroke-width:1.5;"/><text fill="#000000" font-family="sans-serif" font-size="14" lengthAdjust="spacing" textLength="69" x="509" y="380.1592">Datalayer</text><path d="M528.5,393.4609 C528.5,383.4609 546.5,383.4609 546.5,383.4609 C546.5,383.4609 564.5,383.4609 564.5,393.4609 L564.5,419.4609 C564.5,429.4609 546.5,429.4609 546.5,429.4609 C546.5,429.4609 528.5,429.4609 528.5,419.4609 L528.5,393.4609 " fill="#E2E2F0" style="stroke:#181818;stroke-width:1.5;"/><path d="M528.5,393.4609 C528.5,403.4609 546.5,403.4609 546.5,403.4609 C546.5,403.4609 564.5,403.4609 564.5,393.4609 " fill="none" style="stroke:#181818;stroke-width:1.5;"/><text fill="#000000" font-family="sans-serif" font-size="14" lengthAdjust="spacing" textLength="49" x="594" y="127.9326">Source</text><ellipse cx="621.5" cy="98.9375" fill="#E2E2F0" rx="12" ry="12" style="stroke:#181818;stroke-width:0.5;"/><line style="stroke:#181818;stroke-width:0.5;" x1="609.5" x2="633.5" y1="112.9375" y2="112.9375"/><text fill="#000000" font-family="sans-serif" font-size="14" lengthAdjust="spacing" textLength="49" x="594" y="380.1592">Source</text><ellipse cx="621.5" cy="399.4609" fill="#E2E2F0" rx="12" ry="12" style="stroke:#181818;stroke-width:0.5;"/><line style="stroke:#181818;stroke-width:0.5;" x1="609.5" x2="633.5" y1="413.4609" y2="413.4609"/><polygon fill="#181818" points="230,158.3672,240,162.3672,230,166.3672,234,162.3672" style="stroke:#181818;stroke-width:1.0;"/><line style="stroke:#181818;stroke-width:1.0;" x1="131" x2="236" y1="162.3672" y2="162.3672"/><text fill="#000000" font-family="sans-serif" font-size="13" font-weight="bold" lengthAdjust="spacing" textLength="9" x="138" y="157.3013">1</text><text fill="#000000" font-family="sans-serif" font-size="13" lengthAdjust="spacing" textLength="53" x="151" y="157.3013">Request</text><polygon fill="#181818" points="435,187.5,445,191.5,435,195.5,439,191.5" style="stroke:#181818;stroke-width:1.0;"/><line style="stroke:#181818;stroke-width:1.0;" x1="242" x2="441" y1="191.5" y2="191.5"/><text fill="#000000" font-family="sans-serif" font-size="13" font-weight="bold" lengthAdjust="spacing" textLength="9" x="249" y="186.4341">2</text><text fill="#000000" font-family="sans-serif" font-size="13" lengthAdjust="spacing" textLength="85" x="262" y="186.4341">Authorization</text><polygon fill="#181818" points="253,216.6328,243,220.6328,253,224.6328,249,220.6328" style="stroke:#181818;stroke-width:1.0;"/><line style="stroke:#181818;stroke-width:1.0;stroke-dasharray:2.0,2.0;" x1="247" x2="446" y1="220.6328" y2="220.6328"/><text fill="#000000" font-family="sans-serif" font-size="13" font-weight="bold" lengthAdjust="spacing" textLength="8" x="259" y="215.5669">3</text><text fill="#000000" font-family="sans-serif" font-size="13" lengthAdjust="spacing" textLength="85" x="271" y="215.5669">Authorization</text><line style="stroke:#181818;stroke-width:1.0;" x1="242" x2="284" y1="249.7656" y2="249.7656"/><line style="stroke:#181818;stroke-width:1.0;" x1="284" x2="284" y1="249.7656" y2="262.7656"/><line style="stroke:#181818;stroke-width:1.0;" x1="243" x2="284" y1="262.7656" y2="262.7656"/><polygon fill="#181818" points="253,258.7656,243,262.7656,253,266.7656,249,262.7656" style="stroke:#181818;stroke-width:1.0;"/><text fill="#000000" font-family="sans-serif" font-size="13" font-weight="bold" lengthAdjust="spacing" textLength="9" x="249" y="244.6997">4</text><text fill="#000000" font-family="sans-serif" font-size="13" lengthAdjust="spacing" textLength="178" x="262" y="244.6997">Set authorization for source</text><polygon fill="#181818" points="609.5,287.8984,619.5,291.8984,609.5,295.8984,613.5,291.8984" style="stroke:#181818;stroke-width:1.0;"/><line style="stroke:#181818;stroke-width:1.0;" x1="242" x2="615.5" y1="291.8984" y2="291.8984"/><text fill="#000000" font-family="sans-serif" font-size="13" font-weight="bold" lengthAdjust="spacing" textLength="9" x="249" y="286.8325">5</text><text fill="#000000" font-family="sans-serif" font-size="13" lengthAdjust="spacing" textLength="87" x="262" y="286.8325">Pass Request</text><polygon fill="#181818" points="253,317.0313,243,321.0313,253,325.0313,249,321.0313" style="stroke:#181818;stroke-width:1.0;"/><line style="stroke:#181818;stroke-width:1.0;stroke-dasharray:2.0,2.0;" x1="247" x2="620.5" y1="321.0313" y2="321.0313"/><text fill="#000000" font-family="sans-serif" font-size="13" font-weight="bold" lengthAdjust="spacing" textLength="9" x="259" y="315.9653">6</text><text fill="#000000" font-family="sans-serif" font-size="13" lengthAdjust="spacing" textLength="97" x="272" y="315.9653">Pass Response</text><polygon fill="#181818" points="142,346.1641,132,350.1641,142,354.1641,138,350.1641" style="stroke:#181818;stroke-width:1.0;"/><line style="stroke:#181818;stroke-width:1.0;stroke-dasharray:2.0,2.0;" x1="136" x2="241" y1="350.1641" y2="350.1641"/><text fill="#000000" font-family="sans-serif" font-size="13" font-weight="bold" lengthAdjust="spacing" textLength="9" x="148" y="345.0981">7</text><text fill="#000000" font-family="sans-serif" font-size="13" lengthAdjust="spacing" textLength="63" x="161" y="345.0981">Response</text><text fill="#888888" font-family="sans-serif" font-size="10" lengthAdjust="spacing" textLength="29" x="624" y="14.2822">Proxy</text><text fill="#888888" font-family="sans-serif" font-size="10" lengthAdjust="spacing" textLength="163" x="245" y="453.7432">Common Gateway | Endpoints</text><!--SRC=[RL51JiGm3Bpx5Vv0Fv034e8L715zWTjwsKXfl2JEGj4-ddIRbcrBJibuPko9rQfZWw_aEsVz1xu5-HxWAA8S33v9tul75rB-eW6lUF3TMQpN22UcRgHC0g2aubFVSCZtLYNWTDxvCt7CPkMD5FymQ2JvZi8m5cPhl6FE6BJY7BTgnI_ociF5jhooB5YcUmtYRZQFIKyIx0-DwkAxmg0ZfORYQ8NF-UveMCsxOC1UhGvJePOKRktlc1C6i6If7ZQZcVaDcnYPkPdKRCPSbwkTzLwnRx513DQiI2lZOzvTd7BizILqNZl5vTUXeDK_QGildlFczePPC7-LMLY_]--></g></svg>