<?xml version="1.0" encoding="us-ascii" standalone="no"?><svg xmlns="http://www.w3.org/2000/svg" xmlns:xlink="http://www.w3.org/1999/xlink" contentStyleType="text/css" height="452px" preserveAspectRatio="none" style="width:516px;height:452px;" version="1.1" viewBox="0 0 516 452" width="516px" zoomAndPan="magnify"><defs/><g><text fill="#000000" font-family="sans-serif" font-size="14" font-weight="bold" lengthAdjust="spacing" textLength="195" x="156.5" y="40.6357">Handling POST requests</text><line style="stroke:#181818;stroke-width:0.5;stroke-dasharray:5.0,5.0;" x1="41" x2="41" y1="117.2344" y2="370.2969"/><line style="stroke:#181818;stroke-width:0.5;stroke-dasharray:5.0,5.0;" x1="152" x2="152" y1="117.2344" y2="370.2969"/><line style="stroke:#181818;stroke-width:0.5;stroke-dasharray:5.0,5.0;" x1="279" x2="279" y1="117.2344" y2="370.2969"/><line style="stroke:#181818;stroke-width:0.5;stroke-dasharray:5.0,5.0;" x1="380" x2="380" y1="117.2344" y2="370.2969"/><line style="stroke:#181818;stroke-width:0.5;stroke-dasharray:5.0,5.0;" x1="466" x2="466" y1="117.2344" y2="370.2969"/><text fill="#000000" font-family="sans-serif" font-size="14" lengthAdjust="spacing" textLength="66" x="5" y="113.9326">Endpoint</text><path d="M20.5,72.9375 L20.5,96.9375 M20.5,84.9375 L37.5,84.9375 " fill="none" style="stroke:#181818;stroke-width:0.5;"/><ellipse cx="49.5" cy="84.9375" fill="#E2E2F0" rx="12" ry="12" style="stroke:#181818;stroke-width:0.5;"/><text fill="#000000" font-family="sans-serif" font-size="14" lengthAdjust="spacing" textLength="66" x="5" y="382.292">Endpoint</text><path d="M20.5,389.5938 L20.5,413.5938 M20.5,401.5938 L37.5,401.5938 " fill="none" style="stroke:#181818;stroke-width:0.5;"/><ellipse cx="49.5" cy="401.5938" fill="#E2E2F0" rx="12" ry="12" style="stroke:#181818;stroke-width:0.5;"/><rect fill="#E2E2F0" height="30.2969" style="stroke:#181818;stroke-width:0.5;" width="126" x="91" y="81.9375"/><rect fill="#E2E2F0" height="30.2969" style="stroke:#181818;stroke-width:0.5;" width="126" x="87" y="85.9375"/><text fill="#000000" font-family="sans-serif" font-size="14" lengthAdjust="spacing" textLength="112" x="94" y="105.9326">RequestService</text><rect fill="#E2E2F0" height="30.2969" style="stroke:#181818;stroke-width:0.5;" width="126" x="91" y="369.2969"/><rect fill="#E2E2F0" height="30.2969" style="stroke:#181818;stroke-width:0.5;" width="126" x="87" y="373.2969"/><text fill="#000000" font-family="sans-serif" font-size="14" lengthAdjust="spacing" textLength="112" x="94" y="393.292">RequestService</text><text fill="#000000" font-family="sans-serif" font-size="14" lengthAdjust="spacing" textLength="98" x="227" y="113.9326">Authorization</text><ellipse cx="279" cy="84.9375" fill="#E2E2F0" rx="12" ry="12" style="stroke:#181818;stroke-width:0.5;"/><polygon fill="#181818" points="275,72.9375,281,67.9375,279,72.9375,281,77.9375,275,72.9375" style="stroke:#181818;stroke-width:1.0;"/><text fill="#000000" font-family="sans-serif" font-size="14" lengthAdjust="spacing" textLength="98" x="227" y="382.292">Authorization</text><ellipse cx="279" cy="401.5938" fill="#E2E2F0" rx="12" ry="12" style="stroke:#181818;stroke-width:0.5;"/><polygon fill="#181818" points="275,389.5938,281,384.5938,279,389.5938,281,394.5938,275,389.5938" style="stroke:#181818;stroke-width:1.0;"/><text fill="#000000" font-family="sans-serif" font-size="14" lengthAdjust="spacing" textLength="72" x="341" y="113.9326">Validation</text><ellipse cx="380" cy="84.9375" fill="#E2E2F0" rx="12" ry="12" style="stroke:#181818;stroke-width:0.5;"/><polygon fill="#181818" points="376,72.9375,382,67.9375,380,72.9375,382,77.9375,376,72.9375" style="stroke:#181818;stroke-width:1.0;"/><text fill="#000000" font-family="sans-serif" font-size="14" lengthAdjust="spacing" textLength="72" x="341" y="382.292">Validation</text><ellipse cx="380" cy="401.5938" fill="#E2E2F0" rx="12" ry="12" style="stroke:#181818;stroke-width:0.5;"/><polygon fill="#181818" points="376,389.5938,382,384.5938,380,389.5938,382,394.5938,376,389.5938" style="stroke:#181818;stroke-width:1.0;"/><text fill="#000000" font-family="sans-serif" font-size="14" lengthAdjust="spacing" textLength="69" x="429" y="113.9326">Datalayer</text><path d="M448.5,64.9375 C448.5,54.9375 466.5,54.9375 466.5,54.9375 C466.5,54.9375 484.5,54.9375 484.5,64.9375 L484.5,90.9375 C484.5,100.9375 466.5,100.9375 466.5,100.9375 C466.5,100.9375 448.5,100.9375 448.5,90.9375 L448.5,64.9375 " fill="#E2E2F0" style="stroke:#181818;stroke-width:1.5;"/><path d="M448.5,64.9375 C448.5,74.9375 466.5,74.9375 466.5,74.9375 C466.5,74.9375 484.5,74.9375 484.5,64.9375 " fill="none" style="stroke:#181818;stroke-width:1.5;"/><text fill="#000000" font-family="sans-serif" font-size="14" lengthAdjust="spacing" textLength="69" x="429" y="382.292">Datalayer</text><path d="M448.5,395.5938 C448.5,385.5938 466.5,385.5938 466.5,385.5938 C466.5,385.5938 484.5,385.5938 484.5,395.5938 L484.5,421.5938 C484.5,431.5938 466.5,431.5938 466.5,431.5938 C466.5,431.5938 448.5,431.5938 448.5,421.5938 L448.5,395.5938 " fill="#E2E2F0" style="stroke:#181818;stroke-width:1.5;"/><path d="M448.5,395.5938 C448.5,405.5938 466.5,405.5938 466.5,405.5938 C466.5,405.5938 484.5,405.5938 484.5,395.5938 " fill="none" style="stroke:#181818;stroke-width:1.5;"/><polygon fill="#181818" points="140,144.3672,150,148.3672,140,152.3672,144,148.3672" style="stroke:#181818;stroke-width:1.0;"/><line style="stroke:#181818;stroke-width:1.0;" x1="41" x2="146" y1="148.3672" y2="148.3672"/><text fill="#000000" font-family="sans-serif" font-size="13" font-weight="bold" lengthAdjust="spacing" textLength="9" x="48" y="143.3013">1</text><text fill="#000000" font-family="sans-serif" font-size="13" lengthAdjust="spacing" textLength="53" x="61" y="143.3013">Request</text><polygon fill="#181818" points="267,173.5,277,177.5,267,181.5,271,177.5" style="stroke:#181818;stroke-width:1.0;"/><line style="stroke:#181818;stroke-width:1.0;" x1="152" x2="273" y1="177.5" y2="177.5"/><text fill="#000000" font-family="sans-serif" font-size="13" font-weight="bold" lengthAdjust="spacing" textLength="9" x="159" y="172.4341">2</text><text fill="#000000" font-family="sans-serif" font-size="13" lengthAdjust="spacing" textLength="85" x="172" y="172.4341">Authorization</text><polygon fill="#181818" points="163,202.6328,153,206.6328,163,210.6328,159,206.6328" style="stroke:#181818;stroke-width:1.0;"/><line style="stroke:#181818;stroke-width:1.0;" x1="157" x2="278" y1="206.6328" y2="206.6328"/><text fill="#000000" font-family="sans-serif" font-size="13" font-weight="bold" lengthAdjust="spacing" textLength="8" x="169" y="201.5669">3</text><text fill="#000000" font-family="sans-serif" font-size="13" lengthAdjust="spacing" textLength="85" x="181" y="201.5669">Authorization</text><polygon fill="#181818" points="368,231.7656,378,235.7656,368,239.7656,372,235.7656" style="stroke:#181818;stroke-width:1.0;"/><line style="stroke:#181818;stroke-width:1.0;" x1="152" x2="374" y1="235.7656" y2="235.7656"/><text fill="#000000" font-family="sans-serif" font-size="13" font-weight="bold" lengthAdjust="spacing" textLength="9" x="159" y="230.6997">4</text><text fill="#000000" font-family="sans-serif" font-size="13" lengthAdjust="spacing" textLength="109" x="172" y="230.6997">Validate Request</text><polygon fill="#181818" points="163,260.8984,153,264.8984,163,268.8984,159,264.8984" style="stroke:#181818;stroke-width:1.0;"/><line style="stroke:#181818;stroke-width:1.0;" x1="157" x2="379" y1="264.8984" y2="264.8984"/><text fill="#000000" font-family="sans-serif" font-size="13" font-weight="bold" lengthAdjust="spacing" textLength="9" x="169" y="259.8325">5</text><text fill="#000000" font-family="sans-serif" font-size="13" lengthAdjust="spacing" textLength="107" x="182" y="259.8325">Validation Result</text><polygon fill="#181818" points="454.5,290.0313,464.5,294.0313,454.5,298.0313,458.5,294.0313" style="stroke:#181818;stroke-width:1.0;"/><line style="stroke:#181818;stroke-width:1.0;" x1="152" x2="460.5" y1="294.0313" y2="294.0313"/><text fill="#000000" font-family="sans-serif" font-size="13" font-weight="bold" lengthAdjust="spacing" textLength="9" x="159" y="288.9653">6</text><text fill="#000000" font-family="sans-serif" font-size="13" lengthAdjust="spacing" textLength="106" x="172" y="288.9653">Create object('s)</text><polygon fill="#181818" points="163,319.1641,153,323.1641,163,327.1641,159,323.1641" style="stroke:#181818;stroke-width:1.0;"/><line style="stroke:#181818;stroke-width:1.0;" x1="157" x2="465.5" y1="323.1641" y2="323.1641"/><text fill="#000000" font-family="sans-serif" font-size="13" font-weight="bold" lengthAdjust="spacing" textLength="9" x="169" y="318.0981">7</text><text fill="#000000" font-family="sans-serif" font-size="13" lengthAdjust="spacing" textLength="61" x="182" y="318.0981">Object('s)</text><polygon fill="#181818" points="52,348.2969,42,352.2969,52,356.2969,48,352.2969" style="stroke:#181818;stroke-width:1.0;"/><line style="stroke:#181818;stroke-width:1.0;stroke-dasharray:2.0,2.0;" x1="46" x2="151" y1="352.2969" y2="352.2969"/><text fill="#000000" font-family="sans-serif" font-size="13" font-weight="bold" lengthAdjust="spacing" textLength="9" x="58" y="347.231">8</text><text fill="#000000" font-family="sans-serif" font-size="13" lengthAdjust="spacing" textLength="63" x="71" y="347.231">Response</text><text fill="#888888" font-family="sans-serif" font-size="10" lengthAdjust="spacing" textLength="76" x="432" y="14.2822">POST Request</text><text fill="#888888" font-family="sans-serif" font-size="10" lengthAdjust="spacing" textLength="163" x="172.5" y="441.876">Common Gateway | Endpoints</text><!--SRC=[RLBBKiCm3BpxAtm33ln03immXO5RcPRXhYIYDNMa8DimOVXux8Ouh_gIPBMxMYdsnbiiz3DGRGqTzCjs_we5FmCwxzGxiqSfz8QRXaa_WSTlwFIlVgIwPKEHSaIe4-KitFL21S4pXQP4KSgT3BKWqEWIgjD1E52zOSkYlG2vM4BoIfK91-bqF8Ex7WwuZAcAhSNA6oOtzDkZV9aAU-8SYtJomlPiSn_yaSNyG5B_-ywm6ViDhAapjMUFc8eFAC6bhleXlbleK2Q1CwPKdkVsRX6lo2jRZ1APYxJ58kgyl79U2zOT9XCMmmVcH9FgshsOYdVeWhqqmhYNU8S4apkN7_7lNL-v6pLMB_blH-BIEDA7bQO5kZRU1Vm3]--></g></svg>