<?xml version="1.0" encoding="us-ascii" standalone="no"?><svg xmlns="http://www.w3.org/2000/svg" xmlns:xlink="http://www.w3.org/1999/xlink" contentStyleType="text/css" height="510px" preserveAspectRatio="none" style="width:516px;height:510px;" version="1.1" viewBox="0 0 516 510" width="516px" zoomAndPan="magnify"><defs/><g><text fill="#000000" font-family="sans-serif" font-size="14" font-weight="bold" lengthAdjust="spacing" textLength="205" x="151.5" y="40.6357">Handling PATCH requests</text><line style="stroke:#181818;stroke-width:0.5;stroke-dasharray:5.0,5.0;" x1="41" x2="41" y1="117.2344" y2="428.5625"/><line style="stroke:#181818;stroke-width:0.5;stroke-dasharray:5.0,5.0;" x1="152" x2="152" y1="117.2344" y2="428.5625"/><line style="stroke:#181818;stroke-width:0.5;stroke-dasharray:5.0,5.0;" x1="279" x2="279" y1="117.2344" y2="428.5625"/><line style="stroke:#181818;stroke-width:0.5;stroke-dasharray:5.0,5.0;" x1="380" x2="380" y1="117.2344" y2="428.5625"/><line style="stroke:#181818;stroke-width:0.5;stroke-dasharray:5.0,5.0;" x1="466" x2="466" y1="117.2344" y2="428.5625"/><text fill="#000000" font-family="sans-serif" font-size="14" lengthAdjust="spacing" textLength="66" x="5" y="113.9326">Endpoint</text><path d="M20.5,72.9375 L20.5,96.9375 M20.5,84.9375 L37.5,84.9375 " fill="none" style="stroke:#181818;stroke-width:0.5;"/><ellipse cx="49.5" cy="84.9375" fill="#E2E2F0" rx="12" ry="12" style="stroke:#181818;stroke-width:0.5;"/><text fill="#000000" font-family="sans-serif" font-size="14" lengthAdjust="spacing" textLength="66" x="5" y="440.5576">Endpoint</text><path d="M20.5,447.8594 L20.5,471.8594 M20.5,459.8594 L37.5,459.8594 " fill="none" style="stroke:#181818;stroke-width:0.5;"/><ellipse cx="49.5" cy="459.8594" fill="#E2E2F0" rx="12" ry="12" style="stroke:#181818;stroke-width:0.5;"/><rect fill="#E2E2F0" height="30.2969" style="stroke:#181818;stroke-width:0.5;" width="126" x="91" y="81.9375"/><rect fill="#E2E2F0" height="30.2969" style="stroke:#181818;stroke-width:0.5;" width="126" x="87" y="85.9375"/><text fill="#000000" font-family="sans-serif" font-size="14" lengthAdjust="spacing" textLength="112" x="94" y="105.9326">RequestService</text><rect fill="#E2E2F0" height="30.2969" style="stroke:#181818;stroke-width:0.5;" width="126" x="91" y="427.5625"/><rect fill="#E2E2F0" height="30.2969" style="stroke:#181818;stroke-width:0.5;" width="126" x="87" y="431.5625"/><text fill="#000000" font-family="sans-serif" font-size="14" lengthAdjust="spacing" textLength="112" x="94" y="451.5576">RequestService</text><text fill="#000000" font-family="sans-serif" font-size="14" lengthAdjust="spacing" textLength="98" x="227" y="113.9326">Authorization</text><ellipse cx="279" cy="84.9375" fill="#E2E2F0" rx="12" ry="12" style="stroke:#181818;stroke-width:0.5;"/><polygon fill="#181818" points="275,72.9375,281,67.9375,279,72.9375,281,77.9375,275,72.9375" style="stroke:#181818;stroke-width:1.0;"/><text fill="#000000" font-family="sans-serif" font-size="14" lengthAdjust="spacing" textLength="98" x="227" y="440.5576">Authorization</text><ellipse cx="279" cy="459.8594" fill="#E2E2F0" rx="12" ry="12" style="stroke:#181818;stroke-width:0.5;"/><polygon fill="#181818" points="275,447.8594,281,442.8594,279,447.8594,281,452.8594,275,447.8594" style="stroke:#181818;stroke-width:1.0;"/><text fill="#000000" font-family="sans-serif" font-size="14" lengthAdjust="spacing" textLength="72" x="341" y="113.9326">Validation</text><ellipse cx="380" cy="84.9375" fill="#E2E2F0" rx="12" ry="12" style="stroke:#181818;stroke-width:0.5;"/><polygon fill="#181818" points="376,72.9375,382,67.9375,380,72.9375,382,77.9375,376,72.9375" style="stroke:#181818;stroke-width:1.0;"/><text fill="#000000" font-family="sans-serif" font-size="14" lengthAdjust="spacing" textLength="72" x="341" y="440.5576">Validation</text><ellipse cx="380" cy="459.8594" fill="#E2E2F0" rx="12" ry="12" style="stroke:#181818;stroke-width:0.5;"/><polygon fill="#181818" points="376,447.8594,382,442.8594,380,447.8594,382,452.8594,376,447.8594" style="stroke:#181818;stroke-width:1.0;"/><text fill="#000000" font-family="sans-serif" font-size="14" lengthAdjust="spacing" textLength="69" x="429" y="113.9326">Datalayer</text><path d="M448.5,64.9375 C448.5,54.9375 466.5,54.9375 466.5,54.9375 C466.5,54.9375 484.5,54.9375 484.5,64.9375 L484.5,90.9375 C484.5,100.9375 466.5,100.9375 466.5,100.9375 C466.5,100.9375 448.5,100.9375 448.5,90.9375 L448.5,64.9375 " fill="#E2E2F0" style="stroke:#181818;stroke-width:1.5;"/><path d="M448.5,64.9375 C448.5,74.9375 466.5,74.9375 466.5,74.9375 C466.5,74.9375 484.5,74.9375 484.5,64.9375 " fill="none" style="stroke:#181818;stroke-width:1.5;"/><text fill="#000000" font-family="sans-serif" font-size="14" lengthAdjust="spacing" textLength="69" x="429" y="440.5576">Datalayer</text><path d="M448.5,453.8594 C448.5,443.8594 466.5,443.8594 466.5,443.8594 C466.5,443.8594 484.5,443.8594 484.5,453.8594 L484.5,479.8594 C484.5,489.8594 466.5,489.8594 466.5,489.8594 C466.5,489.8594 448.5,489.8594 448.5,479.8594 L448.5,453.8594 " fill="#E2E2F0" style="stroke:#181818;stroke-width:1.5;"/><path d="M448.5,453.8594 C448.5,463.8594 466.5,463.8594 466.5,463.8594 C466.5,463.8594 484.5,463.8594 484.5,453.8594 " fill="none" style="stroke:#181818;stroke-width:1.5;"/><polygon fill="#181818" points="140,144.3672,150,148.3672,140,152.3672,144,148.3672" style="stroke:#181818;stroke-width:1.0;"/><line style="stroke:#181818;stroke-width:1.0;" x1="41" x2="146" y1="148.3672" y2="148.3672"/><text fill="#000000" font-family="sans-serif" font-size="13" font-weight="bold" lengthAdjust="spacing" textLength="9" x="48" y="143.3013">1</text><text fill="#000000" font-family="sans-serif" font-size="13" lengthAdjust="spacing" textLength="53" x="61" y="143.3013">Request</text><polygon fill="#181818" points="267,173.5,277,177.5,267,181.5,271,177.5" style="stroke:#181818;stroke-width:1.0;"/><line style="stroke:#181818;stroke-width:1.0;" x1="152" x2="273" y1="177.5" y2="177.5"/><text fill="#000000" font-family="sans-serif" font-size="13" font-weight="bold" lengthAdjust="spacing" textLength="9" x="159" y="172.4341">2</text><text fill="#000000" font-family="sans-serif" font-size="13" lengthAdjust="spacing" textLength="85" x="172" y="172.4341">Authorization</text><polygon fill="#181818" points="163,202.6328,153,206.6328,163,210.6328,159,206.6328" style="stroke:#181818;stroke-width:1.0;"/><line style="stroke:#181818;stroke-width:1.0;stroke-dasharray:2.0,2.0;" x1="157" x2="278" y1="206.6328" y2="206.6328"/><text fill="#000000" font-family="sans-serif" font-size="13" font-weight="bold" lengthAdjust="spacing" textLength="8" x="169" y="201.5669">3</text><text fill="#000000" font-family="sans-serif" font-size="13" lengthAdjust="spacing" textLength="85" x="181" y="201.5669">Authorization</text><polygon fill="#181818" points="454.5,231.7656,464.5,235.7656,454.5,239.7656,458.5,235.7656" style="stroke:#181818;stroke-width:1.0;"/><line style="stroke:#181818;stroke-width:1.0;" x1="152" x2="460.5" y1="235.7656" y2="235.7656"/><text fill="#000000" font-family="sans-serif" font-size="13" font-weight="bold" lengthAdjust="spacing" textLength="9" x="159" y="230.6997">4</text><text fill="#000000" font-family="sans-serif" font-size="13" lengthAdjust="spacing" textLength="107" x="172" y="230.6997">Search object('s)</text><polygon fill="#181818" points="163,260.8984,153,264.8984,163,268.8984,159,264.8984" style="stroke:#181818;stroke-width:1.0;"/><line style="stroke:#181818;stroke-width:1.0;stroke-dasharray:2.0,2.0;" x1="157" x2="465.5" y1="264.8984" y2="264.8984"/><text fill="#000000" font-family="sans-serif" font-size="13" font-weight="bold" lengthAdjust="spacing" textLength="9" x="169" y="259.8325">5</text><text fill="#000000" font-family="sans-serif" font-size="13" lengthAdjust="spacing" textLength="61" x="182" y="259.8325">Object('s)</text><polygon fill="#181818" points="368,290.0313,378,294.0313,368,298.0313,372,294.0313" style="stroke:#181818;stroke-width:1.0;"/><line style="stroke:#181818;stroke-width:1.0;" x1="152" x2="374" y1="294.0313" y2="294.0313"/><text fill="#000000" font-family="sans-serif" font-size="13" font-weight="bold" lengthAdjust="spacing" textLength="9" x="159" y="288.9653">6</text><text fill="#000000" font-family="sans-serif" font-size="13" lengthAdjust="spacing" textLength="109" x="172" y="288.9653">Validate Request</text><polygon fill="#181818" points="163,319.1641,153,323.1641,163,327.1641,159,323.1641" style="stroke:#181818;stroke-width:1.0;"/><line style="stroke:#181818;stroke-width:1.0;stroke-dasharray:2.0,2.0;" x1="157" x2="379" y1="323.1641" y2="323.1641"/><text fill="#000000" font-family="sans-serif" font-size="13" font-weight="bold" lengthAdjust="spacing" textLength="9" x="169" y="318.0981">7</text><text fill="#000000" font-family="sans-serif" font-size="13" lengthAdjust="spacing" textLength="107" x="182" y="318.0981">Validation Result</text><polygon fill="#181818" points="454.5,348.2969,464.5,352.2969,454.5,356.2969,458.5,352.2969" style="stroke:#181818;stroke-width:1.0;"/><line style="stroke:#181818;stroke-width:1.0;" x1="152" x2="460.5" y1="352.2969" y2="352.2969"/><text fill="#000000" font-family="sans-serif" font-size="13" font-weight="bold" lengthAdjust="spacing" textLength="9" x="159" y="347.231">8</text><text fill="#000000" font-family="sans-serif" font-size="13" lengthAdjust="spacing" textLength="109" x="172" y="347.231">Update object('s)</text><polygon fill="#181818" points="163,377.4297,153,381.4297,163,385.4297,159,381.4297" style="stroke:#181818;stroke-width:1.0;"/><line style="stroke:#181818;stroke-width:1.0;stroke-dasharray:2.0,2.0;" x1="157" x2="465.5" y1="381.4297" y2="381.4297"/><text fill="#000000" font-family="sans-serif" font-size="13" font-weight="bold" lengthAdjust="spacing" textLength="9" x="169" y="376.3638">9</text><text fill="#000000" font-family="sans-serif" font-size="13" lengthAdjust="spacing" textLength="61" x="182" y="376.3638">Object('s)</text><polygon fill="#181818" points="52,406.5625,42,410.5625,52,414.5625,48,410.5625" style="stroke:#181818;stroke-width:1.0;"/><line style="stroke:#181818;stroke-width:1.0;stroke-dasharray:2.0,2.0;" x1="46" x2="151" y1="410.5625" y2="410.5625"/><text fill="#000000" font-family="sans-serif" font-size="13" font-weight="bold" lengthAdjust="spacing" textLength="19" x="58" y="405.4966">10</text><text fill="#000000" font-family="sans-serif" font-size="13" lengthAdjust="spacing" textLength="63" x="81" y="405.4966">Response</text><text fill="#888888" font-family="sans-serif" font-size="10" lengthAdjust="spacing" textLength="83" x="425" y="14.2822">PATCH Request</text><text fill="#888888" font-family="sans-serif" font-size="10" lengthAdjust="spacing" textLength="163" x="172.5" y="500.1416">Common Gateway | Endpoints</text><!--SRC=[hLBBJiCm4BpxA_O67F83EI1L0T4RLGlSDydIc3hUi7P0GNmyJaFUbRZWIvAPsTdPTRpsXcBOeisDjaVORPwIBGYzr-IyKw_CdYI6XCkIBJoWfqziu1lkRLwnja5I4EQjfAlSTvKAQy-sBbCIfTn9sme5IqWnEns5QvidR5Z02reNAB9UgRJ5KHe8fxU7_g0RC9MnCPHvpTRr_Gua7pgZJZZ7WjnwONEssTI-OD5Vs5R_-iwmcVe5ZSu7QQSUCHKUcA9hky9TU3VOa4m23vXImppHxI9UFAniCKfGBjB6YwXpEbfPholMBSRSCHm89Ik0qxUmtUihTwD6DheG_74Kheqdkulx3nfcdR2Nd2Vqdbnj_1_9dwkp-tya3-h-ijghSLNuo-W7]--></g></svg>