<?xml version="1.0" encoding="us-ascii" standalone="no"?><svg xmlns="http://www.w3.org/2000/svg" xmlns:xlink="http://www.w3.org/1999/xlink" contentStyleType="text/css" height="555px" preserveAspectRatio="none" style="width:615px;height:555px;background:#FFFFFF;" version="1.1" viewBox="0 0 615 555" width="615px" zoomAndPan="magnify"><defs/><g><text fill="#000000" font-family="sans-serif" font-size="14" font-weight="bold" lengthAdjust="spacing" textLength="226" x="190.5" y="40.6357">Handling incoming requests</text><rect fill="none" height="148.4688" style="stroke:#000000;stroke-width:1.5;" width="435" x="99" y="235.6328"/><line style="stroke:#181818;stroke-width:0.5;stroke-dasharray:5.0,5.0;" x1="45" x2="45" y1="131.2344" y2="459.3672"/><line style="stroke:#181818;stroke-width:0.5;stroke-dasharray:5.0,5.0;" x1="145" x2="145" y1="131.2344" y2="459.3672"/><line style="stroke:#181818;stroke-width:0.5;stroke-dasharray:5.0,5.0;" x1="267" x2="267" y1="131.2344" y2="459.3672"/><line style="stroke:#181818;stroke-width:0.5;stroke-dasharray:5.0,5.0;" x1="356" x2="356" y1="131.2344" y2="459.3672"/><line style="stroke:#181818;stroke-width:0.5;stroke-dasharray:5.0,5.0;" x1="459" x2="459" y1="131.2344" y2="459.3672"/><line style="stroke:#181818;stroke-width:0.5;stroke-dasharray:5.0,5.0;" x1="568" x2="568" y1="131.2344" y2="459.3672"/><text fill="#000000" font-family="sans-serif" font-size="14" lengthAdjust="spacing" textLength="74" x="5" y="127.9326">Requester</text><ellipse cx="45" cy="63.4375" fill="#E2E2F0" rx="8" ry="8" style="stroke:#181818;stroke-width:0.5;"/><path d="M45,71.4375 L45,98.4375 M32,79.4375 L58,79.4375 M45,98.4375 L32,113.4375 M45,98.4375 L58,113.4375 " fill="none" style="stroke:#181818;stroke-width:0.5;"/><text fill="#000000" font-family="sans-serif" font-size="14" lengthAdjust="spacing" textLength="74" x="5" y="471.3623">Requester</text><ellipse cx="45" cy="483.1641" fill="#E2E2F0" rx="8" ry="8" style="stroke:#181818;stroke-width:0.5;"/><path d="M45,491.1641 L45,518.1641 M32,499.1641 L58,499.1641 M45,518.1641 L32,533.1641 M45,518.1641 L58,533.1641 " fill="none" style="stroke:#181818;stroke-width:0.5;"/><text fill="#000000" font-family="sans-serif" font-size="14" lengthAdjust="spacing" textLength="66" x="109" y="127.9326">Endpoint</text><path d="M124.5,86.9375 L124.5,110.9375 M124.5,98.9375 L141.5,98.9375 " fill="none" style="stroke:#181818;stroke-width:0.5;"/><ellipse cx="153.5" cy="98.9375" fill="#E2E2F0" rx="12" ry="12" style="stroke:#181818;stroke-width:0.5;"/><text fill="#000000" font-family="sans-serif" font-size="14" lengthAdjust="spacing" textLength="66" x="109" y="471.3623">Endpoint</text><path d="M124.5,478.6641 L124.5,502.6641 M124.5,490.6641 L141.5,490.6641 " fill="none" style="stroke:#181818;stroke-width:0.5;"/><ellipse cx="153.5" cy="490.6641" fill="#E2E2F0" rx="12" ry="12" style="stroke:#181818;stroke-width:0.5;"/><text fill="#000000" font-family="sans-serif" font-size="14" lengthAdjust="spacing" textLength="98" x="215" y="127.9326">Authorization</text><ellipse cx="267" cy="98.9375" fill="#E2E2F0" rx="12" ry="12" style="stroke:#181818;stroke-width:0.5;"/><polygon fill="#181818" points="263,86.9375,269,81.9375,267,86.9375,269,91.9375,263,86.9375" style="stroke:#181818;stroke-width:1.0;"/><text fill="#000000" font-family="sans-serif" font-size="14" lengthAdjust="spacing" textLength="98" x="215" y="471.3623">Authorization</text><ellipse cx="267" cy="490.6641" fill="#E2E2F0" rx="12" ry="12" style="stroke:#181818;stroke-width:0.5;"/><polygon fill="#181818" points="263,478.6641,269,473.6641,267,478.6641,269,483.6641,263,478.6641" style="stroke:#181818;stroke-width:1.0;"/><text fill="#000000" font-family="sans-serif" font-size="14" lengthAdjust="spacing" textLength="49" x="329" y="127.9326">Source</text><ellipse cx="356.5" cy="98.9375" fill="#E2E2F0" rx="12" ry="12" style="stroke:#181818;stroke-width:0.5;"/><line style="stroke:#181818;stroke-width:0.5;" x1="344.5" x2="368.5" y1="112.9375" y2="112.9375"/><text fill="#000000" font-family="sans-serif" font-size="14" lengthAdjust="spacing" textLength="49" x="329" y="471.3623">Source</text><ellipse cx="356.5" cy="490.6641" fill="#E2E2F0" rx="12" ry="12" style="stroke:#181818;stroke-width:0.5;"/><line style="stroke:#181818;stroke-width:0.5;" x1="344.5" x2="368.5" y1="504.6641" y2="504.6641"/><rect fill="#E2E2F0" height="30.2969" style="stroke:#181818;stroke-width:0.5;" width="126" x="398" y="95.9375"/><rect fill="#E2E2F0" height="30.2969" style="stroke:#181818;stroke-width:0.5;" width="126" x="394" y="99.9375"/><text fill="#000000" font-family="sans-serif" font-size="14" lengthAdjust="spacing" textLength="112" x="401" y="119.9326">RequestService</text><rect fill="#E2E2F0" height="30.2969" style="stroke:#181818;stroke-width:0.5;" width="126" x="398" y="458.3672"/><rect fill="#E2E2F0" height="30.2969" style="stroke:#181818;stroke-width:0.5;" width="126" x="394" y="462.3672"/><text fill="#000000" font-family="sans-serif" font-size="14" lengthAdjust="spacing" textLength="112" x="401" y="482.3623">RequestService</text><path d="M539,104.9375 L598,104.9375 C603,104.9375 603,118.0859 603,118.0859 C603,118.0859 603,131.2344 598,131.2344 L539,131.2344 C534,131.2344 534,118.0859 534,118.0859 C534,118.0859 534,104.9375 539,104.9375 " fill="#E2E2F0" style="stroke:#181818;stroke-width:0.5;"/><path d="M598,104.9375 C593,104.9375 593,118.0859 593,118.0859 C593,131.2344 598,131.2344 598,131.2344 " fill="none" style="stroke:#181818;stroke-width:0.5;"/><text fill="#000000" font-family="sans-serif" font-size="14" lengthAdjust="spacing" textLength="49" x="539" y="122.9326">Events</text><path d="M539,458.3672 L598,458.3672 C603,458.3672 603,471.5156 603,471.5156 C603,471.5156 603,484.6641 598,484.6641 L539,484.6641 C534,484.6641 534,471.5156 534,471.5156 C534,471.5156 534,458.3672 539,458.3672 " fill="#E2E2F0" style="stroke:#181818;stroke-width:0.5;"/><path d="M598,458.3672 C593,458.3672 593,471.5156 593,471.5156 C593,484.6641 598,484.6641 598,484.6641 " fill="none" style="stroke:#181818;stroke-width:0.5;"/><text fill="#000000" font-family="sans-serif" font-size="14" lengthAdjust="spacing" textLength="49" x="539" y="476.3623">Events</text><polygon fill="#181818" points="133,158.3672,143,162.3672,133,166.3672,137,162.3672" style="stroke:#181818;stroke-width:1.0;"/><line style="stroke:#181818;stroke-width:1.0;" x1="45" x2="139" y1="162.3672" y2="162.3672"/><text fill="#000000" font-family="sans-serif" font-size="13" font-weight="bold" lengthAdjust="spacing" textLength="9" x="52" y="157.3013">1</text><text fill="#000000" font-family="sans-serif" font-size="13" lengthAdjust="spacing" textLength="53" x="65" y="157.3013">Request</text><polygon fill="#181818" points="255,187.5,265,191.5,255,195.5,259,191.5" style="stroke:#181818;stroke-width:1.0;"/><line style="stroke:#181818;stroke-width:1.0;" x1="145" x2="261" y1="191.5" y2="191.5"/><text fill="#000000" font-family="sans-serif" font-size="13" font-weight="bold" lengthAdjust="spacing" textLength="9" x="152" y="186.4341">2</text><text fill="#000000" font-family="sans-serif" font-size="13" lengthAdjust="spacing" textLength="85" x="165" y="186.4341">Authorization</text><polygon fill="#181818" points="156,216.6328,146,220.6328,156,224.6328,152,220.6328" style="stroke:#181818;stroke-width:1.0;"/><line style="stroke:#181818;stroke-width:1.0;" x1="150" x2="266" y1="220.6328" y2="220.6328"/><text fill="#000000" font-family="sans-serif" font-size="13" font-weight="bold" lengthAdjust="spacing" textLength="8" x="162" y="215.5669">3</text><text fill="#000000" font-family="sans-serif" font-size="13" lengthAdjust="spacing" textLength="85" x="174" y="215.5669">Authorization</text><path d="M99,235.6328 L165,235.6328 L165,242.7656 L155,252.7656 L99,252.7656 L99,235.6328 " fill="#EEEEEE" style="stroke:#000000;stroke-width:1.5;"/><rect fill="none" height="148.4688" style="stroke:#000000;stroke-width:1.5;" width="435" x="99" y="235.6328"/><text fill="#000000" font-family="sans-serif" font-size="13" font-weight="bold" lengthAdjust="spacing" textLength="21" x="114" y="248.6997">alt</text><text fill="#000000" font-family="sans-serif" font-size="11" font-weight="bold" lengthAdjust="spacing" textLength="47" x="180" y="247.8433">[proxy]</text><polygon fill="#181818" points="344.5,269.8984,354.5,273.8984,344.5,277.8984,348.5,273.8984" style="stroke:#181818;stroke-width:1.0;"/><line style="stroke:#181818;stroke-width:1.0;" x1="145" x2="350.5" y1="273.8984" y2="273.8984"/><text fill="#000000" font-family="sans-serif" font-size="13" font-weight="bold" lengthAdjust="spacing" textLength="9" x="152" y="268.8325">4</text><text fill="#000000" font-family="sans-serif" font-size="13" lengthAdjust="spacing" textLength="87" x="165" y="268.8325">Pass Request</text><polygon fill="#181818" points="156,299.0313,146,303.0313,156,307.0313,152,303.0313" style="stroke:#181818;stroke-width:1.0;"/><line style="stroke:#181818;stroke-width:1.0;stroke-dasharray:2.0,2.0;" x1="150" x2="355.5" y1="303.0313" y2="303.0313"/><text fill="#000000" font-family="sans-serif" font-size="13" font-weight="bold" lengthAdjust="spacing" textLength="9" x="162" y="297.9653">5</text><text fill="#000000" font-family="sans-serif" font-size="13" lengthAdjust="spacing" textLength="97" x="175" y="297.9653">Pass Response</text><line style="stroke:#000000;stroke-width:1.0;stroke-dasharray:2.0,2.0;" x1="99" x2="534" y1="312.0313" y2="312.0313"/><text fill="#000000" font-family="sans-serif" font-size="11" font-weight="bold" lengthAdjust="spacing" textLength="70" x="104" y="322.2417">[schema's]</text><polygon fill="#181818" points="447,342.9688,457,346.9688,447,350.9688,451,346.9688" style="stroke:#181818;stroke-width:1.0;"/><line style="stroke:#181818;stroke-width:1.0;" x1="145" x2="453" y1="346.9688" y2="346.9688"/><text fill="#000000" font-family="sans-serif" font-size="13" font-weight="bold" lengthAdjust="spacing" textLength="9" x="152" y="341.9028">6</text><text fill="#000000" font-family="sans-serif" font-size="13" lengthAdjust="spacing" textLength="87" x="165" y="341.9028">Pass Request</text><polygon fill="#181818" points="156,372.1016,146,376.1016,156,380.1016,152,376.1016" style="stroke:#181818;stroke-width:1.0;"/><line style="stroke:#181818;stroke-width:1.0;stroke-dasharray:2.0,2.0;" x1="150" x2="458" y1="376.1016" y2="376.1016"/><text fill="#000000" font-family="sans-serif" font-size="13" font-weight="bold" lengthAdjust="spacing" textLength="9" x="162" y="371.0356">7</text><text fill="#000000" font-family="sans-serif" font-size="13" lengthAdjust="spacing" textLength="80" x="175" y="371.0356">Get Request</text><polygon fill="#181818" points="556.5,408.2344,566.5,412.2344,556.5,416.2344,560.5,412.2344" style="stroke:#181818;stroke-width:1.0;"/><line style="stroke:#181818;stroke-width:1.0;" x1="145" x2="562.5" y1="412.2344" y2="412.2344"/><text fill="#000000" font-family="sans-serif" font-size="13" font-weight="bold" lengthAdjust="spacing" textLength="9" x="152" y="407.1685">8</text><text fill="#000000" font-family="sans-serif" font-size="13" lengthAdjust="spacing" textLength="88" x="165" y="407.1685">Throw events</text><polygon fill="#181818" points="56,437.3672,46,441.3672,56,445.3672,52,441.3672" style="stroke:#181818;stroke-width:1.0;"/><line style="stroke:#181818;stroke-width:1.0;stroke-dasharray:2.0,2.0;" x1="50" x2="144" y1="441.3672" y2="441.3672"/><text fill="#000000" font-family="sans-serif" font-size="13" font-weight="bold" lengthAdjust="spacing" textLength="9" x="62" y="436.3013">9</text><text fill="#000000" font-family="sans-serif" font-size="13" lengthAdjust="spacing" textLength="63" x="75" y="436.3013">Response</text><text fill="#888888" font-family="sans-serif" font-size="10" lengthAdjust="spacing" textLength="49" x="558" y="14.2822">Requests</text><text fill="#888888" font-family="sans-serif" font-size="10" lengthAdjust="spacing" textLength="163" x="222" y="544.9463">Common Gateway | Endpoints</text><!--SRC=[PPB1JiCm38RlVWhVEEq5Ua12Q1f7n7W1hpKqKXgFnDaeuk59bpLjGq_9xo-__LjLevORV27NMUC-qRXMXkdW-Ijoq00V8ig-mMSP1d5u8EKhZVYBUzUTnRY4z4pTXBpDRoYgk3YSs0DGg-8nVtU0vpjIM3GuINGT-N4gpEQu8cSDMd7gnTxqfwYzUFD3Qj9q6Tnem4wDZjdbAD6tZBYspLeojPRRwKMPwSZ-OcuurHgaIvoDzfVK8snTimQmHDuzbWHbLL1ofceLfQboRCihj_yeMSMpb-yHDWtcz0s-KYY9u2xlrfO52UUq40QsWJ6qFG_q43QczQugyxfSTJcm5fHTjvqtxx31zzxB5JblT06MvlddowF-0G00]--></g></svg>