<?xml version="1.0" encoding="us-ascii" standalone="no"?><svg xmlns="http://www.w3.org/2000/svg" xmlns:xlink="http://www.w3.org/1999/xlink" contentStyleType="text/css" height="480px" preserveAspectRatio="none" style="width:504px;height:480px;background:#FFFFFF;" version="1.1" viewBox="0 0 504 480" width="504px" zoomAndPan="magnify"><defs/><g><text fill="#000000" font-family="sans-serif" font-size="14" font-weight="bold" lengthAdjust="spacing" textLength="184" x="156" y="40.6357">Handling PUT requests</text><line style="stroke:#181818;stroke-width:0.5;stroke-dasharray:5.0,5.0;" x1="45" x2="45" y1="131.2344" y2="384.2969"/><line style="stroke:#181818;stroke-width:0.5;stroke-dasharray:5.0,5.0;" x1="145" x2="145" y1="131.2344" y2="384.2969"/><line style="stroke:#181818;stroke-width:0.5;stroke-dasharray:5.0,5.0;" x1="267" x2="267" y1="131.2344" y2="384.2969"/><line style="stroke:#181818;stroke-width:0.5;stroke-dasharray:5.0,5.0;" x1="368" x2="368" y1="131.2344" y2="384.2969"/><line style="stroke:#181818;stroke-width:0.5;stroke-dasharray:5.0,5.0;" x1="454" x2="454" y1="131.2344" y2="384.2969"/><text fill="#000000" font-family="sans-serif" font-size="14" lengthAdjust="spacing" textLength="74" x="5" y="127.9326">Requester</text><ellipse cx="45" cy="63.4375" fill="#E2E2F0" rx="8" ry="8" style="stroke:#181818;stroke-width:0.5;"/><path d="M45,71.4375 L45,98.4375 M32,79.4375 L58,79.4375 M45,98.4375 L32,113.4375 M45,98.4375 L58,113.4375 " fill="none" style="stroke:#181818;stroke-width:0.5;"/><text fill="#000000" font-family="sans-serif" font-size="14" lengthAdjust="spacing" textLength="74" x="5" y="396.292">Requester</text><ellipse cx="45" cy="408.0938" fill="#E2E2F0" rx="8" ry="8" style="stroke:#181818;stroke-width:0.5;"/><path d="M45,416.0938 L45,443.0938 M32,424.0938 L58,424.0938 M45,443.0938 L32,458.0938 M45,443.0938 L58,458.0938 " fill="none" style="stroke:#181818;stroke-width:0.5;"/><text fill="#000000" font-family="sans-serif" font-size="14" lengthAdjust="spacing" textLength="66" x="109" y="127.9326">Endpoint</text><path d="M124.5,86.9375 L124.5,110.9375 M124.5,98.9375 L141.5,98.9375 " fill="none" style="stroke:#181818;stroke-width:0.5;"/><ellipse cx="153.5" cy="98.9375" fill="#E2E2F0" rx="12" ry="12" style="stroke:#181818;stroke-width:0.5;"/><text fill="#000000" font-family="sans-serif" font-size="14" lengthAdjust="spacing" textLength="66" x="109" y="396.292">Endpoint</text><path d="M124.5,403.5938 L124.5,427.5938 M124.5,415.5938 L141.5,415.5938 " fill="none" style="stroke:#181818;stroke-width:0.5;"/><ellipse cx="153.5" cy="415.5938" fill="#E2E2F0" rx="12" ry="12" style="stroke:#181818;stroke-width:0.5;"/><text fill="#000000" font-family="sans-serif" font-size="14" lengthAdjust="spacing" textLength="98" x="215" y="127.9326">Authorization</text><ellipse cx="267" cy="98.9375" fill="#E2E2F0" rx="12" ry="12" style="stroke:#181818;stroke-width:0.5;"/><polygon fill="#181818" points="263,86.9375,269,81.9375,267,86.9375,269,91.9375,263,86.9375" style="stroke:#181818;stroke-width:1.0;"/><text fill="#000000" font-family="sans-serif" font-size="14" lengthAdjust="spacing" textLength="98" x="215" y="396.292">Authorization</text><ellipse cx="267" cy="415.5938" fill="#E2E2F0" rx="12" ry="12" style="stroke:#181818;stroke-width:0.5;"/><polygon fill="#181818" points="263,403.5938,269,398.5938,267,403.5938,269,408.5938,263,403.5938" style="stroke:#181818;stroke-width:1.0;"/><text fill="#000000" font-family="sans-serif" font-size="14" lengthAdjust="spacing" textLength="72" x="329" y="127.9326">Validation</text><ellipse cx="368" cy="98.9375" fill="#E2E2F0" rx="12" ry="12" style="stroke:#181818;stroke-width:0.5;"/><polygon fill="#181818" points="364,86.9375,370,81.9375,368,86.9375,370,91.9375,364,86.9375" style="stroke:#181818;stroke-width:1.0;"/><text fill="#000000" font-family="sans-serif" font-size="14" lengthAdjust="spacing" textLength="72" x="329" y="396.292">Validation</text><ellipse cx="368" cy="415.5938" fill="#E2E2F0" rx="12" ry="12" style="stroke:#181818;stroke-width:0.5;"/><polygon fill="#181818" points="364,403.5938,370,398.5938,368,403.5938,370,408.5938,364,403.5938" style="stroke:#181818;stroke-width:1.0;"/><text fill="#000000" font-family="sans-serif" font-size="14" lengthAdjust="spacing" textLength="69" x="417" y="127.9326">Datalayer</text><path d="M436.5,78.9375 C436.5,68.9375 454.5,68.9375 454.5,68.9375 C454.5,68.9375 472.5,68.9375 472.5,78.9375 L472.5,104.9375 C472.5,114.9375 454.5,114.9375 454.5,114.9375 C454.5,114.9375 436.5,114.9375 436.5,104.9375 L436.5,78.9375 " fill="#E2E2F0" style="stroke:#181818;stroke-width:1.5;"/><path d="M436.5,78.9375 C436.5,88.9375 454.5,88.9375 454.5,88.9375 C454.5,88.9375 472.5,88.9375 472.5,78.9375 " fill="none" style="stroke:#181818;stroke-width:1.5;"/><text fill="#000000" font-family="sans-serif" font-size="14" lengthAdjust="spacing" textLength="69" x="417" y="396.292">Datalayer</text><path d="M436.5,409.5938 C436.5,399.5938 454.5,399.5938 454.5,399.5938 C454.5,399.5938 472.5,399.5938 472.5,409.5938 L472.5,435.5938 C472.5,445.5938 454.5,445.5938 454.5,445.5938 C454.5,445.5938 436.5,445.5938 436.5,435.5938 L436.5,409.5938 " fill="#E2E2F0" style="stroke:#181818;stroke-width:1.5;"/><path d="M436.5,409.5938 C436.5,419.5938 454.5,419.5938 454.5,419.5938 C454.5,419.5938 472.5,419.5938 472.5,409.5938 " fill="none" style="stroke:#181818;stroke-width:1.5;"/><polygon fill="#181818" points="133,158.3672,143,162.3672,133,166.3672,137,162.3672" style="stroke:#181818;stroke-width:1.0;"/><line style="stroke:#181818;stroke-width:1.0;" x1="45" x2="139" y1="162.3672" y2="162.3672"/><text fill="#000000" font-family="sans-serif" font-size="13" font-weight="bold" lengthAdjust="spacing" textLength="9" x="52" y="157.3013">1</text><text fill="#000000" font-family="sans-serif" font-size="13" lengthAdjust="spacing" textLength="53" x="65" y="157.3013">Request</text><polygon fill="#181818" points="255,187.5,265,191.5,255,195.5,259,191.5" style="stroke:#181818;stroke-width:1.0;"/><line style="stroke:#181818;stroke-width:1.0;" x1="145" x2="261" y1="191.5" y2="191.5"/><text fill="#000000" font-family="sans-serif" font-size="13" font-weight="bold" lengthAdjust="spacing" textLength="9" x="152" y="186.4341">2</text><text fill="#000000" font-family="sans-serif" font-size="13" lengthAdjust="spacing" textLength="85" x="165" y="186.4341">Authorization</text><polygon fill="#181818" points="156,216.6328,146,220.6328,156,224.6328,152,220.6328" style="stroke:#181818;stroke-width:1.0;"/><line style="stroke:#181818;stroke-width:1.0;stroke-dasharray:2.0,2.0;" x1="150" x2="266" y1="220.6328" y2="220.6328"/><text fill="#000000" font-family="sans-serif" font-size="13" font-weight="bold" lengthAdjust="spacing" textLength="8" x="162" y="215.5669">3</text><text fill="#000000" font-family="sans-serif" font-size="13" lengthAdjust="spacing" textLength="85" x="174" y="215.5669">Authorization</text><polygon fill="#181818" points="356,245.7656,366,249.7656,356,253.7656,360,249.7656" style="stroke:#181818;stroke-width:1.0;"/><line style="stroke:#181818;stroke-width:1.0;" x1="145" x2="362" y1="249.7656" y2="249.7656"/><text fill="#000000" font-family="sans-serif" font-size="13" font-weight="bold" lengthAdjust="spacing" textLength="9" x="152" y="244.6997">4</text><text fill="#000000" font-family="sans-serif" font-size="13" lengthAdjust="spacing" textLength="109" x="165" y="244.6997">Validate Request</text><polygon fill="#181818" points="156,274.8984,146,278.8984,156,282.8984,152,278.8984" style="stroke:#181818;stroke-width:1.0;"/><line style="stroke:#181818;stroke-width:1.0;stroke-dasharray:2.0,2.0;" x1="150" x2="367" y1="278.8984" y2="278.8984"/><text fill="#000000" font-family="sans-serif" font-size="13" font-weight="bold" lengthAdjust="spacing" textLength="9" x="162" y="273.8325">5</text><text fill="#000000" font-family="sans-serif" font-size="13" lengthAdjust="spacing" textLength="107" x="175" y="273.8325">Validation Result</text><polygon fill="#181818" points="442.5,304.0313,452.5,308.0313,442.5,312.0313,446.5,308.0313" style="stroke:#181818;stroke-width:1.0;"/><line style="stroke:#181818;stroke-width:1.0;" x1="145" x2="448.5" y1="308.0313" y2="308.0313"/><text fill="#000000" font-family="sans-serif" font-size="13" font-weight="bold" lengthAdjust="spacing" textLength="9" x="152" y="302.9653">6</text><text fill="#000000" font-family="sans-serif" font-size="13" lengthAdjust="spacing" textLength="109" x="165" y="302.9653">Update object('s)</text><polygon fill="#181818" points="156,333.1641,146,337.1641,156,341.1641,152,337.1641" style="stroke:#181818;stroke-width:1.0;"/><line style="stroke:#181818;stroke-width:1.0;stroke-dasharray:2.0,2.0;" x1="150" x2="453.5" y1="337.1641" y2="337.1641"/><text fill="#000000" font-family="sans-serif" font-size="13" font-weight="bold" lengthAdjust="spacing" textLength="9" x="162" y="332.0981">7</text><text fill="#000000" font-family="sans-serif" font-size="13" lengthAdjust="spacing" textLength="61" x="175" y="332.0981">Object('s)</text><polygon fill="#181818" points="56,362.2969,46,366.2969,56,370.2969,52,366.2969" style="stroke:#181818;stroke-width:1.0;"/><line style="stroke:#181818;stroke-width:1.0;stroke-dasharray:2.0,2.0;" x1="50" x2="144" y1="366.2969" y2="366.2969"/><text fill="#000000" font-family="sans-serif" font-size="13" font-weight="bold" lengthAdjust="spacing" textLength="9" x="62" y="361.231">8</text><text fill="#000000" font-family="sans-serif" font-size="13" lengthAdjust="spacing" textLength="63" x="75" y="361.231">Response</text><text fill="#888888" font-family="sans-serif" font-size="10" lengthAdjust="spacing" textLength="68" x="428" y="14.2822">PUT Request</text><text fill="#888888" font-family="sans-serif" font-size="10" lengthAdjust="spacing" textLength="163" x="166.5" y="469.876">Common Gateway | Endpoints</text><!--SRC=[PP3DJiGm38JlUGhVWCE-G0v8213SG2kMkziQDYYDI-885V7mf5kQdwMND3EVHnEB4KiQ7j4DrhXtU3wyWAVFI462UcCMyXfkUHpPmGCAVU4CFt3lXecDIyYHS5YGPMw_pYcCmYwE7Ncbi1Vsi7v_Fcrtm50qrN5q0_fvCRPygCXDKpqxyMnF-asK8tlpZM9ImHLij8P-HMk6ZAvqqLGwiCD0YtEN_YtEJTUiALMUihlEpNJUGEwVtBEA-gnVQ- -gkFzi7LkzHMyNoWKgjudKzToUGhHjsVn43OVfbCZT1_LoUH6kLDd9MUPJOKfOGlAMbis4YLsWNm00]--></g></svg>