<?xml version="1.0" encoding="us-ascii" standalone="no"?><svg xmlns="http://www.w3.org/2000/svg" xmlns:xlink="http://www.w3.org/1999/xlink" contentStyleType="text/css" height="447px" preserveAspectRatio="none" style="width:554px;height:447px;" version="1.1" viewBox="0 0 554 447" width="554px" zoomAndPan="magnify"><defs/><g><text fill="#000000" font-family="sans-serif" font-size="14" font-weight="bold" lengthAdjust="spacing" textLength="110" x="218" y="40.6357">Throw events</text><rect fill="none" height="164.7969" style="stroke:#000000;stroke-width:1.5;" width="419" x="118" y="162.3672"/><rect fill="none" height="75.3984" style="stroke:#000000;stroke-width:1.5;" width="257.5" x="269.5" y="215.6328"/><line style="stroke:#181818;stroke-width:0.5;stroke-dasharray:5.0,5.0;" x1="164" x2="164" y1="103.2344" y2="379.2969"/><line style="stroke:#181818;stroke-width:0.5;stroke-dasharray:5.0,5.0;" x1="313.5" x2="313.5" y1="103.2344" y2="379.2969"/><line style="stroke:#181818;stroke-width:0.5;stroke-dasharray:5.0,5.0;" x1="483" x2="483" y1="103.2344" y2="379.2969"/><text fill="#000000" font-family="sans-serif" font-size="14" lengthAdjust="spacing" textLength="66" x="128" y="99.9326">Endpoint</text><path d="M143.5,58.9375 L143.5,82.9375 M143.5,70.9375 L160.5,70.9375 " fill="none" style="stroke:#181818;stroke-width:0.5;"/><ellipse cx="172.5" cy="70.9375" fill="#E2E2F0" rx="12" ry="12" style="stroke:#181818;stroke-width:0.5;"/><text fill="#000000" font-family="sans-serif" font-size="14" lengthAdjust="spacing" textLength="66" x="128" y="391.292">Endpoint</text><path d="M143.5,398.5938 L143.5,422.5938 M143.5,410.5938 L160.5,410.5938 " fill="none" style="stroke:#181818;stroke-width:0.5;"/><ellipse cx="172.5" cy="410.5938" fill="#E2E2F0" rx="12" ry="12" style="stroke:#181818;stroke-width:0.5;"/><path d="M284.5,76.9375 L343.5,76.9375 C348.5,76.9375 348.5,90.0859 348.5,90.0859 C348.5,90.0859 348.5,103.2344 343.5,103.2344 L284.5,103.2344 C279.5,103.2344 279.5,90.0859 279.5,90.0859 C279.5,90.0859 279.5,76.9375 284.5,76.9375 " fill="#E2E2F0" style="stroke:#181818;stroke-width:0.5;"/><path d="M343.5,76.9375 C338.5,76.9375 338.5,90.0859 338.5,90.0859 C338.5,103.2344 343.5,103.2344 343.5,103.2344 " fill="none" style="stroke:#181818;stroke-width:0.5;"/><text fill="#000000" font-family="sans-serif" font-size="14" lengthAdjust="spacing" textLength="49" x="284.5" y="94.9326">Events</text><path d="M284.5,378.2969 L343.5,378.2969 C348.5,378.2969 348.5,391.4453 348.5,391.4453 C348.5,391.4453 348.5,404.5938 343.5,404.5938 L284.5,404.5938 C279.5,404.5938 279.5,391.4453 279.5,391.4453 C279.5,391.4453 279.5,378.2969 284.5,378.2969 " fill="#E2E2F0" style="stroke:#181818;stroke-width:0.5;"/><path d="M343.5,378.2969 C338.5,378.2969 338.5,391.4453 338.5,391.4453 C338.5,404.5938 343.5,404.5938 343.5,404.5938 " fill="none" style="stroke:#181818;stroke-width:0.5;"/><text fill="#000000" font-family="sans-serif" font-size="14" lengthAdjust="spacing" textLength="49" x="284.5" y="396.292">Events</text><rect fill="#E2E2F0" height="30.2969" rx="2.5" ry="2.5" style="stroke:#181818;stroke-width:0.5;" width="68" x="449" y="71.9375"/><text fill="#000000" font-family="sans-serif" font-size="14" lengthAdjust="spacing" textLength="54" x="456" y="91.9326">Actions</text><rect fill="#E2E2F0" height="30.2969" rx="2.5" ry="2.5" style="stroke:#181818;stroke-width:0.5;" width="68" x="449" y="378.2969"/><text fill="#000000" font-family="sans-serif" font-size="14" lengthAdjust="spacing" textLength="54" x="456" y="398.292">Actions</text><line style="stroke:#181818;stroke-width:1.0;" x1="164" x2="206" y1="134.3672" y2="134.3672"/><line style="stroke:#181818;stroke-width:1.0;" x1="206" x2="206" y1="134.3672" y2="147.3672"/><line style="stroke:#181818;stroke-width:1.0;" x1="165" x2="206" y1="147.3672" y2="147.3672"/><polygon fill="#181818" points="175,143.3672,165,147.3672,175,151.3672,171,147.3672" style="stroke:#181818;stroke-width:1.0;"/><text fill="#000000" font-family="sans-serif" font-size="13" font-weight="bold" lengthAdjust="spacing" textLength="9" x="171" y="129.3013">1</text><text fill="#000000" font-family="sans-serif" font-size="13" lengthAdjust="spacing" textLength="110" x="184" y="129.3013">Create Responce</text><path d="M118,162.3672 L196,162.3672 L196,169.5 L186,179.5 L118,179.5 L118,162.3672 " fill="#EEEEEE" style="stroke:#000000;stroke-width:1.5;"/><rect fill="none" height="164.7969" style="stroke:#000000;stroke-width:1.5;" width="419" x="118" y="162.3672"/><text fill="#000000" font-family="sans-serif" font-size="13" font-weight="bold" lengthAdjust="spacing" textLength="33" x="133" y="175.4341">loop</text><text fill="#000000" font-family="sans-serif" font-size="11" font-weight="bold" lengthAdjust="spacing" textLength="209" x="211" y="174.5776">[for eacht throw fire an event]</text><polygon fill="#181818" points="302,196.6328,312,200.6328,302,204.6328,306,200.6328" style="stroke:#181818;stroke-width:1.0;"/><line style="stroke:#181818;stroke-width:1.0;" x1="164" x2="308" y1="200.6328" y2="200.6328"/><text fill="#000000" font-family="sans-serif" font-size="13" font-weight="bold" lengthAdjust="spacing" textLength="9" x="171" y="195.5669">2</text><text fill="#000000" font-family="sans-serif" font-size="13" lengthAdjust="spacing" textLength="111" x="184" y="195.5669">Event + Reponce</text><path d="M269.5,215.6328 L335.5,215.6328 L335.5,222.7656 L325.5,232.7656 L269.5,232.7656 L269.5,215.6328 " fill="#EEEEEE" style="stroke:#000000;stroke-width:1.5;"/><rect fill="none" height="75.3984" style="stroke:#000000;stroke-width:1.5;" width="257.5" x="269.5" y="215.6328"/><text fill="#000000" font-family="sans-serif" font-size="13" font-weight="bold" lengthAdjust="spacing" textLength="21" x="284.5" y="228.6997">alt</text><text fill="#000000" font-family="sans-serif" font-size="11" font-weight="bold" lengthAdjust="spacing" textLength="143" x="350.5" y="227.8433">[synchronous events]</text><polygon fill="#181818" points="471,249.8984,481,253.8984,471,257.8984,475,253.8984" style="stroke:#181818;stroke-width:1.0;"/><line style="stroke:#181818;stroke-width:1.0;" x1="314" x2="477" y1="253.8984" y2="253.8984"/><text fill="#000000" font-family="sans-serif" font-size="13" font-weight="bold" lengthAdjust="spacing" textLength="8" x="321" y="248.8325">3</text><text fill="#000000" font-family="sans-serif" font-size="13" lengthAdjust="spacing" textLength="133" x="333" y="248.8325">Fire action handelers</text><polygon fill="#181818" points="325,279.0313,315,283.0313,325,287.0313,321,283.0313" style="stroke:#181818;stroke-width:1.0;"/><line style="stroke:#181818;stroke-width:1.0;stroke-dasharray:2.0,2.0;" x1="319" x2="482" y1="283.0313" y2="283.0313"/><text fill="#000000" font-family="sans-serif" font-size="13" font-weight="bold" lengthAdjust="spacing" textLength="9" x="331" y="277.9653">4</text><text fill="#000000" font-family="sans-serif" font-size="13" lengthAdjust="spacing" textLength="86" x="344" y="277.9653">Alter reponce</text><polygon fill="#181818" points="175,315.1641,165,319.1641,175,323.1641,171,319.1641" style="stroke:#181818;stroke-width:1.0;"/><line style="stroke:#181818;stroke-width:1.0;" x1="169" x2="313" y1="319.1641" y2="319.1641"/><text fill="#000000" font-family="sans-serif" font-size="13" font-weight="bold" lengthAdjust="spacing" textLength="9" x="181" y="314.0981">5</text><text fill="#000000" font-family="sans-serif" font-size="13" lengthAdjust="spacing" textLength="113" x="194" y="314.0981">Update Responce</text><path d="M5,339.1641 L5,364.1641 L323,364.1641 L323,349.1641 L313,339.1641 L5,339.1641 " fill="#FEFFDD" style="stroke:#181818;stroke-width:0.5;"/><path d="M313,339.1641 L313,349.1641 L323,349.1641 L313,339.1641 " fill="#FEFFDD" style="stroke:#181818;stroke-width:0.5;"/><text fill="#000000" font-family="sans-serif" font-size="13" lengthAdjust="spacing" textLength="297" x="11" y="356.231">Ready to return the responce to the requester</text><text fill="#888888" font-family="sans-serif" font-size="10" lengthAdjust="spacing" textLength="35" x="511" y="14.2822">Events</text><text fill="#888888" font-family="sans-serif" font-size="10" lengthAdjust="spacing" textLength="163" x="191.5" y="436.876">Common Gateway | Endpoints</text><!--SRC=[LL7BRiD02BplLt2lyWCvL8gYjFUe_G3inRKL6roMJMIf7r_yJCnf5sO61gonbexmLQiyWEx4ba8bOgH7E4lN2SCd6ZrmW3-uSEob6I4rOHmXbvaHqgtX7XKxAB2y_QXaZcTfHS4KENd9SI5WDk7S5QGX52C6TG2FLHZMmBJbmc-cJ4j-xWUm0oupR2A7zuti9fHyVhXIweLB2gr83vKFHbZM1ZOPhnebG9uNi1UQn1UZyEOwimos1cdWqkaiEQshM-PpugcqHjYP7vFsz8CQEL9Bci9IXiDBZrFhQmTTEX375xcdeUy-xWoDEFQ3WToT_SHT_KG3cBYWPMLtIlwSIMDw_ljoatVz1m00]--></g></svg>