<?xml version="1.0" encoding="us-ascii" standalone="no"?><svg xmlns="http://www.w3.org/2000/svg" xmlns:xlink="http://www.w3.org/1999/xlink" contentStyleType="text/css" height="357px" preserveAspectRatio="none" style="width:442px;height:357px;background:#FFFFFF;" version="1.1" viewBox="0 0 442 357" width="442px" zoomAndPan="magnify"><defs/><g><text fill="#000000" font-family="sans-serif" font-size="14" font-weight="bold" lengthAdjust="spacing" textLength="110" x="162" y="40.6357">Throw events</text><rect fill="none" height="75.3984" style="stroke:#000000;stroke-width:1.5;" width="307" x="118" y="162.3672"/><line style="stroke:#181818;stroke-width:0.5;stroke-dasharray:5.0,5.0;" x1="164" x2="164" y1="103.2344" y2="289.8984"/><line style="stroke:#181818;stroke-width:0.5;stroke-dasharray:5.0,5.0;" x1="312.5" x2="312.5" y1="103.2344" y2="289.8984"/><text fill="#000000" font-family="sans-serif" font-size="14" lengthAdjust="spacing" textLength="66" x="128" y="99.9326">Endpoint</text><path d="M143.5,58.9375 L143.5,82.9375 M143.5,70.9375 L160.5,70.9375 " fill="none" style="stroke:#181818;stroke-width:0.5;"/><ellipse cx="172.5" cy="70.9375" fill="#E2E2F0" rx="12" ry="12" style="stroke:#181818;stroke-width:0.5;"/><text fill="#000000" font-family="sans-serif" font-size="14" lengthAdjust="spacing" textLength="66" x="128" y="301.8936">Endpoint</text><path d="M143.5,309.1953 L143.5,333.1953 M143.5,321.1953 L160.5,321.1953 " fill="none" style="stroke:#181818;stroke-width:0.5;"/><ellipse cx="172.5" cy="321.1953" fill="#E2E2F0" rx="12" ry="12" style="stroke:#181818;stroke-width:0.5;"/><path d="M283.5,76.9375 L342.5,76.9375 C347.5,76.9375 347.5,90.0859 347.5,90.0859 C347.5,90.0859 347.5,103.2344 342.5,103.2344 L283.5,103.2344 C278.5,103.2344 278.5,90.0859 278.5,90.0859 C278.5,90.0859 278.5,76.9375 283.5,76.9375 " fill="#E2E2F0" style="stroke:#181818;stroke-width:0.5;"/><path d="M342.5,76.9375 C337.5,76.9375 337.5,90.0859 337.5,90.0859 C337.5,103.2344 342.5,103.2344 342.5,103.2344 " fill="none" style="stroke:#181818;stroke-width:0.5;"/><text fill="#000000" font-family="sans-serif" font-size="14" lengthAdjust="spacing" textLength="49" x="283.5" y="94.9326">Events</text><path d="M283.5,288.8984 L342.5,288.8984 C347.5,288.8984 347.5,302.0469 347.5,302.0469 C347.5,302.0469 347.5,315.1953 342.5,315.1953 L283.5,315.1953 C278.5,315.1953 278.5,302.0469 278.5,302.0469 C278.5,302.0469 278.5,288.8984 283.5,288.8984 " fill="#E2E2F0" style="stroke:#181818;stroke-width:0.5;"/><path d="M342.5,288.8984 C337.5,288.8984 337.5,302.0469 337.5,302.0469 C337.5,315.1953 342.5,315.1953 342.5,315.1953 " fill="none" style="stroke:#181818;stroke-width:0.5;"/><text fill="#000000" font-family="sans-serif" font-size="14" lengthAdjust="spacing" textLength="49" x="283.5" y="306.8936">Events</text><line style="stroke:#181818;stroke-width:1.0;" x1="164" x2="206" y1="134.3672" y2="134.3672"/><line style="stroke:#181818;stroke-width:1.0;" x1="206" x2="206" y1="134.3672" y2="147.3672"/><line style="stroke:#181818;stroke-width:1.0;" x1="165" x2="206" y1="147.3672" y2="147.3672"/><polygon fill="#181818" points="175,143.3672,165,147.3672,175,151.3672,171,147.3672" style="stroke:#181818;stroke-width:1.0;"/><text fill="#000000" font-family="sans-serif" font-size="13" font-weight="bold" lengthAdjust="spacing" textLength="9" x="171" y="129.3013">1</text><text fill="#000000" font-family="sans-serif" font-size="13" lengthAdjust="spacing" textLength="110" x="184" y="129.3013">Create Responce</text><path d="M118,162.3672 L196,162.3672 L196,169.5 L186,179.5 L118,179.5 L118,162.3672 " fill="#EEEEEE" style="stroke:#000000;stroke-width:1.5;"/><rect fill="none" height="75.3984" style="stroke:#000000;stroke-width:1.5;" width="307" x="118" y="162.3672"/><text fill="#000000" font-family="sans-serif" font-size="13" font-weight="bold" lengthAdjust="spacing" textLength="33" x="133" y="175.4341">loop</text><text fill="#000000" font-family="sans-serif" font-size="11" font-weight="bold" lengthAdjust="spacing" textLength="209" x="211" y="174.5776">[for eacht throw fire an event]</text><polygon fill="#181818" points="301,196.6328,311,200.6328,301,204.6328,305,200.6328" style="stroke:#181818;stroke-width:1.0;"/><line style="stroke:#181818;stroke-width:1.0;" x1="164" x2="307" y1="200.6328" y2="200.6328"/><text fill="#000000" font-family="sans-serif" font-size="13" font-weight="bold" lengthAdjust="spacing" textLength="9" x="171" y="195.5669">2</text><text fill="#000000" font-family="sans-serif" font-size="13" lengthAdjust="spacing" textLength="111" x="184" y="195.5669">Event + Reponce</text><polygon fill="#181818" points="175,225.7656,165,229.7656,175,233.7656,171,229.7656" style="stroke:#181818;stroke-width:1.0;"/><line style="stroke:#181818;stroke-width:1.0;" x1="169" x2="312" y1="229.7656" y2="229.7656"/><text fill="#000000" font-family="sans-serif" font-size="13" font-weight="bold" lengthAdjust="spacing" textLength="8" x="181" y="224.6997">3</text><text fill="#000000" font-family="sans-serif" font-size="13" lengthAdjust="spacing" textLength="113" x="193" y="224.6997">Update Responce</text><path d="M5,249.7656 L5,274.7656 L323,274.7656 L323,259.7656 L313,249.7656 L5,249.7656 " fill="#FEFFDD" style="stroke:#181818;stroke-width:0.5;"/><path d="M313,249.7656 L313,259.7656 L323,259.7656 L313,249.7656 " fill="#FEFFDD" style="stroke:#181818;stroke-width:0.5;"/><text fill="#000000" font-family="sans-serif" font-size="13" lengthAdjust="spacing" textLength="297" x="11" y="266.8325">Ready to return the responce to the requester</text><text fill="#888888" font-family="sans-serif" font-size="10" lengthAdjust="spacing" textLength="35" x="399" y="14.2822">Events</text><text fill="#888888" font-family="sans-serif" font-size="10" lengthAdjust="spacing" textLength="163" x="135.5" y="347.4775">Common Gateway | Endpoints</text><!--SRC=[LL0nRiD03Dll5ToBVY13boBe7hGFkCGqR22MN5cNm40UNpdd6BMcEuAaI7dlLnxmtPdUmHl5fzIgEks0Jnq65NnbvptFUE0epQZzGkcOcuLoh8gKYwkKuKnBwQn5ccmpObuAl2PF6vP-2mjNl1e1E-9glfcyVspYI6UCO3Xn6bKkJ5VL4QqQc2-Tmv-Dsjw8BBNPtkXflZR0M_XKcpN8RjNFsEnMKPeaSIFeZVQFTughp725qOj9P60ygsY1wpzgJt7VFm00]--></g></svg>