<?xml version="1.0" encoding="us-ascii" standalone="no"?><svg xmlns="http://www.w3.org/2000/svg" xmlns:xlink="http://www.w3.org/1999/xlink" contentStyleType="text/css" height="393px" preserveAspectRatio="none" style="width:557px;height:393px;background:#FFFFFF;" version="1.1" viewBox="0 0 557 393" width="557px" zoomAndPan="magnify"><defs/><g><text fill="#000000" font-family="sans-serif" font-size="14" font-weight="bold" lengthAdjust="spacing" textLength="184" x="182.75" y="40.6357">Handling GET requests</text><line style="stroke:#181818;stroke-width:0.5;stroke-dasharray:5.0,5.0;" x1="41" x2="41" y1="117.2344" y2="312.0313"/><line style="stroke:#181818;stroke-width:0.5;stroke-dasharray:5.0,5.0;" x1="139" x2="139" y1="117.2344" y2="312.0313"/><line style="stroke:#181818;stroke-width:0.5;stroke-dasharray:5.0,5.0;" x1="238" x2="238" y1="117.2344" y2="312.0313"/><line style="stroke:#181818;stroke-width:0.5;stroke-dasharray:5.0,5.0;" x1="382.5" x2="382.5" y1="117.2344" y2="312.0313"/><line style="stroke:#181818;stroke-width:0.5;stroke-dasharray:5.0,5.0;" x1="501.5" x2="501.5" y1="117.2344" y2="312.0313"/><text fill="#000000" font-family="sans-serif" font-size="14" lengthAdjust="spacing" textLength="66" x="5" y="113.9326">Endpoint</text><path d="M20.5,72.9375 L20.5,96.9375 M20.5,84.9375 L37.5,84.9375 " fill="none" style="stroke:#181818;stroke-width:0.5;"/><ellipse cx="49.5" cy="84.9375" fill="#E2E2F0" rx="12" ry="12" style="stroke:#181818;stroke-width:0.5;"/><text fill="#000000" font-family="sans-serif" font-size="14" lengthAdjust="spacing" textLength="66" x="5" y="324.0264">Endpoint</text><path d="M20.5,331.3281 L20.5,355.3281 M20.5,343.3281 L37.5,343.3281 " fill="none" style="stroke:#181818;stroke-width:0.5;"/><ellipse cx="49.5" cy="343.3281" fill="#E2E2F0" rx="12" ry="12" style="stroke:#181818;stroke-width:0.5;"/><text fill="#000000" font-family="sans-serif" font-size="14" lengthAdjust="spacing" textLength="98" x="87" y="113.9326">Authorization</text><ellipse cx="139" cy="84.9375" fill="#E2E2F0" rx="12" ry="12" style="stroke:#181818;stroke-width:0.5;"/><polygon fill="#181818" points="135,72.9375,141,67.9375,139,72.9375,141,77.9375,135,72.9375" style="stroke:#181818;stroke-width:1.0;"/><text fill="#000000" font-family="sans-serif" font-size="14" lengthAdjust="spacing" textLength="98" x="87" y="324.0264">Authorization</text><ellipse cx="139" cy="343.3281" fill="#E2E2F0" rx="12" ry="12" style="stroke:#181818;stroke-width:0.5;"/><polygon fill="#181818" points="135,331.3281,141,326.3281,139,331.3281,141,336.3281,135,331.3281" style="stroke:#181818;stroke-width:1.0;"/><text fill="#000000" font-family="sans-serif" font-size="14" lengthAdjust="spacing" textLength="69" x="201" y="113.9326">Datalayer</text><path d="M220.5,64.9375 C220.5,54.9375 238.5,54.9375 238.5,54.9375 C238.5,54.9375 256.5,54.9375 256.5,64.9375 L256.5,90.9375 C256.5,100.9375 238.5,100.9375 238.5,100.9375 C238.5,100.9375 220.5,100.9375 220.5,90.9375 L220.5,64.9375 " fill="#E2E2F0" style="stroke:#181818;stroke-width:1.5;"/><path d="M220.5,64.9375 C220.5,74.9375 238.5,74.9375 238.5,74.9375 C238.5,74.9375 256.5,74.9375 256.5,64.9375 " fill="none" style="stroke:#181818;stroke-width:1.5;"/><text fill="#000000" font-family="sans-serif" font-size="14" lengthAdjust="spacing" textLength="69" x="201" y="324.0264">Datalayer</text><path d="M220.5,337.3281 C220.5,327.3281 238.5,327.3281 238.5,327.3281 C238.5,327.3281 256.5,327.3281 256.5,337.3281 L256.5,363.3281 C256.5,373.3281 238.5,373.3281 238.5,373.3281 C238.5,373.3281 220.5,373.3281 220.5,363.3281 L220.5,337.3281 " fill="#E2E2F0" style="stroke:#181818;stroke-width:1.5;"/><path d="M220.5,337.3281 C220.5,347.3281 238.5,347.3281 238.5,347.3281 C238.5,347.3281 256.5,347.3281 256.5,337.3281 " fill="none" style="stroke:#181818;stroke-width:1.5;"/><rect fill="#E2E2F0" height="30.2969" style="stroke:#181818;stroke-width:0.5;" width="126" x="321.5" y="81.9375"/><rect fill="#E2E2F0" height="30.2969" style="stroke:#181818;stroke-width:0.5;" width="126" x="317.5" y="85.9375"/><text fill="#000000" font-family="sans-serif" font-size="14" lengthAdjust="spacing" textLength="112" x="324.5" y="105.9326">RequestService</text><rect fill="#E2E2F0" height="30.2969" style="stroke:#181818;stroke-width:0.5;" width="126" x="321.5" y="311.0313"/><rect fill="#E2E2F0" height="30.2969" style="stroke:#181818;stroke-width:0.5;" width="126" x="317.5" y="315.0313"/><text fill="#000000" font-family="sans-serif" font-size="14" lengthAdjust="spacing" textLength="112" x="324.5" y="335.0264">RequestService</text><rect fill="#E2E2F0" height="30.2969" rx="2.5" ry="2.5" style="stroke:#181818;stroke-width:0.5;" width="88" x="457.5" y="85.9375"/><text fill="#000000" font-family="sans-serif" font-size="14" lengthAdjust="spacing" textLength="74" x="464.5" y="105.9326">Requester</text><rect fill="#E2E2F0" height="30.2969" rx="2.5" ry="2.5" style="stroke:#181818;stroke-width:0.5;" width="88" x="457.5" y="311.0313"/><text fill="#000000" font-family="sans-serif" font-size="14" lengthAdjust="spacing" textLength="74" x="464.5" y="331.0264">Requester</text><polygon fill="#181818" points="370.5,144.3672,380.5,148.3672,370.5,152.3672,374.5,148.3672" style="stroke:#181818;stroke-width:1.0;"/><line style="stroke:#181818;stroke-width:1.0;" x1="41" x2="376.5" y1="148.3672" y2="148.3672"/><text fill="#000000" font-family="sans-serif" font-size="13" font-weight="bold" lengthAdjust="spacing" textLength="9" x="48" y="143.3013">1</text><text fill="#000000" font-family="sans-serif" font-size="13" lengthAdjust="spacing" textLength="53" x="61" y="143.3013">Request</text><polygon fill="#181818" points="150,173.5,140,177.5,150,181.5,146,177.5" style="stroke:#181818;stroke-width:1.0;"/><line style="stroke:#181818;stroke-width:1.0;" x1="144" x2="381.5" y1="177.5" y2="177.5"/><text fill="#000000" font-family="sans-serif" font-size="13" font-weight="bold" lengthAdjust="spacing" textLength="9" x="156" y="172.4341">2</text><text fill="#000000" font-family="sans-serif" font-size="13" lengthAdjust="spacing" textLength="85" x="169" y="172.4341">Authorization</text><polygon fill="#181818" points="370.5,202.6328,380.5,206.6328,370.5,210.6328,374.5,206.6328" style="stroke:#181818;stroke-width:1.0;"/><line style="stroke:#181818;stroke-width:1.0;stroke-dasharray:2.0,2.0;" x1="139" x2="376.5" y1="206.6328" y2="206.6328"/><text fill="#000000" font-family="sans-serif" font-size="13" font-weight="bold" lengthAdjust="spacing" textLength="8" x="146" y="201.5669">3</text><text fill="#000000" font-family="sans-serif" font-size="13" lengthAdjust="spacing" textLength="85" x="158" y="201.5669">Authorization</text><polygon fill="#181818" points="249.5,231.7656,239.5,235.7656,249.5,239.7656,245.5,235.7656" style="stroke:#181818;stroke-width:1.0;"/><line style="stroke:#181818;stroke-width:1.0;" x1="243.5" x2="381.5" y1="235.7656" y2="235.7656"/><text fill="#000000" font-family="sans-serif" font-size="13" font-weight="bold" lengthAdjust="spacing" textLength="9" x="255.5" y="230.6997">4</text><text fill="#000000" font-family="sans-serif" font-size="13" lengthAdjust="spacing" textLength="107" x="268.5" y="230.6997">Search object('s)</text><polygon fill="#181818" points="370.5,260.8984,380.5,264.8984,370.5,268.8984,374.5,264.8984" style="stroke:#181818;stroke-width:1.0;"/><line style="stroke:#181818;stroke-width:1.0;stroke-dasharray:2.0,2.0;" x1="238.5" x2="376.5" y1="264.8984" y2="264.8984"/><text fill="#000000" font-family="sans-serif" font-size="13" font-weight="bold" lengthAdjust="spacing" textLength="9" x="245.5" y="259.8325">5</text><text fill="#000000" font-family="sans-serif" font-size="13" lengthAdjust="spacing" textLength="61" x="258.5" y="259.8325">Object('s)</text><polygon fill="#181818" points="489.5,290.0313,499.5,294.0313,489.5,298.0313,493.5,294.0313" style="stroke:#181818;stroke-width:1.0;"/><line style="stroke:#181818;stroke-width:1.0;stroke-dasharray:2.0,2.0;" x1="41" x2="495.5" y1="294.0313" y2="294.0313"/><text fill="#000000" font-family="sans-serif" font-size="13" font-weight="bold" lengthAdjust="spacing" textLength="9" x="48" y="288.9653">6</text><text fill="#000000" font-family="sans-serif" font-size="13" lengthAdjust="spacing" textLength="63" x="61" y="288.9653">Response</text><text fill="#888888" font-family="sans-serif" font-size="10" lengthAdjust="spacing" textLength="68" x="481.5" y="14.2822">GET Request</text><text fill="#888888" font-family="sans-serif" font-size="10" lengthAdjust="spacing" textLength="163" x="193.25" y="383.6104">Common Gateway | Endpoints</text><!--SRC=[RL7DJiGW4Bxp57DJ3tq13YP6D-lDPDSNc9RHOYYpmg2fyU45cnRRoebyFpFV1sB5aOP7zCPP_mh7mpC4UayK9QeNPg6WuPw7WJqSKUWJH_Y6WpSNjZvBUa9J9CLtcdmAax1FGqj1gPQJDnX6o6TsmNmmBfZgs4jWzulV9Uavs2yKczTEmXMc30gs6AcG3_dkSAJmP-o2vRdEKLTCSGvufl1XEvgKQqof9MHpk-7qKd0p9oitYVKcxffkTgFtZlsAMbF3cJ1qFN3xbgjTNyKRLTdcd-1FLLZxLLtvm1F5ItuZ-W40]--></g></svg>