<?xml version="1.0" encoding="us-ascii" standalone="no"?><svg xmlns="http://www.w3.org/2000/svg" xmlns:xlink="http://www.w3.org/1999/xlink" contentStyleType="text/css" height="510px" preserveAspectRatio="none" style="width:549px;height:510px;background:#FFFFFF;" version="1.1" viewBox="0 0 549 510" width="549px" zoomAndPan="magnify"><defs/><g><text fill="#000000" font-family="sans-serif" font-size="14" font-weight="bold" lengthAdjust="spacing" textLength="205" x="168.25" y="40.6357">Handling PATCH requests</text><line style="stroke:#181818;stroke-width:0.5;stroke-dasharray:5.0,5.0;" x1="41" x2="41" y1="117.2344" y2="428.5625"/><line style="stroke:#181818;stroke-width:0.5;stroke-dasharray:5.0,5.0;" x1="139" x2="139" y1="117.2344" y2="428.5625"/><line style="stroke:#181818;stroke-width:0.5;stroke-dasharray:5.0,5.0;" x1="240" x2="240" y1="117.2344" y2="428.5625"/><line style="stroke:#181818;stroke-width:0.5;stroke-dasharray:5.0,5.0;" x1="326" x2="326" y1="117.2344" y2="428.5625"/><line style="stroke:#181818;stroke-width:0.5;stroke-dasharray:5.0,5.0;" x1="472.5" x2="472.5" y1="117.2344" y2="428.5625"/><text fill="#000000" font-family="sans-serif" font-size="14" lengthAdjust="spacing" textLength="66" x="5" y="113.9326">Endpoint</text><path d="M20.5,72.9375 L20.5,96.9375 M20.5,84.9375 L37.5,84.9375 " fill="none" style="stroke:#181818;stroke-width:0.5;"/><ellipse cx="49.5" cy="84.9375" fill="#E2E2F0" rx="12" ry="12" style="stroke:#181818;stroke-width:0.5;"/><text fill="#000000" font-family="sans-serif" font-size="14" lengthAdjust="spacing" textLength="66" x="5" y="440.5576">Endpoint</text><path d="M20.5,447.8594 L20.5,471.8594 M20.5,459.8594 L37.5,459.8594 " fill="none" style="stroke:#181818;stroke-width:0.5;"/><ellipse cx="49.5" cy="459.8594" fill="#E2E2F0" rx="12" ry="12" style="stroke:#181818;stroke-width:0.5;"/><text fill="#000000" font-family="sans-serif" font-size="14" lengthAdjust="spacing" textLength="98" x="87" y="113.9326">Authorization</text><ellipse cx="139" cy="84.9375" fill="#E2E2F0" rx="12" ry="12" style="stroke:#181818;stroke-width:0.5;"/><polygon fill="#181818" points="135,72.9375,141,67.9375,139,72.9375,141,77.9375,135,72.9375" style="stroke:#181818;stroke-width:1.0;"/><text fill="#000000" font-family="sans-serif" font-size="14" lengthAdjust="spacing" textLength="98" x="87" y="440.5576">Authorization</text><ellipse cx="139" cy="459.8594" fill="#E2E2F0" rx="12" ry="12" style="stroke:#181818;stroke-width:0.5;"/><polygon fill="#181818" points="135,447.8594,141,442.8594,139,447.8594,141,452.8594,135,447.8594" style="stroke:#181818;stroke-width:1.0;"/><text fill="#000000" font-family="sans-serif" font-size="14" lengthAdjust="spacing" textLength="72" x="201" y="113.9326">Validation</text><ellipse cx="240" cy="84.9375" fill="#E2E2F0" rx="12" ry="12" style="stroke:#181818;stroke-width:0.5;"/><polygon fill="#181818" points="236,72.9375,242,67.9375,240,72.9375,242,77.9375,236,72.9375" style="stroke:#181818;stroke-width:1.0;"/><text fill="#000000" font-family="sans-serif" font-size="14" lengthAdjust="spacing" textLength="72" x="201" y="440.5576">Validation</text><ellipse cx="240" cy="459.8594" fill="#E2E2F0" rx="12" ry="12" style="stroke:#181818;stroke-width:0.5;"/><polygon fill="#181818" points="236,447.8594,242,442.8594,240,447.8594,242,452.8594,236,447.8594" style="stroke:#181818;stroke-width:1.0;"/><text fill="#000000" font-family="sans-serif" font-size="14" lengthAdjust="spacing" textLength="69" x="289" y="113.9326">Datalayer</text><path d="M308.5,64.9375 C308.5,54.9375 326.5,54.9375 326.5,54.9375 C326.5,54.9375 344.5,54.9375 344.5,64.9375 L344.5,90.9375 C344.5,100.9375 326.5,100.9375 326.5,100.9375 C326.5,100.9375 308.5,100.9375 308.5,90.9375 L308.5,64.9375 " fill="#E2E2F0" style="stroke:#181818;stroke-width:1.5;"/><path d="M308.5,64.9375 C308.5,74.9375 326.5,74.9375 326.5,74.9375 C326.5,74.9375 344.5,74.9375 344.5,64.9375 " fill="none" style="stroke:#181818;stroke-width:1.5;"/><text fill="#000000" font-family="sans-serif" font-size="14" lengthAdjust="spacing" textLength="69" x="289" y="440.5576">Datalayer</text><path d="M308.5,453.8594 C308.5,443.8594 326.5,443.8594 326.5,443.8594 C326.5,443.8594 344.5,443.8594 344.5,453.8594 L344.5,479.8594 C344.5,489.8594 326.5,489.8594 326.5,489.8594 C326.5,489.8594 308.5,489.8594 308.5,479.8594 L308.5,453.8594 " fill="#E2E2F0" style="stroke:#181818;stroke-width:1.5;"/><path d="M308.5,453.8594 C308.5,463.8594 326.5,463.8594 326.5,463.8594 C326.5,463.8594 344.5,463.8594 344.5,453.8594 " fill="none" style="stroke:#181818;stroke-width:1.5;"/><rect fill="#E2E2F0" height="30.2969" style="stroke:#181818;stroke-width:0.5;" width="126" x="411.5" y="81.9375"/><rect fill="#E2E2F0" height="30.2969" style="stroke:#181818;stroke-width:0.5;" width="126" x="407.5" y="85.9375"/><text fill="#000000" font-family="sans-serif" font-size="14" lengthAdjust="spacing" textLength="112" x="414.5" y="105.9326">RequestService</text><rect fill="#E2E2F0" height="30.2969" style="stroke:#181818;stroke-width:0.5;" width="126" x="411.5" y="427.5625"/><rect fill="#E2E2F0" height="30.2969" style="stroke:#181818;stroke-width:0.5;" width="126" x="407.5" y="431.5625"/><text fill="#000000" font-family="sans-serif" font-size="14" lengthAdjust="spacing" textLength="112" x="414.5" y="451.5576">RequestService</text><polygon fill="#181818" points="460.5,144.3672,470.5,148.3672,460.5,152.3672,464.5,148.3672" style="stroke:#181818;stroke-width:1.0;"/><line style="stroke:#181818;stroke-width:1.0;" x1="41" x2="466.5" y1="148.3672" y2="148.3672"/><text fill="#000000" font-family="sans-serif" font-size="13" font-weight="bold" lengthAdjust="spacing" textLength="9" x="48" y="143.3013">1</text><text fill="#000000" font-family="sans-serif" font-size="13" lengthAdjust="spacing" textLength="53" x="61" y="143.3013">Request</text><polygon fill="#181818" points="150,173.5,140,177.5,150,181.5,146,177.5" style="stroke:#181818;stroke-width:1.0;"/><line style="stroke:#181818;stroke-width:1.0;" x1="144" x2="471.5" y1="177.5" y2="177.5"/><text fill="#000000" font-family="sans-serif" font-size="13" font-weight="bold" lengthAdjust="spacing" textLength="9" x="156" y="172.4341">2</text><text fill="#000000" font-family="sans-serif" font-size="13" lengthAdjust="spacing" textLength="85" x="169" y="172.4341">Authorization</text><polygon fill="#181818" points="460.5,202.6328,470.5,206.6328,460.5,210.6328,464.5,206.6328" style="stroke:#181818;stroke-width:1.0;"/><line style="stroke:#181818;stroke-width:1.0;stroke-dasharray:2.0,2.0;" x1="139" x2="466.5" y1="206.6328" y2="206.6328"/><text fill="#000000" font-family="sans-serif" font-size="13" font-weight="bold" lengthAdjust="spacing" textLength="8" x="146" y="201.5669">3</text><text fill="#000000" font-family="sans-serif" font-size="13" lengthAdjust="spacing" textLength="85" x="158" y="201.5669">Authorization</text><polygon fill="#181818" points="337.5,231.7656,327.5,235.7656,337.5,239.7656,333.5,235.7656" style="stroke:#181818;stroke-width:1.0;"/><line style="stroke:#181818;stroke-width:1.0;" x1="331.5" x2="471.5" y1="235.7656" y2="235.7656"/><text fill="#000000" font-family="sans-serif" font-size="13" font-weight="bold" lengthAdjust="spacing" textLength="9" x="343.5" y="230.6997">4</text><text fill="#000000" font-family="sans-serif" font-size="13" lengthAdjust="spacing" textLength="107" x="356.5" y="230.6997">Search object('s)</text><polygon fill="#181818" points="460.5,260.8984,470.5,264.8984,460.5,268.8984,464.5,264.8984" style="stroke:#181818;stroke-width:1.0;"/><line style="stroke:#181818;stroke-width:1.0;stroke-dasharray:2.0,2.0;" x1="326.5" x2="466.5" y1="264.8984" y2="264.8984"/><text fill="#000000" font-family="sans-serif" font-size="13" font-weight="bold" lengthAdjust="spacing" textLength="9" x="333.5" y="259.8325">5</text><text fill="#000000" font-family="sans-serif" font-size="13" lengthAdjust="spacing" textLength="61" x="346.5" y="259.8325">Object('s)</text><polygon fill="#181818" points="251,290.0313,241,294.0313,251,298.0313,247,294.0313" style="stroke:#181818;stroke-width:1.0;"/><line style="stroke:#181818;stroke-width:1.0;" x1="245" x2="471.5" y1="294.0313" y2="294.0313"/><text fill="#000000" font-family="sans-serif" font-size="13" font-weight="bold" lengthAdjust="spacing" textLength="9" x="257" y="288.9653">6</text><text fill="#000000" font-family="sans-serif" font-size="13" lengthAdjust="spacing" textLength="109" x="270" y="288.9653">Validate Request</text><polygon fill="#181818" points="460.5,319.1641,470.5,323.1641,460.5,327.1641,464.5,323.1641" style="stroke:#181818;stroke-width:1.0;"/><line style="stroke:#181818;stroke-width:1.0;stroke-dasharray:2.0,2.0;" x1="240" x2="466.5" y1="323.1641" y2="323.1641"/><text fill="#000000" font-family="sans-serif" font-size="13" font-weight="bold" lengthAdjust="spacing" textLength="9" x="247" y="318.0981">7</text><text fill="#000000" font-family="sans-serif" font-size="13" lengthAdjust="spacing" textLength="107" x="260" y="318.0981">Validation Result</text><polygon fill="#181818" points="337.5,348.2969,327.5,352.2969,337.5,356.2969,333.5,352.2969" style="stroke:#181818;stroke-width:1.0;"/><line style="stroke:#181818;stroke-width:1.0;" x1="331.5" x2="471.5" y1="352.2969" y2="352.2969"/><text fill="#000000" font-family="sans-serif" font-size="13" font-weight="bold" lengthAdjust="spacing" textLength="9" x="343.5" y="347.231">8</text><text fill="#000000" font-family="sans-serif" font-size="13" lengthAdjust="spacing" textLength="109" x="356.5" y="347.231">Update object('s)</text><polygon fill="#181818" points="460.5,377.4297,470.5,381.4297,460.5,385.4297,464.5,381.4297" style="stroke:#181818;stroke-width:1.0;"/><line style="stroke:#181818;stroke-width:1.0;stroke-dasharray:2.0,2.0;" x1="326.5" x2="466.5" y1="381.4297" y2="381.4297"/><text fill="#000000" font-family="sans-serif" font-size="13" font-weight="bold" lengthAdjust="spacing" textLength="9" x="333.5" y="376.3638">9</text><text fill="#000000" font-family="sans-serif" font-size="13" lengthAdjust="spacing" textLength="61" x="346.5" y="376.3638">Object('s)</text><polygon fill="#181818" points="52,406.5625,42,410.5625,52,414.5625,48,410.5625" style="stroke:#181818;stroke-width:1.0;"/><line style="stroke:#181818;stroke-width:1.0;stroke-dasharray:2.0,2.0;" x1="46" x2="471.5" y1="410.5625" y2="410.5625"/><text fill="#000000" font-family="sans-serif" font-size="13" font-weight="bold" lengthAdjust="spacing" textLength="19" x="58" y="405.4966">10</text><text fill="#000000" font-family="sans-serif" font-size="13" lengthAdjust="spacing" textLength="63" x="81" y="405.4966">Response</text><text fill="#888888" font-family="sans-serif" font-size="10" lengthAdjust="spacing" textLength="83" x="458.5" y="14.2822">PATCH Request</text><text fill="#888888" font-family="sans-serif" font-size="10" lengthAdjust="spacing" textLength="163" x="189.25" y="500.1416">Common Gateway | Endpoints</text><!--SRC=[hL7BJiCm4BpxA_P6EUG7V42g2g8tghPmtoGBCNAymGzG41-FqoZEgn8NVB4zCplUyNhbDKdOeocrCczms9vtUx3q4SXv9rwPFLa9EwvhDl28dhwmXHzuC6N3oaH9HLXsahxos5SA39vDg7EoGkGSJ8csXRY6EXWMkeI9Westh2_uDlYAhVf6h-B3lN26pTGlg5MPfBrwn4JSC4T77NCVpnfRifCE4XPDjQQYAt93bXFPJrLGhvnZGgGysTs2a-al5ZvHkGWd5ydcTBQoNbUidnXZIZWHsg82pjzZjCsDknKZcrrf_6aKheqdNos72wMi4_QQyuG-aWlQ_z7vStDn_u_EeteOLZSQryGHqoy0]--></g></svg>