<?xml version="1.0" encoding="us-ascii" standalone="no"?><svg xmlns="http://www.w3.org/2000/svg" xmlns:xlink="http://www.w3.org/1999/xlink" contentStyleType="text/css" height="605px" preserveAspectRatio="none" style="width:680px;height:605px;background:#FFFFFF;" version="1.1" viewBox="0 0 680 605" width="680px" zoomAndPan="magnify"><defs/><g><text fill="#000000" font-family="sans-serif" font-size="14" font-weight="bold" lengthAdjust="spacing" textLength="226" x="223" y="40.6357">Handling incoming requests</text><rect fill="none" height="198.4063" style="stroke:#000000;stroke-width:1.5;" width="512" x="87" y="235.6328"/><line style="stroke:#181818;stroke-width:0.5;stroke-dasharray:5.0,5.0;" x1="45" x2="45" y1="131.2344" y2="509.3047"/><line style="stroke:#181818;stroke-width:0.5;stroke-dasharray:5.0,5.0;" x1="145" x2="145" y1="131.2344" y2="509.3047"/><line style="stroke:#181818;stroke-width:0.5;stroke-dasharray:5.0,5.0;" x1="327" x2="327" y1="131.2344" y2="509.3047"/><line style="stroke:#181818;stroke-width:0.5;stroke-dasharray:5.0,5.0;" x1="421" x2="421" y1="131.2344" y2="509.3047"/><line style="stroke:#181818;stroke-width:0.5;stroke-dasharray:5.0,5.0;" x1="524" x2="524" y1="131.2344" y2="509.3047"/><line style="stroke:#181818;stroke-width:0.5;stroke-dasharray:5.0,5.0;" x1="633" x2="633" y1="131.2344" y2="509.3047"/><text fill="#000000" font-family="sans-serif" font-size="14" lengthAdjust="spacing" textLength="74" x="5" y="127.9326">Requester</text><ellipse cx="45" cy="63.4375" fill="#E2E2F0" rx="8" ry="8" style="stroke:#181818;stroke-width:0.5;"/><path d="M45,71.4375 L45,98.4375 M32,79.4375 L58,79.4375 M45,98.4375 L32,113.4375 M45,98.4375 L58,113.4375 " fill="none" style="stroke:#181818;stroke-width:0.5;"/><text fill="#000000" font-family="sans-serif" font-size="14" lengthAdjust="spacing" textLength="74" x="5" y="521.2998">Requester</text><ellipse cx="45" cy="533.1016" fill="#E2E2F0" rx="8" ry="8" style="stroke:#181818;stroke-width:0.5;"/><path d="M45,541.1016 L45,568.1016 M32,549.1016 L58,549.1016 M45,568.1016 L32,583.1016 M45,568.1016 L58,583.1016 " fill="none" style="stroke:#181818;stroke-width:0.5;"/><text fill="#000000" font-family="sans-serif" font-size="14" lengthAdjust="spacing" textLength="66" x="109" y="127.9326">Endpoint</text><path d="M124.5,86.9375 L124.5,110.9375 M124.5,98.9375 L141.5,98.9375 " fill="none" style="stroke:#181818;stroke-width:0.5;"/><ellipse cx="153.5" cy="98.9375" fill="#E2E2F0" rx="12" ry="12" style="stroke:#181818;stroke-width:0.5;"/><text fill="#000000" font-family="sans-serif" font-size="14" lengthAdjust="spacing" textLength="66" x="109" y="521.2998">Endpoint</text><path d="M124.5,528.6016 L124.5,552.6016 M124.5,540.6016 L141.5,540.6016 " fill="none" style="stroke:#181818;stroke-width:0.5;"/><ellipse cx="153.5" cy="540.6016" fill="#E2E2F0" rx="12" ry="12" style="stroke:#181818;stroke-width:0.5;"/><text fill="#000000" font-family="sans-serif" font-size="14" lengthAdjust="spacing" textLength="108" x="270" y="127.9326">Authentication</text><ellipse cx="327" cy="98.9375" fill="#E2E2F0" rx="12" ry="12" style="stroke:#181818;stroke-width:0.5;"/><polygon fill="#181818" points="323,86.9375,329,81.9375,327,86.9375,329,91.9375,323,86.9375" style="stroke:#181818;stroke-width:1.0;"/><text fill="#000000" font-family="sans-serif" font-size="14" lengthAdjust="spacing" textLength="108" x="270" y="521.2998">Authentication</text><ellipse cx="327" cy="540.6016" fill="#E2E2F0" rx="12" ry="12" style="stroke:#181818;stroke-width:0.5;"/><polygon fill="#181818" points="323,528.6016,329,523.6016,327,528.6016,329,533.6016,323,528.6016" style="stroke:#181818;stroke-width:1.0;"/><text fill="#000000" font-family="sans-serif" font-size="14" lengthAdjust="spacing" textLength="49" x="394" y="127.9326">Source</text><ellipse cx="421.5" cy="98.9375" fill="#E2E2F0" rx="12" ry="12" style="stroke:#181818;stroke-width:0.5;"/><line style="stroke:#181818;stroke-width:0.5;" x1="409.5" x2="433.5" y1="112.9375" y2="112.9375"/><text fill="#000000" font-family="sans-serif" font-size="14" lengthAdjust="spacing" textLength="49" x="394" y="521.2998">Source</text><ellipse cx="421.5" cy="540.6016" fill="#E2E2F0" rx="12" ry="12" style="stroke:#181818;stroke-width:0.5;"/><line style="stroke:#181818;stroke-width:0.5;" x1="409.5" x2="433.5" y1="554.6016" y2="554.6016"/><rect fill="#E2E2F0" height="30.2969" style="stroke:#181818;stroke-width:0.5;" width="126" x="463" y="95.9375"/><rect fill="#E2E2F0" height="30.2969" style="stroke:#181818;stroke-width:0.5;" width="126" x="459" y="99.9375"/><text fill="#000000" font-family="sans-serif" font-size="14" lengthAdjust="spacing" textLength="112" x="466" y="119.9326">RequestService</text><rect fill="#E2E2F0" height="30.2969" style="stroke:#181818;stroke-width:0.5;" width="126" x="463" y="508.3047"/><rect fill="#E2E2F0" height="30.2969" style="stroke:#181818;stroke-width:0.5;" width="126" x="459" y="512.3047"/><text fill="#000000" font-family="sans-serif" font-size="14" lengthAdjust="spacing" textLength="112" x="466" y="532.2998">RequestService</text><path d="M604,104.9375 L663,104.9375 C668,104.9375 668,118.0859 668,118.0859 C668,118.0859 668,131.2344 663,131.2344 L604,131.2344 C599,131.2344 599,118.0859 599,118.0859 C599,118.0859 599,104.9375 604,104.9375 " fill="#E2E2F0" style="stroke:#181818;stroke-width:0.5;"/><path d="M663,104.9375 C658,104.9375 658,118.0859 658,118.0859 C658,131.2344 663,131.2344 663,131.2344 " fill="none" style="stroke:#181818;stroke-width:0.5;"/><text fill="#000000" font-family="sans-serif" font-size="14" lengthAdjust="spacing" textLength="49" x="604" y="122.9326">Events</text><path d="M604,508.3047 L663,508.3047 C668,508.3047 668,521.4531 668,521.4531 C668,521.4531 668,534.6016 663,534.6016 L604,534.6016 C599,534.6016 599,521.4531 599,521.4531 C599,521.4531 599,508.3047 604,508.3047 " fill="#E2E2F0" style="stroke:#181818;stroke-width:0.5;"/><path d="M663,508.3047 C658,508.3047 658,521.4531 658,521.4531 C658,534.6016 663,534.6016 663,534.6016 " fill="none" style="stroke:#181818;stroke-width:0.5;"/><text fill="#000000" font-family="sans-serif" font-size="14" lengthAdjust="spacing" textLength="49" x="604" y="526.2998">Events</text><polygon fill="#181818" points="133,158.3672,143,162.3672,133,166.3672,137,162.3672" style="stroke:#181818;stroke-width:1.0;"/><line style="stroke:#181818;stroke-width:1.0;" x1="45" x2="139" y1="162.3672" y2="162.3672"/><text fill="#000000" font-family="sans-serif" font-size="13" font-weight="bold" lengthAdjust="spacing" textLength="9" x="52" y="157.3013">1</text><text fill="#000000" font-family="sans-serif" font-size="13" lengthAdjust="spacing" textLength="53" x="65" y="157.3013">Request</text><polygon fill="#181818" points="315,187.5,325,191.5,315,195.5,319,191.5" style="stroke:#181818;stroke-width:1.0;"/><line style="stroke:#181818;stroke-width:1.0;" x1="145" x2="321" y1="191.5" y2="191.5"/><text fill="#000000" font-family="sans-serif" font-size="13" font-weight="bold" lengthAdjust="spacing" textLength="9" x="152" y="186.4341">2</text><text fill="#000000" font-family="sans-serif" font-size="13" lengthAdjust="spacing" textLength="145" x="165" y="186.4341">Require authentication</text><polygon fill="#181818" points="156,216.6328,146,220.6328,156,224.6328,152,220.6328" style="stroke:#181818;stroke-width:1.0;"/><line style="stroke:#181818;stroke-width:1.0;" x1="150" x2="326" y1="220.6328" y2="220.6328"/><text fill="#000000" font-family="sans-serif" font-size="13" font-weight="bold" lengthAdjust="spacing" textLength="8" x="162" y="215.5669">3</text><text fill="#000000" font-family="sans-serif" font-size="13" lengthAdjust="spacing" textLength="103" x="174" y="215.5669">Is authenticated</text><path d="M87,235.6328 L153,235.6328 L153,242.7656 L143,252.7656 L87,252.7656 L87,235.6328 " fill="#EEEEEE" style="stroke:#000000;stroke-width:1.5;"/><rect fill="none" height="198.4063" style="stroke:#000000;stroke-width:1.5;" width="512" x="87" y="235.6328"/><text fill="#000000" font-family="sans-serif" font-size="13" font-weight="bold" lengthAdjust="spacing" textLength="21" x="102" y="248.6997">alt</text><text fill="#000000" font-family="sans-serif" font-size="11" font-weight="bold" lengthAdjust="spacing" textLength="47" x="168" y="247.8433">[proxy]</text><polygon fill="#181818" points="409.5,269.8984,419.5,273.8984,409.5,277.8984,413.5,273.8984" style="stroke:#181818;stroke-width:1.0;"/><line style="stroke:#181818;stroke-width:1.0;" x1="145" x2="415.5" y1="273.8984" y2="273.8984"/><text fill="#000000" font-family="sans-serif" font-size="13" font-weight="bold" lengthAdjust="spacing" textLength="9" x="152" y="268.8325">4</text><text fill="#000000" font-family="sans-serif" font-size="13" lengthAdjust="spacing" textLength="87" x="165" y="268.8325">Pass Request</text><polygon fill="#181818" points="156,299.0313,146,303.0313,156,307.0313,152,303.0313" style="stroke:#181818;stroke-width:1.0;"/><line style="stroke:#181818;stroke-width:1.0;stroke-dasharray:2.0,2.0;" x1="150" x2="420.5" y1="303.0313" y2="303.0313"/><text fill="#000000" font-family="sans-serif" font-size="13" font-weight="bold" lengthAdjust="spacing" textLength="9" x="162" y="297.9653">5</text><text fill="#000000" font-family="sans-serif" font-size="13" lengthAdjust="spacing" textLength="97" x="175" y="297.9653">Pass Response</text><line style="stroke:#000000;stroke-width:1.0;stroke-dasharray:2.0,2.0;" x1="87" x2="599" y1="312.0313" y2="312.0313"/><text fill="#000000" font-family="sans-serif" font-size="11" font-weight="bold" lengthAdjust="spacing" textLength="80" x="92" y="322.2417">[schema('s)]</text><polygon fill="#181818" points="512,342.9688,522,346.9688,512,350.9688,516,346.9688" style="stroke:#181818;stroke-width:1.0;"/><line style="stroke:#181818;stroke-width:1.0;" x1="145" x2="518" y1="346.9688" y2="346.9688"/><text fill="#000000" font-family="sans-serif" font-size="13" font-weight="bold" lengthAdjust="spacing" textLength="9" x="152" y="341.9028">6</text><text fill="#000000" font-family="sans-serif" font-size="13" lengthAdjust="spacing" textLength="87" x="165" y="341.9028">Pass Request</text><polygon fill="#181818" points="156,372.1016,146,376.1016,156,380.1016,152,376.1016" style="stroke:#181818;stroke-width:1.0;"/><line style="stroke:#181818;stroke-width:1.0;stroke-dasharray:2.0,2.0;" x1="150" x2="523" y1="376.1016" y2="376.1016"/><text fill="#000000" font-family="sans-serif" font-size="13" font-weight="bold" lengthAdjust="spacing" textLength="9" x="162" y="371.0356">7</text><text fill="#000000" font-family="sans-serif" font-size="13" lengthAdjust="spacing" textLength="80" x="175" y="371.0356">Get Request</text><line style="stroke:#000000;stroke-width:1.0;stroke-dasharray:2.0,2.0;" x1="87" x2="599" y1="385.1016" y2="385.1016"/><text fill="#000000" font-family="sans-serif" font-size="11" font-weight="bold" lengthAdjust="spacing" textLength="161" x="92" y="395.312">[no proxy or schema('s)]</text><path d="M97,403.9063 L97,428.9063 L192,428.9063 L192,413.9063 L182,403.9063 L97,403.9063 " fill="#FEFFDD" style="stroke:#181818;stroke-width:0.5;"/><path d="M182,403.9063 L182,413.9063 L192,413.9063 L182,403.9063 " fill="#FEFFDD" style="stroke:#181818;stroke-width:0.5;"/><text fill="#000000" font-family="sans-serif" font-size="13" lengthAdjust="spacing" textLength="74" x="103" y="420.9731">Do nothing.</text><polygon fill="#181818" points="621.5,458.1719,631.5,462.1719,621.5,466.1719,625.5,462.1719" style="stroke:#181818;stroke-width:1.0;"/><line style="stroke:#181818;stroke-width:1.0;" x1="145" x2="627.5" y1="462.1719" y2="462.1719"/><text fill="#000000" font-family="sans-serif" font-size="13" font-weight="bold" lengthAdjust="spacing" textLength="9" x="152" y="457.106">8</text><text fill="#000000" font-family="sans-serif" font-size="13" lengthAdjust="spacing" textLength="88" x="165" y="457.106">Throw events</text><polygon fill="#181818" points="56,487.3047,46,491.3047,56,495.3047,52,491.3047" style="stroke:#181818;stroke-width:1.0;"/><line style="stroke:#181818;stroke-width:1.0;stroke-dasharray:2.0,2.0;" x1="50" x2="144" y1="491.3047" y2="491.3047"/><text fill="#000000" font-family="sans-serif" font-size="13" font-weight="bold" lengthAdjust="spacing" textLength="9" x="62" y="486.2388">9</text><text fill="#000000" font-family="sans-serif" font-size="13" lengthAdjust="spacing" textLength="63" x="75" y="486.2388">Response</text><text fill="#888888" font-family="sans-serif" font-size="10" lengthAdjust="spacing" textLength="49" x="623" y="14.2822">Requests</text><text fill="#888888" font-family="sans-serif" font-size="10" lengthAdjust="spacing" textLength="163" x="254.5" y="594.8838">Common Gateway | Endpoints</text><!--SRC=[NL91JiGm3Bpd5Ru1X-K1FI0XM04tnF81Rsfef3HU4cUNIZoUjDccRN9AnfEnnxOOiTJ0AxhM6lSDncdknukddqX1WlfY5l8DF77ViuCN5BhW07-mT-s9ZKkKZh0TAH_p7up2BlP7yagX5lQGpvL0ynimB9WwSdGj-c4CpEAmOiwOqkp4ivtmnoWTEJ4QnQJo9k8MK-DLXYnpuEWr0QnrCvPKhIKz_YX57SYVpKJ76bFf4MUX_Jdb25lLZ2crUDuz50kbLweOJT7QIsOPJu1RHnLn9Jn-UWjhFhKAhS39y- -WDkdcNZJmZg7uKrTujrOjb71AxI55DX04tL6FjpVXRYDRzwwIhyDLdXUIGfsoECwrGzgYLKQNjXBudDgwzFIP4rkwjBxtQUZjrcsUHmEVdUSBK9xEGbWApvkSZVu3]--></g></svg>