<?xml version="1.0" encoding="us-ascii" standalone="no"?><svg xmlns="http://www.w3.org/2000/svg" xmlns:xlink="http://www.w3.org/1999/xlink" contentStyleType="text/css" height="659px" preserveAspectRatio="none" style="width:1527px;height:659px;background:#FFFFFF;" version="1.1" viewBox="0 0 1527 659" width="1527px" zoomAndPan="magnify"><defs/><g><text fill="#000000" font-family="sans-serif" font-size="14" font-weight="bold" lengthAdjust="spacing" textLength="313" x="600.4708" y="22.9951">Determining the Current State of Data</text><g id="footer"><rect fill="#F1F1F1" height="50.2656" rx="12.5" ry="12.5" style="stroke:#181818;stroke-width:0.5;" width="244" x="91.945" y="44.2969"/><line style="stroke:#181818;stroke-width:0.5;" x1="91.945" x2="335.945" y1="70.5938" y2="70.5938"/><text fill="#000000" font-family="sans-serif" font-size="14" lengthAdjust="spacing" textLength="46" x="190.945" y="62.292">footer</text><text fill="#000000" font-family="sans-serif" font-size="12" lengthAdjust="spacing" textLength="224" x="96.945" y="86.7324">Common Gateway | Synchronizations</text></g><g id="header"><rect fill="#F1F1F1" height="50.2656" rx="12.5" ry="12.5" style="stroke:#181818;stroke-width:0.5;" width="122" x="370.9446" y="44.2969"/><line style="stroke:#181818;stroke-width:0.5;" x1="370.9446" x2="492.9446" y1="70.5938" y2="70.5938"/><text fill="#000000" font-family="sans-serif" font-size="14" lengthAdjust="spacing" textLength="50" x="406.9446" y="62.292">header</text><text fill="#000000" font-family="sans-serif" font-size="12" lengthAdjust="spacing" textLength="102" x="375.9446" y="86.7324">Synchronizations</text></g><ellipse cx="537.9446" cy="69.2969" fill="#181818" rx="10" ry="10" style="stroke:none;stroke-width:1.0;"/><g id="ObjectNotExistsInSource"><rect fill="#F1F1F1" height="78.2031" rx="12.5" ry="12.5" style="stroke:#181818;stroke-width:0.5;" width="219" x="125.445" y="171.2969"/><line style="stroke:#181818;stroke-width:0.5;" x1="125.445" x2="344.445" y1="197.5938" y2="197.5938"/><text fill="#000000" font-family="sans-serif" font-size="14" lengthAdjust="spacing" textLength="179" x="145.445" y="189.292">ObjectNotExistsInSource</text><text fill="#000000" font-family="sans-serif" font-size="12" lengthAdjust="spacing" textLength="118" x="130.445" y="213.7324">decide if the object</text><text fill="#000000" font-family="sans-serif" font-size="12" lengthAdjust="spacing" textLength="199" x="130.445" y="227.7012">should be deleted from Gateway</text><text fill="#000000" font-family="sans-serif" font-size="12" lengthAdjust="spacing" textLength="118" x="130.445" y="241.6699">or added to source</text></g><path d="M689.9446,500.2969 L861.9446,500.2969 A12.5,12.5 0 0 1 874.4446,512.7969 L874.4446,526.5938 L677.4446,526.5938 L677.4446,512.7969 A12.5,12.5 0 0 1 689.9446,500.2969 " fill="#F1F1F1" style="stroke:#F1F1F1;stroke-width:1.0;"/><rect fill="none" height="153.5625" rx="12.5" ry="12.5" style="stroke:#181818;stroke-width:0.5;" width="197" x="677.4446" y="500.2969"/><line style="stroke:#181818;stroke-width:0.5;" x1="677.4446" x2="874.4446" y1="526.5938" y2="526.5938"/><text fill="#000000" font-family="sans-serif" font-size="14" lengthAdjust="spacing" textLength="83" x="734.4446" y="518.292">ObjectSync</text><ellipse cx="777.4446" cy="547.5938" fill="#181818" rx="10" ry="10" style="stroke:none;stroke-width:1.0;"/><g id="ObjectSync.ObjectSynced"><rect fill="#F1F1F1" height="50.2656" rx="12.5" ry="12.5" style="stroke:#181818;stroke-width:0.5;" width="176" x="689.4446" y="593.5938"/><line style="stroke:#181818;stroke-width:0.5;" x1="689.4446" x2="865.4446" y1="619.8906" y2="619.8906"/><text fill="#000000" font-family="sans-serif" font-size="14" lengthAdjust="spacing" textLength="101" x="726.9446" y="611.5889">ObjectSynced</text><text fill="#000000" font-family="sans-serif" font-size="12" lengthAdjust="spacing" textLength="156" x="694.4446" y="636.0293">Objects are synchronized</text></g><!--link *start*ObjectSync to ObjectSynced--><g id="link_*start*ObjectSync_ObjectSynced"><path d="M777.4446,557.6143 C777.4446,565.4705 777.4446,577.3094 777.4446,588.3991 " fill="none" id="*start*ObjectSync-to-ObjectSynced" style="stroke:#181818;stroke-width:1.0;"/><polygon fill="#181818" points="777.4446,593.4246,781.4446,584.4246,777.4446,588.4246,773.4446,584.4246,777.4446,593.4246" style="stroke:#181818;stroke-width:1.0;"/></g><ellipse cx="234.9446" cy="391.2969" fill="none" rx="10" ry="10" style="stroke:#181818;stroke-width:1.0;"/><ellipse cx="235.4446" cy="391.7969" fill="#181818" rx="6" ry="6" style="stroke:none;stroke-width:1.0;"/><g id="ObjectNotExistsInGateway"><rect fill="#F1F1F1" height="50.2656" rx="12.5" ry="12.5" style="stroke:#181818;stroke-width:0.5;" width="212" x="431.9446" y="279.2969"/><line style="stroke:#181818;stroke-width:0.5;" x1="431.9446" x2="643.9446" y1="305.5938" y2="305.5938"/><text fill="#000000" font-family="sans-serif" font-size="14" lengthAdjust="spacing" textLength="192" x="441.9446" y="297.292">ObjectNotExistsInGateway</text><text fill="#000000" font-family="sans-serif" font-size="12" lengthAdjust="spacing" textLength="160" x="436.9446" y="321.7324">add the object to Gateway</text></g><g id="ObjectExistsBoth"><rect fill="#F1F1F1" height="50.2656" rx="12.5" ry="12.5" style="stroke:#181818;stroke-width:0.5;" width="217" x="819.4446" y="185.2969"/><line style="stroke:#181818;stroke-width:0.5;" x1="819.4446" x2="1036.4446" y1="211.5938" y2="211.5938"/><text fill="#000000" font-family="sans-serif" font-size="14" lengthAdjust="spacing" textLength="126" x="864.9446" y="203.292">ObjectExistsBoth</text><text fill="#000000" font-family="sans-serif" font-size="12" lengthAdjust="spacing" textLength="197" x="824.4446" y="227.7324">establish which version is newer</text></g><g id="GatewayVersionNewer"><rect fill="#F1F1F1" height="50.2656" rx="12.5" ry="12.5" style="stroke:#181818;stroke-width:0.5;" width="251" x="516.4446" y="366.2969"/><line style="stroke:#181818;stroke-width:0.5;" x1="516.4446" x2="767.4446" y1="392.5938" y2="392.5938"/><text fill="#000000" font-family="sans-serif" font-size="14" lengthAdjust="spacing" textLength="161" x="561.4446" y="384.292">GatewayVersionNewer</text><text fill="#000000" font-family="sans-serif" font-size="12" lengthAdjust="spacing" textLength="231" x="521.4446" y="408.7324">update source with Gateway's version</text></g><g id="SourceVersionNewer"><rect fill="#F1F1F1" height="50.2656" rx="12.5" ry="12.5" style="stroke:#181818;stroke-width:0.5;" width="251" x="802.4446" y="366.2969"/><line style="stroke:#181818;stroke-width:0.5;" x1="802.4446" x2="1053.4446" y1="392.5938" y2="392.5938"/><text fill="#000000" font-family="sans-serif" font-size="14" lengthAdjust="spacing" textLength="148" x="853.9446" y="384.292">SourceVersionNewer</text><text fill="#000000" font-family="sans-serif" font-size="12" lengthAdjust="spacing" textLength="231" x="807.4446" y="408.7324">update Gateway with source's version</text></g><g id="VersionsSame"><rect fill="#F1F1F1" height="50" rx="12.5" ry="12.5" style="stroke:#181818;stroke-width:0.5;" width="121" x="1088.4416" y="366.2969"/><line style="stroke:#181818;stroke-width:0.5;" x1="1088.4416" x2="1209.4416" y1="392.5938" y2="392.5938"/><text fill="#000000" font-family="sans-serif" font-size="14" lengthAdjust="spacing" textLength="101" x="1098.4416" y="384.292">VersionsSame</text></g><g id="CannotDetermineVersion"><rect fill="#F1F1F1" height="64.2344" rx="12.5" ry="12.5" style="stroke:#181818;stroke-width:0.5;" width="204" x="1244.9416" y="359.2969"/><line style="stroke:#181818;stroke-width:0.5;" x1="1244.9416" x2="1448.9416" y1="385.5938" y2="385.5938"/><text fill="#000000" font-family="sans-serif" font-size="14" lengthAdjust="spacing" textLength="184" x="1254.9416" y="377.292">CannotDetermineVersion</text><text fill="#000000" font-family="sans-serif" font-size="12" lengthAdjust="spacing" textLength="175" x="1249.9416" y="401.7324">assume which party is "right"</text><text fill="#000000" font-family="sans-serif" font-size="12" lengthAdjust="spacing" textLength="181" x="1249.9416" y="415.7012">and determine source of truth</text></g><!--link *start* to ObjectNotExistsInSource--><g id="link_*start*_ObjectNotExistsInSource"><path d="M532.0856,77.4349 C527.0836,83.0009 519.3766,90.4159 510.9446,94.2969 C421.7036,135.3759 375.2796,72.2689 291.9446,124.2969 C275.8266,134.3599 263.2276,150.8499 254.0206,166.6399 " fill="none" id="*start*-to-ObjectNotExistsInSource" style="stroke:#181818;stroke-width:1.0;"/><polygon fill="#181818" points="251.5136,171.0689,259.4278,165.2067,253.9764,166.7175,252.4656,161.2661,251.5136,171.0689" style="stroke:#181818;stroke-width:1.0;"/><text fill="#000000" font-family="sans-serif" font-size="13" lengthAdjust="spacing" textLength="201" x="292.9446" y="137.3638">Object only exists on Datalayer</text></g><!--link ObjectNotExistsInSource to ObjectSync--><g id="link_ObjectNotExistsInSource_ObjectSync"><path d="M163.8936,249.3929 C94.4748,291.5279 6,361.6229 55.945,423.2969 C132.3364,517.6269 491.8376,556.2105 672.2046,569.8383 " fill="none" id="ObjectNotExistsInSource-to-ObjectSync" style="stroke:#181818;stroke-width:1.0;"/><polygon fill="#181818" points="677.2236,570.2146,668.5483,565.5521,672.2376,569.8403,667.9494,573.5296,677.2236,570.2146" style="stroke:#181818;stroke-width:1.0;"/><text fill="#000000" font-family="sans-serif" font-size="13" lengthAdjust="spacing" textLength="149" x="56.945" y="395.8638">Object added to source</text></g><!--link ObjectNotExistsInSource to *end*--><g id="link_ObjectNotExistsInSource_*end*"><path d="M226.9766,249.6209 C225.3046,259.2639 223.7916,269.6239 222.9446,279.2969 C221.0066,301.4349 220.7906,307.1789 222.9446,329.2969 C224.5386,345.6519 228.4806,364.1289 231.4146,376.4199 " fill="none" id="ObjectNotExistsInSource-to-*end*" style="stroke:#181818;stroke-width:1.0;"/><polygon fill="#181818" points="232.6006,381.2839,234.3548,371.5925,231.4162,376.4262,226.5825,373.4876,232.6006,381.2839" style="stroke:#181818;stroke-width:1.0;"/><text fill="#000000" font-family="sans-serif" font-size="13" lengthAdjust="spacing" textLength="190" x="223.9446" y="308.8638">Object deleted from Gateway</text></g><!--link *start* to ObjectNotExistsInGateway--><g id="link_*start*_ObjectNotExistsInGateway"><path d="M537.9446,79.4309 C537.9446,111.6429 537.9446,220.8539 537.9446,273.8999 " fill="none" id="*start*-to-ObjectNotExistsInGateway" style="stroke:#181818;stroke-width:1.0;"/><polygon fill="#181818" points="537.9446,279.1609,541.9446,270.1609,537.9446,274.1609,533.9446,270.1609,537.9446,279.1609" style="stroke:#181818;stroke-width:1.0;"/><text fill="#000000" font-family="sans-serif" font-size="13" lengthAdjust="spacing" textLength="181" x="538.9446" y="137.3638">Object only exists on source</text></g><!--link ObjectNotExistsInGateway to ObjectSync--><g id="link_ObjectNotExistsInGateway_ObjectSync"><path d="M431.8446,327.3529 C385.3396,338.0879 339.6996,350.5329 332.9446,359.2969 C315.5816,381.8269 316.4376,400.1319 332.9446,423.2969 C409.5636,530.8179 567.0276,563.5054 672.0706,573.027 " fill="none" id="ObjectNotExistsInGateway-to-ObjectSync" style="stroke:#181818;stroke-width:1.0;"/><polygon fill="#181818" points="677.3456,573.4896,668.7298,568.718,672.3647,573.0524,668.0303,576.6874,677.3456,573.4896" style="stroke:#181818;stroke-width:1.0;"/><text fill="#000000" font-family="sans-serif" font-size="13" lengthAdjust="spacing" textLength="164" x="333.9446" y="395.8638">Object added to Gateway</text></g><!--link *start* to ObjectExistsBoth--><g id="link_*start*_ObjectExistsBoth"><path d="M547.6206,72.5659 C575.8976,79.2969 660.7136,100.1909 728.9446,124.2969 C778.1316,141.6739 832.5066,165.2079 871.9706,183.1069 " fill="none" id="*start*-to-ObjectExistsBoth" style="stroke:#181818;stroke-width:1.0;"/><polygon fill="#181818" points="876.7076,185.2609,870.1711,177.8938,872.1562,183.1909,866.8591,185.176,876.7076,185.2609" style="stroke:#181818;stroke-width:1.0;"/><text fill="#000000" font-family="sans-serif" font-size="13" lengthAdjust="spacing" textLength="136" x="773.9446" y="137.3638">Object exists on both</text></g><!--link ObjectExistsBoth to GatewayVersionNewer--><g id="link_ObjectExistsBoth_GatewayVersionNewer"><path d="M843.7776,235.3589 C813.1526,246.1989 779.1566,260.7879 750.9446,279.2969 C716.3626,301.9859 684.1496,337.2509 663.8456,361.9269 " fill="none" id="ObjectExistsBoth-to-GatewayVersionNewer" style="stroke:#181818;stroke-width:1.0;"/><polygon fill="#181818" points="660.4436,366.0979,669.2318,361.6518,663.6039,362.2233,663.0324,356.5953,660.4436,366.0979" style="stroke:#181818;stroke-width:1.0;"/><text fill="#000000" font-family="sans-serif" font-size="13" lengthAdjust="spacing" textLength="167" x="751.9446" y="308.8638">Gateway version is newer</text></g><!--link GatewayVersionNewer to ObjectSync--><g id="link_GatewayVersionNewer_ObjectSync"><path d="M659.4636,416.3519 C674.2716,436.6849 696.3656,467.0229 717.3436,495.8289 " fill="none" id="GatewayVersionNewer-to-ObjectSync" style="stroke:#181818;stroke-width:1.0;"/><polygon fill="#181818" points="720.4296,500.0669,718.3653,490.4368,717.4864,496.0249,711.8982,495.146,720.4296,500.0669" style="stroke:#181818;stroke-width:1.0;"/><text fill="#000000" font-family="sans-serif" font-size="13" lengthAdjust="spacing" textLength="101" x="696.9446" y="466.3638">Source updated</text></g><!--link ObjectExistsBoth to SourceVersionNewer--><g id="link_ObjectExistsBoth_SourceVersionNewer"><path d="M927.9446,235.4379 C927.9446,267.9569 927.9446,325.7879 927.9446,360.8319 " fill="none" id="ObjectExistsBoth-to-SourceVersionNewer" style="stroke:#181818;stroke-width:1.0;"/><polygon fill="#181818" points="927.9446,366.2539,931.9446,357.2539,927.9446,361.2539,923.9446,357.2539,927.9446,366.2539" style="stroke:#181818;stroke-width:1.0;"/><text fill="#000000" font-family="sans-serif" font-size="13" lengthAdjust="spacing" textLength="153" x="928.9446" y="308.8638">Source version is newer</text></g><!--link SourceVersionNewer to ObjectSync--><g id="link_SourceVersionNewer_ObjectSync"><path d="M908.0736,416.3519 C891.2076,436.7689 866.0086,467.2719 842.1256,496.1829 " fill="none" id="SourceVersionNewer-to-ObjectSync" style="stroke:#181818;stroke-width:1.0;"/><polygon fill="#181818" points="838.9176,500.0669,847.7336,495.6762,842.1022,496.2122,841.5661,490.5808,838.9176,500.0669" style="stroke:#181818;stroke-width:1.0;"/><text fill="#000000" font-family="sans-serif" font-size="13" lengthAdjust="spacing" textLength="115" x="874.9446" y="466.3638">Gateway updated</text></g><!--link ObjectExistsBoth to VersionsSame--><g id="link_ObjectExistsBoth_VersionsSame"><path d="M1016.4806,235.4509 C1042.6716,245.7769 1069.9316,260.0209 1090.9416,279.2969 C1115.2816,301.6189 1131.1516,336.5229 1140.0416,361.2229 " fill="none" id="ObjectExistsBoth-to-VersionsSame" style="stroke:#181818;stroke-width:1.0;"/><polygon fill="#181818" points="1141.7316,366.0209,1142.5206,356.2037,1140.0735,361.3038,1134.9733,358.8567,1141.7316,366.0209" style="stroke:#181818;stroke-width:1.0;"/><text fill="#000000" font-family="sans-serif" font-size="13" lengthAdjust="spacing" textLength="145" x="1126.9416" y="308.8638">Versions are the same</text></g><!--link VersionsSame to ObjectSync--><g id="link_VersionsSame_ObjectSync"><path d="M1103.5416,416.4459 C1073.9016,432.0749 1034.2916,452.7129 998.9446,470.2969 C960.0366,489.6529 916.9716,510.3019 879.1456,528.1849 " fill="none" id="VersionsSame-to-ObjectSync" style="stroke:#181818;stroke-width:1.0;"/><polygon fill="#181818" points="874.5596,530.3509,884.4058,530.1238,879.0806,528.2154,880.989,522.8901,874.5596,530.3509" style="stroke:#181818;stroke-width:1.0;"/><text fill="#000000" font-family="sans-serif" font-size="13" lengthAdjust="spacing" textLength="117" x="1032.9446" y="466.3638">No action required</text></g><!--link ObjectExistsBoth to CannotDetermineVersion--><g id="link_ObjectExistsBoth_CannotDetermineVersion"><path d="M1036.6066,222.4019 C1125.3516,233.2349 1242.1916,252.0789 1280.9416,279.2969 C1306.8316,297.4789 1324.2316,329.3369 1334.6316,354.2729 " fill="none" id="ObjectExistsBoth-to-CannotDetermineVersion" style="stroke:#181818;stroke-width:1.0;"/><polygon fill="#181818" points="1336.6216,359.1609,1336.9355,349.317,1334.7376,354.5294,1329.5252,352.3315,1336.6216,359.1609" style="stroke:#181818;stroke-width:1.0;"/><text fill="#000000" font-family="sans-serif" font-size="13" lengthAdjust="spacing" textLength="198" x="1321.9416" y="308.8638">Can't determine newer version</text></g><!--link CannotDetermineVersion to ObjectSync--><g id="link_CannotDetermineVersion_ObjectSync"><path d="M1277.6516,423.4489 C1242.4916,438.6389 1198.8716,456.5479 1158.9416,470.2969 C1065.7516,502.3889 957.2946,531.6739 879.6336,551.2909 " fill="none" id="CannotDetermineVersion-to-ObjectSync" style="stroke:#181818;stroke-width:1.0;"/><polygon fill="#181818" points="874.5636,552.5689,884.2681,554.2491,879.4121,551.3475,882.3138,546.4915,874.5636,552.5689" style="stroke:#181818;stroke-width:1.0;"/><text fill="#000000" font-family="sans-serif" font-size="13" lengthAdjust="spacing" textLength="174" x="1200.9416" y="466.3638">Source of truth determined</text></g><!--SRC=[bLInRjmm3Dtz5KIM00No0nawv58KNQx30Lbo7NGMBr9XYwb4v-ga_VTIbdNsrLQARfRutkCZJP4jDmZtoEXRwwnx0ZO8cyvxT0mxLen0HxXNhAeZaS1kOKDjImu-I-oaUlW5kzxLnfEphuejkL0PL3eY5u7gySCtkBdv25yFtx7cBV6ddpPm-E9srFaQuNQC0Bcc1no2yZqOQ5IFlghAL8srrGZsE1H10sxlWg6kqN10YJTIg8QZfpRRtploeBIMQoO8WrGvnsGzbZQv_I-1s8CpSytJEstAJI_rgPX_8ehNMN-YwNFQ8kkVTHUS9vqxOZDn9hC7kSz9Bv0OM1qQ6moSZAqDlA0FCZzW0pWyJKCm8yMSeuc7XDv6f8Zb6fOYw_ZkMSUfJvs4anNn4NWTiiWwTz6byQSdHLrmdK1_cHYPIy-hwD5ohdJmdFpFBQzG5uwpnFkMHusmKsryT_a8okCmMa7kg-e2jSYq9L1rt0hWyKTdVJ7PHZb7d5TKzYyA4hYE3sWCf0vDvHPvAeHE7ANHUbQU-zZVAs-V35_jdN9w9ZgEWUn0zbqSru9iwTzduYGfTOPXhyxWRnN0vSk9rmA5Y-Fv4QLMX_Dw5UJlFm00]--></g></svg>