<?xml version="1.0" encoding="us-ascii" standalone="no"?><svg xmlns="http://www.w3.org/2000/svg" xmlns:xlink="http://www.w3.org/1999/xlink" contentStyleType="text/css" height="788px" preserveAspectRatio="none" style="width:1491px;height:788px;background:#FFFFFF;" version="1.1" viewBox="0 0 1491 788" width="1491px" zoomAndPan="magnify"><defs/><g><text fill="#000000" font-family="sans-serif" font-size="14" font-weight="bold" lengthAdjust="spacing" textLength="313" x="582.1634" y="22.9951">Determining the Current State of Data</text><ellipse cx="486.3238" cy="53.2969" fill="#181818" rx="10" ry="10" style="stroke:none;stroke-width:1.0;"/><g id="ObjectNotExistsInSource"><rect fill="#F1F1F1" height="78.2031" rx="12.5" ry="12.5" style="stroke:#181818;stroke-width:0.5;" width="219" x="133.8238" y="140.2969"/><line style="stroke:#181818;stroke-width:0.5;" x1="133.8238" x2="352.8238" y1="166.5938" y2="166.5938"/><text fill="#000000" font-family="sans-serif" font-size="14" lengthAdjust="spacing" textLength="179" x="153.8238" y="158.292">ObjectNotExistsInSource</text><text fill="#000000" font-family="sans-serif" font-size="12" lengthAdjust="spacing" textLength="118" x="138.8238" y="182.7324">decide if the object</text><text fill="#000000" font-family="sans-serif" font-size="12" lengthAdjust="spacing" textLength="199" x="138.8238" y="196.7012">should be deleted from Gateway</text><text fill="#000000" font-family="sans-serif" font-size="12" lengthAdjust="spacing" textLength="118" x="138.8238" y="210.6699">or added to source</text></g><path d="M598.3238,629.2969 L770.3238,629.2969 A12.5,12.5 0 0 1 782.8238,641.7969 L782.8238,655.5938 L585.8238,655.5938 L585.8238,641.7969 A12.5,12.5 0 0 1 598.3238,629.2969 " fill="#F1F1F1" style="stroke:#F1F1F1;stroke-width:1.0;"/><rect fill="none" height="153.5625" rx="12.5" ry="12.5" style="stroke:#181818;stroke-width:0.5;" width="197" x="585.8238" y="629.2969"/><line style="stroke:#181818;stroke-width:0.5;" x1="585.8238" x2="782.8238" y1="655.5938" y2="655.5938"/><text fill="#000000" font-family="sans-serif" font-size="14" lengthAdjust="spacing" textLength="83" x="642.8238" y="647.292">ObjectSync</text><ellipse cx="685.8238" cy="676.5938" fill="#181818" rx="10" ry="10" style="stroke:none;stroke-width:1.0;"/><g id="ObjectSync.ObjectSynced"><rect fill="#F1F1F1" height="50.2656" rx="12.5" ry="12.5" style="stroke:#181818;stroke-width:0.5;" width="176" x="597.8238" y="722.5938"/><line style="stroke:#181818;stroke-width:0.5;" x1="597.8238" x2="773.8238" y1="748.8906" y2="748.8906"/><text fill="#000000" font-family="sans-serif" font-size="14" lengthAdjust="spacing" textLength="101" x="635.3238" y="740.5889">ObjectSynced</text><text fill="#000000" font-family="sans-serif" font-size="12" lengthAdjust="spacing" textLength="156" x="602.8238" y="765.0293">Objects are synchronized</text></g><!--link *start*ObjectSync to ObjectSynced--><g id="link_*start*ObjectSync_ObjectSynced"><path d="M685.8238,686.6143 C685.8238,694.4705 685.8238,706.3094 685.8238,717.3991 " fill="none" id="*start*ObjectSync-to-ObjectSynced" style="stroke:#181818;stroke-width:1.0;"/><polygon fill="#181818" points="685.8238,722.4246,689.8238,713.4246,685.8238,717.4246,681.8238,713.4246,685.8238,722.4246" style="stroke:#181818;stroke-width:1.0;"/></g><ellipse cx="30.3238" cy="360.2969" fill="none" rx="10" ry="10" style="stroke:#181818;stroke-width:1.0;"/><ellipse cx="30.8238" cy="360.7969" fill="#181818" rx="6" ry="6" style="stroke:none;stroke-width:1.0;"/><g id="ObjectNotExistsInGateway"><rect fill="#F1F1F1" height="50.2656" rx="12.5" ry="12.5" style="stroke:#181818;stroke-width:0.5;" width="212" x="379.3238" y="248.2969"/><line style="stroke:#181818;stroke-width:0.5;" x1="379.3238" x2="591.3238" y1="274.5938" y2="274.5938"/><text fill="#000000" font-family="sans-serif" font-size="14" lengthAdjust="spacing" textLength="192" x="389.3238" y="266.292">ObjectNotExistsInGateway</text><text fill="#000000" font-family="sans-serif" font-size="12" lengthAdjust="spacing" textLength="160" x="384.3238" y="290.7324">add the object to Gateway</text></g><g id="ObjectExistsBoth"><rect fill="#F1F1F1" height="50.2656" rx="12.5" ry="12.5" style="stroke:#181818;stroke-width:0.5;" width="217" x="865.8238" y="154.2969"/><line style="stroke:#181818;stroke-width:0.5;" x1="865.8238" x2="1082.8238" y1="180.5938" y2="180.5938"/><text fill="#000000" font-family="sans-serif" font-size="14" lengthAdjust="spacing" textLength="126" x="911.3238" y="172.292">ObjectExistsBoth</text><text fill="#000000" font-family="sans-serif" font-size="12" lengthAdjust="spacing" textLength="197" x="870.8238" y="196.7324">establish which version is newer</text></g><g id="GatewayVersionNewer"><rect fill="#F1F1F1" height="50.2656" rx="12.5" ry="12.5" style="stroke:#181818;stroke-width:0.5;" width="251" x="558.8238" y="502.2969"/><line style="stroke:#181818;stroke-width:0.5;" x1="558.8238" x2="809.8238" y1="528.5938" y2="528.5938"/><text fill="#000000" font-family="sans-serif" font-size="14" lengthAdjust="spacing" textLength="161" x="603.8238" y="520.292">GatewayVersionNewer</text><text fill="#000000" font-family="sans-serif" font-size="12" lengthAdjust="spacing" textLength="231" x="563.8238" y="544.7324">update source with Gateway's version</text></g><g id="SourceVersionNewer"><rect fill="#F1F1F1" height="50.2656" rx="12.5" ry="12.5" style="stroke:#181818;stroke-width:0.5;" width="251" x="856.8238" y="502.2969"/><line style="stroke:#181818;stroke-width:0.5;" x1="856.8238" x2="1107.8238" y1="528.5938" y2="528.5938"/><text fill="#000000" font-family="sans-serif" font-size="14" lengthAdjust="spacing" textLength="148" x="908.3238" y="520.292">SourceVersionNewer</text><text fill="#000000" font-family="sans-serif" font-size="12" lengthAdjust="spacing" textLength="231" x="861.8238" y="544.7324">update Gateway with source's version</text></g><g id="VersionsSame"><rect fill="#F1F1F1" height="50" rx="12.5" ry="12.5" style="stroke:#181818;stroke-width:0.5;" width="121" x="1282.8268" y="422.2969"/><line style="stroke:#181818;stroke-width:0.5;" x1="1282.8268" x2="1403.8268" y1="448.5938" y2="448.5938"/><text fill="#000000" font-family="sans-serif" font-size="14" lengthAdjust="spacing" textLength="101" x="1292.8268" y="440.292">VersionsSame</text></g><g id="CannotDetermineVersion"><rect fill="#F1F1F1" height="64.2344" rx="12.5" ry="12.5" style="stroke:#181818;stroke-width:0.5;" width="204" x="877.3238" y="328.2969"/><line style="stroke:#181818;stroke-width:0.5;" x1="877.3238" x2="1081.3238" y1="354.5938" y2="354.5938"/><text fill="#000000" font-family="sans-serif" font-size="14" lengthAdjust="spacing" textLength="184" x="887.3238" y="346.292">CannotDetermineVersion</text><text fill="#000000" font-family="sans-serif" font-size="12" lengthAdjust="spacing" textLength="175" x="882.3238" y="370.7324">assume which party is "right"</text><text fill="#000000" font-family="sans-serif" font-size="12" lengthAdjust="spacing" textLength="181" x="882.3238" y="384.7012">and determine source of truth</text></g><!--link *start* to ObjectNotExistsInSource--><g id="link_*start*_ObjectNotExistsInSource"><path d="M476.1078,54.2469 C433.5988,54.2729 271.4938,56.7959 240.3238,93.2969 C230.5888,104.6969 229.0468,120.4229 230.7308,135.2509 " fill="none" id="*start*-to-ObjectNotExistsInSource" style="stroke:#181818;stroke-width:1.0;"/><polygon fill="#181818" points="231.4188,140.2379,234.1521,130.7759,230.7359,135.2847,226.227,131.8685,231.4188,140.2379" style="stroke:#181818;stroke-width:1.0;"/><text fill="#000000" font-family="sans-serif" font-size="13" lengthAdjust="spacing" textLength="201" x="241.3238" y="106.3638">Object only exists on Datalayer</text></g><!--link ObjectNotExistsInSource to ObjectSync--><g id="link_ObjectNotExistsInSource_ObjectSync"><path d="M237.7158,218.4909 C231.0578,278.0119 226.6238,394.1629 278.3238,472.2969 C348.7758,578.7699 485.6528,642.3099 580.8988,675.5129 " fill="none" id="ObjectNotExistsInSource-to-ObjectSync" style="stroke:#181818;stroke-width:1.0;"/><polygon fill="#181818" points="585.6858,677.1689,578.4874,670.447,580.9604,675.5347,575.8727,678.0077,585.6858,677.1689" style="stroke:#181818;stroke-width:1.0;"/><text fill="#000000" font-family="sans-serif" font-size="13" lengthAdjust="spacing" textLength="197" x="279.3238" y="451.8638">Object added to source (POST)</text></g><!--link ObjectNotExistsInSource to *end*--><g id="link_ObjectNotExistsInSource_*end*"><path d="M133.7068,188.2419 C93.632,197.0969 52.0893,214.5369 27.3238,248.2969 C6,277.3659 17.4311,323.1979 25.1413,345.7899 " fill="none" id="ObjectNotExistsInSource-to-*end*" style="stroke:#181818;stroke-width:1.0;"/><polygon fill="#181818" points="26.9051,350.7549,27.6632,340.9352,25.2321,346.0431,20.1243,343.612,26.9051,350.7549" style="stroke:#181818;stroke-width:1.0;"/><text fill="#000000" font-family="sans-serif" font-size="13" lengthAdjust="spacing" textLength="190" x="28.3238" y="277.8638">Object deleted from Gateway</text></g><!--link *start* to ObjectNotExistsInGateway--><g id="link_*start*_ObjectNotExistsInGateway"><path d="M486.2818,63.3869 C486.1428,93.7869 485.6888,192.8069 485.4588,242.8209 " fill="none" id="*start*-to-ObjectNotExistsInGateway" style="stroke:#181818;stroke-width:1.0;"/><polygon fill="#181818" points="485.4348,248.0879,489.4759,239.1063,485.4576,243.0879,481.4759,239.0697,485.4348,248.0879" style="stroke:#181818;stroke-width:1.0;"/><text fill="#000000" font-family="sans-serif" font-size="13" lengthAdjust="spacing" textLength="181" x="487.3238" y="106.3638">Object only exists on source</text></g><!--link ObjectNotExistsInGateway to ObjectSync--><g id="link_ObjectNotExistsInGateway_ObjectSync"><path d="M482.7608,298.3769 C479.5308,336.2759 476.3708,411.7599 494.3238,472.2969 C511.6478,530.7129 552.6788,584.3019 592.1948,625.3199 " fill="none" id="ObjectNotExistsInGateway-to-ObjectSync" style="stroke:#181818;stroke-width:1.0;"/><polygon fill="#181818" points="596.0138,629.2499,592.6123,620.007,592.53,625.6633,586.8738,625.581,596.0138,629.2499" style="stroke:#181818;stroke-width:1.0;"/><text fill="#000000" font-family="sans-serif" font-size="13" lengthAdjust="spacing" textLength="164" x="495.3238" y="451.8638">Object added to Gateway</text></g><!--link *start* to ObjectExistsBoth--><g id="link_*start*_ObjectExistsBoth"><path d="M496.3268,56.0569 C524.7908,61.1269 608.6188,76.4779 677.3238,93.2969 C750.2888,111.1589 832.3158,134.9199 891.6488,152.7769 " fill="none" id="*start*-to-ObjectExistsBoth" style="stroke:#181818;stroke-width:1.0;"/><polygon fill="#181818" points="896.5978,154.2689,889.135,147.8418,891.8105,152.826,886.8263,155.5015,896.5978,154.2689" style="stroke:#181818;stroke-width:1.0;"/><text fill="#000000" font-family="sans-serif" font-size="13" lengthAdjust="spacing" textLength="136" x="744.3238" y="106.3638">Object exists on both</text></g><!--link ObjectExistsBoth to GatewayVersionNewer--><g id="link_ObjectExistsBoth_GatewayVersionNewer"><path d="M874.5718,204.3319 C810.1558,225.5119 731.0278,263.4219 690.3238,328.2969 C657.7218,380.2589 667.6388,455.9349 676.6508,497.0529 " fill="none" id="ObjectExistsBoth-to-GatewayVersionNewer" style="stroke:#181818;stroke-width:1.0;"/><polygon fill="#181818" points="677.7988,502.1349,679.7179,492.4748,676.6973,497.2577,671.9144,494.2371,677.7988,502.1349" style="stroke:#181818;stroke-width:1.0;"/><text fill="#000000" font-family="sans-serif" font-size="13" lengthAdjust="spacing" textLength="167" x="691.3238" y="364.8638">Gateway version is newer</text></g><!--link GatewayVersionNewer to ObjectSync--><g id="link_GatewayVersionNewer_ObjectSync"><path d="M684.3238,552.5369 C684.3238,571.0879 684.3238,597.8129 684.3238,623.7379 " fill="none" id="GatewayVersionNewer-to-ObjectSync" style="stroke:#181818;stroke-width:1.0;"/><polygon fill="#181818" points="684.3238,628.9099,688.3238,619.9099,684.3238,623.9099,680.3238,619.9099,684.3238,628.9099" style="stroke:#181818;stroke-width:1.0;"/><text fill="#000000" font-family="sans-serif" font-size="13" lengthAdjust="spacing" textLength="140" x="685.3238" y="595.3638">Source updated (PUT)</text></g><!--link ObjectExistsBoth to SourceVersionNewer--><g id="link_ObjectExistsBoth_SourceVersionNewer"><path d="M1082.8268,191.7869 C1118.1268,201.2709 1153.7468,218.2139 1175.3268,248.2969 C1189.8268,268.5199 1190.3668,452.4679 1175.3268,472.2969 C1166.3068,484.1869 1141.6568,494.1719 1112.8668,502.1939 " fill="none" id="ObjectExistsBoth-to-SourceVersionNewer" style="stroke:#181818;stroke-width:1.0;"/><polygon fill="#181818" points="1107.8268,503.5669,1117.5617,505.0606,1112.6509,502.2526,1115.4589,497.3419,1107.8268,503.5669" style="stroke:#181818;stroke-width:1.0;"/><text fill="#000000" font-family="sans-serif" font-size="13" lengthAdjust="spacing" textLength="153" x="1187.3268" y="364.8638">Source version is newer</text></g><!--link SourceVersionNewer to ObjectSync--><g id="link_SourceVersionNewer_ObjectSync"><path d="M941.8238,552.3519 C902.2758,575.8419 840.4548,612.5619 787.2988,644.1339 " fill="none" id="SourceVersionNewer-to-ObjectSync" style="stroke:#181818;stroke-width:1.0;"/><polygon fill="#181818" points="782.8368,646.7839,792.6172,645.6251,787.1352,644.2297,788.5305,638.7476,782.8368,646.7839" style="stroke:#181818;stroke-width:1.0;"/><text fill="#000000" font-family="sans-serif" font-size="13" lengthAdjust="spacing" textLength="115" x="887.3238" y="595.3638">Gateway updated</text></g><!--link ObjectExistsBoth to VersionsSame--><g id="link_ObjectExistsBoth_VersionsSame"><path d="M1083.1168,186.4079 C1176.7868,198.3539 1305.2968,232.4419 1360.3268,328.2969 C1375.9768,355.5589 1367.0668,392.0049 1357.2368,417.1429 " fill="none" id="ObjectExistsBoth-to-VersionsSame" style="stroke:#181818;stroke-width:1.0;"/><polygon fill="#181818" points="1355.2668,422.0139,1362.3541,415.1751,1357.1447,417.3799,1354.9398,412.1704,1355.2668,422.0139" style="stroke:#181818;stroke-width:1.0;"/><text fill="#000000" font-family="sans-serif" font-size="13" lengthAdjust="spacing" textLength="145" x="1338.3268" y="277.8638">Versions are the same</text></g><!--link VersionsSame to ObjectSync--><g id="link_VersionsSame_ObjectSync"><path d="M1294.7568,472.3949 C1250.8068,493.9779 1184.1468,526.1629 1125.3268,552.2969 C1075.2368,574.5479 1062.7668,580.3889 1011.3238,599.2969 C937.3518,626.4889 852.6798,653.8339 788.0318,673.9379 " fill="none" id="VersionsSame-to-ObjectSync" style="stroke:#181818;stroke-width:1.0;"/><polygon fill="#181818" points="783.0208,675.4949,792.8021,676.6462,787.7959,674.0122,790.4298,669.006,783.0208,675.4949" style="stroke:#181818;stroke-width:1.0;"/><text fill="#000000" font-family="sans-serif" font-size="13" lengthAdjust="spacing" textLength="117" x="1232.3268" y="531.8638">No action required</text></g><!--link ObjectExistsBoth to CannotDetermineVersion--><g id="link_ObjectExistsBoth_CannotDetermineVersion"><path d="M972.4138,204.7299 C970.8518,228.6109 969.2138,265.9869 971.3238,298.2969 C971.8478,306.3289 972.7568,314.9179 973.7788,323.0399 " fill="none" id="ObjectExistsBoth-to-CannotDetermineVersion" style="stroke:#181818;stroke-width:1.0;"/><polygon fill="#181818" points="974.4268,328.0279,977.2311,318.5867,973.7811,323.0697,969.2981,319.6198,974.4268,328.0279" style="stroke:#181818;stroke-width:1.0;"/><text fill="#000000" font-family="sans-serif" font-size="13" lengthAdjust="spacing" textLength="198" x="972.3238" y="277.8638">Can't determine newer version</text></g><!--link CannotDetermineVersion to GatewayVersionNewer--><g id="link_CannotDetermineVersion_GatewayVersionNewer"><path d="M877.1298,386.3609 C824.7328,399.7989 769.7328,415.0489 759.3238,422.2969 C731.9208,441.3779 710.8818,473.8039 698.1568,497.3849 " fill="none" id="CannotDetermineVersion-to-GatewayVersionNewer" style="stroke:#181818;stroke-width:1.0;"/><polygon fill="#181818" points="695.7228,501.9769,703.4721,495.8984,698.0645,497.5592,696.4037,492.1516,695.7228,501.9769" style="stroke:#181818;stroke-width:1.0;"/><text fill="#000000" font-family="sans-serif" font-size="13" lengthAdjust="spacing" textLength="209" x="760.3238" y="451.8638">Datalayer is determined as truth</text></g><!--link CannotDetermineVersion to SourceVersionNewer--><g id="link_CannotDetermineVersion_SourceVersionNewer"><path d="M978.8628,392.4029 C978.6458,414.6599 978.5748,445.3279 979.3238,472.2969 C979.5438,480.2279 979.9458,488.8069 980.3848,496.7409 " fill="none" id="CannotDetermineVersion-to-SourceVersionNewer" style="stroke:#181818;stroke-width:1.0;"/><polygon fill="#181818" points="980.6938,502.1159,984.1729,492.902,980.408,497.124,976.186,493.3592,980.6938,502.1159" style="stroke:#181818;stroke-width:1.0;"/><text fill="#000000" font-family="sans-serif" font-size="13" lengthAdjust="spacing" textLength="190" x="980.3238" y="451.8638">Source is determined as truth</text></g><!--SRC=[XPHDJyCm38Rl_HKM5pua_W073dm8SHb81IwCGzPuDAXB874P1V7VSTfqwTPctDh4x-l7ZXDIL25S8Q5TAQtqAr29S5bRYveW9q48PWbNWaIMFP-ymEdfETmjth2WcQ7hB-N8tUhSrBP0E0ixO7JL0BQR_DsgAz6WpRAqL6AX989QjWIcZPjhLvgwah10tg-OKiBIcXNSCDTQD7DjB0WfUPaCkDOgdIEYvuqk8ksE0HpTt-KFn_jzV2is1bDeUxeL8fBjIjOHXOmyQ9DdtwHDglujFq7U-LmOAgCcmYvulK-w5OcEnA9IheHrgOeIFj4wnGBbGECwpi90v7C6YASkUkOZsQolOMmo7L-_Ip-vuK3NYir3uA7hJQQreow5G-yS9G_7OvoD7VOkT0SbwCVaaz41lA-t9U-g689FI4VSlKK0Jo073vUBbR-4_Iy8Y-s0ELxFigseKQQP0L6GByxYHwriCjcbqDfG_zZq_Ep06uV-6eMDhaEntAHEE5SpKJTWxy9Iu_jxODLhIGTpBRGSc8PXuDUCREs7Dc6RcCAp-8pv91jVoHJ1SO_Xlj58k6MkVNq7hVx90BRlfb_cTiFMx-QQTiVeUB6qHgjlZlpz0m00]--></g></svg>