<?xml version="1.0" encoding="us-ascii" standalone="no"?><svg xmlns="http://www.w3.org/2000/svg" xmlns:xlink="http://www.w3.org/1999/xlink" contentStyleType="text/css" height="913px" preserveAspectRatio="none" style="width:689px;height:913px;background:#FFFFFF;" version="1.1" viewBox="0 0 689 913" width="689px" zoomAndPan="magnify"><defs/><g><text fill="#000000" font-family="sans-serif" font-size="14" font-weight="bold" lengthAdjust="spacing" textLength="313" x="184.25" y="27.9951">Determining the Current State of Data</text><rect fill="none" height="493.1641" style="stroke:#000000;stroke-width:1.5;" width="662.5" x="10" y="322.2578"/><rect fill="none" height="90.2031" style="stroke:#000000;stroke-width:1.5;" width="622.5" x="30" y="346.3906"/><rect fill="none" height="90.2031" style="stroke:#000000;stroke-width:1.5;" width="622.5" x="30" y="465.3984"/><rect fill="none" height="224.0156" style="stroke:#000000;stroke-width:1.5;" width="642.5" x="20" y="584.4063"/><rect fill="none" height="90.2031" style="stroke:#000000;stroke-width:1.5;" width="622.5" x="30" y="711.2188"/><line style="stroke:#181818;stroke-width:0.5;stroke-dasharray:5.0,5.0;" x1="129" x2="129" y1="118.5938" y2="832.4219"/><line style="stroke:#181818;stroke-width:0.5;stroke-dasharray:5.0,5.0;" x1="539.5" x2="539.5" y1="118.5938" y2="832.4219"/><line style="stroke:#181818;stroke-width:0.5;stroke-dasharray:5.0,5.0;" x1="614.5" x2="614.5" y1="118.5938" y2="832.4219"/><text fill="#000000" font-family="sans-serif" font-size="14" lengthAdjust="spacing" textLength="172" x="40" y="115.292">SynchronysationService</text><ellipse cx="129" cy="50.7969" fill="#E2E2F0" rx="8" ry="8" style="stroke:#181818;stroke-width:0.5;"/><path d="M129,58.7969 L129,85.7969 M116,66.7969 L142,66.7969 M129,85.7969 L116,100.7969 M129,85.7969 L142,100.7969 " fill="none" style="stroke:#181818;stroke-width:0.5;"/><text fill="#000000" font-family="sans-serif" font-size="14" lengthAdjust="spacing" textLength="172" x="40" y="844.417">SynchronysationService</text><ellipse cx="129" cy="856.2188" fill="#E2E2F0" rx="8" ry="8" style="stroke:#181818;stroke-width:0.5;"/><path d="M129,864.2188 L129,891.2188 M116,872.2188 L142,872.2188 M129,891.2188 L116,906.2188 M129,891.2188 L142,906.2188 " fill="none" style="stroke:#181818;stroke-width:0.5;"/><text fill="#000000" font-family="sans-serif" font-size="14" lengthAdjust="spacing" textLength="69" x="502.5" y="115.292">Datalayer</text><path d="M522,66.2969 C522,56.2969 540,56.2969 540,56.2969 C540,56.2969 558,56.2969 558,66.2969 L558,92.2969 C558,102.2969 540,102.2969 540,102.2969 C540,102.2969 522,102.2969 522,92.2969 L522,66.2969 " fill="#E2E2F0" style="stroke:#181818;stroke-width:1.5;"/><path d="M522,66.2969 C522,76.2969 540,76.2969 540,76.2969 C540,76.2969 558,76.2969 558,66.2969 " fill="none" style="stroke:#181818;stroke-width:1.5;"/><text fill="#000000" font-family="sans-serif" font-size="14" lengthAdjust="spacing" textLength="69" x="502.5" y="844.417">Datalayer</text><path d="M522,857.7188 C522,847.7188 540,847.7188 540,847.7188 C540,847.7188 558,847.7188 558,857.7188 L558,883.7188 C558,893.7188 540,893.7188 540,893.7188 C540,893.7188 522,893.7188 522,883.7188 L522,857.7188 " fill="#E2E2F0" style="stroke:#181818;stroke-width:1.5;"/><path d="M522,857.7188 C522,867.7188 540,867.7188 540,867.7188 C540,867.7188 558,867.7188 558,857.7188 " fill="none" style="stroke:#181818;stroke-width:1.5;"/><text fill="#000000" font-family="sans-serif" font-size="14" lengthAdjust="spacing" textLength="49" x="587.5" y="115.292">Source</text><path d="M597,66.2969 C597,56.2969 615,56.2969 615,56.2969 C615,56.2969 633,56.2969 633,66.2969 L633,92.2969 C633,102.2969 615,102.2969 615,102.2969 C615,102.2969 597,102.2969 597,92.2969 L597,66.2969 " fill="#E2E2F0" style="stroke:#181818;stroke-width:1.5;"/><path d="M597,66.2969 C597,76.2969 615,76.2969 615,76.2969 C615,76.2969 633,76.2969 633,66.2969 " fill="none" style="stroke:#181818;stroke-width:1.5;"/><text fill="#000000" font-family="sans-serif" font-size="14" lengthAdjust="spacing" textLength="49" x="587.5" y="844.417">Source</text><path d="M597,857.7188 C597,847.7188 615,847.7188 615,847.7188 C615,847.7188 633,847.7188 633,857.7188 L633,883.7188 C633,893.7188 615,893.7188 615,893.7188 C615,893.7188 597,893.7188 597,883.7188 L597,857.7188 " fill="#E2E2F0" style="stroke:#181818;stroke-width:1.5;"/><path d="M597,857.7188 C597,867.7188 615,867.7188 615,867.7188 C615,867.7188 633,867.7188 633,857.7188 " fill="none" style="stroke:#181818;stroke-width:1.5;"/><rect fill="#EEEEEE" height="3" style="stroke:#EEEEEE;stroke-width:1.0;" width="682.5" x="0" y="149.1602"/><line style="stroke:#000000;stroke-width:1.0;" x1="0" x2="682.5" y1="149.1602" y2="149.1602"/><line style="stroke:#000000;stroke-width:1.0;" x1="0" x2="682.5" y1="152.1602" y2="152.1602"/><rect fill="#EEEEEE" height="23.1328" style="stroke:#000000;stroke-width:2.0;" width="151" x="265.75" y="138.5938"/><text fill="#000000" font-family="sans-serif" font-size="13" font-weight="bold" lengthAdjust="spacing" textLength="132" x="271.75" y="154.6606">Creating Context</text><polygon fill="#181818" points="140,188.8594,130,192.8594,140,196.8594,136,192.8594" style="stroke:#181818;stroke-width:1.0;"/><line style="stroke:#181818;stroke-width:1.0;" x1="134" x2="539" y1="192.8594" y2="192.8594"/><text fill="#000000" font-family="sans-serif" font-size="13" lengthAdjust="spacing" textLength="158" x="146" y="187.7935">Get latest internal object</text><polygon fill="#181818" points="140,217.9922,130,221.9922,140,225.9922,136,221.9922" style="stroke:#181818;stroke-width:1.0;"/><line style="stroke:#181818;stroke-width:1.0;" x1="134" x2="614" y1="221.9922" y2="221.9922"/><text fill="#000000" font-family="sans-serif" font-size="13" lengthAdjust="spacing" textLength="163" x="146" y="216.9263">Get latest external object</text><line style="stroke:#181818;stroke-width:1.0;" x1="129" x2="171" y1="251.125" y2="251.125"/><line style="stroke:#181818;stroke-width:1.0;" x1="171" x2="171" y1="251.125" y2="264.125"/><line style="stroke:#181818;stroke-width:1.0;" x1="130" x2="171" y1="264.125" y2="264.125"/><polygon fill="#181818" points="140,260.125,130,264.125,140,268.125,136,264.125" style="stroke:#181818;stroke-width:1.0;"/><text fill="#000000" font-family="sans-serif" font-size="13" lengthAdjust="spacing" textLength="397" x="136" y="246.0591">Determine changedate for external object and source of truth</text><rect fill="#EEEEEE" height="3" style="stroke:#EEEEEE;stroke-width:1.0;" width="682.5" x="0" y="292.6914"/><line style="stroke:#000000;stroke-width:1.0;" x1="0" x2="682.5" y1="292.6914" y2="292.6914"/><line style="stroke:#000000;stroke-width:1.0;" x1="0" x2="682.5" y1="295.6914" y2="295.6914"/><rect fill="#EEEEEE" height="23.1328" style="stroke:#000000;stroke-width:2.0;" width="213" x="234.75" y="282.125"/><text fill="#000000" font-family="sans-serif" font-size="13" font-weight="bold" lengthAdjust="spacing" textLength="194" x="240.75" y="298.1919">Handling Synchronysation</text><path d="M10,322.2578 L76,322.2578 L76,329.3906 L66,339.3906 L10,339.3906 L10,322.2578 " fill="#EEEEEE" style="stroke:#000000;stroke-width:1.5;"/><rect fill="none" height="493.1641" style="stroke:#000000;stroke-width:1.5;" width="662.5" x="10" y="322.2578"/><text fill="#000000" font-family="sans-serif" font-size="13" font-weight="bold" lengthAdjust="spacing" textLength="21" x="25" y="335.3247">alt</text><text fill="#000000" font-family="sans-serif" font-size="11" font-weight="bold" lengthAdjust="spacing" textLength="220" x="91" y="334.4683">[Object only exists on Datalayer]</text><path d="M30,346.3906 L96,346.3906 L96,353.5234 L86,363.5234 L30,363.5234 L30,346.3906 " fill="#EEEEEE" style="stroke:#000000;stroke-width:1.5;"/><rect fill="none" height="90.2031" style="stroke:#000000;stroke-width:1.5;" width="622.5" x="30" y="346.3906"/><text fill="#000000" font-family="sans-serif" font-size="13" font-weight="bold" lengthAdjust="spacing" textLength="21" x="45" y="359.4575">alt</text><text fill="#000000" font-family="sans-serif" font-size="11" font-weight="bold" lengthAdjust="spacing" textLength="195" x="111" y="358.6011">[Object is Deleted on source]</text><polygon fill="#181818" points="528,380.6563,538,384.6563,528,388.6563,532,384.6563" style="stroke:#181818;stroke-width:1.0;"/><line style="stroke:#181818;stroke-width:1.0;stroke-dasharray:2.0,2.0;" x1="129" x2="534" y1="384.6563" y2="384.6563"/><text fill="#000000" font-family="sans-serif" font-size="13" lengthAdjust="spacing" textLength="87" x="136" y="379.5903">Delete Object</text><line style="stroke:#000000;stroke-width:1.0;stroke-dasharray:2.0,2.0;" x1="30" x2="652.5" y1="393.6563" y2="393.6563"/><text fill="#000000" font-family="sans-serif" font-size="11" font-weight="bold" lengthAdjust="spacing" textLength="224" x="35" y="403.8667">[Object is not present on Source]</text><polygon fill="#181818" points="603,424.5938,613,428.5938,603,432.5938,607,428.5938" style="stroke:#181818;stroke-width:1.0;"/><line style="stroke:#181818;stroke-width:1.0;" x1="129" x2="609" y1="428.5938" y2="428.5938"/><text fill="#000000" font-family="sans-serif" font-size="13" lengthAdjust="spacing" textLength="143" x="136" y="423.5278">POST Object to source</text><line style="stroke:#000000;stroke-width:1.0;stroke-dasharray:2.0,2.0;" x1="10" x2="672.5" y1="444.5938" y2="444.5938"/><text fill="#000000" font-family="sans-serif" font-size="11" font-weight="bold" lengthAdjust="spacing" textLength="201" x="15" y="454.8042">[Object only exists on Source]</text><path d="M30,465.3984 L96,465.3984 L96,472.5313 L86,482.5313 L30,482.5313 L30,465.3984 " fill="#EEEEEE" style="stroke:#000000;stroke-width:1.5;"/><rect fill="none" height="90.2031" style="stroke:#000000;stroke-width:1.5;" width="622.5" x="30" y="465.3984"/><text fill="#000000" font-family="sans-serif" font-size="13" font-weight="bold" lengthAdjust="spacing" textLength="21" x="45" y="478.4653">alt</text><text fill="#000000" font-family="sans-serif" font-size="11" font-weight="bold" lengthAdjust="spacing" textLength="215" x="111" y="477.6089">[Object is Deleted on Datalayer]</text><polygon fill="#181818" points="603,499.6641,613,503.6641,603,507.6641,607,503.6641" style="stroke:#181818;stroke-width:1.0;"/><line style="stroke:#181818;stroke-width:1.0;stroke-dasharray:2.0,2.0;" x1="129" x2="609" y1="503.6641" y2="503.6641"/><text fill="#000000" font-family="sans-serif" font-size="13" lengthAdjust="spacing" textLength="87" x="136" y="498.5981">Delete Object</text><line style="stroke:#000000;stroke-width:1.0;stroke-dasharray:2.0,2.0;" x1="30" x2="652.5" y1="512.6641" y2="512.6641"/><text fill="#000000" font-family="sans-serif" font-size="11" font-weight="bold" lengthAdjust="spacing" textLength="243" x="35" y="522.8745">[Object is not present on Datalayer]</text><polygon fill="#181818" points="528,543.6016,538,547.6016,528,551.6016,532,547.6016" style="stroke:#181818;stroke-width:1.0;"/><line style="stroke:#181818;stroke-width:1.0;" x1="129" x2="534" y1="547.6016" y2="547.6016"/><text fill="#000000" font-family="sans-serif" font-size="13" lengthAdjust="spacing" textLength="163" x="136" y="542.5356">POST Object to Datalayer</text><line style="stroke:#000000;stroke-width:1.0;stroke-dasharray:2.0,2.0;" x1="10" x2="672.5" y1="563.6016" y2="563.6016"/><text fill="#000000" font-family="sans-serif" font-size="11" font-weight="bold" lengthAdjust="spacing" textLength="156" x="15" y="573.812">[Object exists on Both]</text><path d="M20,584.4063 L86,584.4063 L86,591.5391 L76,601.5391 L20,601.5391 L20,584.4063 " fill="#EEEEEE" style="stroke:#000000;stroke-width:1.5;"/><rect fill="none" height="224.0156" style="stroke:#000000;stroke-width:1.5;" width="642.5" x="20" y="584.4063"/><text fill="#000000" font-family="sans-serif" font-size="13" font-weight="bold" lengthAdjust="spacing" textLength="21" x="35" y="597.4731">alt</text><text fill="#000000" font-family="sans-serif" font-size="11" font-weight="bold" lengthAdjust="spacing" textLength="180" x="101" y="596.6167">[Gateway version is newer]</text><polygon fill="#181818" points="603,618.6719,613,622.6719,603,626.6719,607,622.6719" style="stroke:#181818;stroke-width:1.0;"/><line style="stroke:#181818;stroke-width:1.0;" x1="129" x2="609" y1="622.6719" y2="622.6719"/><text fill="#000000" font-family="sans-serif" font-size="13" lengthAdjust="spacing" textLength="248" x="136" y="617.606">Update Source with Gateway's version</text><line style="stroke:#000000;stroke-width:1.0;stroke-dasharray:2.0,2.0;" x1="20" x2="662.5" y1="631.6719" y2="631.6719"/><text fill="#000000" font-family="sans-serif" font-size="11" font-weight="bold" lengthAdjust="spacing" textLength="168" x="25" y="641.8823">[Source version is newer]</text><polygon fill="#181818" points="528,662.6094,538,666.6094,528,670.6094,532,666.6094" style="stroke:#181818;stroke-width:1.0;"/><line style="stroke:#181818;stroke-width:1.0;" x1="129" x2="534" y1="666.6094" y2="666.6094"/><text fill="#000000" font-family="sans-serif" font-size="13" lengthAdjust="spacing" textLength="248" x="136" y="661.5435">Update Gateway with Source's version</text><line style="stroke:#000000;stroke-width:1.0;stroke-dasharray:2.0,2.0;" x1="20" x2="662.5" y1="675.6094" y2="675.6094"/><text fill="#000000" font-family="sans-serif" font-size="11" font-weight="bold" lengthAdjust="spacing" textLength="160" x="25" y="685.8198">[Versions are the same]</text><line style="stroke:#000000;stroke-width:1.0;stroke-dasharray:2.0,2.0;" x1="20" x2="662.5" y1="690.4141" y2="690.4141"/><text fill="#000000" font-family="sans-serif" font-size="11" font-weight="bold" lengthAdjust="spacing" textLength="215" x="25" y="700.6245">[Can't determine newer version]</text><path d="M30,711.2188 L96,711.2188 L96,718.3516 L86,728.3516 L30,728.3516 L30,711.2188 " fill="#EEEEEE" style="stroke:#000000;stroke-width:1.5;"/><rect fill="none" height="90.2031" style="stroke:#000000;stroke-width:1.5;" width="622.5" x="30" y="711.2188"/><text fill="#000000" font-family="sans-serif" font-size="13" font-weight="bold" lengthAdjust="spacing" textLength="21" x="45" y="724.2856">alt</text><text fill="#000000" font-family="sans-serif" font-size="11" font-weight="bold" lengthAdjust="spacing" textLength="230" x="111" y="723.4292">[Datalayer is determined as truth]</text><polygon fill="#181818" points="603,745.4844,613,749.4844,603,753.4844,607,749.4844" style="stroke:#181818;stroke-width:1.0;"/><line style="stroke:#181818;stroke-width:1.0;" x1="129" x2="609" y1="749.4844" y2="749.4844"/><text fill="#000000" font-family="sans-serif" font-size="13" lengthAdjust="spacing" textLength="248" x="136" y="744.4185">Update Source with Gateway's version</text><line style="stroke:#000000;stroke-width:1.0;stroke-dasharray:2.0,2.0;" x1="30" x2="652.5" y1="758.4844" y2="758.4844"/><text fill="#000000" font-family="sans-serif" font-size="11" font-weight="bold" lengthAdjust="spacing" textLength="211" x="35" y="768.6948">[Source is determined as truth]</text><polygon fill="#181818" points="528,789.4219,538,793.4219,528,797.4219,532,793.4219" style="stroke:#181818;stroke-width:1.0;"/><line style="stroke:#181818;stroke-width:1.0;" x1="129" x2="534" y1="793.4219" y2="793.4219"/><text fill="#000000" font-family="sans-serif" font-size="13" lengthAdjust="spacing" textLength="248" x="136" y="788.356">Update Gateway with Source's version</text><!--SRC=[hLJ9JiCm4BtxAzwD4pzGgHnefN83AS3TJQR4oDYLFMt9tpFEteXkY4EaffctPXmsR0bBOWfVnXdt0Iu9Yrq8v1WPQoRu3PQQjL9Av-m3iihbPV2kYfgDTnc5lSb95JAprf7gOQih2iDVoFmko8oQpx4893XHMdZ7zCsOprKFmVt32VuPLiImOYWoZ223qnP-_KavguR-Ih1e7eD_XPmZw_eYvALs7rIacZPIpOGQsXM8ZJTfaSEEIrMNy2HFR2fX8f7AKDeodXi2xsmbh2PobD-ZQaSp9eeXAvQADDB8AU1KBCdLqynQP4kbo4OQqJhFs0QAQHU4Ehj4_T2EpF3odBrsHEmxK-IA8ub9kfR_PBGX_TbqdOTRebr3VTJR9E20dsOSuZrwUVift4hMvQ0hx2d4zCwJ7JfSqEvIlMthRMit_c2uxFZkOiVO66X7Rb8P9Mo5EhErKaCv5NflRY9qeFhx4VMNdFNwsKAxEqRH7vZQGWy7KX_3wHUF_MW17TiZ0_nRCy2ucp_ftTgHIAQTQAuV]--></g></svg>