<?xml version="1.0" encoding="us-ascii" standalone="no"?><svg xmlns="http://www.w3.org/2000/svg" xmlns:xlink="http://www.w3.org/1999/xlink" contentStyleType="text/css" height="439px" preserveAspectRatio="none" style="width:537px;height:439px;background:#FFFFFF;" version="1.1" viewBox="0 0 537 439" width="537px" zoomAndPan="magnify"><defs/><g><line style="stroke:#181818;stroke-width:0.5;stroke-dasharray:5.0,5.0;" x1="134" x2="134" y1="81.2969" y2="358.3594"/><line style="stroke:#181818;stroke-width:0.5;stroke-dasharray:5.0,5.0;" x1="261" x2="261" y1="81.2969" y2="358.3594"/><line style="stroke:#181818;stroke-width:0.5;stroke-dasharray:5.0,5.0;" x1="388" x2="388" y1="81.2969" y2="358.3594"/><text fill="#000000" font-family="sans-serif" font-size="14" lengthAdjust="spacing" textLength="69" x="97" y="77.9951">Datalayer</text><path d="M116.5,29 C116.5,19 134.5,19 134.5,19 C134.5,19 152.5,19 152.5,29 L152.5,55 C152.5,65 134.5,65 134.5,65 C134.5,65 116.5,65 116.5,55 L116.5,29 " fill="#E2E2F0" style="stroke:#181818;stroke-width:1.5;"/><path d="M116.5,29 C116.5,39 134.5,39 134.5,39 C134.5,39 152.5,39 152.5,29 " fill="none" style="stroke:#181818;stroke-width:1.5;"/><text fill="#000000" font-family="sans-serif" font-size="14" lengthAdjust="spacing" textLength="69" x="97" y="370.3545">Datalayer</text><path d="M116.5,383.6563 C116.5,373.6563 134.5,373.6563 134.5,373.6563 C134.5,373.6563 152.5,373.6563 152.5,383.6563 L152.5,409.6563 C152.5,419.6563 134.5,419.6563 134.5,419.6563 C134.5,419.6563 116.5,419.6563 116.5,409.6563 L116.5,383.6563 " fill="#E2E2F0" style="stroke:#181818;stroke-width:1.5;"/><path d="M116.5,383.6563 C116.5,393.6563 134.5,393.6563 134.5,393.6563 C134.5,393.6563 152.5,393.6563 152.5,383.6563 " fill="none" style="stroke:#181818;stroke-width:1.5;"/><text fill="#000000" font-family="sans-serif" font-size="14" lengthAdjust="spacing" textLength="115" x="201" y="77.9951">MappingService</text><ellipse cx="261.5" cy="13.5" fill="#E2E2F0" rx="8" ry="8" style="stroke:#181818;stroke-width:0.5;"/><path d="M261.5,21.5 L261.5,48.5 M248.5,29.5 L274.5,29.5 M261.5,48.5 L248.5,63.5 M261.5,48.5 L274.5,63.5 " fill="none" style="stroke:#181818;stroke-width:0.5;"/><text fill="#000000" font-family="sans-serif" font-size="14" lengthAdjust="spacing" textLength="115" x="201" y="370.3545">MappingService</text><ellipse cx="261.5" cy="382.1563" fill="#E2E2F0" rx="8" ry="8" style="stroke:#181818;stroke-width:0.5;"/><path d="M261.5,390.1563 L261.5,417.1563 M248.5,398.1563 L274.5,398.1563 M261.5,417.1563 L248.5,432.1563 M261.5,417.1563 L274.5,432.1563 " fill="none" style="stroke:#181818;stroke-width:0.5;"/><text fill="#000000" font-family="sans-serif" font-size="14" lengthAdjust="spacing" textLength="49" x="361" y="77.9951">Source</text><path d="M370.5,29 C370.5,19 388.5,19 388.5,19 C388.5,19 406.5,19 406.5,29 L406.5,55 C406.5,65 388.5,65 388.5,65 C388.5,65 370.5,65 370.5,55 L370.5,29 " fill="#E2E2F0" style="stroke:#181818;stroke-width:1.5;"/><path d="M370.5,29 C370.5,39 388.5,39 388.5,39 C388.5,39 406.5,39 406.5,29 " fill="none" style="stroke:#181818;stroke-width:1.5;"/><text fill="#000000" font-family="sans-serif" font-size="14" lengthAdjust="spacing" textLength="49" x="361" y="370.3545">Source</text><path d="M370.5,383.6563 C370.5,373.6563 388.5,373.6563 388.5,373.6563 C388.5,373.6563 406.5,373.6563 406.5,383.6563 L406.5,409.6563 C406.5,419.6563 388.5,419.6563 388.5,419.6563 C388.5,419.6563 370.5,419.6563 370.5,409.6563 L370.5,383.6563 " fill="#E2E2F0" style="stroke:#181818;stroke-width:1.5;"/><path d="M370.5,383.6563 C370.5,393.6563 388.5,393.6563 388.5,393.6563 C388.5,393.6563 406.5,393.6563 406.5,383.6563 " fill="none" style="stroke:#181818;stroke-width:1.5;"/><polygon fill="#181818" points="249.5,108.4297,259.5,112.4297,249.5,116.4297,253.5,112.4297" style="stroke:#181818;stroke-width:1.0;"/><line style="stroke:#181818;stroke-width:1.0;" x1="134.5" x2="255.5" y1="112.4297" y2="112.4297"/><text fill="#000000" font-family="sans-serif" font-size="13" lengthAdjust="spacing" textLength="103" x="141.5" y="107.3638">Outgoing Object</text><path d="M139,125.4297 L139,150.4297 L377,150.4297 L377,135.4297 L367,125.4297 L139,125.4297 " fill="#FEFFDD" style="stroke:#181818;stroke-width:0.5;"/><path d="M367,125.4297 L367,135.4297 L377,135.4297 L367,125.4297 " fill="#FEFFDD" style="stroke:#181818;stroke-width:0.5;"/><text fill="#000000" font-family="sans-serif" font-size="13" lengthAdjust="spacing" textLength="217" x="145" y="142.4966">The object as it is in the datalayer</text><polygon fill="#181818" points="376.5,172.6953,386.5,176.6953,376.5,180.6953,380.5,176.6953" style="stroke:#181818;stroke-width:1.0;"/><line style="stroke:#181818;stroke-width:1.0;" x1="261.5" x2="382.5" y1="176.6953" y2="176.6953"/><text fill="#000000" font-family="sans-serif" font-size="13" lengthAdjust="spacing" textLength="103" x="268.5" y="171.6294">Outgoing Object</text><path d="M266,189.6953 L266,214.6953 L530,214.6953 L530,199.6953 L520,189.6953 L266,189.6953 " fill="#FEFFDD" style="stroke:#181818;stroke-width:0.5;"/><path d="M520,189.6953 L520,199.6953 L530,199.6953 L520,189.6953 " fill="#FEFFDD" style="stroke:#181818;stroke-width:0.5;"/><text fill="#000000" font-family="sans-serif" font-size="13" lengthAdjust="spacing" textLength="243" x="272" y="206.7622">The object afther aplieng mappingOut</text><polygon fill="#181818" points="272.5,236.9609,262.5,240.9609,272.5,244.9609,268.5,240.9609" style="stroke:#181818;stroke-width:1.0;"/><line style="stroke:#181818;stroke-width:1.0;stroke-dasharray:2.0,2.0;" x1="266.5" x2="387.5" y1="240.9609" y2="240.9609"/><text fill="#000000" font-family="sans-serif" font-size="13" lengthAdjust="spacing" textLength="103" x="278.5" y="235.895">Incoming Object</text><path d="M163,253.9609 L163,278.9609 L383,278.9609 L383,263.9609 L373,253.9609 L163,253.9609 " fill="#FEFFDD" style="stroke:#181818;stroke-width:0.5;"/><path d="M373,253.9609 L373,263.9609 L383,263.9609 L373,253.9609 " fill="#FEFFDD" style="stroke:#181818;stroke-width:0.5;"/><text fill="#000000" font-family="sans-serif" font-size="13" lengthAdjust="spacing" textLength="199" x="169" y="271.0278">The object as it is in the source</text><polygon fill="#181818" points="145.5,301.2266,135.5,305.2266,145.5,309.2266,141.5,305.2266" style="stroke:#181818;stroke-width:1.0;"/><line style="stroke:#181818;stroke-width:1.0;stroke-dasharray:2.0,2.0;" x1="139.5" x2="260.5" y1="305.2266" y2="305.2266"/><text fill="#000000" font-family="sans-serif" font-size="13" lengthAdjust="spacing" textLength="103" x="151.5" y="300.1606">Incoming Object</text><path d="M5,318.2266 L5,343.2266 L257,343.2266 L257,328.2266 L247,318.2266 L5,318.2266 " fill="#FEFFDD" style="stroke:#181818;stroke-width:0.5;"/><path d="M247,318.2266 L247,328.2266 L257,328.2266 L247,318.2266 " fill="#FEFFDD" style="stroke:#181818;stroke-width:0.5;"/><text fill="#000000" font-family="sans-serif" font-size="13" lengthAdjust="spacing" textLength="231" x="11" y="335.2935">The object afther aplieng mappingIn</text><!--SRC=[bP0n3eCm34NtdC8Nu08CdRemL0pq0YOua0eI54obthuk4PH65LMNAB5-_llV3JBME16SvTBZWu92pJx01SVHkhQYSBUQLBFgAZy7UQjD3zaf4UTGpjnw6K1PtqYpSfu9Wcqx1c_Ug1ok7O5VD80JM0OhfmEMSRC5-dH_yMA8NvmqrHvc1140nzwIV1-YKkoKYjwGVQbLEEs75DUJMMXhfeDAKznTsaT8kvKSGlwkLBWd]--></g></svg>