<?xml version="1.0" encoding="us-ascii" standalone="no"?><svg xmlns="http://www.w3.org/2000/svg" xmlns:xlink="http://www.w3.org/1999/xlink" contentStyleType="text/css" height="337px" preserveAspectRatio="none" style="width:389px;height:337px;" version="1.1" viewBox="0 0 389 337" width="389px" zoomAndPan="magnify"><defs/><g><text fill="#888888" font-family="sans-serif" font-size="10" lengthAdjust="spacing" textLength="127" x="248" y="9.2822">Synchronization Object</text><text fill="#000000" font-family="sans-serif" font-size="14" font-weight="bold" lengthAdjust="spacing" textLength="190" x="92.5" y="35.6357">Synchronization Object</text><!--cluster Data Layer--><g id="cluster_Data Layer"><path d="M8.5,55.9375 L97.5,55.9375 A3.75,3.75 0 0 1 100,58.4375 L107,78.2344 L177.5,78.2344 A2.5,2.5 0 0 1 180,80.7344 L180,152.4375 A2.5,2.5 0 0 1 177.5,154.9375 L8.5,154.9375 A2.5,2.5 0 0 1 6,152.4375 L6,58.4375 A2.5,2.5 0 0 1 8.5,55.9375 " fill="none" style="stroke:#000000;stroke-width:1.5;"/><line style="stroke:#000000;stroke-width:1.5;" x1="6" x2="107" y1="78.2344" y2="78.2344"/><text fill="#000000" font-family="sans-serif" font-size="14" font-weight="bold" lengthAdjust="spacing" textLength="88" x="10" y="70.9326">Data Layer</text></g><!--cluster External Source--><g id="cluster_External Source"><path d="M206.5,55.9375 L334.5,55.9375 A3.75,3.75 0 0 1 337,58.4375 L344,78.2344 L379.5,78.2344 A2.5,2.5 0 0 1 382,80.7344 L382,152.4375 A2.5,2.5 0 0 1 379.5,154.9375 L206.5,154.9375 A2.5,2.5 0 0 1 204,152.4375 L204,58.4375 A2.5,2.5 0 0 1 206.5,55.9375 " fill="none" style="stroke:#000000;stroke-width:1.5;"/><line style="stroke:#000000;stroke-width:1.5;" x1="204" x2="344" y1="78.2344" y2="78.2344"/><text fill="#000000" font-family="sans-serif" font-size="14" font-weight="bold" lengthAdjust="spacing" textLength="127" x="208" y="70.9326">External Source</text></g><!--class ObjectA--><g id="elem_ObjectA"><rect codeLine="10" fill="#F1F1F1" height="48" id="ObjectA" rx="2.5" ry="2.5" style="stroke:#181818;stroke-width:0.5;" width="141" x="22.5" y="90.9375"/><ellipse cx="37.5" cy="106.9375" fill="#ADD1B2" rx="11" ry="11" style="stroke:#181818;stroke-width:1.0;"/><path d="M39.8438,102.6094 C38.9063,102.1719 38.3125,102.0313 37.4375,102.0313 C34.8125,102.0313 32.8125,104.1094 32.8125,106.8281 L32.8125,107.9531 C32.8125,110.5313 34.9219,112.4219 37.8125,112.4219 C39.0313,112.4219 40.1875,112.125 40.9375,111.5781 C41.5156,111.1719 41.8438,110.7188 41.8438,110.3281 C41.8438,109.875 41.4531,109.4844 40.9844,109.4844 C40.7656,109.4844 40.5625,109.5625 40.375,109.75 C39.9219,110.2344 39.9219,110.2344 39.7344,110.3281 C39.3125,110.5938 38.625,110.7188 37.8594,110.7188 C35.8125,110.7188 34.5156,109.625 34.5156,107.9219 L34.5156,106.8281 C34.5156,105.0469 35.7656,103.7344 37.5,103.7344 C38.0781,103.7344 38.6875,103.8906 39.1563,104.1406 C39.6406,104.4219 39.8125,104.6406 39.9063,105.0469 C39.9688,105.4531 40,105.5781 40.1406,105.7031 C40.2813,105.8438 40.5156,105.9531 40.7344,105.9531 C41,105.9531 41.2656,105.8125 41.4375,105.5938 C41.5469,105.4375 41.5781,105.25 41.5781,104.8281 L41.5781,103.4063 C41.5781,102.9688 41.5625,102.8438 41.4688,102.6875 C41.3125,102.4219 41.0313,102.2813 40.7344,102.2813 C40.4375,102.2813 40.2344,102.375 40.0156,102.6875 L39.8438,102.6094 Z " fill="#000000"/><text fill="#000000" font-family="sans-serif" font-size="14" lengthAdjust="spacing" textLength="109" x="51.5" y="111.7842">Object Internal</text><line style="stroke:#181818;stroke-width:0.5;" x1="23.5" x2="162.5" y1="122.9375" y2="122.9375"/><line style="stroke:#181818;stroke-width:0.5;" x1="23.5" x2="162.5" y1="130.9375" y2="130.9375"/></g><!--class ObjectB--><g id="elem_ObjectB"><rect codeLine="15" fill="#F1F1F1" height="48" id="ObjectB" rx="2.5" ry="2.5" style="stroke:#181818;stroke-width:0.5;" width="145" x="220.5" y="90.9375"/><ellipse cx="235.5" cy="106.9375" fill="#ADD1B2" rx="11" ry="11" style="stroke:#181818;stroke-width:1.0;"/><path d="M237.8438,102.6094 C236.9063,102.1719 236.3125,102.0313 235.4375,102.0313 C232.8125,102.0313 230.8125,104.1094 230.8125,106.8281 L230.8125,107.9531 C230.8125,110.5313 232.9219,112.4219 235.8125,112.4219 C237.0313,112.4219 238.1875,112.125 238.9375,111.5781 C239.5156,111.1719 239.8438,110.7188 239.8438,110.3281 C239.8438,109.875 239.4531,109.4844 238.9844,109.4844 C238.7656,109.4844 238.5625,109.5625 238.375,109.75 C237.9219,110.2344 237.9219,110.2344 237.7344,110.3281 C237.3125,110.5938 236.625,110.7188 235.8594,110.7188 C233.8125,110.7188 232.5156,109.625 232.5156,107.9219 L232.5156,106.8281 C232.5156,105.0469 233.7656,103.7344 235.5,103.7344 C236.0781,103.7344 236.6875,103.8906 237.1563,104.1406 C237.6406,104.4219 237.8125,104.6406 237.9063,105.0469 C237.9688,105.4531 238,105.5781 238.1406,105.7031 C238.2813,105.8438 238.5156,105.9531 238.7344,105.9531 C239,105.9531 239.2656,105.8125 239.4375,105.5938 C239.5469,105.4375 239.5781,105.25 239.5781,104.8281 L239.5781,103.4063 C239.5781,102.9688 239.5625,102.8438 239.4688,102.6875 C239.3125,102.4219 239.0313,102.2813 238.7344,102.2813 C238.4375,102.2813 238.2344,102.375 238.0156,102.6875 L237.8438,102.6094 Z " fill="#000000"/><text fill="#000000" font-family="sans-serif" font-size="14" lengthAdjust="spacing" textLength="113" x="249.5" y="111.7842">Object External</text><line style="stroke:#181818;stroke-width:0.5;" x1="221.5" x2="364.5" y1="122.9375" y2="122.9375"/><line style="stroke:#181818;stroke-width:0.5;" x1="221.5" x2="364.5" y1="130.9375" y2="130.9375"/></g><!--class SynchronizationObject--><g id="elem_SynchronizationObject"><rect codeLine="19" fill="#F1F1F1" height="113.1875" id="SynchronizationObject" rx="2.5" ry="2.5" style="stroke:#181818;stroke-width:0.5;" width="294" x="46" y="198.9375"/><ellipse cx="106.25" cy="214.9375" fill="#ADD1B2" rx="11" ry="11" style="stroke:#181818;stroke-width:1.0;"/><path d="M108.5938,210.6094 C107.6563,210.1719 107.0625,210.0313 106.1875,210.0313 C103.5625,210.0313 101.5625,212.1094 101.5625,214.8281 L101.5625,215.9531 C101.5625,218.5313 103.6719,220.4219 106.5625,220.4219 C107.7813,220.4219 108.9375,220.125 109.6875,219.5781 C110.2656,219.1719 110.5938,218.7188 110.5938,218.3281 C110.5938,217.875 110.2031,217.4844 109.7344,217.4844 C109.5156,217.4844 109.3125,217.5625 109.125,217.75 C108.6719,218.2344 108.6719,218.2344 108.4844,218.3281 C108.0625,218.5938 107.375,218.7188 106.6094,218.7188 C104.5625,218.7188 103.2656,217.625 103.2656,215.9219 L103.2656,214.8281 C103.2656,213.0469 104.5156,211.7344 106.25,211.7344 C106.8281,211.7344 107.4375,211.8906 107.9063,212.1406 C108.3906,212.4219 108.5625,212.6406 108.6563,213.0469 C108.7188,213.4531 108.75,213.5781 108.8906,213.7031 C109.0313,213.8438 109.2656,213.9531 109.4844,213.9531 C109.75,213.9531 110.0156,213.8125 110.1875,213.5938 C110.2969,213.4375 110.3281,213.25 110.3281,212.8281 L110.3281,211.4063 C110.3281,210.9688 110.3125,210.8438 110.2188,210.6875 C110.0625,210.4219 109.7813,210.2813 109.4844,210.2813 C109.1875,210.2813 108.9844,210.375 108.7656,210.6875 L108.5938,210.6094 Z " fill="#000000"/><text fill="#000000" font-family="sans-serif" font-size="14" lengthAdjust="spacing" textLength="165" x="126.75" y="219.7842">SynchronizationObject</text><line style="stroke:#181818;stroke-width:0.5;" x1="47" x2="339" y1="230.9375" y2="230.9375"/><text fill="#000000" font-family="sans-serif" font-size="14" lengthAdjust="spacing" textLength="84" x="66" y="247.9326">-- Metadata</text><rect fill="none" height="6" style="stroke:#C82930;stroke-width:1.0;" width="6" x="54" y="257.8828"/><text fill="#000000" font-family="sans-serif" font-size="14" lengthAdjust="spacing" textLength="213" x="66" y="264.2295">id: UuidInterface &#171;generated&#187;</text><rect fill="none" height="6" style="stroke:#C82930;stroke-width:1.0;" width="6" x="54" y="274.1797"/><text fill="#000000" font-family="sans-serif" font-size="14" lengthAdjust="spacing" textLength="264" x="66" y="280.5264">dateCreated: Datetime &#171;generated&#187;</text><rect fill="none" height="6" style="stroke:#C82930;stroke-width:1.0;" width="6" x="54" y="290.4766"/><text fill="#000000" font-family="sans-serif" font-size="14" lengthAdjust="spacing" textLength="268" x="66" y="296.8232">dateModified: Datetime &#171;generated&#187;</text><line style="stroke:#181818;stroke-width:0.5;" x1="47" x2="339" y1="304.125" y2="304.125"/></g><!--reverse link ObjectA to SynchronizationObject--><g id="link_ObjectA_SynchronizationObject"><path codeLine="29" d="M112.873,143.4615 C124.318,159.3125 139.12,179.8135 152.882,198.8745 " fill="none" id="ObjectA-backto-SynchronizationObject" style="stroke:#181818;stroke-width:1.0;"/><polygon fill="#181818" points="109.738,139.1195,111.7632,148.7579,112.6648,143.1733,118.2494,144.075,109.738,139.1195" style="stroke:#181818;stroke-width:1.0;"/></g><!--reverse link ObjectB to SynchronizationObject--><g id="link_ObjectB_SynchronizationObject"><path codeLine="30" d="M273.127,143.4615 C261.682,159.3125 246.88,179.8135 233.118,198.8745 " fill="none" id="ObjectB-backto-SynchronizationObject" style="stroke:#181818;stroke-width:1.0;"/><polygon fill="#181818" points="276.262,139.1195,267.7506,144.075,273.3352,143.1733,274.2368,148.7579,276.262,139.1195" style="stroke:#181818;stroke-width:1.0;"/></g><text fill="#888888" font-family="sans-serif" font-size="10" lengthAdjust="spacing" textLength="237" x="69" y="327.4072">Common Gateway | Synchronization Object</text><!--SRC=[VP3DQiCm48JlUeh1zxo0CO76BQNGa4Fe0soajQF6be8aaxe_xzwD7TDIxAAJDD-EPZRPr72EVU_qCNXdtobPxx0xlB9Egl8-SSXH-hQLrqTAVA4UdqlyaSbS-GLPnPDrPmhKua3wL0VVELFwnWUaG2wAn4umfSuYKyt8xYaHdgddaE530RgX696DXdXo4izHau7YxPCxmRxa_5Wyl8qGzhuBckTy9kINpmO3DrZTu3-jHcuOcLLaNea3i5fXoucCL1dlrkHuwQmPubUa6KLHi-CW-pNhzGW9pcNWwrCEMGCdsow2MsziPVyXfOMQ5bH8eDd4Qgg-I7m3]--></g></svg>