<?xml version="1.0" encoding="us-ascii" standalone="no"?><svg xmlns="http://www.w3.org/2000/svg" xmlns:xlink="http://www.w3.org/1999/xlink" contentStyleType="text/css" height="782px" preserveAspectRatio="none" style="width:1847px;height:782px;" version="1.1" viewBox="0 0 1847 782" width="1847px" zoomAndPan="magnify"><defs/><g><g id="title"><rect fill="#F1F1F1" height="50.2656" rx="12.5" ry="12.5" style="stroke:#181818;stroke-width:0.5;" width="246" x="7" y="7"/><line style="stroke:#181818;stroke-width:0.5;" x1="7" x2="253" y1="33.2969" y2="33.2969"/><text fill="#000000" font-family="sans-serif" font-size="14" lengthAdjust="spacing" textLength="31" x="114.5" y="24.9951">title</text><text fill="#000000" font-family="sans-serif" font-size="12" lengthAdjust="spacing" textLength="226" x="12" y="49.4355">Determining the Current State of Data</text></g><g id="footer"><rect fill="#F1F1F1" height="50.2656" rx="12.5" ry="12.5" style="stroke:#181818;stroke-width:0.5;" width="368" x="288" y="7"/><line style="stroke:#181818;stroke-width:0.5;" x1="288" x2="656" y1="33.2969" y2="33.2969"/><text fill="#000000" font-family="sans-serif" font-size="14" lengthAdjust="spacing" textLength="46" x="449" y="24.9951">footer</text><text fill="#000000" font-family="sans-serif" font-size="12" lengthAdjust="spacing" textLength="348" x="293" y="49.4355">Common Gateway | Determining the Current State of Data</text></g><g id="header"><rect fill="#F1F1F1" height="50.2656" rx="12.5" ry="12.5" style="stroke:#181818;stroke-width:0.5;" width="106" x="691" y="7"/><line style="stroke:#181818;stroke-width:0.5;" x1="691" x2="797" y1="33.2969" y2="33.2969"/><text fill="#000000" font-family="sans-serif" font-size="14" lengthAdjust="spacing" textLength="50" x="719" y="24.9951">header</text><text fill="#000000" font-family="sans-serif" font-size="12" lengthAdjust="spacing" textLength="86" x="696" y="49.4355">Compare Data</text></g><ellipse cx="842" cy="32" fill="#181818" rx="10" ry="10" style="stroke:none;stroke-width:1.0;"/><g id="ObjectNotExistsInSource"><rect fill="#F1F1F1" height="78.2031" rx="12.5" ry="12.5" style="stroke:#181818;stroke-width:0.5;" width="219" x="489.5" y="134"/><line style="stroke:#181818;stroke-width:0.5;" x1="489.5" x2="708.5" y1="160.2969" y2="160.2969"/><text fill="#000000" font-family="sans-serif" font-size="14" lengthAdjust="spacing" textLength="179" x="509.5" y="151.9951">ObjectNotExistsInSource</text><text fill="#000000" font-family="sans-serif" font-size="12" lengthAdjust="spacing" textLength="118" x="494.5" y="176.4355">decide if the object</text><text fill="#000000" font-family="sans-serif" font-size="12" lengthAdjust="spacing" textLength="199" x="494.5" y="190.4043">should be deleted from Gateway</text><text fill="#000000" font-family="sans-serif" font-size="12" lengthAdjust="spacing" textLength="118" x="494.5" y="204.373">or added to source</text></g><path d="M954,623 L1126,623 A12.5,12.5 0 0 1 1138.5,635.5 L1138.5,649.2969 L941.5,649.2969 L941.5,635.5 A12.5,12.5 0 0 1 954,623 " fill="#F1F1F1" style="stroke:#F1F1F1;stroke-width:1.0;"/><rect fill="none" height="153.5625" rx="12.5" ry="12.5" style="stroke:#181818;stroke-width:0.5;" width="197" x="941.5" y="623"/><line style="stroke:#181818;stroke-width:0.5;" x1="941.5" x2="1138.5" y1="649.2969" y2="649.2969"/><text fill="#000000" font-family="sans-serif" font-size="14" lengthAdjust="spacing" textLength="83" x="998.5" y="640.9951">ObjectSync</text><ellipse cx="1041.5" cy="670.2969" fill="#181818" rx="10" ry="10" style="stroke:none;stroke-width:1.0;"/><g id="ObjectSync.ObjectSynced"><rect fill="#F1F1F1" height="50.2656" rx="12.5" ry="12.5" style="stroke:#181818;stroke-width:0.5;" width="176" x="953.5" y="716.2969"/><line style="stroke:#181818;stroke-width:0.5;" x1="953.5" x2="1129.5" y1="742.5938" y2="742.5938"/><text fill="#000000" font-family="sans-serif" font-size="14" lengthAdjust="spacing" textLength="101" x="991" y="734.292">ObjectSynced</text><text fill="#000000" font-family="sans-serif" font-size="12" lengthAdjust="spacing" textLength="156" x="958.5" y="758.7324">Objects are synchronized</text></g><!--link *start*ObjectSync to ObjectSynced--><g id="link_*start*ObjectSync_ObjectSynced"><path d="M1041.5,680.3174 C1041.5,688.1736 1041.5,700.0125 1041.5,711.1022 " fill="none" id="*start*ObjectSync-to-ObjectSynced" style="stroke:#181818;stroke-width:1.0;"/><polygon fill="#181818" points="1041.5,716.1277,1045.5,707.1277,1041.5,711.1277,1037.5,707.1277,1041.5,716.1277" style="stroke:#181818;stroke-width:1.0;"/></g><ellipse cx="386" cy="354" fill="none" rx="10" ry="10" style="stroke:#181818;stroke-width:1.0;"/><ellipse cx="386.5" cy="354.5" fill="#181818" rx="6" ry="6" style="stroke:none;stroke-width:1.0;"/><g id="ObjectNotExistsInGateway"><rect fill="#F1F1F1" height="50.2656" rx="12.5" ry="12.5" style="stroke:#181818;stroke-width:0.5;" width="212" x="735" y="242"/><line style="stroke:#181818;stroke-width:0.5;" x1="735" x2="947" y1="268.2969" y2="268.2969"/><text fill="#000000" font-family="sans-serif" font-size="14" lengthAdjust="spacing" textLength="192" x="745" y="259.9951">ObjectNotExistsInGateway</text><text fill="#000000" font-family="sans-serif" font-size="12" lengthAdjust="spacing" textLength="160" x="740" y="284.4355">add the object to Gateway</text></g><g id="ObjectExistsBoth"><rect fill="#F1F1F1" height="50.2656" rx="12.5" ry="12.5" style="stroke:#181818;stroke-width:0.5;" width="217" x="1221.5" y="148"/><line style="stroke:#181818;stroke-width:0.5;" x1="1221.5" x2="1438.5" y1="174.2969" y2="174.2969"/><text fill="#000000" font-family="sans-serif" font-size="14" lengthAdjust="spacing" textLength="126" x="1267" y="165.9951">ObjectExistsBoth</text><text fill="#000000" font-family="sans-serif" font-size="12" lengthAdjust="spacing" textLength="197" x="1226.5" y="190.4355">establish which version is newer</text></g><g id="GatewayVersionNewer"><rect fill="#F1F1F1" height="50.2656" rx="12.5" ry="12.5" style="stroke:#181818;stroke-width:0.5;" width="251" x="914.5" y="496"/><line style="stroke:#181818;stroke-width:0.5;" x1="914.5" x2="1165.5" y1="522.2969" y2="522.2969"/><text fill="#000000" font-family="sans-serif" font-size="14" lengthAdjust="spacing" textLength="161" x="959.5" y="513.9951">GatewayVersionNewer</text><text fill="#000000" font-family="sans-serif" font-size="12" lengthAdjust="spacing" textLength="231" x="919.5" y="538.4355">update source with Gateway's version</text></g><g id="SourceVersionNewer"><rect fill="#F1F1F1" height="50.2656" rx="12.5" ry="12.5" style="stroke:#181818;stroke-width:0.5;" width="251" x="1212.5" y="496"/><line style="stroke:#181818;stroke-width:0.5;" x1="1212.5" x2="1463.5" y1="522.2969" y2="522.2969"/><text fill="#000000" font-family="sans-serif" font-size="14" lengthAdjust="spacing" textLength="148" x="1264" y="513.9951">SourceVersionNewer</text><text fill="#000000" font-family="sans-serif" font-size="12" lengthAdjust="spacing" textLength="231" x="1217.5" y="538.4355">update Gateway with source's version</text></g><g id="VersionsSame"><rect fill="#F1F1F1" height="50" rx="12.5" ry="12.5" style="stroke:#181818;stroke-width:0.5;" width="121" x="1638.5" y="416"/><line style="stroke:#181818;stroke-width:0.5;" x1="1638.5" x2="1759.5" y1="442.2969" y2="442.2969"/><text fill="#000000" font-family="sans-serif" font-size="14" lengthAdjust="spacing" textLength="101" x="1648.5" y="433.9951">VersionsSame</text></g><g id="CannotDetermineVersion"><rect fill="#F1F1F1" height="64.2344" rx="12.5" ry="12.5" style="stroke:#181818;stroke-width:0.5;" width="204" x="1233" y="322"/><line style="stroke:#181818;stroke-width:0.5;" x1="1233" x2="1437" y1="348.2969" y2="348.2969"/><text fill="#000000" font-family="sans-serif" font-size="14" lengthAdjust="spacing" textLength="184" x="1243" y="339.9951">CannotDetermineVersion</text><text fill="#000000" font-family="sans-serif" font-size="12" lengthAdjust="spacing" textLength="175" x="1238" y="364.4355">assume which party is "right"</text><text fill="#000000" font-family="sans-serif" font-size="12" lengthAdjust="spacing" textLength="181" x="1238" y="378.4043">and determine source of truth</text></g><!--link *start* to ObjectNotExistsInSource--><g id="link_*start*_ObjectNotExistsInSource"><path d="M836.14,40.138 C831.138,45.704 823.432,53.119 815,57 C770.379,77.539 628.291,49.984 596,87 C586.145,98.297 584.579,114.002 586.276,128.842 " fill="none" id="*start*-to-ObjectNotExistsInSource" style="stroke:#181818;stroke-width:1.0;"/><polygon fill="#181818" points="586.97,133.834,589.6926,124.3689,586.2815,128.8816,581.7688,125.4705,586.97,133.834" style="stroke:#181818;stroke-width:1.0;"/><text fill="#000000" font-family="sans-serif" font-size="13" lengthAdjust="spacing" textLength="201" x="597" y="100.0669">Object only exists on Datalayer</text></g><!--link ObjectNotExistsInSource to ObjectSync--><g id="link_ObjectNotExistsInSource_ObjectSync"><path d="M593.223,212.187 C586.311,271.699 581.411,387.837 633,466 C703.569,572.919 841.141,636.427 936.694,669.497 " fill="none" id="ObjectNotExistsInSource-to-ObjectSync" style="stroke:#181818;stroke-width:1.0;"/><polygon fill="#181818" points="941.496,671.145,934.2837,664.4381,936.7672,669.5206,931.6847,672.0042,941.496,671.145" style="stroke:#181818;stroke-width:1.0;"/><text fill="#000000" font-family="sans-serif" font-size="13" lengthAdjust="spacing" textLength="197" x="634" y="445.5669">Object added to source (POST)</text></g><!--link ObjectNotExistsInSource to *end*--><g id="link_ObjectNotExistsInSource_*end*"><path d="M489.383,181.945 C449.308,190.8 407.765,208.24 383,242 C361.676,271.069 373.107,316.901 380.817,339.493 " fill="none" id="ObjectNotExistsInSource-to-*end*" style="stroke:#181818;stroke-width:1.0;"/><polygon fill="#181818" points="382.581,344.458,383.3391,334.6384,380.908,339.7462,375.8002,337.3151,382.581,344.458" style="stroke:#181818;stroke-width:1.0;"/><text fill="#000000" font-family="sans-serif" font-size="13" lengthAdjust="spacing" textLength="190" x="384" y="271.5669">Object deleted from Gateway</text></g><!--link *start* to ObjectNotExistsInGateway--><g id="link_*start*_ObjectNotExistsInGateway"><path d="M841.961,42.134 C841.823,74.346 841.354,183.557 841.126,236.603 " fill="none" id="*start*-to-ObjectNotExistsInGateway" style="stroke:#181818;stroke-width:1.0;"/><polygon fill="#181818" points="841.104,241.864,845.1425,232.8812,841.1254,236.864,837.1426,232.8469,841.104,241.864" style="stroke:#181818;stroke-width:1.0;"/><text fill="#000000" font-family="sans-serif" font-size="13" lengthAdjust="spacing" textLength="181" x="842" y="100.0669">Object only exists on source</text></g><!--link ObjectNotExistsInGateway to ObjectSync--><g id="link_ObjectNotExistsInGateway_ObjectSync"><path d="M838.437,292.08 C835.207,329.979 832.047,405.463 850,466 C867.324,524.416 908.355,578.005 947.871,619.023 " fill="none" id="ObjectNotExistsInGateway-to-ObjectSync" style="stroke:#181818;stroke-width:1.0;"/><polygon fill="#181818" points="951.69,622.953,948.2885,613.7102,948.2063,619.3664,942.55,619.2841,951.69,622.953" style="stroke:#181818;stroke-width:1.0;"/><text fill="#000000" font-family="sans-serif" font-size="13" lengthAdjust="spacing" textLength="164" x="851" y="445.5669">Object added to Gateway</text></g><!--link *start* to ObjectExistsBoth--><g id="link_*start*_ObjectExistsBoth"><path d="M851.543,35.686 C879.46,43.547 963.396,67.201 1033,87 C1102.99,106.911 1182.23,129.594 1241.24,146.517 " fill="none" id="*start*-to-ObjectExistsBoth" style="stroke:#181818;stroke-width:1.0;"/><polygon fill="#181818" points="1246.17,147.93,1238.6132,141.6138,1241.3619,146.5579,1236.4178,149.3067,1246.17,147.93" style="stroke:#181818;stroke-width:1.0;"/><text fill="#000000" font-family="sans-serif" font-size="13" lengthAdjust="spacing" textLength="136" x="1090" y="100.0669">Object exists on both</text></g><!--link ObjectExistsBoth to GatewayVersionNewer--><g id="link_ObjectExistsBoth_GatewayVersionNewer"><path d="M1231.04,198.081 C1166.83,219.311 1087.78,257.26 1047,322 C1014.3,373.912 1023.77,449.608 1032.52,490.742 " fill="none" id="ObjectExistsBoth-to-GatewayVersionNewer" style="stroke:#181818;stroke-width:1.0;"/><polygon fill="#181818" points="1033.64,495.826,1035.6193,486.1781,1032.569,490.9421,1027.805,487.8917,1033.64,495.826" style="stroke:#181818;stroke-width:1.0;"/><text fill="#000000" font-family="sans-serif" font-size="13" lengthAdjust="spacing" textLength="167" x="1048" y="358.5669">Gateway version is newer</text></g><!--link GatewayVersionNewer to ObjectSync--><g id="link_GatewayVersionNewer_ObjectSync"><path d="M1040,546.24 C1040,564.791 1040,591.516 1040,617.441 " fill="none" id="GatewayVersionNewer-to-ObjectSync" style="stroke:#181818;stroke-width:1.0;"/><polygon fill="#181818" points="1040,622.613,1044,613.613,1040,617.613,1036,613.613,1040,622.613" style="stroke:#181818;stroke-width:1.0;"/><text fill="#000000" font-family="sans-serif" font-size="13" lengthAdjust="spacing" textLength="140" x="1041" y="589.0669">Source updated (PUT)</text></g><!--link ObjectExistsBoth to SourceVersionNewer--><g id="link_ObjectExistsBoth_SourceVersionNewer"><path d="M1438.5,185.49 C1473.81,194.974 1509.42,211.917 1531,242 C1545.51,262.223 1546.04,446.171 1531,466 C1521.98,477.89 1497.33,487.875 1468.54,495.897 " fill="none" id="ObjectExistsBoth-to-SourceVersionNewer" style="stroke:#181818;stroke-width:1.0;"/><polygon fill="#181818" points="1463.51,497.27,1473.2449,498.7637,1468.3342,495.9557,1471.1421,491.045,1463.51,497.27" style="stroke:#181818;stroke-width:1.0;"/><text fill="#000000" font-family="sans-serif" font-size="13" lengthAdjust="spacing" textLength="153" x="1543" y="358.5669">Source version is newer</text></g><!--link SourceVersionNewer to ObjectSync--><g id="link_SourceVersionNewer_ObjectSync"><path d="M1297.5,546.055 C1257.95,569.545 1196.13,606.265 1142.98,637.837 " fill="none" id="SourceVersionNewer-to-ObjectSync" style="stroke:#181818;stroke-width:1.0;"/><polygon fill="#181818" points="1138.51,640.487,1148.2899,639.3234,1142.8071,637.9307,1144.1998,632.448,1138.51,640.487" style="stroke:#181818;stroke-width:1.0;"/><text fill="#000000" font-family="sans-serif" font-size="13" lengthAdjust="spacing" textLength="115" x="1242" y="589.0669">Gateway updated</text></g><!--link ObjectExistsBoth to VersionsSame--><g id="link_ObjectExistsBoth_VersionsSame"><path d="M1438.8,180.111 C1532.47,192.057 1660.97,226.145 1716,322 C1731.65,349.262 1722.75,385.708 1712.92,410.846 " fill="none" id="ObjectExistsBoth-to-VersionsSame" style="stroke:#181818;stroke-width:1.0;"/><polygon fill="#181818" points="1710.95,415.717,1718.0374,408.8782,1712.8279,411.083,1710.623,405.8736,1710.95,415.717" style="stroke:#181818;stroke-width:1.0;"/><text fill="#000000" font-family="sans-serif" font-size="13" lengthAdjust="spacing" textLength="145" x="1694" y="271.5669">Versions are the same</text></g><!--link VersionsSame to ObjectSync--><g id="link_VersionsSame_ObjectSync"><path d="M1650.45,466.141 C1606.51,487.753 1539.86,519.956 1481,546 C1430.51,568.341 1417.85,574.006 1366,593 C1292.34,619.987 1208.1,647.286 1143.71,667.42 " fill="none" id="VersionsSame-to-ObjectSync" style="stroke:#181818;stroke-width:1.0;"/><polygon fill="#181818" points="1138.72,668.979,1148.5052,670.0966,1143.49,667.4799,1146.1067,662.4646,1138.72,668.979" style="stroke:#181818;stroke-width:1.0;"/><text fill="#000000" font-family="sans-serif" font-size="13" lengthAdjust="spacing" textLength="117" x="1589" y="525.5669">No action required</text></g><!--link ObjectExistsBoth to CannotDetermineVersion--><g id="link_ObjectExistsBoth_CannotDetermineVersion"><path d="M1328.09,198.433 C1326.53,222.314 1324.89,259.69 1327,292 C1327.52,300.032 1328.43,308.621 1329.45,316.743 " fill="none" id="ObjectExistsBoth-to-CannotDetermineVersion" style="stroke:#181818;stroke-width:1.0;"/><polygon fill="#181818" points="1330.1,321.731,1332.904,312.2897,1329.4542,316.7729,1324.971,313.3231,1330.1,321.731" style="stroke:#181818;stroke-width:1.0;"/><text fill="#000000" font-family="sans-serif" font-size="13" lengthAdjust="spacing" textLength="198" x="1328" y="271.5669">Can't determine newer version</text></g><!--link CannotDetermineVersion to GatewayVersionNewer--><g id="link_CannotDetermineVersion_GatewayVersionNewer"><path d="M1232.81,380.064 C1180.41,393.502 1125.41,408.752 1115,416 C1087.6,435.081 1066.56,467.507 1053.83,491.088 " fill="none" id="CannotDetermineVersion-to-GatewayVersionNewer" style="stroke:#181818;stroke-width:1.0;"/><polygon fill="#181818" points="1051.4,495.68,1059.1428,489.5932,1053.737,491.2598,1052.0704,485.854,1051.4,495.68" style="stroke:#181818;stroke-width:1.0;"/><text fill="#000000" font-family="sans-serif" font-size="13" lengthAdjust="spacing" textLength="209" x="1116" y="445.5669">Datalayer is determined as truth</text></g><!--link CannotDetermineVersion to SourceVersionNewer--><g id="link_CannotDetermineVersion_SourceVersionNewer"><path d="M1334.54,386.106 C1334.32,408.363 1334.25,439.031 1335,466 C1335.22,473.931 1335.62,482.51 1336.06,490.444 " fill="none" id="CannotDetermineVersion-to-SourceVersionNewer" style="stroke:#181818;stroke-width:1.0;"/><polygon fill="#181818" points="1336.37,495.819,1339.8485,486.6049,1336.0839,490.8272,1331.8616,487.0626,1336.37,495.819" style="stroke:#181818;stroke-width:1.0;"/><text fill="#000000" font-family="sans-serif" font-size="13" lengthAdjust="spacing" textLength="190" x="1336" y="445.5669">Source is determined as truth</text></g><!--SRC=[ZLHDazCm3BtxLsZsii3C_e4UED1bcBrqcGbmeHpSs6tC9l9YAvJmyT-H4xj9cxXmIwptdfvaMMIerYkurwHTOz3W0QZIi6wTqqXGa2GDTW_tagJOMykm5QnjqrY4TnmxoWv-_oUzqb95-hDqUZWK_iaW_ye6Th9yEZZRebhRsZeW9z47998GulEhBt1tzneUTrzrIHjBRtyOJ_u12zkwKiCgHi1YtO7kW_pTPwbbfvqGUQhIfL4QpBwtRtlS5drbsrh1JdEyvX8Lx9rjKjrRP8zIAJuc2xwNokSOhHSTbgFR2m5uyVwn-F3okavenKbWoTgLRgLBoxKhMyT8PCkJDWNlfxHPrZ_BppWVTDvOgaREQ7R7vodf6L9xahlQ-0gEbIah-AwTDqmm7b0VnrcOa4BEQEBJWDu498kb6kOYo_ZsMOMnZnTwD2mUWRS-YInpPrsAbpueAXwEZ-DiN7WVe1TM8d_kV14TZQTwU-T35LFZ2zIPxoGHZMSiHmrVo2OymlGBOJc40VDyBiGPQfPfOq6M58fp-bjhN3RPMY9QIfig-MS53jo6PnG3GuV6ShCywNtBZeO1upL5NUZlZJE7YcwsA55DHECmy2earuQXpSXcfd0rhh6GvAIhs4LKl29uRJGoQiBtgtlIwby2uFnjXcDkDvpzdfxfS8sU3ojdqVnav9-_]--></g></svg>