<?xml version="1.0" encoding="us-ascii" standalone="no"?><svg xmlns="http://www.w3.org/2000/svg" xmlns:xlink="http://www.w3.org/1999/xlink" contentStyleType="text/css" height="714px" preserveAspectRatio="none" style="width:863px;height:714px;background:#FFFFFF;" version="1.1" viewBox="0 0 863 714" width="863px" zoomAndPan="magnify"><defs/><g><text fill="#000000" font-family="sans-serif" font-size="14" font-weight="bold" lengthAdjust="spacing" textLength="66" x="394.5" y="40.6357">Workers</text><line style="stroke:#181818;stroke-width:0.5;stroke-dasharray:5.0,5.0;" x1="85" x2="85" y1="117.2344" y2="632.4922"/><line style="stroke:#181818;stroke-width:0.5;stroke-dasharray:5.0,5.0;" x1="266" x2="266" y1="117.2344" y2="632.4922"/><line style="stroke:#181818;stroke-width:0.5;stroke-dasharray:5.0,5.0;" x1="453" x2="453" y1="117.2344" y2="632.4922"/><line style="stroke:#181818;stroke-width:0.5;stroke-dasharray:5.0,5.0;" x1="542" x2="542" y1="117.2344" y2="632.4922"/><line style="stroke:#181818;stroke-width:0.5;stroke-dasharray:5.0,5.0;" x1="632" x2="632" y1="117.2344" y2="632.4922"/><line style="stroke:#181818;stroke-width:0.5;stroke-dasharray:5.0,5.0;" x1="721" x2="721" y1="117.2344" y2="632.4922"/><line style="stroke:#181818;stroke-width:0.5;stroke-dasharray:5.0,5.0;" x1="811" x2="811" y1="117.2344" y2="632.4922"/><rect fill="#E2E2F0" height="30.2969" rx="2.5" ry="2.5" style="stroke:#181818;stroke-width:0.5;" width="160" x="5" y="85.9375"/><text fill="#000000" font-family="sans-serif" font-size="14" lengthAdjust="spacing" textLength="146" x="12" y="105.9326">Gateway Installation</text><rect fill="#E2E2F0" height="30.2969" rx="2.5" ry="2.5" style="stroke:#181818;stroke-width:0.5;" width="160" x="5" y="631.4922"/><text fill="#000000" font-family="sans-serif" font-size="14" lengthAdjust="spacing" textLength="146" x="12" y="651.4873">Gateway Installation</text><text fill="#000000" font-family="sans-serif" font-size="14" lengthAdjust="spacing" textLength="176" x="175" y="113.9326">Message Bus (RabbitMQ)</text><path d="M248,64.9375 C248,54.9375 266,54.9375 266,54.9375 C266,54.9375 284,54.9375 284,64.9375 L284,90.9375 C284,100.9375 266,100.9375 266,100.9375 C266,100.9375 248,100.9375 248,90.9375 L248,64.9375 " fill="#E2E2F0" style="stroke:#181818;stroke-width:1.5;"/><path d="M248,64.9375 C248,74.9375 266,74.9375 266,74.9375 C266,74.9375 284,74.9375 284,64.9375 " fill="none" style="stroke:#181818;stroke-width:1.5;"/><text fill="#000000" font-family="sans-serif" font-size="14" lengthAdjust="spacing" textLength="176" x="175" y="644.4873">Message Bus (RabbitMQ)</text><path d="M248,657.7891 C248,647.7891 266,647.7891 266,647.7891 C266,647.7891 284,647.7891 284,657.7891 L284,683.7891 C284,693.7891 266,693.7891 266,693.7891 C266,693.7891 248,693.7891 248,683.7891 L248,657.7891 " fill="#E2E2F0" style="stroke:#181818;stroke-width:1.5;"/><path d="M248,657.7891 C248,667.7891 266,667.7891 266,667.7891 C266,667.7891 284,667.7891 284,657.7891 " fill="none" style="stroke:#181818;stroke-width:1.5;"/><rect fill="#E2E2F0" height="30.2969" rx="2.5" ry="2.5" style="stroke:#181818;stroke-width:0.5;" width="80" x="413" y="85.9375"/><text fill="#000000" font-family="sans-serif" font-size="14" lengthAdjust="spacing" textLength="66" x="420" y="105.9326">Worker 1</text><rect fill="#E2E2F0" height="30.2969" rx="2.5" ry="2.5" style="stroke:#181818;stroke-width:0.5;" width="80" x="413" y="631.4922"/><text fill="#000000" font-family="sans-serif" font-size="14" lengthAdjust="spacing" textLength="66" x="420" y="651.4873">Worker 1</text><rect fill="#E2E2F0" height="30.2969" rx="2.5" ry="2.5" style="stroke:#181818;stroke-width:0.5;" width="79" x="503" y="85.9375"/><text fill="#000000" font-family="sans-serif" font-size="14" lengthAdjust="spacing" textLength="65" x="510" y="105.9326">Worker 2</text><rect fill="#E2E2F0" height="30.2969" rx="2.5" ry="2.5" style="stroke:#181818;stroke-width:0.5;" width="79" x="503" y="631.4922"/><text fill="#000000" font-family="sans-serif" font-size="14" lengthAdjust="spacing" textLength="65" x="510" y="651.4873">Worker 2</text><rect fill="#E2E2F0" height="30.2969" rx="2.5" ry="2.5" style="stroke:#181818;stroke-width:0.5;" width="80" x="592" y="85.9375"/><text fill="#000000" font-family="sans-serif" font-size="14" lengthAdjust="spacing" textLength="66" x="599" y="105.9326">Worker 3</text><rect fill="#E2E2F0" height="30.2969" rx="2.5" ry="2.5" style="stroke:#181818;stroke-width:0.5;" width="80" x="592" y="631.4922"/><text fill="#000000" font-family="sans-serif" font-size="14" lengthAdjust="spacing" textLength="66" x="599" y="651.4873">Worker 3</text><rect fill="#E2E2F0" height="30.2969" rx="2.5" ry="2.5" style="stroke:#181818;stroke-width:0.5;" width="79" x="682" y="85.9375"/><text fill="#000000" font-family="sans-serif" font-size="14" lengthAdjust="spacing" textLength="65" x="689" y="105.9326">Worker 4</text><rect fill="#E2E2F0" height="30.2969" rx="2.5" ry="2.5" style="stroke:#181818;stroke-width:0.5;" width="79" x="682" y="631.4922"/><text fill="#000000" font-family="sans-serif" font-size="14" lengthAdjust="spacing" textLength="65" x="689" y="651.4873">Worker 4</text><rect fill="#E2E2F0" height="30.2969" rx="2.5" ry="2.5" style="stroke:#181818;stroke-width:0.5;" width="80" x="771" y="85.9375"/><text fill="#000000" font-family="sans-serif" font-size="14" lengthAdjust="spacing" textLength="66" x="778" y="105.9326">Worker 5</text><rect fill="#E2E2F0" height="30.2969" rx="2.5" ry="2.5" style="stroke:#181818;stroke-width:0.5;" width="80" x="771" y="631.4922"/><text fill="#000000" font-family="sans-serif" font-size="14" lengthAdjust="spacing" textLength="66" x="778" y="651.4873">Worker 5</text><polygon fill="#181818" points="254,144.3672,264,148.3672,254,152.3672,258,148.3672" style="stroke:#181818;stroke-width:1.0;"/><line style="stroke:#181818;stroke-width:1.0;" x1="85" x2="260" y1="148.3672" y2="148.3672"/><text fill="#000000" font-family="sans-serif" font-size="13" lengthAdjust="spacing" textLength="157" x="92" y="143.3013">Sets asynchronous work</text><polygon fill="#181818" points="277,173.5,267,177.5,277,181.5,273,177.5" style="stroke:#181818;stroke-width:1.0;"/><line style="stroke:#181818;stroke-width:1.0;" x1="271" x2="452" y1="177.5" y2="177.5"/><text fill="#000000" font-family="sans-serif" font-size="13" lengthAdjust="spacing" textLength="96" x="283" y="172.4341">Check for work</text><polygon fill="#181818" points="441,202.6328,451,206.6328,441,210.6328,445,206.6328" style="stroke:#181818;stroke-width:1.0;"/><line style="stroke:#181818;stroke-width:1.0;" x1="266" x2="447" y1="206.6328" y2="206.6328"/><text fill="#000000" font-family="sans-serif" font-size="13" lengthAdjust="spacing" textLength="163" x="273" y="201.5669">Pick up work (if available)</text><polygon fill="#181818" points="277,231.7656,267,235.7656,277,239.7656,273,235.7656" style="stroke:#181818;stroke-width:1.0;"/><line style="stroke:#181818;stroke-width:1.0;" x1="271" x2="452" y1="235.7656" y2="235.7656"/><text fill="#000000" font-family="sans-serif" font-size="13" lengthAdjust="spacing" textLength="123" x="283" y="230.6997">Provide work result</text><polygon fill="#181818" points="277,260.8984,267,264.8984,277,268.8984,273,264.8984" style="stroke:#181818;stroke-width:1.0;"/><line style="stroke:#181818;stroke-width:1.0;" x1="271" x2="541.5" y1="264.8984" y2="264.8984"/><text fill="#000000" font-family="sans-serif" font-size="13" lengthAdjust="spacing" textLength="96" x="283" y="259.8325">Check for work</text><polygon fill="#181818" points="530.5,290.0313,540.5,294.0313,530.5,298.0313,534.5,294.0313" style="stroke:#181818;stroke-width:1.0;"/><line style="stroke:#181818;stroke-width:1.0;" x1="266" x2="536.5" y1="294.0313" y2="294.0313"/><text fill="#000000" font-family="sans-serif" font-size="13" lengthAdjust="spacing" textLength="163" x="273" y="288.9653">Pick up work (if available)</text><polygon fill="#181818" points="277,319.1641,267,323.1641,277,327.1641,273,323.1641" style="stroke:#181818;stroke-width:1.0;"/><line style="stroke:#181818;stroke-width:1.0;" x1="271" x2="541.5" y1="323.1641" y2="323.1641"/><text fill="#000000" font-family="sans-serif" font-size="13" lengthAdjust="spacing" textLength="123" x="283" y="318.0981">Provide work result</text><polygon fill="#181818" points="277,348.2969,267,352.2969,277,356.2969,273,352.2969" style="stroke:#181818;stroke-width:1.0;"/><line style="stroke:#181818;stroke-width:1.0;" x1="271" x2="631" y1="352.2969" y2="352.2969"/><text fill="#000000" font-family="sans-serif" font-size="13" lengthAdjust="spacing" textLength="96" x="283" y="347.231">Check for work</text><polygon fill="#181818" points="620,377.4297,630,381.4297,620,385.4297,624,381.4297" style="stroke:#181818;stroke-width:1.0;"/><line style="stroke:#181818;stroke-width:1.0;" x1="266" x2="626" y1="381.4297" y2="381.4297"/><text fill="#000000" font-family="sans-serif" font-size="13" lengthAdjust="spacing" textLength="163" x="273" y="376.3638">Pick up work (if available)</text><polygon fill="#181818" points="277,406.5625,267,410.5625,277,414.5625,273,410.5625" style="stroke:#181818;stroke-width:1.0;"/><line style="stroke:#181818;stroke-width:1.0;" x1="271" x2="631" y1="410.5625" y2="410.5625"/><text fill="#000000" font-family="sans-serif" font-size="13" lengthAdjust="spacing" textLength="123" x="283" y="405.4966">Provide work result</text><polygon fill="#181818" points="277,435.6953,267,439.6953,277,443.6953,273,439.6953" style="stroke:#181818;stroke-width:1.0;"/><line style="stroke:#181818;stroke-width:1.0;" x1="271" x2="720.5" y1="439.6953" y2="439.6953"/><text fill="#000000" font-family="sans-serif" font-size="13" lengthAdjust="spacing" textLength="96" x="283" y="434.6294">Check for work</text><polygon fill="#181818" points="709.5,464.8281,719.5,468.8281,709.5,472.8281,713.5,468.8281" style="stroke:#181818;stroke-width:1.0;"/><line style="stroke:#181818;stroke-width:1.0;" x1="266" x2="715.5" y1="468.8281" y2="468.8281"/><text fill="#000000" font-family="sans-serif" font-size="13" lengthAdjust="spacing" textLength="163" x="273" y="463.7622">Pick up work (if available)</text><polygon fill="#181818" points="277,493.9609,267,497.9609,277,501.9609,273,497.9609" style="stroke:#181818;stroke-width:1.0;"/><line style="stroke:#181818;stroke-width:1.0;" x1="271" x2="720.5" y1="497.9609" y2="497.9609"/><text fill="#000000" font-family="sans-serif" font-size="13" lengthAdjust="spacing" textLength="123" x="283" y="492.895">Provide work result</text><polygon fill="#181818" points="277,523.0938,267,527.0938,277,531.0938,273,527.0938" style="stroke:#181818;stroke-width:1.0;"/><line style="stroke:#181818;stroke-width:1.0;" x1="271" x2="810" y1="527.0938" y2="527.0938"/><text fill="#000000" font-family="sans-serif" font-size="13" lengthAdjust="spacing" textLength="96" x="283" y="522.0278">Check for work</text><polygon fill="#181818" points="799,552.2266,809,556.2266,799,560.2266,803,556.2266" style="stroke:#181818;stroke-width:1.0;"/><line style="stroke:#181818;stroke-width:1.0;" x1="266" x2="805" y1="556.2266" y2="556.2266"/><text fill="#000000" font-family="sans-serif" font-size="13" lengthAdjust="spacing" textLength="163" x="273" y="551.1606">Pick up work (if available)</text><polygon fill="#181818" points="277,581.3594,267,585.3594,277,589.3594,273,585.3594" style="stroke:#181818;stroke-width:1.0;"/><line style="stroke:#181818;stroke-width:1.0;" x1="271" x2="810" y1="585.3594" y2="585.3594"/><text fill="#000000" font-family="sans-serif" font-size="13" lengthAdjust="spacing" textLength="123" x="283" y="580.2935">Provide work result</text><polygon fill="#181818" points="96,610.4922,86,614.4922,96,618.4922,92,614.4922" style="stroke:#181818;stroke-width:1.0;"/><line style="stroke:#181818;stroke-width:1.0;" x1="90" x2="265" y1="614.4922" y2="614.4922"/><text fill="#000000" font-family="sans-serif" font-size="13" lengthAdjust="spacing" textLength="102" x="102" y="609.4263">Get work status</text><text fill="#888888" font-family="sans-serif" font-size="10" lengthAdjust="spacing" textLength="43" x="812" y="14.2822">Workers</text><text fill="#888888" font-family="sans-serif" font-size="10" lengthAdjust="spacing" textLength="153" x="351" y="704.0713">Common Gateway | Workers</text><!--SRC=[XP8zRuCm441tViM9AHawyBKmT0W3Oa1Asw7p0KUnujZ8FX95we-l4o1I95IFllTqpvRCWYNbyAtDYOmDUgsPJ0w5Ff-rWXAPhdY3twSm47PtOJq78neMhHXHCOIhNodBA2Moq2e4j51MGOUC3Lg2i2PhyOVWC5dOVMBJ2Au_zW-lFhmkd3CGpKkAQ9F62uqtQRBGP9Ec2qqtQRRGB0ZA2jxUtVqWXozYw-OtrGv6A-rUSNMwKuhewHG3jIVejPcPcpbo5t8u2aUcyG5W9th02mg9ZQJzougZqHVHqUmPifDansDV8lOcOayYyIKIRoBn959V8lKcKayYyoKoRoBxDx4kgXmlYMVc_ZrFzWy0]--></g></svg>